<svg width="55" height="56" viewBox="0 0 55 56" fill="none" xmlns="http://www.w3.org/2000/svg">
<g clip-path="url(#clip0_1_393)">
<g clip-path="url(#clip1_1_393)">
<g clip-path="url(#clip2_1_393)">
<path d="M27.1592 0.719971C21.7867 0.72112 16.5352 2.3153 12.0687 5.30092C7.6022 8.28655 4.1213 12.5295 2.06613 17.4934C0.0109708 22.4573 -0.526158 27.919 0.522666 33.1882C1.57149 38.4573 4.15916 43.2971 7.95849 47.0956C11.7578 50.8941 16.5982 53.4807 21.8675 54.5284C27.1368 55.5761 32.5985 55.0378 37.5619 52.9816C42.5253 50.9254 46.7676 47.4436 49.7523 42.9764C52.7369 38.5093 54.33 33.2575 54.33 27.885C54.3284 20.6798 51.4651 13.7703 46.3698 8.67606C41.2744 3.5818 34.3643 0.719971 27.1592 0.719971ZM27.1592 53.6086C22.0738 53.6086 17.1027 52.1006 12.8743 49.2753C8.64603 46.4501 5.35045 42.4344 3.40437 37.7362C1.45829 33.0379 0.949107 27.8681 1.94121 22.8804C2.93331 17.8928 5.38215 13.3113 8.97804 9.71545C12.5739 6.11956 17.1554 3.67073 22.143 2.67863C27.1307 1.68652 32.3005 2.19571 36.9987 4.14179C41.697 6.08787 45.7127 9.38344 48.5379 13.6118C51.3632 17.8401 52.8712 22.8112 52.8712 27.8966C52.8635 34.7135 50.1521 41.249 45.3318 46.0692C40.5116 50.8895 33.9761 53.6009 27.1592 53.6086Z" fill="#1EAE87"/>
<path d="M40.329 18.365H13.9719V12.7855C13.9719 12.5682 14.0582 12.3598 14.2119 12.2061C14.3656 12.0524 14.574 11.9661 14.7914 11.9661H39.4921C39.7095 11.9661 39.9179 12.0524 40.0716 12.2061C40.2253 12.3598 40.3116 12.5682 40.3116 12.7855V18.365H40.329ZM14.5531 17.7838H39.7478V12.7855C39.7478 12.7535 39.7415 12.7218 39.7293 12.6921C39.717 12.6625 39.699 12.6356 39.6764 12.6129C39.6537 12.5903 39.6268 12.5723 39.5972 12.56C39.5675 12.5478 39.5358 12.5414 39.5037 12.5414H14.8088C14.7768 12.5414 14.745 12.5478 14.7154 12.56C14.6858 12.5723 14.6589 12.5903 14.6362 12.6129C14.6135 12.6356 14.5956 12.6625 14.5833 12.6921C14.571 12.7218 14.5647 12.7535 14.5647 12.7855V17.7896L14.5531 17.7838Z" fill="#00B288"/>
<path d="M40.5092 11.7918C40.3784 11.66 40.2227 11.5555 40.051 11.4847C39.8793 11.4138 39.6953 11.378 39.5096 11.3792H14.8088C14.6229 11.3784 14.4386 11.4144 14.2666 11.485C14.0945 11.5556 13.9382 11.6596 13.8064 11.7908C13.6747 11.922 13.5701 12.0779 13.4988 12.2497C13.4274 12.4214 13.3907 12.6055 13.3907 12.7915V43.6819C13.3907 43.8674 13.4272 44.051 13.4982 44.2224C13.5692 44.3937 13.6732 44.5494 13.8044 44.6806C13.9355 44.8117 14.0912 44.9158 14.2625 44.9867C14.4339 45.0577 14.6175 45.0942 14.803 45.0942H39.5037C39.8773 45.0927 40.235 44.9432 40.4986 44.6785C40.7622 44.4138 40.9102 44.0555 40.9102 43.6819V12.7915C40.9136 12.6065 40.8799 12.4227 40.811 12.251C40.7421 12.0793 40.6395 11.9232 40.5092 11.7918ZM39.7537 18.9579V43.6819C39.7537 43.7467 39.7279 43.8088 39.6822 43.8545C39.6364 43.9003 39.5743 43.926 39.5096 43.926H14.8088C14.7768 43.926 14.745 43.9197 14.7154 43.9075C14.6858 43.8952 14.6589 43.8772 14.6362 43.8545C14.6135 43.8319 14.5956 43.805 14.5833 43.7753C14.571 43.7457 14.5647 43.714 14.5647 43.6819V18.9579H39.7537ZM39.7537 12.7857V17.7897H14.5531V12.7915C14.5531 12.7267 14.5788 12.6647 14.6246 12.6189C14.6704 12.5731 14.7325 12.5474 14.7972 12.5474H39.5444C39.6072 12.5489 39.6669 12.5744 39.7113 12.6188C39.7557 12.6632 39.7812 12.7229 39.7827 12.7857H39.7537Z" fill="#00B288"/>
<path d="M26.9209 23.0959C25.3243 23.0959 23.7635 23.5694 22.4359 24.4565C21.1083 25.3435 20.0736 26.6043 19.4626 28.0794C18.8516 29.5545 18.6917 31.1777 19.0032 32.7437C19.3147 34.3096 20.0836 35.748 21.2126 36.877C22.3416 38.006 23.78 38.7749 25.346 39.0864C26.9119 39.3979 28.5351 39.238 30.0102 38.627C31.4853 38.016 32.7461 36.9813 33.6332 35.6537C34.5202 34.3262 34.9937 32.7654 34.9937 31.1687C34.9937 30.1086 34.7849 29.0588 34.3792 28.0794C33.9735 27.1 33.3788 26.21 32.6292 25.4604C31.8796 24.7108 30.9897 24.1161 30.0102 23.7105C29.0308 23.3048 27.981 23.0959 26.9209 23.0959ZM26.9209 24.3339C28.5047 24.3373 30.0384 24.8893 31.2612 25.8959C32.4839 26.9025 33.3203 28.3016 33.6279 29.8552C30.2453 27.7223 27.6706 29.4949 25.5493 30.9421C24.9702 31.3678 24.3646 31.756 23.736 32.1045C23.1073 32.4417 22.3708 32.5167 21.6871 32.3131C21.0033 32.1095 20.4278 31.6438 20.0861 31.0176C20.121 29.2276 20.8564 27.5227 22.1342 26.2688C23.4121 25.0148 25.1306 24.3118 26.9209 24.3106V24.3339ZM26.9209 38.0152C25.4282 38.0048 23.9799 37.5068 22.7964 36.5972C21.6129 35.6875 20.7591 34.416 20.365 32.9762C20.9746 33.4116 21.7025 33.6509 22.4515 33.6621C23.105 33.6539 23.747 33.4884 24.323 33.1797C25.0011 32.8137 25.6535 32.4021 26.2758 31.9475C28.5017 30.3609 30.6522 28.9195 33.7325 31.4303C33.6621 33.1912 32.9142 34.8569 31.6449 36.0795C30.3757 37.3022 28.6832 37.9874 26.9209 37.9919V38.0152Z" fill="#00B288"/>
<path d="M32.3841 16.2436C33.0229 16.2436 33.5407 15.7258 33.5407 15.087C33.5407 14.4482 33.0229 13.9304 32.3841 13.9304C31.7454 13.9304 31.2275 14.4482 31.2275 15.087C31.2275 15.7258 31.7454 16.2436 32.3841 16.2436Z" fill="#00B288"/>
<path d="M36.1793 16.2436C36.8181 16.2436 37.3359 15.7258 37.3359 15.087C37.3359 14.4482 36.8181 13.9304 36.1793 13.9304C35.5406 13.9304 35.0227 14.4482 35.0227 15.087C35.0227 15.7258 35.5406 16.2436 36.1793 16.2436Z" fill="#00B288"/>
<path d="M21.7192 14.1165H16.5815V16.0518H21.7192V14.1165Z" fill="#00B288"/>
</g>
</g>
</g>
<defs>
<clipPath id="clip0_1_393">
<rect width="54.33" height="54.33" fill="white" transform="translate(0 0.719971)"/>
</clipPath>
<clipPath id="clip1_1_393">
<rect width="54.33" height="54.33" fill="white" transform="translate(0 0.719971)"/>
</clipPath>
<clipPath id="clip2_1_393">
<rect width="54.33" height="54.33" fill="white" transform="translate(0 0.719971)"/>
</clipPath>
</defs>
</svg>
