<svg width="55" height="56" viewBox="0 0 55 56" fill="none" xmlns="http://www.w3.org/2000/svg">
<g clip-path="url(#clip0_1_382)">
<g clip-path="url(#clip1_1_382)">
<g clip-path="url(#clip2_1_382)">
<path d="M27.165 0.719971C21.7923 0.719971 16.5402 2.31317 12.0729 5.2981C7.60566 8.28303 4.12386 12.5256 2.0678 17.4894C0.0117474 22.4531 -0.52621 27.9151 0.521957 33.1846C1.57012 38.4541 4.15734 43.2944 7.95643 47.0935C11.7555 50.8926 16.5959 53.4798 21.8654 54.528C27.1349 55.5762 32.5968 55.0382 37.5606 52.9822C42.5243 50.9261 46.7669 47.4443 49.7519 42.977C52.7368 38.5098 54.33 33.2577 54.33 27.885C54.3208 20.6832 51.4558 13.779 46.3634 8.68661C41.2709 3.59418 34.3668 0.729198 27.165 0.719971ZM27.165 53.6086C22.0796 53.6086 17.1085 52.1006 12.8802 49.2753C8.65184 46.4501 5.35627 42.4344 3.41018 37.7362C1.4641 33.0379 0.954919 27.8681 1.94702 22.8804C2.93913 17.8928 5.38796 13.3113 8.98385 9.71545C12.5797 6.11956 17.1612 3.67073 22.1488 2.67863C27.1365 1.68652 32.3063 2.19571 37.0046 4.14179C41.7028 6.08787 45.7185 9.38344 48.5437 13.6118C51.369 17.8401 52.877 22.8112 52.877 27.8966C52.8693 34.7135 50.1579 41.249 45.3376 46.0692C40.5174 50.8895 33.9819 53.6009 27.165 53.6086Z" fill="#1EAE87"/>
<path d="M46.9605 31.9067V31.8602H40.1024C39.9467 31.1909 39.7527 30.5311 39.5212 29.8842C39.3759 29.4773 39.219 29.0647 39.062 28.652C38.5843 27.5365 38.2503 26.3647 38.0682 25.1649C37.9398 23.8513 38.1499 22.5267 38.6784 21.3174C39.2838 19.8168 40.0434 18.3833 40.9451 17.0398L41.2357 20.0039C41.2544 20.1868 41.3401 20.3563 41.4764 20.4798C41.6127 20.6032 41.7899 20.6717 41.9738 20.6722H42.0436C42.2391 20.6531 42.419 20.5574 42.5443 20.4061C42.6695 20.2547 42.7297 20.06 42.7119 19.8644L42.2179 14.8487C42.2114 14.7923 42.1957 14.7373 42.1714 14.6859V14.5697C42.1192 14.4797 42.0477 14.4023 41.9622 14.343C41.846 14.263 41.7081 14.2204 41.567 14.221H41.5379C41.4536 14.2036 41.3666 14.2036 41.2822 14.221L36.5106 15.7844C36.416 15.8054 36.3264 15.8448 36.247 15.9004C36.1676 15.956 36.0999 16.0267 36.0478 16.1085C35.9957 16.1903 35.9603 16.2815 35.9434 16.3769C35.9266 16.4724 35.9288 16.5703 35.9497 16.6649C35.9707 16.7595 36.0102 16.8491 36.0658 16.9285C36.1214 17.0079 36.1921 17.0756 36.2738 17.1277C36.3556 17.1798 36.4468 17.2152 36.5423 17.2321C36.6378 17.2489 36.7356 17.2467 36.8303 17.2258H36.9116L39.6549 16.3249C38.7013 17.7459 37.9043 19.2658 37.2778 20.8582C36.6529 22.2805 36.4047 23.8397 36.5571 25.3857C36.7612 26.6991 37.1343 27.9807 37.6672 29.1983L37.7369 29.3901C37.8648 29.7214 37.9868 30.0527 38.1031 30.3898C38.2716 30.8664 38.4111 31.3604 38.5332 31.8544H29.1585C28.9958 31.1977 28.7923 30.5409 28.5773 29.9074C28.4378 29.5006 28.2809 29.0879 28.1182 28.6753C27.6404 27.5597 27.3064 26.3879 27.1243 25.1881C26.9887 23.8719 27.2012 22.5431 27.7404 21.3348C28.5726 19.0823 29.5173 16.8729 30.5708 14.715L30.8265 17.3478C30.8426 17.5307 30.9267 17.701 31.0624 17.8248C31.198 17.9486 31.3752 18.0169 31.5588 18.0162H31.6286C31.7242 18.0077 31.8171 17.9802 31.902 17.9353C31.9868 17.8903 32.0618 17.8289 32.1226 17.7546C32.1853 17.6792 32.2325 17.5921 32.2614 17.4983C32.2904 17.4046 32.3005 17.306 32.2911 17.2083L31.8146 12.2217C31.8076 12.1635 31.792 12.1066 31.7681 12.0531V11.9485C31.7153 11.857 31.6416 11.7794 31.553 11.7218C31.4541 11.6568 31.3399 11.6188 31.2217 11.6114C31.1354 11.594 31.0465 11.594 30.9602 11.6114L26.2177 13.1806C26.0426 13.2513 25.9013 13.3864 25.8228 13.5581C25.7443 13.7298 25.7345 13.9251 25.7956 14.1037C25.8566 14.2824 25.9838 14.4308 26.1509 14.5186C26.3181 14.6063 26.5125 14.6267 26.6942 14.5755L29.6002 13.6107C28.4192 15.9647 27.3695 18.3823 26.4559 20.8524C25.8395 22.283 25.6014 23.8481 25.7643 25.3973C25.9576 26.7154 26.3209 28.0028 26.8453 29.2274L26.9558 29.5122C27.072 29.8086 27.1824 30.0934 27.2871 30.413C27.444 30.8664 27.5776 31.3371 27.7113 31.8777H18.1332C17.9776 31.2026 17.7836 30.5371 17.5521 29.8842C17.4126 29.4715 17.2615 29.0589 17.0929 28.6462C16.6116 27.5487 16.2718 26.3945 16.0816 25.2114C15.9475 23.8957 16.1578 22.5678 16.6919 21.358C17.2926 19.8554 18.0525 18.4213 18.9585 17.0805L19.2491 20.0445C19.2665 20.227 19.351 20.3965 19.4864 20.52C19.6217 20.6435 19.7982 20.7123 19.9814 20.7129H20.0628C20.1594 20.7028 20.2531 20.6737 20.3384 20.6272C20.4238 20.5808 20.4991 20.518 20.5601 20.4424C20.6211 20.3668 20.6666 20.2799 20.694 20.1867C20.7213 20.0935 20.73 19.9958 20.7196 19.8992L20.1907 14.8603C20.1938 14.8364 20.1919 14.8121 20.1848 14.789C20.1778 14.766 20.1659 14.7447 20.15 14.7266V14.6685L20.1209 14.6162C20.0647 14.529 19.9916 14.4539 19.9059 14.3953C19.809 14.3305 19.6967 14.2925 19.5804 14.2849H19.5397C19.4607 14.2733 19.3805 14.2733 19.3014 14.2849L14.5473 15.8309C14.453 15.8542 14.3643 15.8958 14.2861 15.9534C14.2079 16.0109 14.1418 16.0834 14.0917 16.1665C14.0415 16.2496 14.0081 16.3418 13.9936 16.4378C13.979 16.5337 13.9835 16.6317 14.0068 16.7259C14.0301 16.8202 14.0717 16.9089 14.1292 16.9871C14.1868 17.0653 14.2592 17.1314 14.3423 17.1816C14.4255 17.2317 14.5176 17.2651 14.6136 17.2796C14.7096 17.2942 14.8076 17.2897 14.9018 17.2664L14.9948 17.2374L17.6857 16.354C16.7333 17.7776 15.9364 19.2994 15.3086 20.8931C14.6905 22.3253 14.4504 23.8922 14.6112 25.4438C14.8094 26.7615 15.1746 28.0485 15.698 29.2739C15.8492 29.6633 15.9945 30.0585 16.1339 30.4363C16.2734 30.8141 16.4478 31.4069 16.5698 31.9009H7.44509C7.24933 31.9009 7.06159 31.9787 6.92317 32.1171C6.78474 32.2555 6.70698 32.4433 6.70698 32.639C6.70698 32.8348 6.78474 33.0225 6.92317 33.1609C7.06159 33.2994 7.24933 33.3771 7.44509 33.3771H46.7977C46.9723 33.3679 47.1379 33.2971 47.2651 33.1772C47.3924 33.0574 47.4729 32.8962 47.4924 32.7225C47.512 32.5488 47.4692 32.3738 47.3718 32.2287C47.2744 32.0835 47.1286 31.9777 46.9605 31.93V31.9067Z" fill="#00B288"/>
<path d="M17.0115 36.2426C16.8434 38.1744 16.267 40.0484 15.3203 41.7407C15.2742 41.8262 15.2457 41.9202 15.2366 42.0169C15.2275 42.1137 15.2379 42.2113 15.2671 42.3039C15.2964 42.3966 15.3439 42.4825 15.407 42.5564C15.47 42.6304 15.5473 42.6909 15.6341 42.7345C15.741 42.7937 15.8607 42.8256 15.9828 42.8275C16.1143 42.8247 16.2429 42.7879 16.3559 42.7207C16.469 42.6535 16.5627 42.5581 16.628 42.4439C17.6862 40.5441 18.3244 38.4393 18.4994 36.2716V36.0508H16.9883L17.0115 36.2426Z" fill="#00B288"/>
<path d="M28.0775 36.2483C27.9147 38.3638 26.6245 43.5307 25.7527 45.1871C25.6704 45.3623 25.6602 45.5628 25.7244 45.7454C25.7885 45.928 25.9218 46.0782 26.0956 46.1635C26.1909 46.2052 26.2938 46.227 26.3978 46.2274C26.5248 46.2268 26.6495 46.1939 26.7603 46.1319C26.8711 46.0699 26.9644 45.9808 27.0313 45.8729C28.0775 43.9259 29.4084 38.5673 29.5595 36.2599V36.0391H28.1065L28.0775 36.2483Z" fill="#00B288"/>
<path d="M39.0097 36.2425C38.8241 38.1779 38.2298 40.0519 37.2661 41.7406C37.1854 41.9186 37.1786 42.1214 37.2473 42.3045C37.3159 42.4876 37.4544 42.6359 37.6323 42.717C37.7965 42.7894 37.9813 42.8004 38.153 42.7482C38.3247 42.6959 38.472 42.5838 38.568 42.4322C39.6389 40.5358 40.2872 38.4303 40.4685 36.2599V36.0391H38.9923L39.0097 36.2425Z" fill="#00B288"/>
</g>
</g>
</g>
<defs>
<clipPath id="clip0_1_382">
<rect width="54.33" height="54.33" fill="white" transform="translate(0 0.719971)"/>
</clipPath>
<clipPath id="clip1_1_382">
<rect width="54.33" height="54.33" fill="white" transform="translate(0 0.719971)"/>
</clipPath>
<clipPath id="clip2_1_382">
<rect width="54.33" height="54.33" fill="white" transform="translate(0 0.719971)"/>
</clipPath>
</defs>
</svg>
