<svg width="55" height="56" viewBox="0 0 55 56" fill="none" xmlns="http://www.w3.org/2000/svg">
<g clip-path="url(#clip0_1_418)">
<g clip-path="url(#clip1_1_418)">
<g clip-path="url(#clip2_1_418)">
<path d="M27.165 0.719971C21.7925 0.719971 16.5407 2.31302 12.0735 5.2977C7.60639 8.28237 4.12458 12.5246 2.06836 17.488C0.0121325 22.4514 -0.526164 27.9131 0.521532 33.1825C1.56923 38.4518 4.15587 43.2921 7.95438 47.0915C11.7529 50.8908 16.5927 53.4785 21.8618 54.5273C27.1309 55.5761 32.5927 55.039 37.5566 52.9838C42.5204 50.9287 46.7634 47.4478 49.749 42.9813C52.7347 38.5148 54.3288 33.2633 54.33 27.8908C54.3307 24.3229 53.6287 20.7899 52.2638 17.4934C50.899 14.1969 48.8982 11.2016 46.3756 8.67847C43.853 6.15535 40.8581 4.15387 37.5619 2.78834C34.2657 1.42281 30.7328 0.719971 27.165 0.719971ZM27.165 53.6086C22.0801 53.6075 17.1098 52.0986 12.8823 49.2729C8.65492 46.4472 5.36025 42.4315 3.41488 37.7335C1.46952 33.0355 0.96083 27.8661 1.95312 22.879C2.94541 17.8919 5.39412 13.311 8.98966 9.71545C12.5852 6.11991 17.1661 3.6712 22.1532 2.67891C27.1403 1.68662 32.3097 2.19532 37.0077 4.14068C41.7057 6.08604 45.7214 9.38071 48.5471 13.6081C51.3728 17.8356 52.8817 22.8059 52.8828 27.8908C52.8836 31.2683 52.2189 34.6129 50.9267 37.7335C49.6345 40.854 47.7402 43.6895 45.3519 46.0777C42.9637 48.466 40.1283 50.3603 37.0077 51.6525C33.8871 52.9447 30.5425 53.6094 27.165 53.6086Z" fill="#1EAE87"/>
<path d="M44.3451 25.1302C43.7863 24.5685 43.0678 24.193 42.2877 24.055C41.8958 22.4618 41.2607 20.9387 40.4046 19.5391C38.9396 17.0965 36.7724 15.1522 34.1858 13.9596C33.014 13.4068 31.7161 13.1761 30.4255 13.2913C29.1042 13.4228 27.8351 13.8758 26.7291 14.6106C25.5152 15.413 24.5889 16.5817 24.0847 17.9466C23.8482 18.5889 23.7744 19.2798 23.8696 19.9576C23.9851 20.6531 24.3639 21.2775 24.9274 21.7011C25.6847 22.2003 26.5858 22.4353 27.4905 22.3695C28.249 22.3768 28.982 22.0965 29.5421 21.5849C29.9839 21.1503 30.2907 20.5973 30.4255 19.9924C30.5475 19.4431 30.5475 18.8737 30.4255 18.3244C30.3735 18.0001 30.2534 17.6906 30.0731 17.4161C29.8927 17.1416 29.6563 16.9084 29.3793 16.7319C29.2955 16.6741 29.2003 16.6348 29.1001 16.6168C28.9998 16.5988 28.8969 16.6023 28.7982 16.6273C28.6996 16.6493 28.6064 16.6905 28.5238 16.7486C28.4412 16.8067 28.3709 16.8805 28.3169 16.9658C28.2629 17.0511 28.2263 17.1462 28.2092 17.2457C28.192 17.3452 28.1947 17.4471 28.217 17.5456C28.2638 17.7419 28.3846 17.9126 28.5541 18.0222C28.7413 18.1841 28.8666 18.4059 28.9086 18.6499C28.9842 18.9749 28.9842 19.3129 28.9086 19.6379C28.8521 19.9456 28.7042 20.2291 28.4843 20.4516C28.3442 20.5815 28.1794 20.6819 27.9996 20.7468C27.8199 20.8117 27.629 20.8398 27.4382 20.8293C26.8701 20.8879 26.2993 20.7483 25.8224 20.4341C25.6958 20.3445 25.5884 20.2305 25.5066 20.0987C25.4247 19.967 25.3701 19.8202 25.3459 19.667C25.3127 19.2441 25.3888 18.8198 25.5667 18.4348C25.9618 17.3896 26.6754 16.4951 27.6067 15.8776C28.4921 15.2845 29.5103 14.9192 30.5708 14.814C31.5916 14.7207 32.6187 14.9013 33.5465 15.3371C35.8558 16.4142 37.7907 18.1567 39.1027 20.3411C40.4858 22.5965 41.2124 25.1929 41.2008 27.8385C41.2025 30.5485 40.4206 33.2011 38.9494 35.4769C37.4782 37.7527 35.3803 39.5545 32.9085 40.6654C30.4368 41.7763 27.6965 42.1489 25.0179 41.7382C22.3393 41.3276 19.8365 40.1512 17.8111 38.3508C15.7857 36.5504 14.324 34.2028 13.6021 31.5908C12.8802 28.9788 12.9289 26.2138 13.7424 23.6288C14.5558 21.0439 16.0993 18.7492 18.1869 17.0213C20.2745 15.2934 22.8172 14.2059 25.5086 13.8899C25.7068 13.857 25.8844 13.7481 26.0038 13.5865C26.1231 13.4248 26.1748 13.223 26.1479 13.0239C26.1205 12.8278 26.0205 12.6491 25.8677 12.5232C25.7149 12.3972 25.5204 12.3333 25.3226 12.3439C21.5245 12.7851 18.0229 14.6125 15.4888 17.4759C13.8039 19.3359 12.6059 21.5842 12.0017 24.0201C11.2069 24.157 10.4773 24.5463 9.92098 25.1302C9.20175 25.8416 8.79318 26.8086 8.78447 27.8202C8.77576 28.8318 9.16761 29.8058 9.87448 30.5295L9.90936 30.5643C10.4719 31.1209 11.1887 31.4955 11.9668 31.6395C12.808 35.0193 14.7558 38.0205 17.4999 40.1654C20.2441 42.3102 23.6269 43.4754 27.1098 43.4754C30.5927 43.4754 33.9755 42.3102 36.7196 40.1654C39.4638 38.0205 41.4115 35.0193 42.2528 31.6395C43.0386 31.4982 43.7636 31.1235 44.3335 30.5643C44.693 30.2125 44.9797 29.7933 45.1772 29.3307C45.3747 28.868 45.4791 28.371 45.4845 27.868C45.4899 27.365 45.3962 26.8659 45.2086 26.3991C45.0211 25.9323 44.7435 25.5071 44.3916 25.1476L44.3451 25.1302ZM42.7352 27.8444C42.7404 27.1313 42.6977 26.4187 42.6073 25.7114C42.8572 25.8337 43.0851 25.9967 43.2815 26.1938C43.4969 26.4053 43.6679 26.6577 43.7847 26.9361C43.9014 27.2145 43.9616 27.5134 43.9615 27.8153C43.9591 28.2651 43.8282 28.7049 43.5841 29.0828C43.3401 29.4608 42.9931 29.761 42.5841 29.9483C42.6818 29.2415 42.7304 28.5288 42.7294 27.8153L42.7352 27.8444ZM11.7343 29.9599C11.472 29.8473 11.2348 29.6832 11.0369 29.4775C10.8211 29.2614 10.6499 29.005 10.5332 28.7228C10.4166 28.4406 10.3566 28.1381 10.3569 27.8327C10.3578 27.5296 10.4189 27.2296 10.5366 26.9503C10.6543 26.6709 10.8263 26.4177 11.0427 26.2054C11.2367 25.9948 11.4721 25.8266 11.7343 25.7114C11.6483 26.4151 11.6095 27.1238 11.6181 27.8327C11.6122 28.5437 11.653 29.2543 11.7401 29.9599H11.7343Z" fill="#1EAE87"/>
<path d="M28.8911 35.702L28.7807 35.8241L28.6877 35.9287C28.2865 36.2719 27.7743 36.4578 27.2464 36.4518C26.6813 36.4518 26.1319 36.266 25.683 35.9229C25.5826 35.8458 25.4927 35.7559 25.4156 35.6556C25.2727 35.5133 25.0827 35.4282 24.8814 35.4164C24.6801 35.4046 24.4815 35.467 24.323 35.5916C24.1853 35.7391 24.1087 35.9333 24.1087 36.135C24.1087 36.3368 24.1853 36.531 24.323 36.6785C24.4624 36.8121 24.6019 36.9574 24.7472 37.0737C25.4645 37.6384 26.3509 37.9454 27.2638 37.9455C28.1693 37.9402 29.0424 37.6079 29.7223 37.0097C29.854 36.8887 29.9729 36.7543 30.0768 36.6087C30.1427 36.5284 30.1912 36.4353 30.2192 36.3352C30.2472 36.2352 30.2541 36.1304 30.2395 36.0275C30.216 35.8288 30.1185 35.6462 29.9664 35.5161C29.8086 35.3958 29.6098 35.3423 29.413 35.3674C29.2162 35.3924 29.0371 35.4938 28.9144 35.6497L28.8911 35.702Z" fill="#1EAE87"/>
<path d="M30.1698 26.74C30.2531 26.833 30.3424 26.9203 30.4371 27.0015C31.1145 27.5954 31.9831 27.9256 32.8839 27.9314C33.7969 27.9314 34.6832 27.6244 35.4005 27.0597C35.5458 26.9376 35.6969 26.7865 35.8364 26.647C35.9079 26.5692 35.9624 26.4773 35.9964 26.3772C36.0304 26.2772 36.0432 26.1711 36.034 26.0658C36.028 25.9694 36.0022 25.8753 35.9582 25.7893C35.9142 25.7033 35.853 25.6273 35.7783 25.566C35.6368 25.4258 35.4457 25.3471 35.2465 25.3471C35.0473 25.3471 34.8562 25.4258 34.7147 25.566L34.4532 25.8566C34.0024 26.2005 33.4509 26.3864 32.8839 26.3855C32.3586 26.3927 31.8484 26.2089 31.4484 25.8682L31.3787 25.7578L31.2799 25.6474C31.2196 25.5636 31.1424 25.4935 31.0533 25.4414C30.9642 25.3894 30.8651 25.3566 30.7626 25.3451C30.6601 25.3282 30.5552 25.3335 30.455 25.3606C30.3547 25.3876 30.2614 25.4359 30.1814 25.5021C30.0202 25.6302 29.9158 25.8166 29.8908 26.021C29.8658 26.2254 29.9222 26.4315 30.0477 26.5947L30.1698 26.74Z" fill="#1EAE87"/>
<path d="M23.5848 25.3685C23.4857 25.3793 23.3898 25.4101 23.3029 25.4591C23.216 25.508 23.1399 25.5741 23.0792 25.6533L22.9688 25.7753L22.8758 25.8799C22.4746 26.2231 21.9624 26.409 21.4344 26.403C20.8694 26.403 20.32 26.2172 19.871 25.8741C19.7706 25.797 19.6808 25.7071 19.6037 25.6068C19.4663 25.4649 19.2792 25.382 19.0818 25.3755C18.8845 25.369 18.6923 25.4394 18.5459 25.5719C18.4697 25.6335 18.4072 25.7103 18.3622 25.7973C18.3171 25.8843 18.2906 25.9798 18.2844 26.0775C18.2752 26.1828 18.288 26.2889 18.322 26.3889C18.356 26.489 18.4105 26.5809 18.482 26.6587C18.6156 26.7924 18.7609 26.9377 18.912 27.0656C19.6293 27.6303 20.5157 27.9373 21.4286 27.9374C22.3255 27.9307 23.1908 27.6052 23.8696 27.0191C24.0082 26.9018 24.1329 26.7692 24.2416 26.6239C24.3703 26.4643 24.4303 26.2602 24.4085 26.0564C24.3867 25.8526 24.2849 25.6657 24.1254 25.537C24.0511 25.4742 23.965 25.4269 23.8722 25.3979C23.7793 25.369 23.6816 25.359 23.5848 25.3685Z" fill="#1EAE87"/>
</g>
</g>
</g>
<defs>
<clipPath id="clip0_1_418">
<rect width="54.33" height="54.33" fill="white" transform="translate(0 0.719971)"/>
</clipPath>
<clipPath id="clip1_1_418">
<rect width="54.33" height="54.33" fill="white" transform="translate(0 0.719971)"/>
</clipPath>
<clipPath id="clip2_1_418">
<rect width="54.33" height="54.33" fill="white" transform="translate(0 0.719971)"/>
</clipPath>
</defs>
</svg>
