<svg width="24" height="25" viewBox="0 0 24 25" fill="none" xmlns="http://www.w3.org/2000/svg">
<path d="M7.50001 23.65C8.54935 23.65 9.40001 22.7993 9.40001 21.75C9.40001 20.7007 8.54935 19.85 7.50001 19.85C6.45067 19.85 5.60001 20.7007 5.60001 21.75C5.60001 22.7993 6.45067 23.65 7.50001 23.65Z" fill="white"/>
<path d="M16.8 23.65C17.8493 23.65 18.7 22.7993 18.7 21.75C18.7 20.7007 17.8493 19.85 16.8 19.85C15.7507 19.85 14.9 20.7007 14.9 21.75C14.9 22.7993 15.7507 23.65 16.8 23.65Z" fill="white"/>
<path d="M18.5 18H8C6.33333 17.6667 5.4 16.3333 5.2 14L3.9 4C3.7 2.86666 3.06667 2.36666 2 2.5" stroke="white" stroke-width="2" stroke-linecap="round"/>
<path d="M5 5.09999H20C21.2 5.09999 21.8 5.93332 21.8 7.59999L20.7 12.4C20.0333 13.4 19.2 14.0667 18.2 14.4H6.2" stroke="white" stroke-width="2" stroke-linecap="round"/>
</svg>
