<svg width="85" height="22" viewBox="0 0 85 22" fill="none" xmlns="http://www.w3.org/2000/svg">
<mask id="mask0_6_60" style="mask-type:luminance" maskUnits="userSpaceOnUse" x="0" y="0" width="85" height="22">
<path d="M84.9156 0.409912H0.0843506V21.1849H84.9156V0.409912Z" fill="white"/>
</mask>
<g mask="url(#mask0_6_60)">
<path d="M33.0643 5.7495C33.0292 5.65608 32.9402 5.59424 32.8408 5.59424H30.8988C30.7994 5.59424 30.7103 5.65614 30.6753 5.74963L26.9342 15.7387C26.8755 15.8955 26.9909 16.0629 27.1578 16.0629H28.6288C28.7286 16.0629 28.818 16.0006 28.8528 15.9066L29.6517 13.7447H34.0515L34.8575 15.9072C34.8924 16.0008 34.9816 16.0629 35.0812 16.0629H36.5888C36.7557 16.0629 36.8711 15.8954 36.8123 15.7386L33.0643 5.7495ZM30.2906 12.0169L31.8371 7.81773L33.4053 12.0169H30.2906Z" fill="black"/>
<path d="M46.2731 14.4856C46.1383 14.4971 46.0103 14.5029 45.8278 14.5029C45.218 14.5029 44.8404 14.4226 44.8404 13.752V9.99747H46.1771C46.309 9.99747 46.416 9.89014 46.416 9.7577V8.64077C46.416 8.50833 46.309 8.40097 46.1771 8.40097H44.8404V6.42454C44.8404 6.2921 44.7335 6.18473 44.6016 6.18473H43.2206C43.0887 6.18473 42.9818 6.2921 42.9818 6.42454V8.40097H39.9688V8.06562C39.9688 7.2491 40.3245 7.0523 40.9853 7.0523C41.0977 7.0523 41.1812 7.0523 41.2625 7.05431C41.397 7.0576 41.508 6.94968 41.508 6.81462V5.68926C41.508 5.56129 41.4077 5.4556 41.2804 5.44969C41.0969 5.44116 40.9598 5.44116 40.7529 5.44116C38.9595 5.44116 38.081 6.33785 38.081 7.94165V8.40097H37.2743C37.1424 8.40097 37.0355 8.50833 37.0355 8.64077V9.7577C37.0355 9.89014 37.1424 9.99747 37.2743 9.99747H38.081V15.8231C38.081 15.9556 38.1879 16.0629 38.3199 16.0629H39.73C39.8618 16.0629 39.9688 15.9556 39.9688 15.8231V9.99747H42.9818V14.1019C42.9818 15.6693 43.7804 16.1504 45.2761 16.1504C45.6656 16.1504 46.0263 16.1215 46.331 16.0755C46.4472 16.0579 46.5322 15.9564 46.5322 15.8385V14.7245C46.5322 14.5841 46.4125 14.4737 46.2731 14.4856Z" fill="black"/>
<path d="M51.0118 8.25513C48.87 8.25513 47.338 9.98291 47.338 12.2355C47.338 14.6049 48.8701 16.2233 51.0844 16.2233C52.5184 16.2233 53.7084 15.5204 54.298 14.2966C54.3588 14.1702 54.2947 14.0184 54.1635 13.9701L53.02 13.5493C52.9032 13.5063 52.772 13.5602 52.7213 13.6744C52.441 14.3064 51.8349 14.6414 51.0918 14.6414C50.0317 14.6414 49.2839 13.8904 49.146 12.6511H54.2073C54.3392 12.6511 54.4461 12.5438 54.4461 12.4113V12.0606C54.4461 9.93919 53.2481 8.25513 51.0118 8.25513ZM49.2258 11.3024C49.4799 10.3182 50.1406 9.80796 50.9974 9.80796C52.0429 9.80796 52.5438 10.5005 52.5584 11.3024H49.2258Z" fill="black"/>
<path d="M59.997 8.36642C59.9159 8.36088 59.8265 8.35718 59.7243 8.35718C58.7659 8.35718 57.9963 8.81653 57.6623 9.50909V8.64077C57.6623 8.50833 57.5554 8.40097 57.4235 8.40097H56.0134C55.8814 8.40097 55.7745 8.50833 55.7745 8.64077V15.8231C55.7745 15.9556 55.8814 16.0629 56.0134 16.0629H57.4235C57.5554 16.0629 57.6623 15.9556 57.6623 15.8231V12.1044C57.6623 10.9015 58.49 10.2162 59.5719 10.2162C59.7175 10.2162 59.838 10.2213 59.9585 10.2315C60.0981 10.2432 60.218 10.1333 60.218 9.99272V8.60557C60.218 8.48004 60.1217 8.37492 59.997 8.36642Z" fill="black"/>
<path d="M65.5037 8.25513C64.5309 8.25513 63.8047 8.64153 63.34 9.2028V8.64075C63.34 8.5083 63.2331 8.40094 63.1012 8.40094H61.6911C61.5592 8.40094 61.4523 8.5083 61.4523 8.64075V18.4331C61.4523 18.5655 61.5592 18.6728 61.6911 18.6728H63.1012C63.2331 18.6728 63.34 18.5655 63.34 18.4331V15.2683C63.8047 15.8369 64.5309 16.2233 65.5037 16.2233C67.6238 16.2233 68.8435 14.4153 68.8435 12.2355C68.8435 10.0631 67.6238 8.25513 65.5037 8.25513ZM65.0899 14.583C64.0661 14.583 63.2965 13.8175 63.2965 12.4615V12.0241C63.2965 10.6463 64.0661 9.89539 65.0899 9.89539C66.2951 9.89539 66.9413 10.8504 66.9413 12.2355C66.9413 13.628 66.2951 14.583 65.0899 14.583Z" fill="black"/>
<path d="M76.5834 14.6316C76.2891 14.6184 76.1692 14.4674 76.1692 14.1237V10.9088C76.1692 9.13728 75.0367 8.25513 73.1562 8.25513C71.53 8.25513 70.4306 9.13658 69.992 10.291C69.9393 10.4298 70.0214 10.5834 70.1663 10.6135L71.4781 10.8866C71.5936 10.9106 71.7099 10.8464 71.7501 10.735C71.9611 10.151 72.3679 9.85895 73.0836 9.85895C73.9693 9.85895 74.325 10.2891 74.325 10.9817V11.1055L72.3212 11.5065C70.8182 11.7982 69.6638 12.4397 69.6638 13.9342C69.6638 15.2974 70.7747 16.1941 72.2486 16.1941C73.2434 16.1941 74.0273 15.8807 74.5139 15.3412C74.7944 15.9389 75.4553 16.1999 76.6 16.0877C76.722 16.0758 76.8155 15.9719 76.8155 15.8487V14.871C76.8155 14.7414 76.7124 14.6374 76.5834 14.6316ZM74.325 13.351C74.325 14.2477 73.4756 14.7215 72.5825 14.7215C71.9436 14.7215 71.5298 14.4008 71.5298 13.8394C71.5298 13.1906 72.0525 12.9646 72.7568 12.8188L74.325 12.4907V13.351Z" fill="black"/>
<path d="M84.1449 8.40088H82.7368C82.6344 8.40088 82.5434 8.46637 82.5106 8.5637L80.8084 13.6061L79.0636 8.562C79.0302 8.46554 78.9397 8.40088 78.838 8.40088H77.3852C77.2183 8.40088 77.1029 8.56826 77.1616 8.72505L79.7993 15.7713L79.5306 16.4346C79.2982 17.0179 79.0151 17.171 78.4561 17.171C78.3296 17.171 78.2329 17.1664 78.1325 17.1584C77.9938 17.1475 77.8752 17.2577 77.8752 17.3974V18.4793C77.8752 18.6027 77.9685 18.7064 78.0909 18.718C78.2339 18.7316 78.3731 18.7384 78.6303 18.7384C80.2639 18.7384 80.9464 17.9 81.411 16.6388L84.3685 8.72493C84.4271 8.56814 84.3117 8.40088 84.1449 8.40088Z" fill="black"/>
<path fill-rule="evenodd" clip-rule="evenodd" d="M20.5044 3.40952C20.0592 2.18026 19.0904 1.21157 17.8618 0.766382C16.7299 0.409912 15.7004 0.409912 13.6045 0.409912H7.32002L7.32083 0.410712C5.23773 0.410712 4.19539 0.410712 3.0819 0.756791C1.8533 1.20198 0.884492 2.17067 0.43926 3.40072C0.0843506 4.52528 0.0843506 5.5659 0.0843506 7.64956V13.9365C0.0843506 16.0313 0.0843506 17.0632 0.430469 18.1853C0.875705 19.4145 1.8445 20.3833 3.0731 20.8284C4.19698 21.1849 5.23773 21.1849 7.32083 21.1849H13.6149C15.7004 21.1849 16.7404 21.1849 17.8618 20.8284C19.0912 20.3833 20.0592 19.4145 20.5044 18.1853C20.8594 17.0607 20.8594 16.0202 20.8594 13.9365V7.65835C20.8594 5.5723 20.8594 4.53167 20.5044 3.40952ZM15.0501 7.52122L13.8521 8.50342C13.7481 8.58877 13.5961 8.57014 13.5114 8.46546C12.9026 7.71252 11.9441 7.28699 10.9059 7.28699C9.74879 7.28699 9.02955 7.78728 9.02955 8.50645C9.02955 9.10053 9.59246 9.41319 11.3124 9.78844C13.5015 10.2574 14.5021 11.1643 14.5021 12.6964C14.5021 14.6172 12.9379 16.035 10.4961 16.185L10.2579 17.3211C10.2346 17.4322 10.1366 17.5117 10.0231 17.5117H8.14458C7.98977 17.5117 7.87551 17.3672 7.91126 17.2165L8.21279 15.9461C7.00241 15.6017 6.02845 14.9319 5.46068 14.1051C5.38919 14.001 5.41291 13.8588 5.51259 13.7812L6.8256 12.7601C6.93381 12.676 7.08894 12.7006 7.16893 12.8119C7.86468 13.7802 8.93208 14.3536 10.2179 14.3536C11.375 14.3536 12.2505 13.7907 12.2505 12.9778C12.2505 12.3524 11.8127 12.071 10.343 11.7583C7.80995 11.2268 6.80925 10.2888 6.80925 8.75659C6.80925 6.97891 8.30343 5.63603 10.5573 5.46161L10.8034 4.28821C10.8267 4.17716 10.9246 4.09763 11.0381 4.09763H12.8914C13.0442 4.09763 13.1581 4.23877 13.1258 4.38818L12.8408 5.70294C13.8107 6.00144 14.6004 6.53518 15.092 7.1938C15.1682 7.29589 15.1486 7.44045 15.0501 7.52122Z" fill="black"/>
</g>
</svg>
