<svg width="85" height="22" viewBox="0 0 85 22" fill="none" xmlns="http://www.w3.org/2000/svg">
<mask id="mask0_1_57" style="mask-type:luminance" maskUnits="userSpaceOnUse" x="0" y="0" width="85" height="22">
<path d="M84.8964 0.380005H0.103569V21.1456H84.8964V0.380005Z" fill="white"/>
</mask>
<g mask="url(#mask0_1_57)">
<path d="M33.0686 5.7172C33.0336 5.62382 32.9446 5.56201 32.8452 5.56201H30.9041C30.8047 5.56201 30.7157 5.62388 30.6807 5.71733L26.9413 15.7019C26.8826 15.8586 26.998 16.0259 27.1648 16.0259H28.6352C28.7349 16.0259 28.8242 15.9636 28.859 15.8697L29.6576 13.7088H34.0554L34.861 15.8703C34.8959 15.9639 34.985 16.0259 35.0846 16.0259H36.5916C36.7584 16.0259 36.8737 15.8585 36.8149 15.7017L33.0686 5.7172ZM30.2961 11.9817L31.842 7.78449L33.4095 11.9817H30.2961Z" fill="black"/>
<path d="M46.2715 14.4493C46.1368 14.4608 46.0088 14.4666 45.8264 14.4666C45.2168 14.4666 44.8394 14.3864 44.8394 13.716V9.96325H46.1755C46.3074 9.96325 46.4142 9.85596 46.4142 9.72358V8.60716C46.4142 8.47478 46.3074 8.36746 46.1755 8.36746H44.8394V6.39193C44.8394 6.25955 44.7326 6.15223 44.6007 6.15223H43.2203C43.0885 6.15223 42.9816 6.25955 42.9816 6.39193V8.36746H39.97V8.03226C39.97 7.21611 40.3256 7.0194 40.986 7.0194C41.0984 7.0194 41.1818 7.0194 41.2632 7.02141C41.3975 7.02471 41.5085 6.91683 41.5085 6.78184V5.65698C41.5085 5.52907 41.4083 5.42343 41.281 5.41752C41.0976 5.409 40.9606 5.409 40.7537 5.409C38.9612 5.409 38.0831 6.30527 38.0831 7.90835V8.36746H37.2768C37.1449 8.36746 37.038 8.47478 37.038 8.60716V9.72358C37.038 9.85596 37.1449 9.96325 37.2768 9.96325H38.0831V15.7863C38.0831 15.9186 38.1899 16.0259 38.3218 16.0259H39.7313C39.863 16.0259 39.97 15.9186 39.97 15.7863V9.96325H42.9816V14.0658C42.9816 15.6325 43.7799 16.1134 45.2749 16.1134C45.6642 16.1134 46.0248 16.0845 46.3294 16.0385C46.4455 16.0209 46.5304 15.9195 46.5304 15.8017V14.6881C46.5304 14.5478 46.4108 14.4375 46.2715 14.4493Z" fill="black"/>
<path d="M51.008 8.22168C48.8672 8.22168 47.3359 9.94868 47.3359 12.2003C47.3359 14.5686 48.8673 16.1862 51.0806 16.1862C52.514 16.1862 53.7034 15.4837 54.2927 14.2604C54.3535 14.1341 54.2894 13.9824 54.1582 13.9341L53.0153 13.5134C52.8986 13.4704 52.7674 13.5243 52.7168 13.6385C52.4366 14.2702 51.8308 14.605 51.088 14.605C50.0284 14.605 49.2808 13.8544 49.143 12.6157H54.202C54.3339 12.6157 54.4407 12.5084 54.4407 12.376V12.0254C54.4407 9.90498 53.2433 8.22168 51.008 8.22168ZM49.2228 11.2676C49.4768 10.2839 50.1372 9.77381 50.9936 9.77381C52.0386 9.77381 52.5393 10.4661 52.5539 11.2676H49.2228Z" fill="black"/>
<path d="M59.989 8.33291C59.908 8.32737 59.8187 8.32367 59.7165 8.32367C58.7585 8.32367 57.9892 8.78281 57.6554 9.47506V8.60714C57.6554 8.47476 57.5486 8.36744 57.4167 8.36744H56.0072C55.8754 8.36744 55.7685 8.47476 55.7685 8.60714V15.7862C55.7685 15.9186 55.8754 16.0259 56.0072 16.0259H57.4167C57.5486 16.0259 57.6554 15.9186 57.6554 15.7862V12.0692C57.6554 10.8669 58.4828 10.1819 59.5641 10.1819C59.7098 10.1819 59.8301 10.187 59.9506 10.1971C60.0901 10.2089 60.21 10.099 60.21 9.95847V8.57195C60.21 8.44648 60.1137 8.34141 59.989 8.33291Z" fill="black"/>
<path d="M65.4933 8.22168C64.5209 8.22168 63.795 8.60791 63.3306 9.16893V8.60712C63.3306 8.47474 63.2237 8.36743 63.0919 8.36743H61.6824C61.5505 8.36743 61.4437 8.47474 61.4437 8.60712V18.395C61.4437 18.5274 61.5505 18.6347 61.6824 18.6347H63.0919C63.2237 18.6347 63.3306 18.5274 63.3306 18.395V15.2317C63.795 15.8 64.5209 16.1862 65.4933 16.1862C67.6124 16.1862 68.8316 14.3791 68.8316 12.2003C68.8316 10.0288 67.6124 8.22168 65.4933 8.22168ZM65.0797 14.5467C64.0563 14.5467 63.2871 13.7816 63.2871 12.4262V11.989C63.2871 10.6118 64.0563 9.8612 65.0797 9.8612C66.2843 9.8612 66.9302 10.8158 66.9302 12.2003C66.9302 13.5921 66.2843 14.5467 65.0797 14.5467Z" fill="black"/>
<path d="M76.568 14.5952C76.2739 14.5821 76.154 14.4311 76.154 14.0876V10.8741C76.154 9.10343 75.022 8.22168 73.1423 8.22168C71.5169 8.22168 70.418 9.10274 69.9796 10.2566C69.9269 10.3954 70.009 10.5489 70.1538 10.579L71.465 10.852C71.5804 10.8759 71.6967 10.8117 71.7369 10.7005C71.9478 10.1167 72.3544 9.82478 73.0697 9.82478C73.955 9.82478 74.3107 10.2547 74.3107 10.947V11.0708L72.3077 11.4716C70.8054 11.7632 69.6515 12.4044 69.6515 13.8982C69.6515 15.2608 70.7619 16.1571 72.2351 16.1571C73.2295 16.1571 74.0131 15.8438 74.4994 15.3046C74.7798 15.902 75.4404 16.1629 76.5846 16.0507C76.7066 16.0388 76.8 15.935 76.8 15.8118V14.8346C76.8 14.705 76.697 14.601 76.568 14.5952ZM74.3107 13.3152C74.3107 14.2115 73.4616 14.6851 72.5689 14.6851C71.9303 14.6851 71.5167 14.3646 71.5167 13.8035C71.5167 13.1549 72.0392 12.929 72.7431 12.7833L74.3107 12.4553V13.3152Z" fill="black"/>
<path d="M84.126 8.36749H82.7186C82.6162 8.36749 82.5253 8.43296 82.4925 8.53024L80.7911 13.5703L79.0471 8.52854C79.0137 8.43213 78.9232 8.36749 78.8215 8.36749H77.3694C77.2026 8.36749 77.0873 8.53479 77.1459 8.69151L79.7824 15.7345L79.5138 16.3976C79.2816 16.9806 78.9986 17.1336 78.4398 17.1336C78.3134 17.1336 78.2168 17.129 78.1164 17.1211C77.9778 17.1102 77.8592 17.2203 77.8592 17.36V18.4413C77.8592 18.5647 77.9525 18.6684 78.0748 18.68C78.2177 18.6936 78.3569 18.7003 78.614 18.7003C80.2468 18.7003 80.929 17.8623 81.3935 16.6017L84.3495 8.69139C84.4081 8.53468 84.2928 8.36749 84.126 8.36749Z" fill="black"/>
<path fill-rule="evenodd" clip-rule="evenodd" d="M20.5144 3.37825C20.0693 2.14955 19.101 1.1813 17.873 0.736313C16.7416 0.380005 15.7126 0.380005 13.6176 0.380005H7.33597L7.33677 0.380805C5.25461 0.380805 4.21274 0.380805 3.09976 0.726726C1.87172 1.17171 0.903348 2.13997 0.458318 3.36946C0.103569 4.49351 0.103569 5.53366 0.103569 7.61638V13.9005C0.103569 15.9944 0.103569 17.0257 0.449531 18.1474C0.894565 19.376 1.86293 20.3443 3.09097 20.7893C4.21434 21.1456 5.25461 21.1456 7.33677 21.1456H13.6279C15.7126 21.1456 16.752 21.1456 17.873 20.7893C19.1018 20.3443 20.0693 19.376 20.5144 18.1474C20.8692 17.0233 20.8692 15.9832 20.8692 13.9005V7.62517C20.8692 5.54006 20.8692 4.4999 20.5144 3.37825ZM15.0625 7.4881L13.8651 8.46985C13.7611 8.55516 13.6092 8.53654 13.5246 8.43191C12.916 7.6793 11.958 7.25397 10.9202 7.25397C9.76364 7.25397 9.04472 7.75403 9.04472 8.47288C9.04472 9.06669 9.60738 9.37921 11.3265 9.75429C13.5146 10.2231 14.5148 11.1295 14.5148 12.661C14.5148 14.5808 12.9513 15.998 10.5106 16.1479L10.2725 17.2836C10.2492 17.3946 10.1513 17.4741 10.0378 17.4741H8.16015C8.00541 17.4741 7.89121 17.3296 7.92694 17.179L8.22833 15.9091C7.0185 15.5649 6.04498 14.8954 5.47746 14.0689C5.406 13.9649 5.42971 13.8228 5.52935 13.7453L6.84176 12.7246C6.94993 12.6405 7.10499 12.6651 7.18494 12.7764C7.88038 13.7442 8.94729 14.3174 10.2325 14.3174C11.3891 14.3174 12.2643 13.7548 12.2643 12.9422C12.2643 12.3171 11.8266 12.0358 10.3575 11.7233C7.82567 11.192 6.82543 10.2544 6.82543 8.72291C6.82543 6.94603 8.31893 5.60376 10.5718 5.42942L10.8178 4.25654C10.841 4.14554 10.9389 4.06605 11.0523 4.06605H12.9048C13.0576 4.06605 13.1714 4.20713 13.1391 4.35647L12.8543 5.67064C13.8237 5.96901 14.6131 6.5025 15.1044 7.16082C15.1806 7.26287 15.161 7.40736 15.0625 7.4881Z" fill="black"/>
</g>
</svg>
