<svg width="104" height="25" viewBox="0 0 104 25" fill="none" xmlns="http://www.w3.org/2000/svg">
<g clip-path="url(#clip0_1_211)">
<g clip-path="url(#clip1_1_211)">
<g clip-path="url(#clip2_1_211)">
<path fill-rule="evenodd" clip-rule="evenodd" d="M15.6465 7.62318H20.7199C23.4437 7.62318 24.4695 9.00277 24.3113 11.0284C24.3399 11.6991 24.2327 12.3688 23.9961 12.997C23.7595 13.6254 23.3984 14.1994 22.9345 14.6847C22.4706 15.1699 21.9135 15.5565 21.2965 15.8211C20.6795 16.0858 20.0154 16.2231 19.344 16.2247H17.9905C17.6181 16.2247 17.3742 16.4686 17.2756 17.1277L16.7003 20.9667C16.663 21.2162 16.5309 21.3595 16.3279 21.38H13.1517C12.852 21.38 12.7458 21.151 12.824 20.6539L14.7677 8.34928C14.7732 8.2422 14.8008 8.13742 14.8489 8.0416C14.8971 7.94579 14.9646 7.86104 15.0473 7.79274C15.1299 7.72445 15.2259 7.6741 15.329 7.64491C15.4322 7.61572 15.5403 7.60832 15.6465 7.62318Z" fill="#009EE3"/>
<path fill-rule="evenodd" clip-rule="evenodd" d="M12.4759 3.38758H17.5549C19.8138 3.38758 20.7683 3.38758 21.8165 4.43577C22.205 4.80096 22.5034 5.25135 22.6882 5.75147C22.873 6.25159 22.9391 6.78778 22.8815 7.31782C22.5706 11.1959 20.2508 13.3705 17.1378 13.3705H14.6337C14.2074 13.3705 13.9244 13.6535 13.8052 14.4187L13.1052 18.8721C13.0587 19.1607 12.9358 19.3301 12.7124 19.3524H9.57897C9.23268 19.3524 9.10794 19.0899 9.20661 18.5109L11.4594 4.2347C11.4658 4.11059 11.4978 3.98915 11.5534 3.87801C11.609 3.76686 11.6869 3.66842 11.7824 3.58886C11.8779 3.50931 11.9888 3.45035 12.1081 3.41572C12.2275 3.38108 12.3527 3.3715 12.4759 3.38758Z" fill="#113984"/>
<path fill-rule="evenodd" clip-rule="evenodd" d="M13.8797 13.9644L14.766 8.34918C14.7716 8.24159 14.7996 8.13636 14.8481 8.04017C14.8966 7.94398 14.9647 7.85895 15.0478 7.79048C15.131 7.72201 15.2275 7.6716 15.3313 7.64246C15.435 7.61332 15.5436 7.60609 15.6503 7.62122H20.7237C21.425 7.59874 22.1231 7.72567 22.7717 7.99358C22.7012 9.44632 22.0727 10.8158 21.0172 11.8165C19.9617 12.8172 18.5607 13.3718 17.1062 13.3649H14.6096C14.4374 13.365 14.2705 13.4248 14.1375 13.5341C14.0044 13.6434 13.9133 13.7955 13.8797 13.9644Z" fill="#172C70"/>
<path fill-rule="evenodd" clip-rule="evenodd" d="M35.6904 5.65761C36.09 5.60679 36.4955 5.65426 36.8744 5.7962C37.2532 5.93815 37.5949 6.17062 37.8719 6.47499C38.149 6.77935 38.3537 7.14714 38.4698 7.54884C38.5858 7.95055 38.6099 8.375 38.5401 8.78815C38.2966 11.4455 36.9309 12.9027 34.7789 12.9027H32.8966C32.6268 12.9027 32.4952 13.1325 32.4261 13.5886L32.0608 15.9887C32.0049 16.3522 31.8272 16.5339 31.5607 16.5339H29.81C29.5303 16.5339 29.4349 16.3488 29.481 15.9304L30.9256 6.26452C30.998 5.78791 31.1691 5.61304 31.4817 5.61304H35.6739L35.6904 5.65761ZM32.8275 10.8317H34.2524C35.1441 10.7974 35.7365 10.146 35.7957 8.99045C35.8114 8.8261 35.792 8.66016 35.739 8.50451C35.686 8.34886 35.6006 8.20734 35.489 8.09006C35.3774 7.97278 35.2423 7.88265 35.0934 7.82609C34.9444 7.76954 34.7854 7.74796 34.6275 7.76292H33.2849L32.8242 10.8249L32.8275 10.8317ZM43.2917 15.8379C43.453 15.687 43.6208 15.6081 43.5912 15.7933L43.5352 16.2425C43.5056 16.4756 43.5945 16.5854 43.8051 16.5854H45.3615C45.6248 16.5854 45.7498 16.4756 45.8156 16.0539L46.7732 9.78251C46.8226 9.46705 46.7469 9.31276 46.5198 9.31276H44.8087C44.654 9.31276 44.5784 9.4019 44.5389 9.65564L44.4763 10.0397C44.4434 10.242 44.3546 10.2763 44.2723 10.074C43.9828 9.35733 43.2424 9.04531 42.2091 9.04531C41.1019 9.06822 40.0463 9.53768 39.2645 10.3549C38.4826 11.1722 38.0354 12.2736 38.0169 13.4274C37.9701 13.849 38.0092 14.2761 38.1318 14.6808C38.2544 15.0855 38.4576 15.4587 38.7282 15.7759C38.9988 16.0931 39.3306 16.3472 39.7019 16.5216C40.0732 16.6959 40.4757 16.7866 40.883 16.7877C41.3293 16.818 41.7766 16.7466 42.1938 16.5785C42.6109 16.4103 42.9878 16.1494 43.2983 15.8139L43.2917 15.8379ZM41.9755 14.8744C41.7437 14.8806 41.5135 14.8331 41.3015 14.7352C41.0895 14.6373 40.9011 14.4915 40.7499 14.3083C40.5987 14.1252 40.4885 13.9093 40.4273 13.6763C40.3661 13.4432 40.3554 13.1989 40.396 12.961C40.4883 12.4336 40.7525 11.9554 41.144 11.6075C41.5355 11.2595 42.0303 11.063 42.5448 11.0512C42.7781 11.0413 43.0106 11.0861 43.2252 11.1822C43.4397 11.2783 43.6309 11.4233 43.7846 11.6065C43.9384 11.7897 44.0507 12.0065 44.1135 12.2409C44.1762 12.4753 44.1878 12.7214 44.1473 12.961C44.0555 13.4888 43.7915 13.9673 43.3998 14.3154C43.0082 14.6635 42.5131 14.8597 41.9985 14.8709L41.9755 14.8744ZM49.8039 9.30933H48.2277C47.8986 9.30933 47.7703 9.56306 47.8723 9.87166L49.8466 15.8482L47.9249 18.6907C47.7637 18.9273 47.8887 19.1433 48.1158 19.1433H49.8894C49.9929 19.1555 50.0975 19.1364 50.1908 19.0884C50.2842 19.0404 50.3623 18.9654 50.4159 18.8724L56.441 9.86823C56.6253 9.59049 56.5398 9.29904 56.2337 9.29904H54.5555C54.2692 9.29904 54.1541 9.41905 53.9862 9.66592L51.4755 13.4583L50.3534 9.65564C50.3186 9.54149 50.2457 9.44412 50.1479 9.38121C50.0501 9.31829 49.9338 9.29401 49.8203 9.31276L49.8039 9.30933Z" fill="#113984"/>
<path fill-rule="evenodd" clip-rule="evenodd" d="M63.2282 5.6627C63.6581 5.61012 64.0942 5.65923 64.5017 5.80609C64.9092 5.95295 65.2767 6.19348 65.5747 6.50838C65.8727 6.82328 66.093 7.2038 66.2178 7.61941C66.3426 8.03502 66.3685 8.47415 66.2934 8.9016C66.0315 11.6509 64.5626 13.1586 62.2478 13.1586H60.2233C59.9331 13.1586 59.7915 13.3963 59.7171 13.8681L59.3243 16.3514C59.2641 16.7274 59.073 16.9154 58.7863 16.9154H56.9033C56.6025 16.9154 56.4998 16.7239 56.5494 16.2911L58.1067 6.28707C58.1846 5.79396 58.3686 5.61304 58.7049 5.61304H63.2282V5.6627ZM60.1596 11.0159H61.6921C62.6513 10.9805 63.2884 10.3064 63.3521 9.11091C63.369 8.94087 63.3482 8.76919 63.2911 8.60815C63.2341 8.44711 63.1423 8.3007 63.0222 8.17936C62.9022 8.05802 62.7569 7.96476 62.5967 7.90625C62.4365 7.84774 62.2654 7.82542 62.0956 7.84089H60.6516L60.156 11.0088L60.1596 11.0159ZM71.4149 16.1953C71.5883 16.0392 71.7688 15.9576 71.737 16.1492L71.6768 16.6139C71.6449 16.8551 71.7405 16.9686 71.967 16.9686H73.6412C73.9243 16.9686 74.0588 16.8551 74.1296 16.4188L75.1596 9.93039C75.2127 9.60402 75.1313 9.44438 74.887 9.44438H73.0501C72.8837 9.44438 72.8023 9.53661 72.7599 9.79913L72.6926 10.1964C72.6572 10.4058 72.5617 10.4412 72.4732 10.2319C72.1617 9.49049 71.3653 9.16767 70.254 9.16767C69.0576 9.19067 67.9172 9.67991 67.0747 10.5316C66.2322 11.3833 65.7539 12.5305 65.7412 13.7297C65.6909 14.1659 65.733 14.6078 65.8649 15.0266C65.9967 15.4453 66.2153 15.8314 66.5063 16.1596C66.7974 16.4878 67.1542 16.7507 67.5537 16.9311C67.9531 17.1114 68.386 17.2052 68.824 17.2063C69.3041 17.2378 69.7853 17.1639 70.2339 16.9899C70.6826 16.8159 71.088 16.5459 71.422 16.1988L71.4149 16.1953ZM69.9991 15.1984C69.7481 15.2086 69.498 15.1623 69.2673 15.0628C69.0365 14.9634 68.8309 14.8134 68.6655 14.6239C68.5002 14.4343 68.3793 14.2101 68.3118 13.9675C68.2443 13.725 68.2319 13.4704 68.2754 13.2225C68.3748 12.6768 68.659 12.1821 69.0801 11.8221C69.5012 11.4621 70.0333 11.2588 70.5867 11.2465C70.8377 11.2363 71.0878 11.2827 71.3185 11.3821C71.5493 11.4815 71.755 11.6315 71.9203 11.8211C72.0856 12.0106 72.2065 12.2349 72.274 12.4774C72.3415 12.7199 72.3539 12.9745 72.3104 13.2225C72.2111 13.7682 71.9268 14.2629 71.5057 14.6229C71.0846 14.9829 70.5525 15.1862 69.9991 15.1984ZM75.7861 16.997C75.7524 16.9984 75.7188 16.9923 75.6877 16.9793C75.6567 16.9662 75.6288 16.9464 75.6062 16.9214C75.5836 16.8964 75.5667 16.8666 75.5568 16.8343C75.5469 16.802 75.5442 16.768 75.5489 16.7345L77.2443 5.95715C77.2603 5.88328 77.3009 5.81707 77.3595 5.76937C77.418 5.72167 77.491 5.69532 77.5664 5.69463H79.4989C79.5326 5.69327 79.5661 5.69933 79.5972 5.7124C79.6283 5.72547 79.6561 5.74523 79.6788 5.77027C79.7014 5.79531 79.7182 5.82503 79.7281 5.85733C79.738 5.88962 79.7407 5.9237 79.736 5.95715L78.0584 16.7345C78.0423 16.8084 78.0017 16.8746 77.9432 16.9223C77.8847 16.97 77.8117 16.9963 77.7363 16.997H75.7861Z" fill="#009EE3"/>
</g>
</g>
</g>
<path d="M88.17 17.78C91.1523 17.78 93.57 15.3623 93.57 12.38C93.57 9.39764 91.1523 6.97998 88.17 6.97998C85.1877 6.97998 82.77 9.39764 82.77 12.38C82.77 15.3623 85.1877 17.78 88.17 17.78Z" stroke="#0066CC" stroke-width="1.2" stroke-linecap="round"/>
<path d="M88.17 10.13C88.3081 10.13 88.42 10.0181 88.42 9.88C88.42 9.74193 88.3081 9.63 88.17 9.63C88.0319 9.63 87.92 9.74193 87.92 9.88C87.92 10.0181 88.0319 10.13 88.17 10.13Z" stroke="#0066CC" stroke-linecap="round"/>
<path d="M88.17 11.88V14.88" stroke="#0066CC" stroke-width="1.3" stroke-linecap="round"/>
<defs>
<clipPath id="clip0_1_211">
<rect width="71" height="18" fill="white" transform="translate(9.17 3.38)"/>
</clipPath>
<clipPath id="clip1_1_211">
<rect width="71" height="18" fill="white" transform="translate(9.17 3.38)"/>
</clipPath>
<clipPath id="clip2_1_211">
<rect width="71" height="18" fill="white" transform="translate(9.17 3.38)"/>
</clipPath>
</defs>
</svg>
