<svg width="113" height="25" viewBox="0 0 113 25" fill="none" xmlns="http://www.w3.org/2000/svg">
<g clip-path="url(#clip0_1_236)">
<g clip-path="url(#clip1_1_236)">
<g clip-path="url(#clip2_1_236)">
<path d="M11.2231 15.8486C13.0486 17.6742 15.9695 17.6742 17.7545 15.8486L17.9168 15.6863C18.8093 14.7939 17.0243 10.0474 17.9168 9.15491L11.2231 15.8486Z" fill="url(#paint0_linear_1_236)"/>
<path d="M18.1196 8.95204L17.9574 9.11431C17.0649 10.0068 18.8499 14.7533 17.9574 15.6458L24.6916 8.91147C22.8661 7.12648 19.9452 7.12648 18.1196 8.95204Z" fill="url(#paint1_linear_1_236)"/>
<path d="M11.2231 9.27656C9.43809 11.1021 9.43809 14.023 11.2231 15.808L18.1196 8.91145C19.9452 7.08589 19.9452 4.16499 18.1196 2.38L11.2231 9.27656Z" fill="url(#paint2_linear_1_236)"/>
<path d="M17.7951 15.8486C16.0101 17.6741 16.0101 20.595 17.7951 22.38L24.6916 15.4835C26.5172 13.6579 26.5172 10.737 24.6916 8.95203L17.7951 15.8486Z" fill="url(#paint3_linear_1_236)"/>
<path d="M51.507 12.4003C51.3853 11.9135 51.1419 11.4673 50.8985 11.0616C50.4117 10.3314 49.8032 9.72284 49.0324 9.31716C47.8154 8.66807 46.3955 8.5058 45.0973 8.91148C42.3793 9.72284 40.7971 12.5626 41.5679 15.3212C41.649 15.6052 41.8113 16.0109 41.8113 16.0109C42.2576 17.0656 43.0689 17.9176 44.0831 18.4044C44.8539 18.8101 45.7058 19.0535 46.5578 19.0535C47.0446 19.0535 47.5314 18.9723 48.0182 18.8506C49.0324 18.5667 49.9249 17.9581 50.574 17.1468L50.6146 17.1062C50.7768 16.9034 50.9391 16.66 51.0608 16.4166C51.3042 16.0109 51.1419 15.4429 50.7363 15.1995C50.6145 15.1184 50.4523 15.0778 50.29 15.0778C49.9655 15.0778 49.6815 15.2401 49.5192 15.5241C49.3164 15.9297 48.9918 16.2543 48.6673 16.5383C48.6267 16.5383 48.6267 16.5788 48.5862 16.6194C47.5314 17.4308 46.0709 17.5119 44.8945 16.8628C44.3671 16.5788 43.9208 16.1731 43.6369 15.6458L50.9391 13.4957C51.3853 13.374 51.6287 12.8871 51.507 12.4003C51.507 12.4409 51.507 12.4409 51.507 12.4003ZM46.5578 10.4531C47.1257 10.4531 47.6937 10.5748 48.1805 10.8587C48.6673 11.1427 49.073 11.5484 49.3975 11.9946L49.4381 12.0758L43.1095 13.9419C43.1095 13.3334 43.2312 12.7249 43.5152 12.1975C44.1237 11.1427 45.2596 10.4531 46.5578 10.4531Z" fill="#382757"/>
<path d="M60.8782 17.3902H56.0507L61.4462 9.47941C61.6085 9.27657 61.5273 8.95202 61.3245 8.78975C61.2434 8.74918 61.1622 8.70862 61.0405 8.70862H54.1845C53.7383 8.70862 53.3732 9.07373 53.3732 9.51998C53.3732 9.96622 53.7383 10.3313 54.1845 10.3313H58.7687L53.3732 18.2421C53.2515 18.4044 53.2515 18.5666 53.3326 18.7289C53.4137 18.8912 53.576 18.9723 53.7789 18.9723H60.8377C61.2839 18.9723 61.649 18.6072 61.649 18.1609C61.649 17.7147 61.3245 17.3902 60.8782 17.3902Z" fill="#382757"/>
<path d="M71.5476 17.3901H66.72L72.1156 9.47937C72.1967 9.31709 72.2373 9.15482 72.1561 8.99255C72.075 8.83028 71.9127 8.74915 71.7099 8.74915H64.8539C64.4077 8.74915 64.0425 9.11426 64.0425 9.5605C64.0425 10.0068 64.4077 10.3719 64.8539 10.3719H69.4381L64.0831 18.2826C63.9208 18.4855 64.002 18.81 64.2048 18.9723C64.286 19.0128 64.3671 19.0534 64.4888 19.0534H71.5476C71.9939 19.0534 72.359 18.6883 72.359 18.242C72.359 17.7958 71.9939 17.3901 71.5476 17.3901Z" fill="#382757"/>
<path d="M76.2941 4.24609C75.8478 4.24609 75.4827 4.61121 75.4827 5.05745V18.242C75.4827 18.6883 75.8478 19.0534 76.2941 19.0534C76.7403 19.0534 77.1054 18.6883 77.1054 18.242V5.09802C77.1054 4.65177 76.7809 4.28666 76.3347 4.24609H76.2941Z" fill="#382757"/>
<path d="M89.8032 12.4003C89.6815 11.9135 89.4381 11.4673 89.1947 11.0616C87.9371 9.15488 85.5841 8.26239 83.3935 8.91148C80.6754 9.72284 79.0933 12.5626 79.9046 15.3212C79.9858 15.6052 80.148 16.0109 80.148 16.0109C80.5943 17.0656 81.4056 17.9176 82.4198 18.4044C84.6105 19.5808 87.3286 19.0535 88.9107 17.1468L88.9513 17.1062C89.1135 16.9034 89.2758 16.66 89.3975 16.4165C89.6409 16.0109 89.5192 15.4429 89.073 15.1995C89.073 15.1995 89.073 15.1995 89.0324 15.1995C88.6267 14.9561 88.0588 15.1184 87.8559 15.5241C87.6531 15.9297 87.3286 16.2543 87.004 16.5382C86.9634 16.5382 86.9634 16.5788 86.9229 16.6194C86.5983 16.8628 86.2332 17.0656 85.8275 17.1468C84.9756 17.3902 84.0426 17.309 83.2312 16.8628C82.7038 16.5788 82.2576 16.1731 81.9736 15.6458L89.2353 13.5362C89.6815 13.3739 89.9249 12.8871 89.8032 12.4003ZM84.8539 10.4531C85.4219 10.4531 85.9898 10.5748 86.4766 10.8587C86.9634 11.1427 87.3691 11.5484 87.6937 11.9946L87.7342 12.0758L81.4056 13.9419C81.4056 13.3334 81.5273 12.7249 81.8113 12.1975C82.4198 11.1021 83.5557 10.4125 84.8133 10.4125L84.8539 10.4531Z" fill="#382757"/>
<path d="M38.8093 14.4287C38.5253 14.0636 38.1602 13.739 37.7545 13.5362C36.9432 13.1711 36.0507 12.9277 35.1582 12.8465L34.9959 12.806C34.3874 12.7654 33.8194 12.6031 33.2515 12.4003C32.9675 12.2786 32.7647 11.9946 32.8052 11.6701C32.8052 10.9804 33.576 10.453 34.5497 10.453C35.4827 10.453 36.4158 10.737 37.1866 11.2644C37.5922 11.5078 38.1602 11.3861 38.4036 10.9804C38.647 10.5747 38.5253 10.0068 38.1196 9.76338C37.6734 9.47941 37.1866 9.236 36.6592 9.03316C35.9695 8.78975 35.2799 8.70862 34.5497 8.70862C33.6572 8.70862 32.8052 8.99259 32.1156 9.51998C31.4259 10.0474 31.0202 10.8587 31.0202 11.7106C30.9797 12.6843 31.5476 13.5768 32.4401 13.9825C33.1703 14.307 33.9411 14.5098 34.7119 14.5504H34.8336C36.8215 14.8749 37.43 15.1589 37.43 15.808C37.43 16.6194 36.6186 17.1467 35.3204 17.1873H35.2799C34.3468 17.1873 33.4543 16.9033 32.7241 16.376L32.6024 16.2948C32.1967 16.0514 31.6288 16.1731 31.3854 16.5788C31.1419 16.9845 31.2636 17.5524 31.6693 17.7958L31.7505 17.877H31.791C32.8052 18.6072 34.0628 19.0129 35.3204 19.0129H35.4016C36.3752 19.0534 37.3488 18.7289 38.1602 18.1609C38.8499 17.593 39.2555 16.7816 39.2555 15.8891C39.2555 15.3212 39.0933 14.8344 38.8093 14.4287Z" fill="#382757"/>
</g>
</g>
</g>
<path d="M97.83 17.78C100.812 17.78 103.23 15.3623 103.23 12.38C103.23 9.39764 100.812 6.97998 97.83 6.97998C94.8477 6.97998 92.43 9.39764 92.43 12.38C92.43 15.3623 94.8477 17.78 97.83 17.78Z" stroke="#0066CC" stroke-width="1.2" stroke-linecap="round"/>
<path d="M97.83 10.13C97.9681 10.13 98.08 10.0181 98.08 9.88C98.08 9.74193 97.9681 9.63 97.83 9.63C97.6919 9.63 97.58 9.74193 97.58 9.88C97.58 10.0181 97.6919 10.13 97.83 10.13Z" stroke="#0066CC" stroke-linecap="round"/>
<path d="M97.83 11.88V14.88" stroke="#0066CC" stroke-width="1.3" stroke-linecap="round"/>
<defs>
<linearGradient id="paint0_linear_1_236" x1="17.5836" y1="16.0272" x2="14.3343" y2="12.1532" gradientUnits="userSpaceOnUse">
<stop stop-color="#CE5DCB"/>
<stop offset="0.21" stop-color="#C558CC"/>
<stop offset="0.55" stop-color="#AC4ACF"/>
<stop offset="0.98" stop-color="#8534D4"/>
<stop offset="1" stop-color="#8333D4"/>
</linearGradient>
<linearGradient id="paint1_linear_1_236" x1="17.7026" y1="11.6195" x2="24.6843" y2="11.6195" gradientUnits="userSpaceOnUse">
<stop offset="0.02" stop-color="#FF5667"/>
<stop offset="0.66" stop-color="#FC8B82"/>
<stop offset="1" stop-color="#FBA28E"/>
</linearGradient>
<linearGradient id="paint2_linear_1_236" x1="9.88689" y1="9.11023" x2="19.4931" y2="9.11023" gradientUnits="userSpaceOnUse">
<stop stop-color="#00B874"/>
<stop offset="0.51" stop-color="#29D3A2"/>
<stop offset="0.68" stop-color="#53DFB6"/>
<stop offset="1" stop-color="#9FF4D9"/>
</linearGradient>
<linearGradient id="paint3_linear_1_236" x1="16.4346" y1="15.6579" x2="26.0408" y2="15.6579" gradientUnits="userSpaceOnUse">
<stop stop-color="#FCD77E"/>
<stop offset="0.52" stop-color="#FEA500"/>
<stop offset="1" stop-color="#FF5B00"/>
</linearGradient>
<clipPath id="clip0_1_236">
<rect width="79.94" height="20" fill="white" transform="translate(9.89 2.38)"/>
</clipPath>
<clipPath id="clip1_1_236">
<rect width="79.94" height="20" fill="white" transform="translate(9.89 2.38)"/>
</clipPath>
<clipPath id="clip2_1_236">
<rect width="79.9513" height="20" fill="white" transform="translate(9.88434 2.38)"/>
</clipPath>
</defs>
</svg>
