<svg width="95" height="25" viewBox="0 0 95 25" fill="none" xmlns="http://www.w3.org/2000/svg">
<g clip-path="url(#clip0_1_225)">
<g clip-path="url(#clip1_1_225)">
<g clip-path="url(#clip2_1_225)">
<path d="M20.2085 5.38H17.1205C17.1205 7.91413 15.9573 10.2267 13.9355 11.7499L12.7169 12.6639L17.4528 19.1169H21.344L16.982 13.1762C19.0453 11.1268 20.2085 8.35726 20.2085 5.38ZM9.17194 5.38H12.3292V19.1169H9.17194V5.38ZM22.258 5.38H25.2352V19.1169H22.258V5.38ZM51.352 9.35429C50.2164 9.35429 49.1363 9.70048 48.4162 10.6837V9.61739H45.5913V19.1169H48.4578V14.1317C48.4578 12.6916 49.4271 11.9853 50.5903 11.9853C51.8366 11.9853 52.5567 12.7331 52.5567 14.1179V19.1307H55.3955V13.0793C55.3955 10.8637 53.6368 9.35429 51.352 9.35429ZM34.2362 9.61739V10.2267C33.4331 9.67278 32.4637 9.35429 31.4113 9.35429C28.6418 9.35429 26.3984 11.5976 26.3984 14.3671C26.3984 17.1367 28.6418 19.38 31.4113 19.38C32.4637 19.38 33.4331 19.0615 34.2362 18.5076V19.1169H37.075V9.61739H34.2362ZM31.6467 16.8043C30.2204 16.8043 29.071 15.7104 29.071 14.3671C29.071 13.0239 30.2204 11.93 31.6467 11.93C33.073 11.93 34.2224 13.0239 34.2224 14.3671C34.2224 15.7104 33.073 16.8043 31.6467 16.8043ZM41.4786 10.8498V9.61739H38.5706V19.1169H41.4924V14.6856C41.4924 13.1901 43.1126 12.3869 44.2343 12.3869H44.2619V9.61739C43.1126 9.61739 42.0463 10.1159 41.4786 10.8498ZM64.2303 9.61739V10.2267C63.4271 9.67278 62.4578 9.35429 61.4054 9.35429C58.6358 9.35429 56.3925 11.5976 56.3925 14.3671C56.3925 17.1367 58.6358 19.38 61.4054 19.38C62.4578 19.38 63.4271 19.0615 64.2303 18.5076V19.1169H67.0691V9.61739H64.2303ZM61.6408 16.8043C60.2145 16.8043 59.0651 15.7104 59.0651 14.3671C59.0651 13.0239 60.2145 11.93 61.6408 11.93C63.0671 11.93 64.2164 13.0239 64.2164 14.3671C64.2303 15.7104 63.0671 16.8043 61.6408 16.8043ZM69.2709 9.89435C69.2709 9.75587 69.1739 9.67278 69.0216 9.67278H68.7585V10.3929H68.8831V10.1298H69.0216L69.1324 10.3929H69.2709L69.1462 10.1021C69.2293 10.0605 69.2709 9.99128 69.2709 9.89435ZM69.0216 10.0051H68.8831V9.78357H69.0216C69.1047 9.78357 69.1462 9.82511 69.1462 9.89435C69.1462 9.96359 69.1185 10.0051 69.0216 10.0051Z" fill="black"/>
<path d="M68.98 9.36816C68.6062 9.36816 68.3015 9.67281 68.3015 10.0467C68.3154 10.4206 68.6062 10.7252 68.98 10.7252C69.3539 10.7252 69.6586 10.4206 69.6586 10.0467C69.6586 9.67281 69.3539 9.36816 68.98 9.36816ZM68.98 10.6006C68.6754 10.6006 68.44 10.3513 68.44 10.0467C68.44 9.74205 68.6892 9.49279 68.98 9.49279C69.2847 9.49279 69.5201 9.74205 69.5201 10.0467C69.5201 10.3513 69.2709 10.6006 68.98 10.6006ZM70.1017 15.7519C69.1185 15.7519 68.3154 16.5551 68.3154 17.5383C68.3154 18.5215 69.1185 19.3246 70.1017 19.3246C71.0849 19.3246 71.8881 18.5215 71.8881 17.5383C71.8881 16.5413 71.0849 15.7519 70.1017 15.7519Z" fill="black"/>
</g>
</g>
</g>
<path d="M79.89 17.78C82.8723 17.78 85.29 15.3623 85.29 12.38C85.29 9.39764 82.8723 6.97998 79.89 6.97998C76.9077 6.97998 74.49 9.39764 74.49 12.38C74.49 15.3623 76.9077 17.78 79.89 17.78Z" stroke="#0066CC" stroke-width="1.2" stroke-linecap="round"/>
<path d="M79.89 10.13C80.0281 10.13 80.14 10.0181 80.14 9.88C80.14 9.74193 80.0281 9.63 79.89 9.63C79.7519 9.63 79.64 9.74193 79.64 9.88C79.64 10.0181 79.7519 10.13 79.89 10.13Z" stroke="#0066CC" stroke-linecap="round"/>
<path d="M79.89 11.88V14.88" stroke="#0066CC" stroke-width="1.3" stroke-linecap="round"/>
<defs>
<clipPath id="clip0_1_225">
<rect width="62.72" height="14" fill="white" transform="translate(9.17 5.38)"/>
</clipPath>
<clipPath id="clip1_1_225">
<rect width="62.72" height="14" fill="white" transform="translate(9.17 5.38)"/>
</clipPath>
<clipPath id="clip2_1_225">
<rect width="62.724" height="14" fill="white" transform="translate(9.16799 5.38)"/>
</clipPath>
</defs>
</svg>
