<svg width="27" height="21" viewBox="0 0 27 21" fill="none" xmlns="http://www.w3.org/2000/svg">
<g clip-path="url(#clip0_1_750)">
<g clip-path="url(#clip1_1_750)">
<g clip-path="url(#clip2_1_750)">
<path d="M12.1811 18.5677C12.1811 18.7356 12.1313 18.8998 12.038 19.0395C11.9447 19.1791 11.8121 19.2879 11.6569 19.3522C11.5017 19.4165 11.331 19.4333 11.1663 19.4005C11.0015 19.3678 10.8502 19.2869 10.7315 19.1681C10.6127 19.0494 10.5318 18.8981 10.4991 18.7333C10.4663 18.5686 10.4831 18.3979 10.5474 18.2427C10.6117 18.0875 10.7205 17.9549 10.8602 17.8616C10.9998 17.7683 11.164 17.7185 11.3319 17.7185C11.5571 17.7185 11.7731 17.808 11.9324 17.9672C12.0916 18.1265 12.1811 18.3425 12.1811 18.5677Z" stroke="#03B388" stroke-width="2.16626" stroke-linecap="round" stroke-linejoin="round"/>
<path d="M21.5231 18.5677C21.5231 18.7356 21.4733 18.8998 21.38 19.0395C21.2867 19.1791 21.1541 19.2879 20.9989 19.3522C20.8437 19.4165 20.673 19.4333 20.5083 19.4005C20.3436 19.3678 20.1922 19.2869 20.0735 19.1681C19.9547 19.0494 19.8739 18.8981 19.8411 18.7333C19.8083 18.5686 19.8251 18.3979 19.8894 18.2427C19.9537 18.0875 20.0625 17.9549 20.2022 17.8616C20.3418 17.7683 20.506 17.7185 20.6739 17.7185C20.8992 17.7185 21.1151 17.808 21.2744 17.9672C21.4336 18.1265 21.5231 18.3425 21.5231 18.5677Z" stroke="#03B388" stroke-width="2.16626" stroke-linecap="round" stroke-linejoin="round"/>
<path d="M4.53854 1.58313H7.93524L10.2109 12.956C10.2886 13.3469 10.5013 13.698 10.8118 13.9479C11.1223 14.1978 11.5108 14.3306 11.9092 14.3229H20.1638C20.5623 14.3306 20.9507 14.1978 21.2612 13.9479C21.5717 13.698 21.7844 13.3469 21.8621 12.956L23.2215 5.829H8.78441" stroke="#03B388" stroke-width="2.16626" stroke-linecap="round" stroke-linejoin="round"/>
</g>
</g>
</g>
<defs>
<clipPath id="clip0_1_750">
<rect width="26" height="20" fill="white" transform="translate(0.880005 0.5)"/>
</clipPath>
<clipPath id="clip1_1_750">
<rect width="26" height="20" fill="white" transform="translate(0.880005 0.5)"/>
</clipPath>
<clipPath id="clip2_1_750">
<rect width="20.8492" height="20" fill="white" transform="translate(3.45541 0.5)"/>
</clipPath>
</defs>
</svg>
