<svg width="24" height="24" viewBox="0 0 24 24" fill="none" xmlns="http://www.w3.org/2000/svg">
  <path d="M2 18H22V20H2V18ZM2 15H22C22.55 15 23 15.45 23 16C23 16.55 22.55 17 22 17H2C1.45 17 1 16.55 1 16C1 15.45 1.45 15 2 15Z" fill="#D5322A"/>
  <path d="M4 12C4 10.9 4.9 10 6 10H18C19.1 10 20 10.9 20 12V14H4V12Z" fill="#D5322A" fill-opacity="0.7"/>
  <path d="M6 8C6 6.9 6.9 6 8 6H16C17.1 6 18 6.9 18 8V10H6V8Z" fill="#D5322A" fill-opacity="0.5"/>
  <path d="M8 4C8 2.9 8.9 2 10 2H14C15.1 2 16 2.9 16 4V6H8V4Z" fill="#D5322A" fill-opacity="0.3"/>
  <circle cx="7" cy="7" r="1" fill="#D5322A"/>
  <circle cx="17" cy="7" r="1" fill="#D5322A"/>
  <circle cx="5" cy="11" r="1" fill="#D5322A"/>
  <circle cx="19" cy="11" r="1" fill="#D5322A"/>
</svg>
