<svg width="70" height="17" viewBox="0 0 70 17" fill="none" xmlns="http://www.w3.org/2000/svg">
<g clip-path="url(#clip0_1_2960)">
<g clip-path="url(#clip1_1_2960)">
<g clip-path="url(#clip2_1_2960)">
<path fill-rule="evenodd" clip-rule="evenodd" d="M71.7793 2.89014L70.117 6.41457L66.3997 6.97983C65.9226 7.05239 65.732 7.6661 66.0773 8.01836L68.7671 10.7625L68.1323 14.6372C68.0508 15.1345 68.5496 15.5138 68.9763 15.279L72.301 13.4503L75.6256 15.279C76.0524 15.5138 76.5511 15.1345 76.4697 14.6372L75.8349 10.7625L78.5247 8.01836C78.8699 7.6661 78.6794 7.05239 78.2022 6.97983L74.4849 6.41457L72.8227 2.89014C72.6092 2.43766 71.9927 2.43766 71.7793 2.89014Z" fill="#F39019"/>
</g>
</g>
<g clip-path="url(#clip3_1_2960)">
<g clip-path="url(#clip4_1_2960)">
<path fill-rule="evenodd" clip-rule="evenodd" d="M55.7793 2.89014L54.117 6.41457L50.3997 6.97983C49.9226 7.05239 49.732 7.6661 50.0773 8.01836L52.7671 10.7625L52.1323 14.6372C52.0508 15.1345 52.5496 15.5138 52.9763 15.279L56.301 13.4503L59.6256 15.279C60.0524 15.5138 60.5511 15.1345 60.4697 14.6372L59.8349 10.7625L62.5247 8.01836C62.8699 7.6661 62.6794 7.05239 62.2022 6.97983L58.4849 6.41457L56.8227 2.89014C56.6092 2.43766 55.9927 2.43766 55.7793 2.89014Z" fill="#F39019"/>
</g>
</g>
<g clip-path="url(#clip5_1_2960)">
<g clip-path="url(#clip6_1_2960)">
<path fill-rule="evenodd" clip-rule="evenodd" d="M39.7793 2.89014L38.117 6.41457L34.3997 6.97983C33.9226 7.05239 33.732 7.6661 34.0773 8.01836L36.7671 10.7625L36.1323 14.6372C36.0508 15.1345 36.5496 15.5138 36.9763 15.279L40.301 13.4503L43.6256 15.279C44.0524 15.5138 44.5511 15.1345 44.4697 14.6372L43.8349 10.7625L46.5247 8.01836C46.8699 7.6661 46.6794 7.05239 46.2022 6.97983L42.4849 6.41457L40.8227 2.89014C40.6092 2.43766 39.9927 2.43766 39.7793 2.89014Z" fill="#F39019"/>
</g>
</g>
<g clip-path="url(#clip7_1_2960)">
<g clip-path="url(#clip8_1_2960)">
<path fill-rule="evenodd" clip-rule="evenodd" d="M23.7793 2.89014L22.117 6.41457L18.3997 6.97983C17.9226 7.05239 17.732 7.6661 18.0773 8.01836L20.7671 10.7625L20.1323 14.6372C20.0508 15.1345 20.5496 15.5138 20.9763 15.279L24.301 13.4503L27.6256 15.279C28.0524 15.5138 28.5511 15.1345 28.4697 14.6372L27.8349 10.7625L30.5247 8.01836C30.8699 7.6661 30.6794 7.05239 30.2022 6.97983L26.4849 6.41457L24.8227 2.89014C24.6092 2.43766 23.9927 2.43766 23.7793 2.89014Z" fill="#F39019"/>
</g>
</g>
<g clip-path="url(#clip9_1_2960)">
<g clip-path="url(#clip10_1_2960)">
<path fill-rule="evenodd" clip-rule="evenodd" d="M7.77931 2.89014L6.11704 6.41457L2.39973 6.97983C1.92256 7.05239 1.73202 7.6661 2.0773 8.01836L4.7671 10.7625L4.13232 14.6372C4.05083 15.1345 4.54958 15.5138 4.97635 15.279L8.30099 13.4503L11.6256 15.279C12.0524 15.5138 12.5511 15.1345 12.4697 14.6372L11.8349 10.7625L14.5247 8.01836C14.8699 7.6661 14.6794 7.05239 14.2022 6.97983L10.4849 6.41457L8.82265 2.89014C8.60924 2.43766 7.99272 2.43766 7.77931 2.89014Z" fill="#F39019"/>
</g>
</g>
</g>
<defs>
<clipPath id="clip0_1_2960">
<rect width="68.8" height="16" fill="white" transform="translate(0.300011 0.950195)"/>
</clipPath>
<clipPath id="clip1_1_2960">
<rect width="16" height="16" fill="white" transform="translate(64.3 0.950195)"/>
</clipPath>
<clipPath id="clip2_1_2960">
<rect width="12.8" height="12.8" fill="white" transform="translate(65.9 2.55029)"/>
</clipPath>
<clipPath id="clip3_1_2960">
<rect width="16" height="16" fill="white" transform="translate(48.3 0.950195)"/>
</clipPath>
<clipPath id="clip4_1_2960">
<rect width="12.8" height="12.8" fill="white" transform="translate(49.9 2.55029)"/>
</clipPath>
<clipPath id="clip5_1_2960">
<rect width="16" height="16" fill="white" transform="translate(32.3 0.950195)"/>
</clipPath>
<clipPath id="clip6_1_2960">
<rect width="12.8" height="12.8" fill="white" transform="translate(33.9 2.55029)"/>
</clipPath>
<clipPath id="clip7_1_2960">
<rect width="16" height="16" fill="white" transform="translate(16.3 0.950195)"/>
</clipPath>
<clipPath id="clip8_1_2960">
<rect width="12.8" height="12.8" fill="white" transform="translate(17.9 2.55029)"/>
</clipPath>
<clipPath id="clip9_1_2960">
<rect width="16" height="16" fill="white" transform="translate(0.300011 0.950195)"/>
</clipPath>
<clipPath id="clip10_1_2960">
<rect width="12.8" height="12.8" fill="white" transform="translate(1.90001 2.55029)"/>
</clipPath>
</defs>
</svg>
