<svg width="77" height="17" viewBox="0 0 77 17" fill="none" xmlns="http://www.w3.org/2000/svg">
<g clip-path="url(#clip0_1_462)">
<g clip-path="url(#clip1_1_462)">
<g clip-path="url(#clip2_1_462)">
<path fill-rule="evenodd" clip-rule="evenodd" d="M71.7293 2.3899L70.067 5.91432L66.3497 6.47959C65.8726 6.55215 65.682 7.16586 66.0273 7.51811L68.7171 10.2623L68.0823 14.1369C68.0008 14.6343 68.4996 15.0135 68.9263 14.7788L72.251 12.9501L75.5756 14.7788C76.0024 15.0135 76.5011 14.6343 76.4197 14.1369L75.7849 10.2623L78.4747 7.51811C78.8199 7.16586 78.6294 6.55215 78.1522 6.47959L74.4349 5.91432L72.7726 2.3899C72.5592 1.93742 71.9427 1.93742 71.7293 2.3899Z" fill="#F39019"/>
</g>
</g>
<g clip-path="url(#clip3_1_462)">
<g clip-path="url(#clip4_1_462)">
<path fill-rule="evenodd" clip-rule="evenodd" d="M55.7293 2.3899L54.067 5.91432L50.3497 6.47959C49.8726 6.55215 49.682 7.16586 50.0273 7.51811L52.7171 10.2623L52.0823 14.1369C52.0008 14.6343 52.4996 15.0135 52.9263 14.7788L56.251 12.9501L59.5756 14.7788C60.0024 15.0135 60.5011 14.6343 60.4197 14.1369L59.7849 10.2623L62.4747 7.51811C62.8199 7.16586 62.6294 6.55215 62.1522 6.47959L58.4349 5.91432L56.7726 2.3899C56.5592 1.93742 55.9427 1.93742 55.7293 2.3899Z" fill="#F39019"/>
</g>
</g>
<g clip-path="url(#clip5_1_462)">
<g clip-path="url(#clip6_1_462)">
<path fill-rule="evenodd" clip-rule="evenodd" d="M39.7293 2.3899L38.067 5.91432L34.3497 6.47959C33.8726 6.55215 33.682 7.16586 34.0273 7.51811L36.7171 10.2623L36.0823 14.1369C36.0008 14.6343 36.4996 15.0135 36.9263 14.7788L40.251 12.9501L43.5756 14.7788C44.0024 15.0135 44.5011 14.6343 44.4197 14.1369L43.7849 10.2623L46.4747 7.51811C46.8199 7.16586 46.6294 6.55215 46.1522 6.47959L42.4349 5.91432L40.7726 2.3899C40.5592 1.93742 39.9427 1.93742 39.7293 2.3899Z" fill="#F39019"/>
</g>
</g>
<g clip-path="url(#clip7_1_462)">
<g clip-path="url(#clip8_1_462)">
<path fill-rule="evenodd" clip-rule="evenodd" d="M23.7293 2.3899L22.067 5.91432L18.3497 6.47959C17.8726 6.55215 17.682 7.16586 18.0273 7.51811L20.7171 10.2623L20.0823 14.1369C20.0008 14.6343 20.4996 15.0135 20.9263 14.7788L24.251 12.9501L27.5756 14.7788C28.0024 15.0135 28.5011 14.6343 28.4197 14.1369L27.7849 10.2623L30.4747 7.51811C30.8199 7.16586 30.6294 6.55215 30.1522 6.47959L26.4349 5.91432L24.7726 2.3899C24.5592 1.93742 23.9427 1.93742 23.7293 2.3899Z" fill="#F39019"/>
</g>
</g>
<g clip-path="url(#clip9_1_462)">
<g clip-path="url(#clip10_1_462)">
<path fill-rule="evenodd" clip-rule="evenodd" d="M7.72931 2.3899L6.06703 5.91432L2.34973 6.47959C1.87256 6.55215 1.68202 7.16586 2.02729 7.51811L4.7171 10.2623L4.08231 14.1369C4.00083 14.6343 4.49958 15.0135 4.92635 14.7788L8.25099 12.9501L11.5756 14.7788C12.0024 15.0135 12.5011 14.6343 12.4197 14.1369L11.7849 10.2623L14.4747 7.51811C14.8199 7.16586 14.6294 6.55215 14.1522 6.47959L10.4349 5.91432L8.77265 2.3899C8.55924 1.93742 7.94271 1.93742 7.72931 2.3899Z" fill="#F39019"/>
</g>
</g>
</g>
<defs>
<clipPath id="clip0_1_462">
<rect width="75.84" height="16" fill="white" transform="translate(0.250006 0.449951)"/>
</clipPath>
<clipPath id="clip1_1_462">
<rect width="16" height="16" fill="white" transform="translate(64.25 0.449951)"/>
</clipPath>
<clipPath id="clip2_1_462">
<rect width="12.8" height="12.8" fill="white" transform="translate(65.85 2.05005)"/>
</clipPath>
<clipPath id="clip3_1_462">
<rect width="16" height="16" fill="white" transform="translate(48.25 0.449951)"/>
</clipPath>
<clipPath id="clip4_1_462">
<rect width="12.8" height="12.8" fill="white" transform="translate(49.85 2.05005)"/>
</clipPath>
<clipPath id="clip5_1_462">
<rect width="16" height="16" fill="white" transform="translate(32.25 0.449951)"/>
</clipPath>
<clipPath id="clip6_1_462">
<rect width="12.8" height="12.8" fill="white" transform="translate(33.85 2.05005)"/>
</clipPath>
<clipPath id="clip7_1_462">
<rect width="16" height="16" fill="white" transform="translate(16.25 0.449951)"/>
</clipPath>
<clipPath id="clip8_1_462">
<rect width="12.8" height="12.8" fill="white" transform="translate(17.85 2.05005)"/>
</clipPath>
<clipPath id="clip9_1_462">
<rect width="16" height="16" fill="white" transform="translate(0.250006 0.449951)"/>
</clipPath>
<clipPath id="clip10_1_462">
<rect width="12.8" height="12.8" fill="white" transform="translate(1.85001 2.05005)"/>
</clipPath>
</defs>
</svg>
