<svg width="74" height="17" viewBox="0 0 74 17" fill="none" xmlns="http://www.w3.org/2000/svg">
<g clip-path="url(#clip0_1_2908)">
<g clip-path="url(#clip1_1_2908)">
<g clip-path="url(#clip2_1_2908)">
<path fill-rule="evenodd" clip-rule="evenodd" d="M70.1793 2.89014L68.517 6.41457L64.7997 6.97983C64.3226 7.05239 64.132 7.6661 64.4773 8.01836L67.1671 10.7625L66.5323 14.6372C66.4508 15.1345 66.9496 15.5138 67.3763 15.279L70.701 13.4503L74.0256 15.279C74.4524 15.5138 74.9511 15.1345 74.8697 14.6372L74.2349 10.7625L76.9247 8.01836C77.2699 7.6661 77.0794 7.05239 76.6022 6.97983L72.8849 6.41457L71.2226 2.89014C71.0092 2.43766 70.3927 2.43766 70.1793 2.89014Z" fill="#F39019"/>
</g>
</g>
<g clip-path="url(#clip3_1_2908)">
<g clip-path="url(#clip4_1_2908)">
<path fill-rule="evenodd" clip-rule="evenodd" d="M54.1793 2.89014L52.517 6.41457L48.7997 6.97983C48.3226 7.05239 48.132 7.6661 48.4773 8.01836L51.1671 10.7625L50.5323 14.6372C50.4508 15.1345 50.9496 15.5138 51.3763 15.279L54.701 13.4503L58.0256 15.279C58.4524 15.5138 58.9511 15.1345 58.8697 14.6372L58.2349 10.7625L60.9247 8.01836C61.2699 7.6661 61.0794 7.05239 60.6022 6.97983L56.8849 6.41457L55.2226 2.89014C55.0092 2.43766 54.3927 2.43766 54.1793 2.89014Z" fill="#F39019"/>
</g>
</g>
<g clip-path="url(#clip5_1_2908)">
<g clip-path="url(#clip6_1_2908)">
<path fill-rule="evenodd" clip-rule="evenodd" d="M38.1793 2.89014L36.517 6.41457L32.7997 6.97983C32.3226 7.05239 32.132 7.6661 32.4773 8.01836L35.1671 10.7625L34.5323 14.6372C34.4508 15.1345 34.9496 15.5138 35.3763 15.279L38.701 13.4503L42.0256 15.279C42.4524 15.5138 42.9511 15.1345 42.8697 14.6372L42.2349 10.7625L44.9247 8.01836C45.2699 7.6661 45.0794 7.05239 44.6022 6.97983L40.8849 6.41457L39.2226 2.89014C39.0092 2.43766 38.3927 2.43766 38.1793 2.89014Z" fill="#F39019"/>
</g>
</g>
<g clip-path="url(#clip7_1_2908)">
<g clip-path="url(#clip8_1_2908)">
<path fill-rule="evenodd" clip-rule="evenodd" d="M22.1793 2.89014L20.517 6.41457L16.7997 6.97983C16.3226 7.05239 16.132 7.6661 16.4773 8.01836L19.1671 10.7625L18.5323 14.6372C18.4508 15.1345 18.9496 15.5138 19.3763 15.279L22.701 13.4503L26.0256 15.279C26.4524 15.5138 26.9511 15.1345 26.8697 14.6372L26.2349 10.7625L28.9247 8.01836C29.2699 7.6661 29.0794 7.05239 28.6022 6.97983L24.8849 6.41457L23.2226 2.89014C23.0092 2.43766 22.3927 2.43766 22.1793 2.89014Z" fill="#F39019"/>
</g>
</g>
<g clip-path="url(#clip9_1_2908)">
<g clip-path="url(#clip10_1_2908)">
<path fill-rule="evenodd" clip-rule="evenodd" d="M6.1793 2.89014L4.51703 6.41457L0.799726 6.97983C0.322556 7.05239 0.132016 7.6661 0.477291 8.01836L3.16709 10.7625L2.53231 14.6372C2.45082 15.1345 2.94957 15.5138 3.37634 15.279L6.70098 13.4503L10.0256 15.279C10.4524 15.5138 10.9511 15.1345 10.8697 14.6372L10.2349 10.7625L12.9247 8.01836C13.2699 7.6661 13.0794 7.05239 12.6022 6.97983L8.88492 6.41457L7.22265 2.89014C7.00924 2.43766 6.39271 2.43766 6.1793 2.89014Z" fill="#F39019"/>
</g>
</g>
</g>
<defs>
<clipPath id="clip0_1_2908">
<rect width="74.88" height="16" fill="white" transform="translate(-1.3 0.950195)"/>
</clipPath>
<clipPath id="clip1_1_2908">
<rect width="16" height="16" fill="white" transform="translate(62.7 0.950195)"/>
</clipPath>
<clipPath id="clip2_1_2908">
<rect width="12.8" height="12.8" fill="white" transform="translate(64.3 2.55029)"/>
</clipPath>
<clipPath id="clip3_1_2908">
<rect width="16" height="16" fill="white" transform="translate(46.7 0.950195)"/>
</clipPath>
<clipPath id="clip4_1_2908">
<rect width="12.8" height="12.8" fill="white" transform="translate(48.3 2.55029)"/>
</clipPath>
<clipPath id="clip5_1_2908">
<rect width="16" height="16" fill="white" transform="translate(30.7 0.950195)"/>
</clipPath>
<clipPath id="clip6_1_2908">
<rect width="12.8" height="12.8" fill="white" transform="translate(32.3 2.55029)"/>
</clipPath>
<clipPath id="clip7_1_2908">
<rect width="16" height="16" fill="white" transform="translate(14.7 0.950195)"/>
</clipPath>
<clipPath id="clip8_1_2908">
<rect width="12.8" height="12.8" fill="white" transform="translate(16.3 2.55029)"/>
</clipPath>
<clipPath id="clip9_1_2908">
<rect width="16" height="16" fill="white" transform="translate(-1.3 0.950195)"/>
</clipPath>
<clipPath id="clip10_1_2908">
<rect width="12.8" height="12.8" fill="white" transform="translate(0.300003 2.55029)"/>
</clipPath>
</defs>
</svg>
