<svg width="79" height="18" viewBox="0 0 79 18" fill="none" xmlns="http://www.w3.org/2000/svg">
<g clip-path="url(#clip0_1_4037)">
<g clip-path="url(#clip1_1_4037)">
<path fill-rule="evenodd" clip-rule="evenodd" d="M70.1793 2.60889L68.517 6.13332L64.7997 6.69858C64.3226 6.77114 64.132 7.38485 64.4773 7.73711L67.1671 10.4813L66.5323 14.3559C66.4508 14.8533 66.9496 15.2325 67.3763 14.9978L70.701 13.1691L74.0256 14.9978C74.4524 15.2325 74.9511 14.8533 74.8697 14.3559L74.2349 10.4813L76.9247 7.73711C77.2699 7.38485 77.0794 6.77114 76.6022 6.69858L72.8849 6.13332L71.2226 2.60889C71.0092 2.15641 70.3927 2.15641 70.1793 2.60889Z" fill="#BFBFBF"/>
</g>
</g>
<g clip-path="url(#clip2_1_4037)">
<g clip-path="url(#clip3_1_4037)">
<path fill-rule="evenodd" clip-rule="evenodd" d="M54.1793 2.60889L52.517 6.13332L48.7997 6.69858C48.3226 6.77114 48.132 7.38485 48.4773 7.73711L51.1671 10.4813L50.5323 14.3559C50.4508 14.8533 50.9496 15.2325 51.3763 14.9978L54.701 13.1691L58.0256 14.9978C58.4524 15.2325 58.9511 14.8533 58.8697 14.3559L58.2349 10.4813L60.9247 7.73711C61.2699 7.38485 61.0794 6.77114 60.6022 6.69858L56.8849 6.13332L55.2226 2.60889C55.0092 2.15641 54.3927 2.15641 54.1793 2.60889Z" fill="#BFBFBF"/>
</g>
</g>
<g clip-path="url(#clip4_1_4037)">
<g clip-path="url(#clip5_1_4037)">
<path fill-rule="evenodd" clip-rule="evenodd" d="M38.1793 2.60889L36.517 6.13332L32.7997 6.69858C32.3226 6.77114 32.132 7.38485 32.4773 7.73711L35.1671 10.4813L34.5323 14.3559C34.4508 14.8533 34.9496 15.2325 35.3763 14.9978L38.701 13.1691L42.0256 14.9978C42.4524 15.2325 42.9511 14.8533 42.8697 14.3559L42.2349 10.4813L44.9247 7.73711C45.2699 7.38485 45.0794 6.77114 44.6022 6.69858L40.8849 6.13332L39.2226 2.60889C39.0092 2.15641 38.3927 2.15641 38.1793 2.60889Z" fill="#BFBFBF"/>
</g>
</g>
<g clip-path="url(#clip6_1_4037)">
<g clip-path="url(#clip7_1_4037)">
<path fill-rule="evenodd" clip-rule="evenodd" d="M22.1793 2.60889L20.517 6.13332L16.7997 6.69858C16.3226 6.77114 16.132 7.38485 16.4773 7.73711L19.1671 10.4813L18.5323 14.3559C18.4508 14.8533 18.9496 15.2325 19.3763 14.9978L22.701 13.1691L26.0256 14.9978C26.4524 15.2325 26.9511 14.8533 26.8697 14.3559L26.2349 10.4813L28.9247 7.73711C29.2699 7.38485 29.0794 6.77114 28.6022 6.69858L24.8849 6.13332L23.2226 2.60889C23.0092 2.15641 22.3927 2.15641 22.1793 2.60889Z" fill="#BFBFBF"/>
</g>
</g>
<g clip-path="url(#clip8_1_4037)">
<g clip-path="url(#clip9_1_4037)">
<path fill-rule="evenodd" clip-rule="evenodd" d="M6.1793 2.60889L4.51703 6.13332L0.799726 6.69858C0.322556 6.77114 0.132016 7.38485 0.477291 7.73711L3.16709 10.4813L2.53231 14.3559C2.45082 14.8533 2.94957 15.2325 3.37634 14.9978L6.70098 13.1691L10.0256 14.9978C10.4524 15.2325 10.9511 14.8533 10.8697 14.3559L10.2349 10.4813L12.9247 7.73711C13.2699 7.38485 13.0794 6.77114 12.6022 6.69858L8.88492 6.13332L7.22265 2.60889C7.00924 2.15641 6.39271 2.15641 6.1793 2.60889Z" fill="#BFBFBF"/>
</g>
</g>
<g clip-path="url(#clip10_1_4037)">
<g clip-path="url(#clip11_1_4037)">
<g clip-path="url(#clip12_1_4037)">
<path fill-rule="evenodd" clip-rule="evenodd" d="M70.1793 3.10889L68.517 6.63332L64.7997 7.19858C64.3226 7.27114 64.132 7.88485 64.4773 8.23711L67.1671 10.9813L66.5323 14.8559C66.4508 15.3533 66.9496 15.7325 67.3763 15.4978L70.701 13.6691L74.0256 15.4978C74.4524 15.7325 74.9511 15.3533 74.8697 14.8559L74.2349 10.9813L76.9247 8.23711C77.2699 7.88485 77.0794 7.27114 76.6022 7.19858L72.8849 6.63332L71.2226 3.10889C71.0092 2.65641 70.3927 2.65641 70.1793 3.10889Z" fill="#F39019"/>
</g>
</g>
<g clip-path="url(#clip13_1_4037)">
<g clip-path="url(#clip14_1_4037)">
<path fill-rule="evenodd" clip-rule="evenodd" d="M54.1793 3.10889L52.517 6.63332L48.7997 7.19858C48.3226 7.27114 48.132 7.88485 48.4773 8.23711L51.1671 10.9813L50.5323 14.8559C50.4508 15.3533 50.9496 15.7325 51.3763 15.4978L54.701 13.6691L58.0256 15.4978C58.4524 15.7325 58.9511 15.3533 58.8697 14.8559L58.2349 10.9813L60.9247 8.23711C61.2699 7.88485 61.0794 7.27114 60.6022 7.19858L56.8849 6.63332L55.2226 3.10889C55.0092 2.65641 54.3927 2.65641 54.1793 3.10889Z" fill="#F39019"/>
</g>
</g>
<g clip-path="url(#clip15_1_4037)">
<g clip-path="url(#clip16_1_4037)">
<path fill-rule="evenodd" clip-rule="evenodd" d="M38.1793 3.10889L36.517 6.63332L32.7997 7.19858C32.3226 7.27114 32.132 7.88485 32.4773 8.23711L35.1671 10.9813L34.5323 14.8559C34.4508 15.3533 34.9496 15.7325 35.3763 15.4978L38.701 13.6691L42.0256 15.4978C42.4524 15.7325 42.9511 15.3533 42.8697 14.8559L42.2349 10.9813L44.9247 8.23711C45.2699 7.88485 45.0794 7.27114 44.6022 7.19858L40.8849 6.63332L39.2226 3.10889C39.0092 2.65641 38.3927 2.65641 38.1793 3.10889Z" fill="#F39019"/>
</g>
</g>
<g clip-path="url(#clip17_1_4037)">
<g clip-path="url(#clip18_1_4037)">
<path fill-rule="evenodd" clip-rule="evenodd" d="M22.1793 3.10889L20.517 6.63332L16.7997 7.19858C16.3226 7.27114 16.132 7.88485 16.4773 8.23711L19.1671 10.9813L18.5323 14.8559C18.4508 15.3533 18.9496 15.7325 19.3763 15.4978L22.701 13.6691L26.0256 15.4978C26.4524 15.7325 26.9511 15.3533 26.8697 14.8559L26.2349 10.9813L28.9247 8.23711C29.2699 7.88485 29.0794 7.27114 28.6022 7.19858L24.8849 6.63332L23.2226 3.10889C23.0092 2.65641 22.3927 2.65641 22.1793 3.10889Z" fill="#F39019"/>
</g>
</g>
<g clip-path="url(#clip19_1_4037)">
<g clip-path="url(#clip20_1_4037)">
<path fill-rule="evenodd" clip-rule="evenodd" d="M6.1793 3.10889L4.51703 6.63332L0.799726 7.19858C0.322556 7.27114 0.132016 7.88485 0.477291 8.23711L3.16709 10.9813L2.53231 14.8559C2.45082 15.3533 2.94957 15.7325 3.37634 15.4978L6.70098 13.6691L10.0256 15.4978C10.4524 15.7325 10.9511 15.3533 10.8697 14.8559L10.2349 10.9813L12.9247 8.23711C13.2699 7.88485 13.0794 7.27114 12.6022 7.19858L8.88492 6.63332L7.22265 3.10889C7.00924 2.65641 6.39271 2.65641 6.1793 3.10889Z" fill="#F39019"/>
</g>
</g>
</g>
<defs>
<clipPath id="clip0_1_4037">
<rect width="16" height="16" fill="white" transform="translate(62.7 0.669922)"/>
</clipPath>
<clipPath id="clip1_1_4037">
<rect width="12.8" height="12.8" fill="white" transform="translate(64.3 2.26953)"/>
</clipPath>
<clipPath id="clip2_1_4037">
<rect width="16" height="16" fill="white" transform="translate(46.7 0.669922)"/>
</clipPath>
<clipPath id="clip3_1_4037">
<rect width="12.8" height="12.8" fill="white" transform="translate(48.3 2.26953)"/>
</clipPath>
<clipPath id="clip4_1_4037">
<rect width="16" height="16" fill="white" transform="translate(30.7 0.669922)"/>
</clipPath>
<clipPath id="clip5_1_4037">
<rect width="12.8" height="12.8" fill="white" transform="translate(32.3 2.26953)"/>
</clipPath>
<clipPath id="clip6_1_4037">
<rect width="16" height="16" fill="white" transform="translate(14.7 0.669922)"/>
</clipPath>
<clipPath id="clip7_1_4037">
<rect width="12.8" height="12.8" fill="white" transform="translate(16.3 2.26953)"/>
</clipPath>
<clipPath id="clip8_1_4037">
<rect width="16" height="16" fill="white" transform="translate(-1.3 0.669922)"/>
</clipPath>
<clipPath id="clip9_1_4037">
<rect width="12.8" height="12.8" fill="white" transform="translate(0.300003 2.26953)"/>
</clipPath>
<clipPath id="clip10_1_4037">
<rect width="80" height="16" fill="white" transform="translate(-1.3 1.16992)"/>
</clipPath>
<clipPath id="clip11_1_4037">
<rect width="16" height="16" fill="white" transform="translate(62.7 1.16992)"/>
</clipPath>
<clipPath id="clip12_1_4037">
<rect width="12.8" height="12.8" fill="white" transform="translate(64.3 2.76953)"/>
</clipPath>
<clipPath id="clip13_1_4037">
<rect width="16" height="16" fill="white" transform="translate(46.7 1.16992)"/>
</clipPath>
<clipPath id="clip14_1_4037">
<rect width="12.8" height="12.8" fill="white" transform="translate(48.3 2.76953)"/>
</clipPath>
<clipPath id="clip15_1_4037">
<rect width="16" height="16" fill="white" transform="translate(30.7 1.16992)"/>
</clipPath>
<clipPath id="clip16_1_4037">
<rect width="12.8" height="12.8" fill="white" transform="translate(32.3 2.76953)"/>
</clipPath>
<clipPath id="clip17_1_4037">
<rect width="16" height="16" fill="white" transform="translate(14.7 1.16992)"/>
</clipPath>
<clipPath id="clip18_1_4037">
<rect width="12.8" height="12.8" fill="white" transform="translate(16.3 2.76953)"/>
</clipPath>
<clipPath id="clip19_1_4037">
<rect width="16" height="16" fill="white" transform="translate(-1.3 1.16992)"/>
</clipPath>
<clipPath id="clip20_1_4037">
<rect width="12.8" height="12.8" fill="white" transform="translate(0.300003 2.76953)"/>
</clipPath>
</defs>
</svg>
