<svg width="79" height="18" viewBox="0 0 79 18" fill="none" xmlns="http://www.w3.org/2000/svg">
<g clip-path="url(#clip0_1_3859)">
<g clip-path="url(#clip1_1_3859)">
<path fill-rule="evenodd" clip-rule="evenodd" d="M70.1793 2.61866L68.517 6.14308L64.7997 6.70835C64.3226 6.78091 64.132 7.39462 64.4773 7.74687L67.1671 10.491L66.5323 14.3657C66.4508 14.863 66.9496 15.2423 67.3763 15.0075L70.701 13.1789L74.0256 15.0075C74.4524 15.2423 74.9511 14.863 74.8697 14.3657L74.2349 10.491L76.9247 7.74687C77.2699 7.39462 77.0794 6.78091 76.6022 6.70835L72.8849 6.14308L71.2226 2.61866C71.0092 2.16618 70.3927 2.16618 70.1793 2.61866Z" fill="#BFBFBF"/>
</g>
</g>
<g clip-path="url(#clip2_1_3859)">
<g clip-path="url(#clip3_1_3859)">
<path fill-rule="evenodd" clip-rule="evenodd" d="M54.1793 2.61866L52.517 6.14308L48.7997 6.70835C48.3226 6.78091 48.132 7.39462 48.4773 7.74687L51.1671 10.491L50.5323 14.3657C50.4508 14.863 50.9496 15.2423 51.3763 15.0075L54.701 13.1789L58.0256 15.0075C58.4524 15.2423 58.9511 14.863 58.8697 14.3657L58.2349 10.491L60.9247 7.74687C61.2699 7.39462 61.0794 6.78091 60.6022 6.70835L56.8849 6.14308L55.2226 2.61866C55.0092 2.16618 54.3927 2.16618 54.1793 2.61866Z" fill="#BFBFBF"/>
</g>
</g>
<g clip-path="url(#clip4_1_3859)">
<g clip-path="url(#clip5_1_3859)">
<path fill-rule="evenodd" clip-rule="evenodd" d="M38.1793 2.61866L36.517 6.14308L32.7997 6.70835C32.3226 6.78091 32.132 7.39462 32.4773 7.74687L35.1671 10.491L34.5323 14.3657C34.4508 14.863 34.9496 15.2423 35.3763 15.0075L38.701 13.1789L42.0256 15.0075C42.4524 15.2423 42.9511 14.863 42.8697 14.3657L42.2349 10.491L44.9247 7.74687C45.2699 7.39462 45.0794 6.78091 44.6022 6.70835L40.8849 6.14308L39.2226 2.61866C39.0092 2.16618 38.3927 2.16618 38.1793 2.61866Z" fill="#BFBFBF"/>
</g>
</g>
<g clip-path="url(#clip6_1_3859)">
<g clip-path="url(#clip7_1_3859)">
<path fill-rule="evenodd" clip-rule="evenodd" d="M22.1793 2.61866L20.517 6.14308L16.7997 6.70835C16.3226 6.78091 16.132 7.39462 16.4773 7.74687L19.1671 10.491L18.5323 14.3657C18.4508 14.863 18.9496 15.2423 19.3763 15.0075L22.701 13.1789L26.0256 15.0075C26.4524 15.2423 26.9511 14.863 26.8697 14.3657L26.2349 10.491L28.9247 7.74687C29.2699 7.39462 29.0794 6.78091 28.6022 6.70835L24.8849 6.14308L23.2226 2.61866C23.0092 2.16618 22.3927 2.16618 22.1793 2.61866Z" fill="#BFBFBF"/>
</g>
</g>
<g clip-path="url(#clip8_1_3859)">
<g clip-path="url(#clip9_1_3859)">
<path fill-rule="evenodd" clip-rule="evenodd" d="M6.1793 2.61866L4.51703 6.14308L0.799726 6.70835C0.322556 6.78091 0.132016 7.39462 0.477291 7.74687L3.16709 10.491L2.53231 14.3657C2.45082 14.863 2.94957 15.2423 3.37634 15.0075L6.70098 13.1789L10.0256 15.0075C10.4524 15.2423 10.9511 14.863 10.8697 14.3657L10.2349 10.491L12.9247 7.74687C13.2699 7.39462 13.0794 6.78091 12.6022 6.70835L8.88492 6.14308L7.22265 2.61866C7.00924 2.16618 6.39271 2.16618 6.1793 2.61866Z" fill="#BFBFBF"/>
</g>
</g>
<g clip-path="url(#clip10_1_3859)">
<g clip-path="url(#clip11_1_3859)">
<g clip-path="url(#clip12_1_3859)">
<path fill-rule="evenodd" clip-rule="evenodd" d="M70.1793 3.11866L68.517 6.64308L64.7997 7.20835C64.3226 7.28091 64.132 7.89462 64.4773 8.24687L67.1671 10.991L66.5323 14.8657C66.4508 15.363 66.9496 15.7423 67.3763 15.5075L70.701 13.6789L74.0256 15.5075C74.4524 15.7423 74.9511 15.363 74.8697 14.8657L74.2349 10.991L76.9247 8.24687C77.2699 7.89462 77.0794 7.28091 76.6022 7.20835L72.8849 6.64308L71.2226 3.11866C71.0092 2.66618 70.3927 2.66618 70.1793 3.11866Z" fill="#F39019"/>
</g>
</g>
<g clip-path="url(#clip13_1_3859)">
<g clip-path="url(#clip14_1_3859)">
<path fill-rule="evenodd" clip-rule="evenodd" d="M54.1793 3.11866L52.517 6.64308L48.7997 7.20835C48.3226 7.28091 48.132 7.89462 48.4773 8.24687L51.1671 10.991L50.5323 14.8657C50.4508 15.363 50.9496 15.7423 51.3763 15.5075L54.701 13.6789L58.0256 15.5075C58.4524 15.7423 58.9511 15.363 58.8697 14.8657L58.2349 10.991L60.9247 8.24687C61.2699 7.89462 61.0794 7.28091 60.6022 7.20835L56.8849 6.64308L55.2226 3.11866C55.0092 2.66618 54.3927 2.66618 54.1793 3.11866Z" fill="#F39019"/>
</g>
</g>
<g clip-path="url(#clip15_1_3859)">
<g clip-path="url(#clip16_1_3859)">
<path fill-rule="evenodd" clip-rule="evenodd" d="M38.1793 3.11866L36.517 6.64308L32.7997 7.20835C32.3226 7.28091 32.132 7.89462 32.4773 8.24687L35.1671 10.991L34.5323 14.8657C34.4508 15.363 34.9496 15.7423 35.3763 15.5075L38.701 13.6789L42.0256 15.5075C42.4524 15.7423 42.9511 15.363 42.8697 14.8657L42.2349 10.991L44.9247 8.24687C45.2699 7.89462 45.0794 7.28091 44.6022 7.20835L40.8849 6.64308L39.2226 3.11866C39.0092 2.66618 38.3927 2.66618 38.1793 3.11866Z" fill="#F39019"/>
</g>
</g>
<g clip-path="url(#clip17_1_3859)">
<g clip-path="url(#clip18_1_3859)">
<path fill-rule="evenodd" clip-rule="evenodd" d="M22.1793 3.11866L20.517 6.64308L16.7997 7.20835C16.3226 7.28091 16.132 7.89462 16.4773 8.24687L19.1671 10.991L18.5323 14.8657C18.4508 15.363 18.9496 15.7423 19.3763 15.5075L22.701 13.6789L26.0256 15.5075C26.4524 15.7423 26.9511 15.363 26.8697 14.8657L26.2349 10.991L28.9247 8.24687C29.2699 7.89462 29.0794 7.28091 28.6022 7.20835L24.8849 6.64308L23.2226 3.11866C23.0092 2.66618 22.3927 2.66618 22.1793 3.11866Z" fill="#F39019"/>
</g>
</g>
<g clip-path="url(#clip19_1_3859)">
<g clip-path="url(#clip20_1_3859)">
<path fill-rule="evenodd" clip-rule="evenodd" d="M6.1793 3.11866L4.51703 6.64308L0.799726 7.20835C0.322556 7.28091 0.132016 7.89462 0.477291 8.24687L3.16709 10.991L2.53231 14.8657C2.45082 15.363 2.94957 15.7423 3.37634 15.5075L6.70098 13.6789L10.0256 15.5075C10.4524 15.7423 10.9511 15.363 10.8697 14.8657L10.2349 10.991L12.9247 8.24687C13.2699 7.89462 13.0794 7.28091 12.6022 7.20835L8.88492 6.64308L7.22265 3.11866C7.00924 2.66618 6.39271 2.66618 6.1793 3.11866Z" fill="#F39019"/>
</g>
</g>
</g>
<defs>
<clipPath id="clip0_1_3859">
<rect width="16" height="16" fill="white" transform="translate(62.7 0.679688)"/>
</clipPath>
<clipPath id="clip1_1_3859">
<rect width="12.8" height="12.8" fill="white" transform="translate(64.3 2.2793)"/>
</clipPath>
<clipPath id="clip2_1_3859">
<rect width="16" height="16" fill="white" transform="translate(46.7 0.679688)"/>
</clipPath>
<clipPath id="clip3_1_3859">
<rect width="12.8" height="12.8" fill="white" transform="translate(48.3 2.2793)"/>
</clipPath>
<clipPath id="clip4_1_3859">
<rect width="16" height="16" fill="white" transform="translate(30.7 0.679688)"/>
</clipPath>
<clipPath id="clip5_1_3859">
<rect width="12.8" height="12.8" fill="white" transform="translate(32.3 2.2793)"/>
</clipPath>
<clipPath id="clip6_1_3859">
<rect width="16" height="16" fill="white" transform="translate(14.7 0.679688)"/>
</clipPath>
<clipPath id="clip7_1_3859">
<rect width="12.8" height="12.8" fill="white" transform="translate(16.3 2.2793)"/>
</clipPath>
<clipPath id="clip8_1_3859">
<rect width="16" height="16" fill="white" transform="translate(-1.3 0.679688)"/>
</clipPath>
<clipPath id="clip9_1_3859">
<rect width="12.8" height="12.8" fill="white" transform="translate(0.300003 2.2793)"/>
</clipPath>
<clipPath id="clip10_1_3859">
<rect width="80" height="16" fill="white" transform="translate(-1.3 1.17969)"/>
</clipPath>
<clipPath id="clip11_1_3859">
<rect width="16" height="16" fill="white" transform="translate(62.7 1.17969)"/>
</clipPath>
<clipPath id="clip12_1_3859">
<rect width="12.8" height="12.8" fill="white" transform="translate(64.3 2.7793)"/>
</clipPath>
<clipPath id="clip13_1_3859">
<rect width="16" height="16" fill="white" transform="translate(46.7 1.17969)"/>
</clipPath>
<clipPath id="clip14_1_3859">
<rect width="12.8" height="12.8" fill="white" transform="translate(48.3 2.7793)"/>
</clipPath>
<clipPath id="clip15_1_3859">
<rect width="16" height="16" fill="white" transform="translate(30.7 1.17969)"/>
</clipPath>
<clipPath id="clip16_1_3859">
<rect width="12.8" height="12.8" fill="white" transform="translate(32.3 2.7793)"/>
</clipPath>
<clipPath id="clip17_1_3859">
<rect width="16" height="16" fill="white" transform="translate(14.7 1.17969)"/>
</clipPath>
<clipPath id="clip18_1_3859">
<rect width="12.8" height="12.8" fill="white" transform="translate(16.3 2.7793)"/>
</clipPath>
<clipPath id="clip19_1_3859">
<rect width="16" height="16" fill="white" transform="translate(-1.3 1.17969)"/>
</clipPath>
<clipPath id="clip20_1_3859">
<rect width="12.8" height="12.8" fill="white" transform="translate(0.300003 2.7793)"/>
</clipPath>
</defs>
</svg>
