<svg width="76" height="17" viewBox="0 0 76 17" fill="none" xmlns="http://www.w3.org/2000/svg">
<g clip-path="url(#clip0_1_1456)">
<g clip-path="url(#clip1_1_1456)">
<g clip-path="url(#clip2_1_1456)">
<path fill-rule="evenodd" clip-rule="evenodd" d="M72.3793 1.99L70.717 5.51442L66.9997 6.07968C66.5226 6.15224 66.332 6.76596 66.6773 7.11821L69.3671 9.86236L68.7323 13.737C68.6508 14.2344 69.1496 14.6136 69.5763 14.3789L72.901 12.5502L76.2256 14.3789C76.6524 14.6136 77.1511 14.2344 77.0697 13.737L76.4349 9.86236L79.1247 7.11821C79.4699 6.76596 79.2794 6.15224 78.8022 6.07968L75.0849 5.51442L73.4226 1.99C73.2092 1.53751 72.5927 1.53751 72.3793 1.99Z" fill="#F39019"/>
</g>
</g>
<g clip-path="url(#clip3_1_1456)">
<g clip-path="url(#clip4_1_1456)">
<path fill-rule="evenodd" clip-rule="evenodd" d="M56.3793 1.99L54.717 5.51442L50.9997 6.07968C50.5226 6.15224 50.332 6.76596 50.6773 7.11821L53.3671 9.86236L52.7323 13.737C52.6508 14.2344 53.1496 14.6136 53.5763 14.3789L56.901 12.5502L60.2256 14.3789C60.6524 14.6136 61.1511 14.2344 61.0697 13.737L60.4349 9.86236L63.1247 7.11821C63.4699 6.76596 63.2794 6.15224 62.8022 6.07968L59.0849 5.51442L57.4226 1.99C57.2092 1.53751 56.5927 1.53751 56.3793 1.99Z" fill="#F39019"/>
</g>
</g>
<g clip-path="url(#clip5_1_1456)">
<g clip-path="url(#clip6_1_1456)">
<path fill-rule="evenodd" clip-rule="evenodd" d="M40.3793 1.99L38.717 5.51442L34.9997 6.07968C34.5226 6.15224 34.332 6.76596 34.6773 7.11821L37.3671 9.86236L36.7323 13.737C36.6508 14.2344 37.1496 14.6136 37.5763 14.3789L40.901 12.5502L44.2256 14.3789C44.6524 14.6136 45.1511 14.2344 45.0697 13.737L44.4349 9.86236L47.1247 7.11821C47.4699 6.76596 47.2794 6.15224 46.8022 6.07968L43.0849 5.51442L41.4226 1.99C41.2092 1.53751 40.5927 1.53751 40.3793 1.99Z" fill="#F39019"/>
</g>
</g>
<g clip-path="url(#clip7_1_1456)">
<g clip-path="url(#clip8_1_1456)">
<path fill-rule="evenodd" clip-rule="evenodd" d="M24.3793 1.99L22.717 5.51442L18.9997 6.07968C18.5226 6.15224 18.332 6.76596 18.6773 7.11821L21.3671 9.86236L20.7323 13.737C20.6508 14.2344 21.1496 14.6136 21.5763 14.3789L24.901 12.5502L28.2256 14.3789C28.6524 14.6136 29.1511 14.2344 29.0697 13.737L28.4349 9.86236L31.1247 7.11821C31.4699 6.76596 31.2794 6.15224 30.8022 6.07968L27.0849 5.51442L25.4226 1.99C25.2092 1.53751 24.5927 1.53751 24.3793 1.99Z" fill="#F39019"/>
</g>
</g>
<g clip-path="url(#clip9_1_1456)">
<g clip-path="url(#clip10_1_1456)">
<path fill-rule="evenodd" clip-rule="evenodd" d="M8.3793 1.99L6.71703 5.51442L2.99972 6.07968C2.52255 6.15224 2.33201 6.76596 2.67729 7.11821L5.36709 9.86236L4.73231 13.737C4.65082 14.2344 5.14957 14.6136 5.57634 14.3789L8.90098 12.5502L12.2256 14.3789C12.6524 14.6136 13.1511 14.2344 13.0697 13.737L12.4349 9.86236L15.1247 7.11821C15.4699 6.76596 15.2794 6.15224 14.8022 6.07968L11.0849 5.51442L9.42264 1.99C9.20924 1.53751 8.59271 1.53751 8.3793 1.99Z" fill="#F39019"/>
</g>
</g>
</g>
<defs>
<clipPath id="clip0_1_1456">
<rect width="74.71" height="16" fill="white" transform="translate(0.900002 0.0500488)"/>
</clipPath>
<clipPath id="clip1_1_1456">
<rect width="16" height="16" fill="white" transform="translate(64.9 0.0500488)"/>
</clipPath>
<clipPath id="clip2_1_1456">
<rect width="12.8" height="12.8" fill="white" transform="translate(66.5 1.65015)"/>
</clipPath>
<clipPath id="clip3_1_1456">
<rect width="16" height="16" fill="white" transform="translate(48.9 0.0500488)"/>
</clipPath>
<clipPath id="clip4_1_1456">
<rect width="12.8" height="12.8" fill="white" transform="translate(50.5 1.65015)"/>
</clipPath>
<clipPath id="clip5_1_1456">
<rect width="16" height="16" fill="white" transform="translate(32.9 0.0500488)"/>
</clipPath>
<clipPath id="clip6_1_1456">
<rect width="12.8" height="12.8" fill="white" transform="translate(34.5 1.65015)"/>
</clipPath>
<clipPath id="clip7_1_1456">
<rect width="16" height="16" fill="white" transform="translate(16.9 0.0500488)"/>
</clipPath>
<clipPath id="clip8_1_1456">
<rect width="12.8" height="12.8" fill="white" transform="translate(18.5 1.65015)"/>
</clipPath>
<clipPath id="clip9_1_1456">
<rect width="16" height="16" fill="white" transform="translate(0.900002 0.0500488)"/>
</clipPath>
<clipPath id="clip10_1_1456">
<rect width="12.8" height="12.8" fill="white" transform="translate(2.5 1.65015)"/>
</clipPath>
</defs>
</svg>
