<svg width="81" height="17" viewBox="0 0 81 17" fill="none" xmlns="http://www.w3.org/2000/svg">
<g clip-path="url(#clip0_1_4171)">
<g clip-path="url(#clip1_1_4171)">
<path fill-rule="evenodd" clip-rule="evenodd" d="M71.9693 2.33985L70.307 5.86427L66.5897 6.42954C66.1126 6.5021 65.922 7.11581 66.2673 7.46807L68.9571 10.2122L68.3223 14.0869C68.2408 14.5842 68.7396 14.9635 69.1663 14.7287L72.491 12.9001L75.8156 14.7287C76.2424 14.9635 76.7411 14.5842 76.6597 14.0869L76.0249 10.2122L78.7147 7.46807C79.0599 7.11581 78.8694 6.5021 78.3922 6.42954L74.6749 5.86427L73.0126 2.33985C72.7992 1.88737 72.1827 1.88737 71.9693 2.33985Z" fill="#BFBFBF"/>
</g>
</g>
<g clip-path="url(#clip2_1_4171)">
<g clip-path="url(#clip3_1_4171)">
<path fill-rule="evenodd" clip-rule="evenodd" d="M55.9693 2.33985L54.307 5.86427L50.5897 6.42954C50.1126 6.5021 49.922 7.11581 50.2673 7.46807L52.9571 10.2122L52.3223 14.0869C52.2408 14.5842 52.7396 14.9635 53.1663 14.7287L56.491 12.9001L59.8156 14.7287C60.2424 14.9635 60.7411 14.5842 60.6597 14.0869L60.0249 10.2122L62.7147 7.46807C63.0599 7.11581 62.8694 6.5021 62.3922 6.42954L58.6749 5.86427L57.0126 2.33985C56.7992 1.88737 56.1827 1.88737 55.9693 2.33985Z" fill="#BFBFBF"/>
</g>
</g>
<g clip-path="url(#clip4_1_4171)">
<g clip-path="url(#clip5_1_4171)">
<path fill-rule="evenodd" clip-rule="evenodd" d="M39.9693 2.33985L38.307 5.86427L34.5897 6.42954C34.1126 6.5021 33.922 7.11581 34.2673 7.46807L36.9571 10.2122L36.3223 14.0869C36.2408 14.5842 36.7396 14.9635 37.1663 14.7287L40.491 12.9001L43.8156 14.7287C44.2424 14.9635 44.7411 14.5842 44.6597 14.0869L44.0249 10.2122L46.7147 7.46807C47.0599 7.11581 46.8694 6.5021 46.3922 6.42954L42.6749 5.86427L41.0126 2.33985C40.7992 1.88737 40.1827 1.88737 39.9693 2.33985Z" fill="#BFBFBF"/>
</g>
</g>
<g clip-path="url(#clip6_1_4171)">
<g clip-path="url(#clip7_1_4171)">
<path fill-rule="evenodd" clip-rule="evenodd" d="M23.9693 2.33985L22.307 5.86427L18.5897 6.42954C18.1126 6.5021 17.922 7.11581 18.2673 7.46807L20.9571 10.2122L20.3223 14.0869C20.2408 14.5842 20.7396 14.9635 21.1663 14.7287L24.491 12.9001L27.8156 14.7287C28.2424 14.9635 28.7411 14.5842 28.6597 14.0869L28.0249 10.2122L30.7147 7.46807C31.0599 7.11581 30.8694 6.5021 30.3922 6.42954L26.6749 5.86427L25.0126 2.33985C24.7992 1.88737 24.1827 1.88737 23.9693 2.33985Z" fill="#BFBFBF"/>
</g>
</g>
<g clip-path="url(#clip8_1_4171)">
<g clip-path="url(#clip9_1_4171)">
<path fill-rule="evenodd" clip-rule="evenodd" d="M7.9693 2.33985L6.30703 5.86427L2.58973 6.42954C2.11256 6.5021 1.92202 7.11581 2.26729 7.46807L4.9571 10.2122L4.32231 14.0869C4.24082 14.5842 4.73958 14.9635 5.16634 14.7287L8.49098 12.9001L11.8156 14.7287C12.2424 14.9635 12.7411 14.5842 12.6597 14.0869L12.0249 10.2122L14.7147 7.46807C15.0599 7.11581 14.8694 6.5021 14.3922 6.42954L10.6749 5.86427L9.01265 2.33985C8.79924 1.88737 8.18271 1.88737 7.9693 2.33985Z" fill="#BFBFBF"/>
</g>
</g>
<g clip-path="url(#clip10_1_4171)">
<g clip-path="url(#clip11_1_4171)">
<g clip-path="url(#clip12_1_4171)">
<path fill-rule="evenodd" clip-rule="evenodd" d="M71.9693 2.83985L70.307 6.36427L66.5897 6.92954C66.1126 7.0021 65.922 7.61581 66.2673 7.96807L68.9571 10.7122L68.3223 14.5869C68.2408 15.0842 68.7396 15.4635 69.1663 15.2287L72.491 13.4001L75.8156 15.2287C76.2424 15.4635 76.7411 15.0842 76.6597 14.5869L76.0249 10.7122L78.7147 7.96807C79.0599 7.61581 78.8694 7.0021 78.3922 6.92954L74.6749 6.36427L73.0126 2.83985C72.7992 2.38737 72.1827 2.38737 71.9693 2.83985Z" fill="#F39019"/>
</g>
</g>
<g clip-path="url(#clip13_1_4171)">
<g clip-path="url(#clip14_1_4171)">
<path fill-rule="evenodd" clip-rule="evenodd" d="M55.9693 2.83985L54.307 6.36427L50.5897 6.92954C50.1126 7.0021 49.922 7.61581 50.2673 7.96807L52.9571 10.7122L52.3223 14.5869C52.2408 15.0842 52.7396 15.4635 53.1663 15.2287L56.491 13.4001L59.8156 15.2287C60.2424 15.4635 60.7411 15.0842 60.6597 14.5869L60.0249 10.7122L62.7147 7.96807C63.0599 7.61581 62.8694 7.0021 62.3922 6.92954L58.6749 6.36427L57.0126 2.83985C56.7992 2.38737 56.1827 2.38737 55.9693 2.83985Z" fill="#F39019"/>
</g>
</g>
<g clip-path="url(#clip15_1_4171)">
<g clip-path="url(#clip16_1_4171)">
<path fill-rule="evenodd" clip-rule="evenodd" d="M39.9693 2.83985L38.307 6.36427L34.5897 6.92954C34.1126 7.0021 33.922 7.61581 34.2673 7.96807L36.9571 10.7122L36.3223 14.5869C36.2408 15.0842 36.7396 15.4635 37.1663 15.2287L40.491 13.4001L43.8156 15.2287C44.2424 15.4635 44.7411 15.0842 44.6597 14.5869L44.0249 10.7122L46.7147 7.96807C47.0599 7.61581 46.8694 7.0021 46.3922 6.92954L42.6749 6.36427L41.0126 2.83985C40.7992 2.38737 40.1827 2.38737 39.9693 2.83985Z" fill="#F39019"/>
</g>
</g>
<g clip-path="url(#clip17_1_4171)">
<g clip-path="url(#clip18_1_4171)">
<path fill-rule="evenodd" clip-rule="evenodd" d="M23.9693 2.83985L22.307 6.36427L18.5897 6.92954C18.1126 7.0021 17.922 7.61581 18.2673 7.96807L20.9571 10.7122L20.3223 14.5869C20.2408 15.0842 20.7396 15.4635 21.1663 15.2287L24.491 13.4001L27.8156 15.2287C28.2424 15.4635 28.7411 15.0842 28.6597 14.5869L28.0249 10.7122L30.7147 7.96807C31.0599 7.61581 30.8694 7.0021 30.3922 6.92954L26.6749 6.36427L25.0126 2.83985C24.7992 2.38737 24.1827 2.38737 23.9693 2.83985Z" fill="#F39019"/>
</g>
</g>
<g clip-path="url(#clip19_1_4171)">
<g clip-path="url(#clip20_1_4171)">
<path fill-rule="evenodd" clip-rule="evenodd" d="M7.9693 2.83985L6.30703 6.36427L2.58973 6.92954C2.11256 7.0021 1.92202 7.61581 2.26729 7.96807L4.9571 10.7122L4.32231 14.5869C4.24082 15.0842 4.73958 15.4635 5.16634 15.2287L8.49098 13.4001L11.8156 15.2287C12.2424 15.4635 12.7411 15.0842 12.6597 14.5869L12.0249 10.7122L14.7147 7.96807C15.0599 7.61581 14.8694 7.0021 14.3922 6.92954L10.6749 6.36427L9.01265 2.83985C8.79924 2.38737 8.18271 2.38737 7.9693 2.83985Z" fill="#F39019"/>
</g>
</g>
</g>
<defs>
<clipPath id="clip0_1_4171">
<rect width="16" height="16" fill="white" transform="translate(64.49 0.399902)"/>
</clipPath>
<clipPath id="clip1_1_4171">
<rect width="12.8" height="12.8" fill="white" transform="translate(66.09 2)"/>
</clipPath>
<clipPath id="clip2_1_4171">
<rect width="16" height="16" fill="white" transform="translate(48.49 0.399902)"/>
</clipPath>
<clipPath id="clip3_1_4171">
<rect width="12.8" height="12.8" fill="white" transform="translate(50.09 2)"/>
</clipPath>
<clipPath id="clip4_1_4171">
<rect width="16" height="16" fill="white" transform="translate(32.49 0.399902)"/>
</clipPath>
<clipPath id="clip5_1_4171">
<rect width="12.8" height="12.8" fill="white" transform="translate(34.09 2)"/>
</clipPath>
<clipPath id="clip6_1_4171">
<rect width="16" height="16" fill="white" transform="translate(16.49 0.399902)"/>
</clipPath>
<clipPath id="clip7_1_4171">
<rect width="12.8" height="12.8" fill="white" transform="translate(18.09 2)"/>
</clipPath>
<clipPath id="clip8_1_4171">
<rect width="16" height="16" fill="white" transform="translate(0.490005 0.399902)"/>
</clipPath>
<clipPath id="clip9_1_4171">
<rect width="12.8" height="12.8" fill="white" transform="translate(2.09001 2)"/>
</clipPath>
<clipPath id="clip10_1_4171">
<rect width="73.6" height="16" fill="white" transform="translate(0.490005 0.899902)"/>
</clipPath>
<clipPath id="clip11_1_4171">
<rect width="16" height="16" fill="white" transform="translate(64.49 0.899902)"/>
</clipPath>
<clipPath id="clip12_1_4171">
<rect width="12.8" height="12.8" fill="white" transform="translate(66.09 2.5)"/>
</clipPath>
<clipPath id="clip13_1_4171">
<rect width="16" height="16" fill="white" transform="translate(48.49 0.899902)"/>
</clipPath>
<clipPath id="clip14_1_4171">
<rect width="12.8" height="12.8" fill="white" transform="translate(50.09 2.5)"/>
</clipPath>
<clipPath id="clip15_1_4171">
<rect width="16" height="16" fill="white" transform="translate(32.49 0.899902)"/>
</clipPath>
<clipPath id="clip16_1_4171">
<rect width="12.8" height="12.8" fill="white" transform="translate(34.09 2.5)"/>
</clipPath>
<clipPath id="clip17_1_4171">
<rect width="16" height="16" fill="white" transform="translate(16.49 0.899902)"/>
</clipPath>
<clipPath id="clip18_1_4171">
<rect width="12.8" height="12.8" fill="white" transform="translate(18.09 2.5)"/>
</clipPath>
<clipPath id="clip19_1_4171">
<rect width="16" height="16" fill="white" transform="translate(0.490005 0.899902)"/>
</clipPath>
<clipPath id="clip20_1_4171">
<rect width="12.8" height="12.8" fill="white" transform="translate(2.09001 2.5)"/>
</clipPath>
</defs>
</svg>
