<svg width="81" height="18" viewBox="0 0 81 18" fill="none" xmlns="http://www.w3.org/2000/svg">
<g clip-path="url(#clip0_1_2643)">
<g clip-path="url(#clip1_1_2643)">
<path fill-rule="evenodd" clip-rule="evenodd" d="M71.7793 2.79005L70.117 6.31447L66.3997 6.87973C65.9226 6.95229 65.732 7.56601 66.0773 7.91826L68.7671 10.6624L68.1323 14.5371C68.0508 15.0344 68.5496 15.4137 68.9763 15.1789L72.301 13.3502L75.6256 15.1789C76.0524 15.4137 76.5511 15.0344 76.4697 14.5371L75.8349 10.6624L78.5247 7.91826C78.8699 7.56601 78.6794 6.95229 78.2022 6.87973L74.4849 6.31447L72.8226 2.79005C72.6092 2.33756 71.9927 2.33756 71.7793 2.79005Z" fill="#BFBFBF"/>
</g>
</g>
<g clip-path="url(#clip2_1_2643)">
<g clip-path="url(#clip3_1_2643)">
<path fill-rule="evenodd" clip-rule="evenodd" d="M55.7793 2.79005L54.117 6.31447L50.3997 6.87973C49.9226 6.95229 49.732 7.56601 50.0773 7.91826L52.7671 10.6624L52.1323 14.5371C52.0508 15.0344 52.5496 15.4137 52.9763 15.1789L56.301 13.3502L59.6256 15.1789C60.0524 15.4137 60.5511 15.0344 60.4697 14.5371L59.8349 10.6624L62.5247 7.91826C62.8699 7.56601 62.6794 6.95229 62.2022 6.87973L58.4849 6.31447L56.8226 2.79005C56.6092 2.33756 55.9927 2.33756 55.7793 2.79005Z" fill="#BFBFBF"/>
</g>
</g>
<g clip-path="url(#clip4_1_2643)">
<g clip-path="url(#clip5_1_2643)">
<path fill-rule="evenodd" clip-rule="evenodd" d="M39.7793 2.79005L38.117 6.31447L34.3997 6.87973C33.9226 6.95229 33.732 7.56601 34.0773 7.91826L36.7671 10.6624L36.1323 14.5371C36.0508 15.0344 36.5496 15.4137 36.9763 15.1789L40.301 13.3502L43.6256 15.1789C44.0524 15.4137 44.5511 15.0344 44.4697 14.5371L43.8349 10.6624L46.5247 7.91826C46.8699 7.56601 46.6794 6.95229 46.2022 6.87973L42.4849 6.31447L40.8226 2.79005C40.6092 2.33756 39.9927 2.33756 39.7793 2.79005Z" fill="#BFBFBF"/>
</g>
</g>
<g clip-path="url(#clip6_1_2643)">
<g clip-path="url(#clip7_1_2643)">
<path fill-rule="evenodd" clip-rule="evenodd" d="M23.7793 2.79005L22.117 6.31447L18.3997 6.87973C17.9226 6.95229 17.732 7.56601 18.0773 7.91826L20.7671 10.6624L20.1323 14.5371C20.0508 15.0344 20.5496 15.4137 20.9763 15.1789L24.301 13.3502L27.6256 15.1789C28.0524 15.4137 28.5511 15.0344 28.4697 14.5371L27.8349 10.6624L30.5247 7.91826C30.8699 7.56601 30.6794 6.95229 30.2022 6.87973L26.4849 6.31447L24.8226 2.79005C24.6092 2.33756 23.9927 2.33756 23.7793 2.79005Z" fill="#BFBFBF"/>
</g>
</g>
<g clip-path="url(#clip8_1_2643)">
<g clip-path="url(#clip9_1_2643)">
<path fill-rule="evenodd" clip-rule="evenodd" d="M7.7793 2.79005L6.11703 6.31447L2.39972 6.87973C1.92255 6.95229 1.73201 7.56601 2.07729 7.91826L4.76709 10.6624L4.13231 14.5371C4.05082 15.0344 4.54957 15.4137 4.97634 15.1789L8.30098 13.3502L11.6256 15.1789C12.0524 15.4137 12.5511 15.0344 12.4697 14.5371L11.8349 10.6624L14.5247 7.91826C14.8699 7.56601 14.6794 6.95229 14.2022 6.87973L10.4849 6.31447L8.82264 2.79005C8.60924 2.33756 7.99271 2.33756 7.7793 2.79005Z" fill="#BFBFBF"/>
</g>
</g>
<g clip-path="url(#clip10_1_2643)">
<g clip-path="url(#clip11_1_2643)">
<g clip-path="url(#clip12_1_2643)">
<path fill-rule="evenodd" clip-rule="evenodd" d="M71.7793 3.29005L70.117 6.81447L66.3997 7.37973C65.9226 7.45229 65.732 8.06601 66.0773 8.41826L68.7671 11.1624L68.1323 15.0371C68.0508 15.5344 68.5496 15.9137 68.9763 15.6789L72.301 13.8502L75.6256 15.6789C76.0524 15.9137 76.5511 15.5344 76.4697 15.0371L75.8349 11.1624L78.5247 8.41826C78.8699 8.06601 78.6794 7.45229 78.2022 7.37973L74.4849 6.81447L72.8226 3.29005C72.6092 2.83756 71.9927 2.83756 71.7793 3.29005Z" fill="#F39019"/>
</g>
</g>
<g clip-path="url(#clip13_1_2643)">
<g clip-path="url(#clip14_1_2643)">
<path fill-rule="evenodd" clip-rule="evenodd" d="M55.7793 3.29005L54.117 6.81447L50.3997 7.37973C49.9226 7.45229 49.732 8.06601 50.0773 8.41826L52.7671 11.1624L52.1323 15.0371C52.0508 15.5344 52.5496 15.9137 52.9763 15.6789L56.301 13.8502L59.6256 15.6789C60.0524 15.9137 60.5511 15.5344 60.4697 15.0371L59.8349 11.1624L62.5247 8.41826C62.8699 8.06601 62.6794 7.45229 62.2022 7.37973L58.4849 6.81447L56.8226 3.29005C56.6092 2.83756 55.9927 2.83756 55.7793 3.29005Z" fill="#F39019"/>
</g>
</g>
<g clip-path="url(#clip15_1_2643)">
<g clip-path="url(#clip16_1_2643)">
<path fill-rule="evenodd" clip-rule="evenodd" d="M39.7793 3.29005L38.117 6.81447L34.3997 7.37973C33.9226 7.45229 33.732 8.06601 34.0773 8.41826L36.7671 11.1624L36.1323 15.0371C36.0508 15.5344 36.5496 15.9137 36.9763 15.6789L40.301 13.8502L43.6256 15.6789C44.0524 15.9137 44.5511 15.5344 44.4697 15.0371L43.8349 11.1624L46.5247 8.41826C46.8699 8.06601 46.6794 7.45229 46.2022 7.37973L42.4849 6.81447L40.8226 3.29005C40.6092 2.83756 39.9927 2.83756 39.7793 3.29005Z" fill="#F39019"/>
</g>
</g>
<g clip-path="url(#clip17_1_2643)">
<g clip-path="url(#clip18_1_2643)">
<path fill-rule="evenodd" clip-rule="evenodd" d="M23.7793 3.29005L22.117 6.81447L18.3997 7.37973C17.9226 7.45229 17.732 8.06601 18.0773 8.41826L20.7671 11.1624L20.1323 15.0371C20.0508 15.5344 20.5496 15.9137 20.9763 15.6789L24.301 13.8502L27.6256 15.6789C28.0524 15.9137 28.5511 15.5344 28.4697 15.0371L27.8349 11.1624L30.5247 8.41826C30.8699 8.06601 30.6794 7.45229 30.2022 7.37973L26.4849 6.81447L24.8226 3.29005C24.6092 2.83756 23.9927 2.83756 23.7793 3.29005Z" fill="#F39019"/>
</g>
</g>
<g clip-path="url(#clip19_1_2643)">
<g clip-path="url(#clip20_1_2643)">
<path fill-rule="evenodd" clip-rule="evenodd" d="M7.7793 3.29005L6.11703 6.81447L2.39972 7.37973C1.92255 7.45229 1.73201 8.06601 2.07729 8.41826L4.76709 11.1624L4.13231 15.0371C4.05082 15.5344 4.54957 15.9137 4.97634 15.6789L8.30098 13.8502L11.6256 15.6789C12.0524 15.9137 12.5511 15.5344 12.4697 15.0371L11.8349 11.1624L14.5247 8.41826C14.8699 8.06601 14.6794 7.45229 14.2022 7.37973L10.4849 6.81447L8.82264 3.29005C8.60924 2.83756 7.99271 2.83756 7.7793 3.29005Z" fill="#F39019"/>
</g>
</g>
</g>
<defs>
<clipPath id="clip0_1_2643">
<rect width="16" height="16" fill="white" transform="translate(64.3 0.850098)"/>
</clipPath>
<clipPath id="clip1_1_2643">
<rect width="12.8" height="12.8" fill="white" transform="translate(65.9 2.4502)"/>
</clipPath>
<clipPath id="clip2_1_2643">
<rect width="16" height="16" fill="white" transform="translate(48.3 0.850098)"/>
</clipPath>
<clipPath id="clip3_1_2643">
<rect width="12.8" height="12.8" fill="white" transform="translate(49.9 2.4502)"/>
</clipPath>
<clipPath id="clip4_1_2643">
<rect width="16" height="16" fill="white" transform="translate(32.3 0.850098)"/>
</clipPath>
<clipPath id="clip5_1_2643">
<rect width="12.8" height="12.8" fill="white" transform="translate(33.9 2.4502)"/>
</clipPath>
<clipPath id="clip6_1_2643">
<rect width="16" height="16" fill="white" transform="translate(16.3 0.850098)"/>
</clipPath>
<clipPath id="clip7_1_2643">
<rect width="12.8" height="12.8" fill="white" transform="translate(17.9 2.4502)"/>
</clipPath>
<clipPath id="clip8_1_2643">
<rect width="16" height="16" fill="white" transform="translate(0.300003 0.850098)"/>
</clipPath>
<clipPath id="clip9_1_2643">
<rect width="12.8" height="12.8" fill="white" transform="translate(1.9 2.4502)"/>
</clipPath>
<clipPath id="clip10_1_2643">
<rect width="80" height="16" fill="white" transform="translate(0.300003 1.3501)"/>
</clipPath>
<clipPath id="clip11_1_2643">
<rect width="16" height="16" fill="white" transform="translate(64.3 1.3501)"/>
</clipPath>
<clipPath id="clip12_1_2643">
<rect width="12.8" height="12.8" fill="white" transform="translate(65.9 2.9502)"/>
</clipPath>
<clipPath id="clip13_1_2643">
<rect width="16" height="16" fill="white" transform="translate(48.3 1.3501)"/>
</clipPath>
<clipPath id="clip14_1_2643">
<rect width="12.8" height="12.8" fill="white" transform="translate(49.9 2.9502)"/>
</clipPath>
<clipPath id="clip15_1_2643">
<rect width="16" height="16" fill="white" transform="translate(32.3 1.3501)"/>
</clipPath>
<clipPath id="clip16_1_2643">
<rect width="12.8" height="12.8" fill="white" transform="translate(33.9 2.9502)"/>
</clipPath>
<clipPath id="clip17_1_2643">
<rect width="16" height="16" fill="white" transform="translate(16.3 1.3501)"/>
</clipPath>
<clipPath id="clip18_1_2643">
<rect width="12.8" height="12.8" fill="white" transform="translate(17.9 2.9502)"/>
</clipPath>
<clipPath id="clip19_1_2643">
<rect width="16" height="16" fill="white" transform="translate(0.300003 1.3501)"/>
</clipPath>
<clipPath id="clip20_1_2643">
<rect width="12.8" height="12.8" fill="white" transform="translate(1.9 2.9502)"/>
</clipPath>
</defs>
</svg>
