<svg width="75" height="17" viewBox="0 0 75 17" fill="none" xmlns="http://www.w3.org/2000/svg">
<g clip-path="url(#clip0_1_3325)">
<g clip-path="url(#clip1_1_3325)">
<g clip-path="url(#clip2_1_3325)">
<path fill-rule="evenodd" clip-rule="evenodd" d="M70.1793 2.68995L68.517 6.21437L64.7997 6.77964C64.3226 6.8522 64.132 7.46591 64.4773 7.81816L67.1671 10.5623L66.5323 14.437C66.4508 14.9343 66.9496 15.3136 67.3763 15.0788L70.701 13.2501L74.0256 15.0788C74.4524 15.3136 74.9511 14.9343 74.8697 14.437L74.2349 10.5623L76.9247 7.81816C77.2699 7.46591 77.0794 6.8522 76.6022 6.77964L72.8849 6.21437L71.2226 2.68995C71.0092 2.23747 70.3927 2.23747 70.1793 2.68995Z" fill="#F39019"/>
</g>
</g>
<g clip-path="url(#clip3_1_3325)">
<g clip-path="url(#clip4_1_3325)">
<path fill-rule="evenodd" clip-rule="evenodd" d="M54.1793 2.68995L52.517 6.21437L48.7997 6.77964C48.3226 6.8522 48.132 7.46591 48.4773 7.81816L51.1671 10.5623L50.5323 14.437C50.4508 14.9343 50.9496 15.3136 51.3763 15.0788L54.701 13.2501L58.0256 15.0788C58.4524 15.3136 58.9511 14.9343 58.8697 14.437L58.2349 10.5623L60.9247 7.81816C61.2699 7.46591 61.0794 6.8522 60.6022 6.77964L56.8849 6.21437L55.2226 2.68995C55.0092 2.23747 54.3927 2.23747 54.1793 2.68995Z" fill="#F39019"/>
</g>
</g>
<g clip-path="url(#clip5_1_3325)">
<g clip-path="url(#clip6_1_3325)">
<path fill-rule="evenodd" clip-rule="evenodd" d="M38.1793 2.68995L36.517 6.21437L32.7997 6.77964C32.3226 6.8522 32.132 7.46591 32.4773 7.81816L35.1671 10.5623L34.5323 14.437C34.4508 14.9343 34.9496 15.3136 35.3763 15.0788L38.701 13.2501L42.0256 15.0788C42.4524 15.3136 42.9511 14.9343 42.8697 14.437L42.2349 10.5623L44.9247 7.81816C45.2699 7.46591 45.0794 6.8522 44.6022 6.77964L40.8849 6.21437L39.2226 2.68995C39.0092 2.23747 38.3927 2.23747 38.1793 2.68995Z" fill="#F39019"/>
</g>
</g>
<g clip-path="url(#clip7_1_3325)">
<g clip-path="url(#clip8_1_3325)">
<path fill-rule="evenodd" clip-rule="evenodd" d="M22.1793 2.68995L20.517 6.21437L16.7997 6.77964C16.3226 6.8522 16.132 7.46591 16.4773 7.81816L19.1671 10.5623L18.5323 14.437C18.4508 14.9343 18.9496 15.3136 19.3763 15.0788L22.701 13.2501L26.0256 15.0788C26.4524 15.3136 26.9511 14.9343 26.8697 14.437L26.2349 10.5623L28.9247 7.81816C29.2699 7.46591 29.0794 6.8522 28.6022 6.77964L24.8849 6.21437L23.2226 2.68995C23.0092 2.23747 22.3927 2.23747 22.1793 2.68995Z" fill="#F39019"/>
</g>
</g>
<g clip-path="url(#clip9_1_3325)">
<g clip-path="url(#clip10_1_3325)">
<path fill-rule="evenodd" clip-rule="evenodd" d="M6.1793 2.68995L4.51703 6.21437L0.799726 6.77964C0.322556 6.8522 0.132016 7.46591 0.477291 7.81816L3.16709 10.5623L2.53231 14.437C2.45082 14.9343 2.94957 15.3136 3.37634 15.0788L6.70098 13.2501L10.0256 15.0788C10.4524 15.3136 10.9511 14.9343 10.8697 14.437L10.2349 10.5623L12.9247 7.81816C13.2699 7.46591 13.0794 6.8522 12.6022 6.77964L8.88492 6.21437L7.22265 2.68995C7.00924 2.23747 6.39271 2.23747 6.1793 2.68995Z" fill="#F39019"/>
</g>
</g>
</g>
<defs>
<clipPath id="clip0_1_3325">
<rect width="76.15" height="16" fill="white" transform="translate(-1.3 0.75)"/>
</clipPath>
<clipPath id="clip1_1_3325">
<rect width="16" height="16" fill="white" transform="translate(62.7 0.75)"/>
</clipPath>
<clipPath id="clip2_1_3325">
<rect width="12.8" height="12.8" fill="white" transform="translate(64.3 2.3501)"/>
</clipPath>
<clipPath id="clip3_1_3325">
<rect width="16" height="16" fill="white" transform="translate(46.7 0.75)"/>
</clipPath>
<clipPath id="clip4_1_3325">
<rect width="12.8" height="12.8" fill="white" transform="translate(48.3 2.3501)"/>
</clipPath>
<clipPath id="clip5_1_3325">
<rect width="16" height="16" fill="white" transform="translate(30.7 0.75)"/>
</clipPath>
<clipPath id="clip6_1_3325">
<rect width="12.8" height="12.8" fill="white" transform="translate(32.3 2.3501)"/>
</clipPath>
<clipPath id="clip7_1_3325">
<rect width="16" height="16" fill="white" transform="translate(14.7 0.75)"/>
</clipPath>
<clipPath id="clip8_1_3325">
<rect width="12.8" height="12.8" fill="white" transform="translate(16.3 2.3501)"/>
</clipPath>
<clipPath id="clip9_1_3325">
<rect width="16" height="16" fill="white" transform="translate(-1.3 0.75)"/>
</clipPath>
<clipPath id="clip10_1_3325">
<rect width="12.8" height="12.8" fill="white" transform="translate(0.300003 2.3501)"/>
</clipPath>
</defs>
</svg>
