<svg width="68" height="17" viewBox="0 0 68 17" fill="none" xmlns="http://www.w3.org/2000/svg">
<g clip-path="url(#clip0_1_514)">
<g clip-path="url(#clip1_1_514)">
<g clip-path="url(#clip2_1_514)">
<path fill-rule="evenodd" clip-rule="evenodd" d="M72.2793 2.3899L70.617 5.91432L66.8997 6.47959C66.4226 6.55215 66.232 7.16586 66.5773 7.51811L69.2671 10.2623L68.6323 14.1369C68.5508 14.6343 69.0496 15.0135 69.4763 14.7788L72.801 12.9501L76.1256 14.7788C76.5524 15.0135 77.0511 14.6343 76.9697 14.1369L76.3349 10.2623L79.0247 7.51811C79.3699 7.16586 79.1794 6.55215 78.7022 6.47959L74.9849 5.91432L73.3227 2.3899C73.1092 1.93742 72.4927 1.93742 72.2793 2.3899Z" fill="#F39019"/>
</g>
</g>
<g clip-path="url(#clip3_1_514)">
<g clip-path="url(#clip4_1_514)">
<path fill-rule="evenodd" clip-rule="evenodd" d="M56.2793 2.3899L54.617 5.91432L50.8997 6.47959C50.4226 6.55215 50.232 7.16586 50.5773 7.51811L53.2671 10.2623L52.6323 14.1369C52.5508 14.6343 53.0496 15.0135 53.4763 14.7788L56.801 12.9501L60.1256 14.7788C60.5524 15.0135 61.0511 14.6343 60.9697 14.1369L60.3349 10.2623L63.0247 7.51811C63.3699 7.16586 63.1794 6.55215 62.7022 6.47959L58.9849 5.91432L57.3227 2.3899C57.1092 1.93742 56.4927 1.93742 56.2793 2.3899Z" fill="#F39019"/>
</g>
</g>
<g clip-path="url(#clip5_1_514)">
<g clip-path="url(#clip6_1_514)">
<path fill-rule="evenodd" clip-rule="evenodd" d="M40.2793 2.3899L38.617 5.91432L34.8997 6.47959C34.4226 6.55215 34.232 7.16586 34.5773 7.51811L37.2671 10.2623L36.6323 14.1369C36.5508 14.6343 37.0496 15.0135 37.4763 14.7788L40.801 12.9501L44.1256 14.7788C44.5524 15.0135 45.0511 14.6343 44.9697 14.1369L44.3349 10.2623L47.0247 7.51811C47.3699 7.16586 47.1794 6.55215 46.7022 6.47959L42.9849 5.91432L41.3227 2.3899C41.1092 1.93742 40.4927 1.93742 40.2793 2.3899Z" fill="#F39019"/>
</g>
</g>
<g clip-path="url(#clip7_1_514)">
<g clip-path="url(#clip8_1_514)">
<path fill-rule="evenodd" clip-rule="evenodd" d="M24.2793 2.3899L22.617 5.91432L18.8997 6.47959C18.4226 6.55215 18.232 7.16586 18.5773 7.51811L21.2671 10.2623L20.6323 14.1369C20.5508 14.6343 21.0496 15.0135 21.4763 14.7788L24.801 12.9501L28.1256 14.7788C28.5524 15.0135 29.0511 14.6343 28.9697 14.1369L28.3349 10.2623L31.0247 7.51811C31.3699 7.16586 31.1794 6.55215 30.7022 6.47959L26.9849 5.91432L25.3227 2.3899C25.1092 1.93742 24.4927 1.93742 24.2793 2.3899Z" fill="#F39019"/>
</g>
</g>
<g clip-path="url(#clip9_1_514)">
<g clip-path="url(#clip10_1_514)">
<path fill-rule="evenodd" clip-rule="evenodd" d="M8.27931 2.3899L6.61704 5.91432L2.89973 6.47959C2.42256 6.55215 2.23202 7.16586 2.5773 7.51811L5.2671 10.2623L4.63232 14.1369C4.55083 14.6343 5.04958 15.0135 5.47635 14.7788L8.80099 12.9501L12.1256 14.7788C12.5524 15.0135 13.0511 14.6343 12.9697 14.1369L12.3349 10.2623L15.0247 7.51811C15.3699 7.16586 15.1794 6.55215 14.7022 6.47959L10.9849 5.91432L9.32265 2.3899C9.10924 1.93742 8.49272 1.93742 8.27931 2.3899Z" fill="#F39019"/>
</g>
</g>
</g>
<defs>
<clipPath id="clip0_1_514">
<rect width="77.91" height="16" fill="white" transform="translate(0.800003 0.449951)"/>
</clipPath>
<clipPath id="clip1_1_514">
<rect width="16" height="16" fill="white" transform="translate(64.8 0.449951)"/>
</clipPath>
<clipPath id="clip2_1_514">
<rect width="12.8" height="12.8" fill="white" transform="translate(66.4 2.05005)"/>
</clipPath>
<clipPath id="clip3_1_514">
<rect width="16" height="16" fill="white" transform="translate(48.8 0.449951)"/>
</clipPath>
<clipPath id="clip4_1_514">
<rect width="12.8" height="12.8" fill="white" transform="translate(50.4 2.05005)"/>
</clipPath>
<clipPath id="clip5_1_514">
<rect width="16" height="16" fill="white" transform="translate(32.8 0.449951)"/>
</clipPath>
<clipPath id="clip6_1_514">
<rect width="12.8" height="12.8" fill="white" transform="translate(34.4 2.05005)"/>
</clipPath>
<clipPath id="clip7_1_514">
<rect width="16" height="16" fill="white" transform="translate(16.8 0.449951)"/>
</clipPath>
<clipPath id="clip8_1_514">
<rect width="12.8" height="12.8" fill="white" transform="translate(18.4 2.05005)"/>
</clipPath>
<clipPath id="clip9_1_514">
<rect width="16" height="16" fill="white" transform="translate(0.800003 0.449951)"/>
</clipPath>
<clipPath id="clip10_1_514">
<rect width="12.8" height="12.8" fill="white" transform="translate(2.40001 2.05005)"/>
</clipPath>
</defs>
</svg>
