<svg width="81" height="17" viewBox="0 0 81 17" fill="none" xmlns="http://www.w3.org/2000/svg">
<g clip-path="url(#clip0_1_2824)">
<g clip-path="url(#clip1_1_2824)">
<path fill-rule="evenodd" clip-rule="evenodd" d="M72.1793 2.18995L70.517 5.71437L66.7997 6.27964C66.3225 6.3522 66.132 6.96591 66.4773 7.31816L69.1671 10.0623L68.5323 13.937C68.4508 14.4343 68.9496 14.8136 69.3763 14.5788L72.701 12.7501L76.0256 14.5788C76.4524 14.8136 76.9511 14.4343 76.8696 13.937L76.2348 10.0623L78.9247 7.31816C79.2699 6.96591 79.0794 6.3522 78.6022 6.27964L74.8849 5.71437L73.2226 2.18995C73.0092 1.73747 72.3927 1.73747 72.1793 2.18995Z" fill="#BFBFBF"/>
</g>
</g>
<g clip-path="url(#clip2_1_2824)">
<g clip-path="url(#clip3_1_2824)">
<path fill-rule="evenodd" clip-rule="evenodd" d="M56.1793 2.18995L54.517 5.71437L50.7997 6.27964C50.3225 6.3522 50.132 6.96591 50.4773 7.31816L53.1671 10.0623L52.5323 13.937C52.4508 14.4343 52.9496 14.8136 53.3763 14.5788L56.701 12.7501L60.0256 14.5788C60.4524 14.8136 60.9511 14.4343 60.8696 13.937L60.2348 10.0623L62.9247 7.31816C63.2699 6.96591 63.0794 6.3522 62.6022 6.27964L58.8849 5.71437L57.2226 2.18995C57.0092 1.73747 56.3927 1.73747 56.1793 2.18995Z" fill="#BFBFBF"/>
</g>
</g>
<g clip-path="url(#clip4_1_2824)">
<g clip-path="url(#clip5_1_2824)">
<path fill-rule="evenodd" clip-rule="evenodd" d="M40.1793 2.18995L38.517 5.71437L34.7997 6.27964C34.3225 6.3522 34.132 6.96591 34.4773 7.31816L37.1671 10.0623L36.5323 13.937C36.4508 14.4343 36.9496 14.8136 37.3763 14.5788L40.701 12.7501L44.0256 14.5788C44.4524 14.8136 44.9511 14.4343 44.8696 13.937L44.2348 10.0623L46.9247 7.31816C47.2699 6.96591 47.0794 6.3522 46.6022 6.27964L42.8849 5.71437L41.2226 2.18995C41.0092 1.73747 40.3927 1.73747 40.1793 2.18995Z" fill="#BFBFBF"/>
</g>
</g>
<g clip-path="url(#clip6_1_2824)">
<g clip-path="url(#clip7_1_2824)">
<path fill-rule="evenodd" clip-rule="evenodd" d="M24.1793 2.18995L22.517 5.71437L18.7997 6.27964C18.3225 6.3522 18.132 6.96591 18.4773 7.31816L21.1671 10.0623L20.5323 13.937C20.4508 14.4343 20.9496 14.8136 21.3763 14.5788L24.701 12.7501L28.0256 14.5788C28.4524 14.8136 28.9511 14.4343 28.8696 13.937L28.2348 10.0623L30.9247 7.31816C31.2699 6.96591 31.0794 6.3522 30.6022 6.27964L26.8849 5.71437L25.2226 2.18995C25.0092 1.73747 24.3927 1.73747 24.1793 2.18995Z" fill="#BFBFBF"/>
</g>
</g>
<g clip-path="url(#clip8_1_2824)">
<g clip-path="url(#clip9_1_2824)">
<path fill-rule="evenodd" clip-rule="evenodd" d="M8.17929 2.18995L6.51702 5.71437L2.79972 6.27964C2.32255 6.3522 2.13201 6.96591 2.47728 7.31816L5.16709 10.0623L4.5323 13.937C4.45081 14.4343 4.94957 14.8136 5.37633 14.5788L8.70097 12.7501L12.0256 14.5788C12.4524 14.8136 12.9511 14.4343 12.8696 13.937L12.2348 10.0623L14.9247 7.31816C15.2699 6.96591 15.0794 6.3522 14.6022 6.27964L10.8849 5.71437L9.22264 2.18995C9.00923 1.73747 8.3927 1.73747 8.17929 2.18995Z" fill="#BFBFBF"/>
</g>
</g>
<g clip-path="url(#clip10_1_2824)">
<g clip-path="url(#clip11_1_2824)">
<g clip-path="url(#clip12_1_2824)">
<path fill-rule="evenodd" clip-rule="evenodd" d="M72.1793 2.68995L70.517 6.21437L66.7997 6.77964C66.3225 6.8522 66.132 7.46591 66.4773 7.81816L69.1671 10.5623L68.5323 14.437C68.4508 14.9343 68.9496 15.3136 69.3763 15.0788L72.701 13.2501L76.0256 15.0788C76.4524 15.3136 76.9511 14.9343 76.8696 14.437L76.2348 10.5623L78.9247 7.81816C79.2699 7.46591 79.0794 6.8522 78.6022 6.77964L74.8849 6.21437L73.2226 2.68995C73.0092 2.23747 72.3927 2.23747 72.1793 2.68995Z" fill="#F39019"/>
</g>
</g>
<g clip-path="url(#clip13_1_2824)">
<g clip-path="url(#clip14_1_2824)">
<path fill-rule="evenodd" clip-rule="evenodd" d="M56.1793 2.68995L54.517 6.21437L50.7997 6.77964C50.3225 6.8522 50.132 7.46591 50.4773 7.81816L53.1671 10.5623L52.5323 14.437C52.4508 14.9343 52.9496 15.3136 53.3763 15.0788L56.701 13.2501L60.0256 15.0788C60.4524 15.3136 60.9511 14.9343 60.8696 14.437L60.2348 10.5623L62.9247 7.81816C63.2699 7.46591 63.0794 6.8522 62.6022 6.77964L58.8849 6.21437L57.2226 2.68995C57.0092 2.23747 56.3927 2.23747 56.1793 2.68995Z" fill="#F39019"/>
</g>
</g>
<g clip-path="url(#clip15_1_2824)">
<g clip-path="url(#clip16_1_2824)">
<path fill-rule="evenodd" clip-rule="evenodd" d="M40.1793 2.68995L38.517 6.21437L34.7997 6.77964C34.3225 6.8522 34.132 7.46591 34.4773 7.81816L37.1671 10.5623L36.5323 14.437C36.4508 14.9343 36.9496 15.3136 37.3763 15.0788L40.701 13.2501L44.0256 15.0788C44.4524 15.3136 44.9511 14.9343 44.8696 14.437L44.2348 10.5623L46.9247 7.81816C47.2699 7.46591 47.0794 6.8522 46.6022 6.77964L42.8849 6.21437L41.2226 2.68995C41.0092 2.23747 40.3927 2.23747 40.1793 2.68995Z" fill="#F39019"/>
</g>
</g>
<g clip-path="url(#clip17_1_2824)">
<g clip-path="url(#clip18_1_2824)">
<path fill-rule="evenodd" clip-rule="evenodd" d="M24.1793 2.68995L22.517 6.21437L18.7997 6.77964C18.3225 6.8522 18.132 7.46591 18.4773 7.81816L21.1671 10.5623L20.5323 14.437C20.4508 14.9343 20.9496 15.3136 21.3763 15.0788L24.701 13.2501L28.0256 15.0788C28.4524 15.3136 28.9511 14.9343 28.8696 14.437L28.2348 10.5623L30.9247 7.81816C31.2699 7.46591 31.0794 6.8522 30.6022 6.77964L26.8849 6.21437L25.2226 2.68995C25.0092 2.23747 24.3927 2.23747 24.1793 2.68995Z" fill="#F39019"/>
</g>
</g>
<g clip-path="url(#clip19_1_2824)">
<g clip-path="url(#clip20_1_2824)">
<path fill-rule="evenodd" clip-rule="evenodd" d="M8.17929 2.68995L6.51702 6.21437L2.79972 6.77964C2.32255 6.8522 2.13201 7.46591 2.47728 7.81816L5.16709 10.5623L4.5323 14.437C4.45081 14.9343 4.94957 15.3136 5.37633 15.0788L8.70097 13.2501L12.0256 15.0788C12.4524 15.3136 12.9511 14.9343 12.8696 14.437L12.2348 10.5623L14.9247 7.81816C15.2699 7.46591 15.0794 6.8522 14.6022 6.77964L10.8849 6.21437L9.22264 2.68995C9.00923 2.23747 8.3927 2.23747 8.17929 2.68995Z" fill="#F39019"/>
</g>
</g>
</g>
<defs>
<clipPath id="clip0_1_2824">
<rect width="16" height="16" fill="white" transform="translate(64.7 0.25)"/>
</clipPath>
<clipPath id="clip1_1_2824">
<rect width="12.8" height="12.8" fill="white" transform="translate(66.3 1.8501)"/>
</clipPath>
<clipPath id="clip2_1_2824">
<rect width="16" height="16" fill="white" transform="translate(48.7 0.25)"/>
</clipPath>
<clipPath id="clip3_1_2824">
<rect width="12.8" height="12.8" fill="white" transform="translate(50.3 1.8501)"/>
</clipPath>
<clipPath id="clip4_1_2824">
<rect width="16" height="16" fill="white" transform="translate(32.7 0.25)"/>
</clipPath>
<clipPath id="clip5_1_2824">
<rect width="12.8" height="12.8" fill="white" transform="translate(34.3 1.8501)"/>
</clipPath>
<clipPath id="clip6_1_2824">
<rect width="16" height="16" fill="white" transform="translate(16.7 0.25)"/>
</clipPath>
<clipPath id="clip7_1_2824">
<rect width="12.8" height="12.8" fill="white" transform="translate(18.3 1.8501)"/>
</clipPath>
<clipPath id="clip8_1_2824">
<rect width="16" height="16" fill="white" transform="translate(0.699997 0.25)"/>
</clipPath>
<clipPath id="clip9_1_2824">
<rect width="12.8" height="12.8" fill="white" transform="translate(2.3 1.8501)"/>
</clipPath>
<clipPath id="clip10_1_2824">
<rect width="73.11" height="16" fill="white" transform="translate(0.699997 0.75)"/>
</clipPath>
<clipPath id="clip11_1_2824">
<rect width="16" height="16" fill="white" transform="translate(64.7 0.75)"/>
</clipPath>
<clipPath id="clip12_1_2824">
<rect width="12.8" height="12.8" fill="white" transform="translate(66.3 2.3501)"/>
</clipPath>
<clipPath id="clip13_1_2824">
<rect width="16" height="16" fill="white" transform="translate(48.7 0.75)"/>
</clipPath>
<clipPath id="clip14_1_2824">
<rect width="12.8" height="12.8" fill="white" transform="translate(50.3 2.3501)"/>
</clipPath>
<clipPath id="clip15_1_2824">
<rect width="16" height="16" fill="white" transform="translate(32.7 0.75)"/>
</clipPath>
<clipPath id="clip16_1_2824">
<rect width="12.8" height="12.8" fill="white" transform="translate(34.3 2.3501)"/>
</clipPath>
<clipPath id="clip17_1_2824">
<rect width="16" height="16" fill="white" transform="translate(16.7 0.75)"/>
</clipPath>
<clipPath id="clip18_1_2824">
<rect width="12.8" height="12.8" fill="white" transform="translate(18.3 2.3501)"/>
</clipPath>
<clipPath id="clip19_1_2824">
<rect width="16" height="16" fill="white" transform="translate(0.699997 0.75)"/>
</clipPath>
<clipPath id="clip20_1_2824">
<rect width="12.8" height="12.8" fill="white" transform="translate(2.3 2.3501)"/>
</clipPath>
</defs>
</svg>
