<svg width="81" height="17" viewBox="0 0 81 17" fill="none" xmlns="http://www.w3.org/2000/svg">
<g clip-path="url(#clip0_1_97)">
<g clip-path="url(#clip1_1_97)">
<path fill-rule="evenodd" clip-rule="evenodd" d="M72.1593 2.13987L70.497 5.66429L66.7797 6.22956C66.3026 6.30212 66.112 6.91583 66.4573 7.26808L69.1471 10.0122L68.5123 13.8869C68.4308 14.3842 68.9296 14.7635 69.3563 14.5288L72.681 12.7001L76.0056 14.5288C76.4324 14.7635 76.9311 14.3842 76.8497 13.8869L76.2149 10.0122L78.9047 7.26808C79.2499 6.91583 79.0594 6.30212 78.5822 6.22956L74.8649 5.66429L73.2026 2.13987C72.9892 1.68739 72.3727 1.68739 72.1593 2.13987Z" fill="#BFBFBF"/>
</g>
</g>
<g clip-path="url(#clip2_1_97)">
<g clip-path="url(#clip3_1_97)">
<path fill-rule="evenodd" clip-rule="evenodd" d="M56.1593 2.13987L54.497 5.66429L50.7797 6.22956C50.3026 6.30212 50.112 6.91583 50.4573 7.26808L53.1471 10.0122L52.5123 13.8869C52.4308 14.3842 52.9296 14.7635 53.3563 14.5288L56.681 12.7001L60.0056 14.5288C60.4324 14.7635 60.9311 14.3842 60.8497 13.8869L60.2149 10.0122L62.9047 7.26808C63.2499 6.91583 63.0594 6.30212 62.5822 6.22956L58.8649 5.66429L57.2026 2.13987C56.9892 1.68739 56.3727 1.68739 56.1593 2.13987Z" fill="#BFBFBF"/>
</g>
</g>
<g clip-path="url(#clip4_1_97)">
<g clip-path="url(#clip5_1_97)">
<path fill-rule="evenodd" clip-rule="evenodd" d="M40.1593 2.13987L38.497 5.66429L34.7797 6.22956C34.3026 6.30212 34.112 6.91583 34.4573 7.26808L37.1471 10.0122L36.5123 13.8869C36.4308 14.3842 36.9296 14.7635 37.3563 14.5288L40.681 12.7001L44.0056 14.5288C44.4324 14.7635 44.9311 14.3842 44.8497 13.8869L44.2149 10.0122L46.9047 7.26808C47.2499 6.91583 47.0594 6.30212 46.5822 6.22956L42.8649 5.66429L41.2026 2.13987C40.9892 1.68739 40.3727 1.68739 40.1593 2.13987Z" fill="#BFBFBF"/>
</g>
</g>
<g clip-path="url(#clip6_1_97)">
<g clip-path="url(#clip7_1_97)">
<path fill-rule="evenodd" clip-rule="evenodd" d="M24.1593 2.13987L22.497 5.66429L18.7797 6.22956C18.3026 6.30212 18.112 6.91583 18.4573 7.26808L21.1471 10.0122L20.5123 13.8869C20.4308 14.3842 20.9296 14.7635 21.3563 14.5288L24.681 12.7001L28.0056 14.5288C28.4324 14.7635 28.9311 14.3842 28.8497 13.8869L28.2149 10.0122L30.9047 7.26808C31.2499 6.91583 31.0594 6.30212 30.5822 6.22956L26.8649 5.66429L25.2026 2.13987C24.9892 1.68739 24.3727 1.68739 24.1593 2.13987Z" fill="#BFBFBF"/>
</g>
</g>
<g clip-path="url(#clip8_1_97)">
<g clip-path="url(#clip9_1_97)">
<path fill-rule="evenodd" clip-rule="evenodd" d="M8.1593 2.13987L6.49703 5.66429L2.77972 6.22956C2.30255 6.30212 2.11201 6.91583 2.45729 7.26808L5.14709 10.0122L4.51231 13.8869C4.43082 14.3842 4.92957 14.7635 5.35634 14.5288L8.68098 12.7001L12.0056 14.5288C12.4324 14.7635 12.9311 14.3842 12.8497 13.8869L12.2149 10.0122L14.9047 7.26808C15.2499 6.91583 15.0594 6.30212 14.5822 6.22956L10.8649 5.66429L9.20264 2.13987C8.98923 1.68739 8.37271 1.68739 8.1593 2.13987Z" fill="#BFBFBF"/>
</g>
</g>
<g clip-path="url(#clip10_1_97)">
<g clip-path="url(#clip11_1_97)">
<g clip-path="url(#clip12_1_97)">
<path fill-rule="evenodd" clip-rule="evenodd" d="M72.1593 2.63987L70.497 6.16429L66.7797 6.72956C66.3026 6.80212 66.112 7.41583 66.4573 7.76808L69.1471 10.5122L68.5123 14.3869C68.4308 14.8842 68.9296 15.2635 69.3563 15.0288L72.681 13.2001L76.0056 15.0288C76.4324 15.2635 76.9311 14.8842 76.8497 14.3869L76.2149 10.5122L78.9047 7.76808C79.2499 7.41583 79.0594 6.80212 78.5822 6.72956L74.8649 6.16429L73.2026 2.63987C72.9892 2.18739 72.3727 2.18739 72.1593 2.63987Z" fill="#F39019"/>
</g>
</g>
<g clip-path="url(#clip13_1_97)">
<g clip-path="url(#clip14_1_97)">
<path fill-rule="evenodd" clip-rule="evenodd" d="M56.1593 2.63987L54.497 6.16429L50.7797 6.72956C50.3026 6.80212 50.112 7.41583 50.4573 7.76808L53.1471 10.5122L52.5123 14.3869C52.4308 14.8842 52.9296 15.2635 53.3563 15.0288L56.681 13.2001L60.0056 15.0288C60.4324 15.2635 60.9311 14.8842 60.8497 14.3869L60.2149 10.5122L62.9047 7.76808C63.2499 7.41583 63.0594 6.80212 62.5822 6.72956L58.8649 6.16429L57.2026 2.63987C56.9892 2.18739 56.3727 2.18739 56.1593 2.63987Z" fill="#F39019"/>
</g>
</g>
<g clip-path="url(#clip15_1_97)">
<g clip-path="url(#clip16_1_97)">
<path fill-rule="evenodd" clip-rule="evenodd" d="M40.1593 2.63987L38.497 6.16429L34.7797 6.72956C34.3026 6.80212 34.112 7.41583 34.4573 7.76808L37.1471 10.5122L36.5123 14.3869C36.4308 14.8842 36.9296 15.2635 37.3563 15.0288L40.681 13.2001L44.0056 15.0288C44.4324 15.2635 44.9311 14.8842 44.8497 14.3869L44.2149 10.5122L46.9047 7.76808C47.2499 7.41583 47.0594 6.80212 46.5822 6.72956L42.8649 6.16429L41.2026 2.63987C40.9892 2.18739 40.3727 2.18739 40.1593 2.63987Z" fill="#F39019"/>
</g>
</g>
<g clip-path="url(#clip17_1_97)">
<g clip-path="url(#clip18_1_97)">
<path fill-rule="evenodd" clip-rule="evenodd" d="M24.1593 2.63987L22.497 6.16429L18.7797 6.72956C18.3026 6.80212 18.112 7.41583 18.4573 7.76808L21.1471 10.5122L20.5123 14.3869C20.4308 14.8842 20.9296 15.2635 21.3563 15.0288L24.681 13.2001L28.0056 15.0288C28.4324 15.2635 28.9311 14.8842 28.8497 14.3869L28.2149 10.5122L30.9047 7.76808C31.2499 7.41583 31.0594 6.80212 30.5822 6.72956L26.8649 6.16429L25.2026 2.63987C24.9892 2.18739 24.3727 2.18739 24.1593 2.63987Z" fill="#F39019"/>
</g>
</g>
<g clip-path="url(#clip19_1_97)">
<g clip-path="url(#clip20_1_97)">
<path fill-rule="evenodd" clip-rule="evenodd" d="M8.1593 2.63987L6.49703 6.16429L2.77972 6.72956C2.30255 6.80212 2.11201 7.41583 2.45729 7.76808L5.14709 10.5122L4.51231 14.3869C4.43082 14.8842 4.92957 15.2635 5.35634 15.0288L8.68098 13.2001L12.0056 15.0288C12.4324 15.2635 12.9311 14.8842 12.8497 14.3869L12.2149 10.5122L14.9047 7.76808C15.2499 7.41583 15.0594 6.80212 14.5822 6.72956L10.8649 6.16429L9.20264 2.63987C8.98923 2.18739 8.37271 2.18739 8.1593 2.63987Z" fill="#F39019"/>
</g>
</g>
</g>
<defs>
<clipPath id="clip0_1_97">
<rect width="16" height="16" fill="white" transform="translate(64.68 0.200012)"/>
</clipPath>
<clipPath id="clip1_1_97">
<rect width="12.8" height="12.8" fill="white" transform="translate(66.28 1.80002)"/>
</clipPath>
<clipPath id="clip2_1_97">
<rect width="16" height="16" fill="white" transform="translate(48.68 0.200012)"/>
</clipPath>
<clipPath id="clip3_1_97">
<rect width="12.8" height="12.8" fill="white" transform="translate(50.28 1.80002)"/>
</clipPath>
<clipPath id="clip4_1_97">
<rect width="16" height="16" fill="white" transform="translate(32.68 0.200012)"/>
</clipPath>
<clipPath id="clip5_1_97">
<rect width="12.8" height="12.8" fill="white" transform="translate(34.28 1.80002)"/>
</clipPath>
<clipPath id="clip6_1_97">
<rect width="16" height="16" fill="white" transform="translate(16.68 0.200012)"/>
</clipPath>
<clipPath id="clip7_1_97">
<rect width="12.8" height="12.8" fill="white" transform="translate(18.28 1.80002)"/>
</clipPath>
<clipPath id="clip8_1_97">
<rect width="16" height="16" fill="white" transform="translate(0.68 0.200012)"/>
</clipPath>
<clipPath id="clip9_1_97">
<rect width="12.8" height="12.8" fill="white" transform="translate(2.28 1.80002)"/>
</clipPath>
<clipPath id="clip10_1_97">
<rect width="73.6" height="16" fill="white" transform="translate(0.68 0.700012)"/>
</clipPath>
<clipPath id="clip11_1_97">
<rect width="16" height="16" fill="white" transform="translate(64.68 0.700012)"/>
</clipPath>
<clipPath id="clip12_1_97">
<rect width="12.8" height="12.8" fill="white" transform="translate(66.28 2.30002)"/>
</clipPath>
<clipPath id="clip13_1_97">
<rect width="16" height="16" fill="white" transform="translate(48.68 0.700012)"/>
</clipPath>
<clipPath id="clip14_1_97">
<rect width="12.8" height="12.8" fill="white" transform="translate(50.28 2.30002)"/>
</clipPath>
<clipPath id="clip15_1_97">
<rect width="16" height="16" fill="white" transform="translate(32.68 0.700012)"/>
</clipPath>
<clipPath id="clip16_1_97">
<rect width="12.8" height="12.8" fill="white" transform="translate(34.28 2.30002)"/>
</clipPath>
<clipPath id="clip17_1_97">
<rect width="16" height="16" fill="white" transform="translate(16.68 0.700012)"/>
</clipPath>
<clipPath id="clip18_1_97">
<rect width="12.8" height="12.8" fill="white" transform="translate(18.28 2.30002)"/>
</clipPath>
<clipPath id="clip19_1_97">
<rect width="16" height="16" fill="white" transform="translate(0.68 0.700012)"/>
</clipPath>
<clipPath id="clip20_1_97">
<rect width="12.8" height="12.8" fill="white" transform="translate(2.28 2.30002)"/>
</clipPath>
</defs>
</svg>
