<svg width="77" height="17" viewBox="0 0 77 17" fill="none" xmlns="http://www.w3.org/2000/svg">
<g clip-path="url(#clip0_1_410)">
<g clip-path="url(#clip1_1_410)">
<g clip-path="url(#clip2_1_410)">
<path fill-rule="evenodd" clip-rule="evenodd" d="M70.1793 2.3899L68.517 5.91432L64.7997 6.47959C64.3226 6.55215 64.132 7.16586 64.4773 7.51811L67.1671 10.2623L66.5323 14.1369C66.4508 14.6343 66.9496 15.0135 67.3763 14.7788L70.701 12.9501L74.0256 14.7788C74.4524 15.0135 74.9511 14.6343 74.8697 14.1369L74.2349 10.2623L76.9247 7.51811C77.2699 7.16586 77.0794 6.55215 76.6022 6.47959L72.8849 5.91432L71.2226 2.3899C71.0092 1.93742 70.3927 1.93742 70.1793 2.3899Z" fill="#F39019"/>
</g>
</g>
<g clip-path="url(#clip3_1_410)">
<g clip-path="url(#clip4_1_410)">
<path fill-rule="evenodd" clip-rule="evenodd" d="M54.1793 2.3899L52.517 5.91432L48.7997 6.47959C48.3226 6.55215 48.132 7.16586 48.4773 7.51811L51.1671 10.2623L50.5323 14.1369C50.4508 14.6343 50.9496 15.0135 51.3763 14.7788L54.701 12.9501L58.0256 14.7788C58.4524 15.0135 58.9511 14.6343 58.8697 14.1369L58.2349 10.2623L60.9247 7.51811C61.2699 7.16586 61.0794 6.55215 60.6022 6.47959L56.8849 5.91432L55.2226 2.3899C55.0092 1.93742 54.3927 1.93742 54.1793 2.3899Z" fill="#F39019"/>
</g>
</g>
<g clip-path="url(#clip5_1_410)">
<g clip-path="url(#clip6_1_410)">
<path fill-rule="evenodd" clip-rule="evenodd" d="M38.1793 2.3899L36.517 5.91432L32.7997 6.47959C32.3226 6.55215 32.132 7.16586 32.4773 7.51811L35.1671 10.2623L34.5323 14.1369C34.4508 14.6343 34.9496 15.0135 35.3763 14.7788L38.701 12.9501L42.0256 14.7788C42.4524 15.0135 42.9511 14.6343 42.8697 14.1369L42.2349 10.2623L44.9247 7.51811C45.2699 7.16586 45.0794 6.55215 44.6022 6.47959L40.8849 5.91432L39.2226 2.3899C39.0092 1.93742 38.3927 1.93742 38.1793 2.3899Z" fill="#F39019"/>
</g>
</g>
<g clip-path="url(#clip7_1_410)">
<g clip-path="url(#clip8_1_410)">
<path fill-rule="evenodd" clip-rule="evenodd" d="M22.1793 2.3899L20.517 5.91432L16.7997 6.47959C16.3226 6.55215 16.132 7.16586 16.4773 7.51811L19.1671 10.2623L18.5323 14.1369C18.4508 14.6343 18.9496 15.0135 19.3763 14.7788L22.701 12.9501L26.0256 14.7788C26.4524 15.0135 26.9511 14.6343 26.8697 14.1369L26.2349 10.2623L28.9247 7.51811C29.2699 7.16586 29.0794 6.55215 28.6022 6.47959L24.8849 5.91432L23.2226 2.3899C23.0092 1.93742 22.3927 1.93742 22.1793 2.3899Z" fill="#F39019"/>
</g>
</g>
<g clip-path="url(#clip9_1_410)">
<g clip-path="url(#clip10_1_410)">
<path fill-rule="evenodd" clip-rule="evenodd" d="M6.1793 2.3899L4.51703 5.91432L0.799726 6.47959C0.322556 6.55215 0.132016 7.16586 0.477291 7.51811L3.16709 10.2623L2.53231 14.1369C2.45082 14.6343 2.94957 15.0135 3.37634 14.7788L6.70098 12.9501L10.0256 14.7788C10.4524 15.0135 10.9511 14.6343 10.8697 14.1369L10.2349 10.2623L12.9247 7.51811C13.2699 7.16586 13.0794 6.55215 12.6022 6.47959L8.88492 5.91432L7.22265 2.3899C7.00924 1.93742 6.39271 1.93742 6.1793 2.3899Z" fill="#F39019"/>
</g>
</g>
</g>
<defs>
<clipPath id="clip0_1_410">
<rect width="78.24" height="16" fill="white" transform="translate(-1.3 0.449951)"/>
</clipPath>
<clipPath id="clip1_1_410">
<rect width="16" height="16" fill="white" transform="translate(62.7 0.449951)"/>
</clipPath>
<clipPath id="clip2_1_410">
<rect width="12.8" height="12.8" fill="white" transform="translate(64.3 2.05005)"/>
</clipPath>
<clipPath id="clip3_1_410">
<rect width="16" height="16" fill="white" transform="translate(46.7 0.449951)"/>
</clipPath>
<clipPath id="clip4_1_410">
<rect width="12.8" height="12.8" fill="white" transform="translate(48.3 2.05005)"/>
</clipPath>
<clipPath id="clip5_1_410">
<rect width="16" height="16" fill="white" transform="translate(30.7 0.449951)"/>
</clipPath>
<clipPath id="clip6_1_410">
<rect width="12.8" height="12.8" fill="white" transform="translate(32.3 2.05005)"/>
</clipPath>
<clipPath id="clip7_1_410">
<rect width="16" height="16" fill="white" transform="translate(14.7 0.449951)"/>
</clipPath>
<clipPath id="clip8_1_410">
<rect width="12.8" height="12.8" fill="white" transform="translate(16.3 2.05005)"/>
</clipPath>
<clipPath id="clip9_1_410">
<rect width="16" height="16" fill="white" transform="translate(-1.3 0.449951)"/>
</clipPath>
<clipPath id="clip10_1_410">
<rect width="12.8" height="12.8" fill="white" transform="translate(0.300003 2.05005)"/>
</clipPath>
</defs>
</svg>
