<svg width="81" height="18" viewBox="0 0 81 18" fill="none" xmlns="http://www.w3.org/2000/svg">
<g clip-path="url(#clip0_1_1076)">
<g clip-path="url(#clip1_1_1076)">
<path fill-rule="evenodd" clip-rule="evenodd" d="M71.9793 2.8899L70.317 6.41432L66.5997 6.97959C66.1226 7.05215 65.932 7.66586 66.2773 8.01811L68.9671 10.7623L68.3323 14.6369C68.2508 15.1343 68.7496 15.5135 69.1763 15.2788L72.501 13.4501L75.8256 15.2788C76.2524 15.5135 76.7511 15.1343 76.6697 14.6369L76.0349 10.7623L78.7247 8.01811C79.0699 7.66586 78.8794 7.05215 78.4022 6.97959L74.6849 6.41432L73.0226 2.8899C72.8092 2.43742 72.1927 2.43742 71.9793 2.8899Z" fill="#BFBFBF"/>
</g>
</g>
<g clip-path="url(#clip2_1_1076)">
<g clip-path="url(#clip3_1_1076)">
<path fill-rule="evenodd" clip-rule="evenodd" d="M55.9793 2.8899L54.317 6.41432L50.5997 6.97959C50.1226 7.05215 49.932 7.66586 50.2773 8.01811L52.9671 10.7623L52.3323 14.6369C52.2508 15.1343 52.7496 15.5135 53.1763 15.2788L56.501 13.4501L59.8256 15.2788C60.2524 15.5135 60.7511 15.1343 60.6697 14.6369L60.0349 10.7623L62.7247 8.01811C63.0699 7.66586 62.8794 7.05215 62.4022 6.97959L58.6849 6.41432L57.0226 2.8899C56.8092 2.43742 56.1927 2.43742 55.9793 2.8899Z" fill="#BFBFBF"/>
</g>
</g>
<g clip-path="url(#clip4_1_1076)">
<g clip-path="url(#clip5_1_1076)">
<path fill-rule="evenodd" clip-rule="evenodd" d="M39.9793 2.8899L38.317 6.41432L34.5997 6.97959C34.1226 7.05215 33.932 7.66586 34.2773 8.01811L36.9671 10.7623L36.3323 14.6369C36.2508 15.1343 36.7496 15.5135 37.1763 15.2788L40.501 13.4501L43.8256 15.2788C44.2524 15.5135 44.7511 15.1343 44.6697 14.6369L44.0349 10.7623L46.7247 8.01811C47.0699 7.66586 46.8794 7.05215 46.4022 6.97959L42.6849 6.41432L41.0226 2.8899C40.8092 2.43742 40.1927 2.43742 39.9793 2.8899Z" fill="#BFBFBF"/>
</g>
</g>
<g clip-path="url(#clip6_1_1076)">
<g clip-path="url(#clip7_1_1076)">
<path fill-rule="evenodd" clip-rule="evenodd" d="M23.9793 2.8899L22.317 6.41432L18.5997 6.97959C18.1226 7.05215 17.932 7.66586 18.2773 8.01811L20.9671 10.7623L20.3323 14.6369C20.2508 15.1343 20.7496 15.5135 21.1763 15.2788L24.501 13.4501L27.8256 15.2788C28.2524 15.5135 28.7511 15.1343 28.6697 14.6369L28.0349 10.7623L30.7247 8.01811C31.0699 7.66586 30.8794 7.05215 30.4022 6.97959L26.6849 6.41432L25.0226 2.8899C24.8092 2.43742 24.1927 2.43742 23.9793 2.8899Z" fill="#BFBFBF"/>
</g>
</g>
<g clip-path="url(#clip8_1_1076)">
<g clip-path="url(#clip9_1_1076)">
<path fill-rule="evenodd" clip-rule="evenodd" d="M7.9793 2.8899L6.31703 6.41432L2.59973 6.97959C2.12256 7.05215 1.93202 7.66586 2.27729 8.01811L4.9671 10.7623L4.33231 14.6369C4.25082 15.1343 4.74958 15.5135 5.17634 15.2788L8.50098 13.4501L11.8256 15.2788C12.2524 15.5135 12.7511 15.1343 12.6697 14.6369L12.0349 10.7623L14.7247 8.01811C15.0699 7.66586 14.8794 7.05215 14.4022 6.97959L10.6849 6.41432L9.02265 2.8899C8.80924 2.43742 8.19271 2.43742 7.9793 2.8899Z" fill="#BFBFBF"/>
</g>
</g>
<g clip-path="url(#clip10_1_1076)">
<g clip-path="url(#clip11_1_1076)">
<g clip-path="url(#clip12_1_1076)">
<path fill-rule="evenodd" clip-rule="evenodd" d="M71.9793 3.3899L70.317 6.91432L66.5997 7.47959C66.1226 7.55215 65.932 8.16586 66.2773 8.51811L68.9671 11.2623L68.3323 15.1369C68.2508 15.6343 68.7496 16.0135 69.1763 15.7788L72.501 13.9501L75.8256 15.7788C76.2524 16.0135 76.7511 15.6343 76.6697 15.1369L76.0349 11.2623L78.7247 8.51811C79.0699 8.16586 78.8794 7.55215 78.4022 7.47959L74.6849 6.91432L73.0226 3.3899C72.8092 2.93742 72.1927 2.93742 71.9793 3.3899Z" fill="#F39019"/>
</g>
</g>
<g clip-path="url(#clip13_1_1076)">
<g clip-path="url(#clip14_1_1076)">
<path fill-rule="evenodd" clip-rule="evenodd" d="M55.9793 3.3899L54.317 6.91432L50.5997 7.47959C50.1226 7.55215 49.932 8.16586 50.2773 8.51811L52.9671 11.2623L52.3323 15.1369C52.2508 15.6343 52.7496 16.0135 53.1763 15.7788L56.501 13.9501L59.8256 15.7788C60.2524 16.0135 60.7511 15.6343 60.6697 15.1369L60.0349 11.2623L62.7247 8.51811C63.0699 8.16586 62.8794 7.55215 62.4022 7.47959L58.6849 6.91432L57.0226 3.3899C56.8092 2.93742 56.1927 2.93742 55.9793 3.3899Z" fill="#F39019"/>
</g>
</g>
<g clip-path="url(#clip15_1_1076)">
<g clip-path="url(#clip16_1_1076)">
<path fill-rule="evenodd" clip-rule="evenodd" d="M39.9793 3.3899L38.317 6.91432L34.5997 7.47959C34.1226 7.55215 33.932 8.16586 34.2773 8.51811L36.9671 11.2623L36.3323 15.1369C36.2508 15.6343 36.7496 16.0135 37.1763 15.7788L40.501 13.9501L43.8256 15.7788C44.2524 16.0135 44.7511 15.6343 44.6697 15.1369L44.0349 11.2623L46.7247 8.51811C47.0699 8.16586 46.8794 7.55215 46.4022 7.47959L42.6849 6.91432L41.0226 3.3899C40.8092 2.93742 40.1927 2.93742 39.9793 3.3899Z" fill="#F39019"/>
</g>
</g>
<g clip-path="url(#clip17_1_1076)">
<g clip-path="url(#clip18_1_1076)">
<path fill-rule="evenodd" clip-rule="evenodd" d="M23.9793 3.3899L22.317 6.91432L18.5997 7.47959C18.1226 7.55215 17.932 8.16586 18.2773 8.51811L20.9671 11.2623L20.3323 15.1369C20.2508 15.6343 20.7496 16.0135 21.1763 15.7788L24.501 13.9501L27.8256 15.7788C28.2524 16.0135 28.7511 15.6343 28.6697 15.1369L28.0349 11.2623L30.7247 8.51811C31.0699 8.16586 30.8794 7.55215 30.4022 7.47959L26.6849 6.91432L25.0226 3.3899C24.8092 2.93742 24.1927 2.93742 23.9793 3.3899Z" fill="#F39019"/>
</g>
</g>
<g clip-path="url(#clip19_1_1076)">
<g clip-path="url(#clip20_1_1076)">
<path fill-rule="evenodd" clip-rule="evenodd" d="M7.9793 3.3899L6.31703 6.91432L2.59973 7.47959C2.12256 7.55215 1.93202 8.16586 2.27729 8.51811L4.9671 11.2623L4.33231 15.1369C4.25082 15.6343 4.74958 16.0135 5.17634 15.7788L8.50098 13.9501L11.8256 15.7788C12.2524 16.0135 12.7511 15.6343 12.6697 15.1369L12.0349 11.2623L14.7247 8.51811C15.0699 8.16586 14.8794 7.55215 14.4022 7.47959L10.6849 6.91432L9.02265 3.3899C8.80924 2.93742 8.19271 2.93742 7.9793 3.3899Z" fill="#F39019"/>
</g>
</g>
</g>
<defs>
<clipPath id="clip0_1_1076">
<rect width="16" height="16" fill="white" transform="translate(64.5 0.949951)"/>
</clipPath>
<clipPath id="clip1_1_1076">
<rect width="12.8" height="12.8" fill="white" transform="translate(66.1 2.55005)"/>
</clipPath>
<clipPath id="clip2_1_1076">
<rect width="16" height="16" fill="white" transform="translate(48.5 0.949951)"/>
</clipPath>
<clipPath id="clip3_1_1076">
<rect width="12.8" height="12.8" fill="white" transform="translate(50.1 2.55005)"/>
</clipPath>
<clipPath id="clip4_1_1076">
<rect width="16" height="16" fill="white" transform="translate(32.5 0.949951)"/>
</clipPath>
<clipPath id="clip5_1_1076">
<rect width="12.8" height="12.8" fill="white" transform="translate(34.1 2.55005)"/>
</clipPath>
<clipPath id="clip6_1_1076">
<rect width="16" height="16" fill="white" transform="translate(16.5 0.949951)"/>
</clipPath>
<clipPath id="clip7_1_1076">
<rect width="12.8" height="12.8" fill="white" transform="translate(18.1 2.55005)"/>
</clipPath>
<clipPath id="clip8_1_1076">
<rect width="16" height="16" fill="white" transform="translate(0.500004 0.949951)"/>
</clipPath>
<clipPath id="clip9_1_1076">
<rect width="12.8" height="12.8" fill="white" transform="translate(2.1 2.55005)"/>
</clipPath>
<clipPath id="clip10_1_1076">
<rect width="73.75" height="16" fill="white" transform="translate(0.500004 1.44995)"/>
</clipPath>
<clipPath id="clip11_1_1076">
<rect width="16" height="16" fill="white" transform="translate(64.5 1.44995)"/>
</clipPath>
<clipPath id="clip12_1_1076">
<rect width="12.8" height="12.8" fill="white" transform="translate(66.1 3.05005)"/>
</clipPath>
<clipPath id="clip13_1_1076">
<rect width="16" height="16" fill="white" transform="translate(48.5 1.44995)"/>
</clipPath>
<clipPath id="clip14_1_1076">
<rect width="12.8" height="12.8" fill="white" transform="translate(50.1 3.05005)"/>
</clipPath>
<clipPath id="clip15_1_1076">
<rect width="16" height="16" fill="white" transform="translate(32.5 1.44995)"/>
</clipPath>
<clipPath id="clip16_1_1076">
<rect width="12.8" height="12.8" fill="white" transform="translate(34.1 3.05005)"/>
</clipPath>
<clipPath id="clip17_1_1076">
<rect width="16" height="16" fill="white" transform="translate(16.5 1.44995)"/>
</clipPath>
<clipPath id="clip18_1_1076">
<rect width="12.8" height="12.8" fill="white" transform="translate(18.1 3.05005)"/>
</clipPath>
<clipPath id="clip19_1_1076">
<rect width="16" height="16" fill="white" transform="translate(0.500004 1.44995)"/>
</clipPath>
<clipPath id="clip20_1_1076">
<rect width="12.8" height="12.8" fill="white" transform="translate(2.1 3.05005)"/>
</clipPath>
</defs>
</svg>
