<svg width="41" height="17" viewBox="0 0 41 17" fill="none" xmlns="http://www.w3.org/2000/svg">
<g clip-path="url(#clip0_1_3377)">
<g clip-path="url(#clip1_1_3377)">
<g clip-path="url(#clip2_1_3377)">
<path fill-rule="evenodd" clip-rule="evenodd" d="M39.7793 2.68995L38.117 6.21437L34.3997 6.77964C33.9226 6.8522 33.732 7.46591 34.0773 7.81816L36.7671 10.5623L36.1323 14.437C36.0508 14.9343 36.5496 15.3136 36.9763 15.0788L40.301 13.2501L43.6256 15.0788C44.0524 15.3136 44.5511 14.9343 44.4697 14.437L43.8349 10.5623L46.5247 7.81816C46.8699 7.46591 46.6794 6.8522 46.2022 6.77964L42.4849 6.21437L40.8227 2.68995C40.6092 2.23747 39.9927 2.23747 39.7793 2.68995Z" fill="#F39019"/>
</g>
</g>
<g clip-path="url(#clip3_1_3377)">
<g clip-path="url(#clip4_1_3377)">
<path fill-rule="evenodd" clip-rule="evenodd" d="M23.7793 2.68995L22.117 6.21437L18.3997 6.77964C17.9226 6.8522 17.732 7.46591 18.0773 7.81816L20.7671 10.5623L20.1323 14.437C20.0508 14.9343 20.5496 15.3136 20.9763 15.0788L24.301 13.2501L27.6256 15.0788C28.0524 15.3136 28.5511 14.9343 28.4697 14.437L27.8349 10.5623L30.5247 7.81816C30.8699 7.46591 30.6794 6.8522 30.2022 6.77964L26.4849 6.21437L24.8227 2.68995C24.6092 2.23747 23.9927 2.23747 23.7793 2.68995Z" fill="#F39019"/>
</g>
</g>
<g clip-path="url(#clip5_1_3377)">
<g clip-path="url(#clip6_1_3377)">
<path fill-rule="evenodd" clip-rule="evenodd" d="M7.77931 2.68995L6.11704 6.21437L2.39973 6.77964C1.92256 6.8522 1.73202 7.46591 2.0773 7.81816L4.7671 10.5623L4.13232 14.437C4.05083 14.9343 4.54958 15.3136 4.97635 15.0788L8.30099 13.2501L11.6256 15.0788C12.0524 15.3136 12.5511 14.9343 12.4697 14.437L11.8349 10.5623L14.5247 7.81816C14.8699 7.46591 14.6794 6.8522 14.2022 6.77964L10.4849 6.21437L8.82265 2.68995C8.60924 2.23747 7.99272 2.23747 7.77931 2.68995Z" fill="#F39019"/>
</g>
</g>
</g>
<defs>
<clipPath id="clip0_1_3377">
<rect width="40" height="16" fill="white" transform="translate(0.300011 0.75)"/>
</clipPath>
<clipPath id="clip1_1_3377">
<rect width="16" height="16" fill="white" transform="translate(32.3 0.75)"/>
</clipPath>
<clipPath id="clip2_1_3377">
<rect width="12.8" height="12.8" fill="white" transform="translate(33.9 2.3501)"/>
</clipPath>
<clipPath id="clip3_1_3377">
<rect width="16" height="16" fill="white" transform="translate(16.3 0.75)"/>
</clipPath>
<clipPath id="clip4_1_3377">
<rect width="12.8" height="12.8" fill="white" transform="translate(17.9 2.3501)"/>
</clipPath>
<clipPath id="clip5_1_3377">
<rect width="16" height="16" fill="white" transform="translate(0.300011 0.75)"/>
</clipPath>
<clipPath id="clip6_1_3377">
<rect width="12.8" height="12.8" fill="white" transform="translate(1.90001 2.3501)"/>
</clipPath>
</defs>
</svg>
