<svg width="42" height="17" viewBox="0 0 42 17" fill="none" xmlns="http://www.w3.org/2000/svg">
<g clip-path="url(#clip0_1_3012)">
<g clip-path="url(#clip1_1_3012)">
<g clip-path="url(#clip2_1_3012)">
<path fill-rule="evenodd" clip-rule="evenodd" d="M40.3793 2.89014L38.717 6.41457L34.9997 6.97983C34.5226 7.05239 34.332 7.6661 34.6773 8.01836L37.3671 10.7625L36.7323 14.6372C36.6508 15.1345 37.1496 15.5138 37.5764 15.279L40.901 13.4503L44.2256 15.279C44.6524 15.5138 45.1511 15.1345 45.0697 14.6372L44.4349 10.7625L47.1247 8.01836C47.47 7.6661 47.2794 7.05239 46.8022 6.97983L43.0849 6.41457L41.4227 2.89014C41.2093 2.43766 40.5927 2.43766 40.3793 2.89014Z" fill="#F39019"/>
</g>
</g>
<g clip-path="url(#clip3_1_3012)">
<g clip-path="url(#clip4_1_3012)">
<path fill-rule="evenodd" clip-rule="evenodd" d="M24.3793 2.89014L22.717 6.41457L18.9997 6.97983C18.5226 7.05239 18.332 7.6661 18.6773 8.01836L21.3671 10.7625L20.7323 14.6372C20.6508 15.1345 21.1496 15.5138 21.5764 15.279L24.901 13.4503L28.2256 15.279C28.6524 15.5138 29.1511 15.1345 29.0697 14.6372L28.4349 10.7625L31.1247 8.01836C31.47 7.6661 31.2794 7.05239 30.8022 6.97983L27.0849 6.41457L25.4227 2.89014C25.2093 2.43766 24.5927 2.43766 24.3793 2.89014Z" fill="#F39019"/>
</g>
</g>
<g clip-path="url(#clip5_1_3012)">
<g clip-path="url(#clip6_1_3012)">
<path fill-rule="evenodd" clip-rule="evenodd" d="M8.37931 2.89014L6.71704 6.41457L2.99974 6.97983C2.52257 7.05239 2.33203 7.6661 2.6773 8.01836L5.36711 10.7625L4.73232 14.6372C4.65083 15.1345 5.14959 15.5138 5.57635 15.279L8.90099 13.4503L12.2256 15.279C12.6524 15.5138 13.1511 15.1345 13.0697 14.6372L12.4349 10.7625L15.1247 8.01836C15.47 7.6661 15.2794 7.05239 14.8022 6.97983L11.0849 6.41457L9.42266 2.89014C9.20925 2.43766 8.59272 2.43766 8.37931 2.89014Z" fill="#F39019"/>
</g>
</g>
</g>
<defs>
<clipPath id="clip0_1_3012">
<rect width="76.15" height="16" fill="white" transform="translate(0.900009 0.950195)"/>
</clipPath>
<clipPath id="clip1_1_3012">
<rect width="16" height="16" fill="white" transform="translate(32.9 0.950195)"/>
</clipPath>
<clipPath id="clip2_1_3012">
<rect width="12.8" height="12.8" fill="white" transform="translate(34.5 2.55029)"/>
</clipPath>
<clipPath id="clip3_1_3012">
<rect width="16" height="16" fill="white" transform="translate(16.9 0.950195)"/>
</clipPath>
<clipPath id="clip4_1_3012">
<rect width="12.8" height="12.8" fill="white" transform="translate(18.5 2.55029)"/>
</clipPath>
<clipPath id="clip5_1_3012">
<rect width="16" height="16" fill="white" transform="translate(0.900009 0.950195)"/>
</clipPath>
<clipPath id="clip6_1_3012">
<rect width="12.8" height="12.8" fill="white" transform="translate(2.50002 2.55029)"/>
</clipPath>
</defs>
</svg>
