<svg width="81" height="18" viewBox="0 0 81 18" fill="none" xmlns="http://www.w3.org/2000/svg">
<g clip-path="url(#clip0_1_2722)">
<g clip-path="url(#clip1_1_2722)">
<path fill-rule="evenodd" clip-rule="evenodd" d="M72.1793 2.75001L70.517 6.27443L66.7997 6.83969C66.3225 6.91225 66.132 7.52597 66.4773 7.87822L69.1671 10.6224L68.5323 14.497C68.4508 14.9944 68.9496 15.3736 69.3763 15.1389L72.701 13.3102L76.0256 15.1389C76.4524 15.3736 76.9511 14.9944 76.8696 14.497L76.2348 10.6224L78.9247 7.87822C79.2699 7.52597 79.0794 6.91225 78.6022 6.83969L74.8849 6.27443L73.2226 2.75001C73.0092 2.29752 72.3927 2.29752 72.1793 2.75001Z" fill="#BFBFBF"/>
</g>
</g>
<g clip-path="url(#clip2_1_2722)">
<g clip-path="url(#clip3_1_2722)">
<path fill-rule="evenodd" clip-rule="evenodd" d="M56.1793 2.75001L54.517 6.27443L50.7997 6.83969C50.3225 6.91225 50.132 7.52597 50.4773 7.87822L53.1671 10.6224L52.5323 14.497C52.4508 14.9944 52.9496 15.3736 53.3763 15.1389L56.701 13.3102L60.0256 15.1389C60.4524 15.3736 60.9511 14.9944 60.8696 14.497L60.2348 10.6224L62.9247 7.87822C63.2699 7.52597 63.0794 6.91225 62.6022 6.83969L58.8849 6.27443L57.2226 2.75001C57.0092 2.29752 56.3927 2.29752 56.1793 2.75001Z" fill="#BFBFBF"/>
</g>
</g>
<g clip-path="url(#clip4_1_2722)">
<g clip-path="url(#clip5_1_2722)">
<path fill-rule="evenodd" clip-rule="evenodd" d="M40.1793 2.75001L38.517 6.27443L34.7997 6.83969C34.3225 6.91225 34.132 7.52597 34.4773 7.87822L37.1671 10.6224L36.5323 14.497C36.4508 14.9944 36.9496 15.3736 37.3763 15.1389L40.701 13.3102L44.0256 15.1389C44.4524 15.3736 44.9511 14.9944 44.8696 14.497L44.2348 10.6224L46.9247 7.87822C47.2699 7.52597 47.0794 6.91225 46.6022 6.83969L42.8849 6.27443L41.2226 2.75001C41.0092 2.29752 40.3927 2.29752 40.1793 2.75001Z" fill="#BFBFBF"/>
</g>
</g>
<g clip-path="url(#clip6_1_2722)">
<g clip-path="url(#clip7_1_2722)">
<path fill-rule="evenodd" clip-rule="evenodd" d="M24.1793 2.75001L22.517 6.27443L18.7997 6.83969C18.3225 6.91225 18.132 7.52597 18.4773 7.87822L21.1671 10.6224L20.5323 14.497C20.4508 14.9944 20.9496 15.3736 21.3763 15.1389L24.701 13.3102L28.0256 15.1389C28.4524 15.3736 28.9511 14.9944 28.8696 14.497L28.2348 10.6224L30.9247 7.87822C31.2699 7.52597 31.0794 6.91225 30.6022 6.83969L26.8849 6.27443L25.2226 2.75001C25.0092 2.29752 24.3927 2.29752 24.1793 2.75001Z" fill="#BFBFBF"/>
</g>
</g>
<g clip-path="url(#clip8_1_2722)">
<g clip-path="url(#clip9_1_2722)">
<path fill-rule="evenodd" clip-rule="evenodd" d="M8.17929 2.75001L6.51702 6.27443L2.79972 6.83969C2.32255 6.91225 2.13201 7.52597 2.47728 7.87822L5.16709 10.6224L4.5323 14.497C4.45081 14.9944 4.94957 15.3736 5.37633 15.1389L8.70097 13.3102L12.0256 15.1389C12.4524 15.3736 12.9511 14.9944 12.8696 14.497L12.2348 10.6224L14.9247 7.87822C15.2699 7.52597 15.0794 6.91225 14.6022 6.83969L10.8849 6.27443L9.22264 2.75001C9.00923 2.29752 8.3927 2.29752 8.17929 2.75001Z" fill="#BFBFBF"/>
</g>
</g>
<g clip-path="url(#clip10_1_2722)">
<g clip-path="url(#clip11_1_2722)">
<g clip-path="url(#clip12_1_2722)">
<path fill-rule="evenodd" clip-rule="evenodd" d="M72.1793 3.25001L70.517 6.77443L66.7997 7.33969C66.3225 7.41225 66.132 8.02597 66.4773 8.37822L69.1671 11.1224L68.5323 14.997C68.4508 15.4944 68.9496 15.8736 69.3763 15.6389L72.701 13.8102L76.0256 15.6389C76.4524 15.8736 76.9511 15.4944 76.8696 14.997L76.2348 11.1224L78.9247 8.37822C79.2699 8.02597 79.0794 7.41225 78.6022 7.33969L74.8849 6.77443L73.2226 3.25001C73.0092 2.79752 72.3927 2.79752 72.1793 3.25001Z" fill="#F39019"/>
</g>
</g>
<g clip-path="url(#clip13_1_2722)">
<g clip-path="url(#clip14_1_2722)">
<path fill-rule="evenodd" clip-rule="evenodd" d="M56.1793 3.25001L54.517 6.77443L50.7997 7.33969C50.3225 7.41225 50.132 8.02597 50.4773 8.37822L53.1671 11.1224L52.5323 14.997C52.4508 15.4944 52.9496 15.8736 53.3763 15.6389L56.701 13.8102L60.0256 15.6389C60.4524 15.8736 60.9511 15.4944 60.8696 14.997L60.2348 11.1224L62.9247 8.37822C63.2699 8.02597 63.0794 7.41225 62.6022 7.33969L58.8849 6.77443L57.2226 3.25001C57.0092 2.79752 56.3927 2.79752 56.1793 3.25001Z" fill="#F39019"/>
</g>
</g>
<g clip-path="url(#clip15_1_2722)">
<g clip-path="url(#clip16_1_2722)">
<path fill-rule="evenodd" clip-rule="evenodd" d="M40.1793 3.25001L38.517 6.77443L34.7997 7.33969C34.3225 7.41225 34.132 8.02597 34.4773 8.37822L37.1671 11.1224L36.5323 14.997C36.4508 15.4944 36.9496 15.8736 37.3763 15.6389L40.701 13.8102L44.0256 15.6389C44.4524 15.8736 44.9511 15.4944 44.8696 14.997L44.2348 11.1224L46.9247 8.37822C47.2699 8.02597 47.0794 7.41225 46.6022 7.33969L42.8849 6.77443L41.2226 3.25001C41.0092 2.79752 40.3927 2.79752 40.1793 3.25001Z" fill="#F39019"/>
</g>
</g>
<g clip-path="url(#clip17_1_2722)">
<g clip-path="url(#clip18_1_2722)">
<path fill-rule="evenodd" clip-rule="evenodd" d="M24.1793 3.25001L22.517 6.77443L18.7997 7.33969C18.3225 7.41225 18.132 8.02597 18.4773 8.37822L21.1671 11.1224L20.5323 14.997C20.4508 15.4944 20.9496 15.8736 21.3763 15.6389L24.701 13.8102L28.0256 15.6389C28.4524 15.8736 28.9511 15.4944 28.8696 14.997L28.2348 11.1224L30.9247 8.37822C31.2699 8.02597 31.0794 7.41225 30.6022 7.33969L26.8849 6.77443L25.2226 3.25001C25.0092 2.79752 24.3927 2.79752 24.1793 3.25001Z" fill="#F39019"/>
</g>
</g>
<g clip-path="url(#clip19_1_2722)">
<g clip-path="url(#clip20_1_2722)">
<path fill-rule="evenodd" clip-rule="evenodd" d="M8.17929 3.25001L6.51702 6.77443L2.79972 7.33969C2.32255 7.41225 2.13201 8.02597 2.47728 8.37822L5.16709 11.1224L4.5323 14.997C4.45081 15.4944 4.94957 15.8736 5.37633 15.6389L8.70097 13.8102L12.0256 15.6389C12.4524 15.8736 12.9511 15.4944 12.8696 14.997L12.2348 11.1224L14.9247 8.37822C15.2699 8.02597 15.0794 7.41225 14.6022 7.33969L10.8849 6.77443L9.22264 3.25001C9.00923 2.79752 8.3927 2.79752 8.17929 3.25001Z" fill="#F39019"/>
</g>
</g>
</g>
<defs>
<clipPath id="clip0_1_2722">
<rect width="16" height="16" fill="white" transform="translate(64.7 0.810059)"/>
</clipPath>
<clipPath id="clip1_1_2722">
<rect width="12.8" height="12.8" fill="white" transform="translate(66.3 2.41016)"/>
</clipPath>
<clipPath id="clip2_1_2722">
<rect width="16" height="16" fill="white" transform="translate(48.7 0.810059)"/>
</clipPath>
<clipPath id="clip3_1_2722">
<rect width="12.8" height="12.8" fill="white" transform="translate(50.3 2.41016)"/>
</clipPath>
<clipPath id="clip4_1_2722">
<rect width="16" height="16" fill="white" transform="translate(32.7 0.810059)"/>
</clipPath>
<clipPath id="clip5_1_2722">
<rect width="12.8" height="12.8" fill="white" transform="translate(34.3 2.41016)"/>
</clipPath>
<clipPath id="clip6_1_2722">
<rect width="16" height="16" fill="white" transform="translate(16.7 0.810059)"/>
</clipPath>
<clipPath id="clip7_1_2722">
<rect width="12.8" height="12.8" fill="white" transform="translate(18.3 2.41016)"/>
</clipPath>
<clipPath id="clip8_1_2722">
<rect width="16" height="16" fill="white" transform="translate(0.699997 0.810059)"/>
</clipPath>
<clipPath id="clip9_1_2722">
<rect width="12.8" height="12.8" fill="white" transform="translate(2.3 2.41016)"/>
</clipPath>
<clipPath id="clip10_1_2722">
<rect width="74.24" height="16" fill="white" transform="translate(0.699997 1.31006)"/>
</clipPath>
<clipPath id="clip11_1_2722">
<rect width="16" height="16" fill="white" transform="translate(64.7 1.31006)"/>
</clipPath>
<clipPath id="clip12_1_2722">
<rect width="12.8" height="12.8" fill="white" transform="translate(66.3 2.91016)"/>
</clipPath>
<clipPath id="clip13_1_2722">
<rect width="16" height="16" fill="white" transform="translate(48.7 1.31006)"/>
</clipPath>
<clipPath id="clip14_1_2722">
<rect width="12.8" height="12.8" fill="white" transform="translate(50.3 2.91016)"/>
</clipPath>
<clipPath id="clip15_1_2722">
<rect width="16" height="16" fill="white" transform="translate(32.7 1.31006)"/>
</clipPath>
<clipPath id="clip16_1_2722">
<rect width="12.8" height="12.8" fill="white" transform="translate(34.3 2.91016)"/>
</clipPath>
<clipPath id="clip17_1_2722">
<rect width="16" height="16" fill="white" transform="translate(16.7 1.31006)"/>
</clipPath>
<clipPath id="clip18_1_2722">
<rect width="12.8" height="12.8" fill="white" transform="translate(18.3 2.91016)"/>
</clipPath>
<clipPath id="clip19_1_2722">
<rect width="16" height="16" fill="white" transform="translate(0.699997 1.31006)"/>
</clipPath>
<clipPath id="clip20_1_2722">
<rect width="12.8" height="12.8" fill="white" transform="translate(2.3 2.91016)"/>
</clipPath>
</defs>
</svg>
