<svg width="68" height="17" viewBox="0 0 68 17" fill="none" xmlns="http://www.w3.org/2000/svg">
<g clip-path="url(#clip0_1_1404)">
<g clip-path="url(#clip1_1_1404)">
<g clip-path="url(#clip2_1_1404)">
<path fill-rule="evenodd" clip-rule="evenodd" d="M70.1793 1.99L68.517 5.51442L64.7997 6.07968C64.3226 6.15224 64.132 6.76596 64.4773 7.11821L67.1671 9.86236L66.5323 13.737C66.4508 14.2344 66.9496 14.6136 67.3763 14.3789L70.701 12.5502L74.0256 14.3789C74.4524 14.6136 74.9511 14.2344 74.8697 13.737L74.2349 9.86236L76.9247 7.11821C77.2699 6.76596 77.0794 6.15224 76.6022 6.07968L72.8849 5.51442L71.2226 1.99C71.0092 1.53751 70.3927 1.53751 70.1793 1.99Z" fill="#F39019"/>
</g>
</g>
<g clip-path="url(#clip3_1_1404)">
<g clip-path="url(#clip4_1_1404)">
<path fill-rule="evenodd" clip-rule="evenodd" d="M54.1793 1.99L52.517 5.51442L48.7997 6.07968C48.3226 6.15224 48.132 6.76596 48.4773 7.11821L51.1671 9.86236L50.5323 13.737C50.4508 14.2344 50.9496 14.6136 51.3763 14.3789L54.701 12.5502L58.0256 14.3789C58.4524 14.6136 58.9511 14.2344 58.8697 13.737L58.2349 9.86236L60.9247 7.11821C61.2699 6.76596 61.0794 6.15224 60.6022 6.07968L56.8849 5.51442L55.2226 1.99C55.0092 1.53751 54.3927 1.53751 54.1793 1.99Z" fill="#F39019"/>
</g>
</g>
<g clip-path="url(#clip5_1_1404)">
<g clip-path="url(#clip6_1_1404)">
<path fill-rule="evenodd" clip-rule="evenodd" d="M38.1793 1.99L36.517 5.51442L32.7997 6.07968C32.3226 6.15224 32.132 6.76596 32.4773 7.11821L35.1671 9.86236L34.5323 13.737C34.4508 14.2344 34.9496 14.6136 35.3763 14.3789L38.701 12.5502L42.0256 14.3789C42.4524 14.6136 42.9511 14.2344 42.8697 13.737L42.2349 9.86236L44.9247 7.11821C45.2699 6.76596 45.0794 6.15224 44.6022 6.07968L40.8849 5.51442L39.2226 1.99C39.0092 1.53751 38.3927 1.53751 38.1793 1.99Z" fill="#F39019"/>
</g>
</g>
<g clip-path="url(#clip7_1_1404)">
<g clip-path="url(#clip8_1_1404)">
<path fill-rule="evenodd" clip-rule="evenodd" d="M22.1793 1.99L20.517 5.51442L16.7997 6.07968C16.3226 6.15224 16.132 6.76596 16.4773 7.11821L19.1671 9.86236L18.5323 13.737C18.4508 14.2344 18.9496 14.6136 19.3763 14.3789L22.701 12.5502L26.0256 14.3789C26.4524 14.6136 26.9511 14.2344 26.8697 13.737L26.2349 9.86236L28.9247 7.11821C29.2699 6.76596 29.0794 6.15224 28.6022 6.07968L24.8849 5.51442L23.2226 1.99C23.0092 1.53751 22.3927 1.53751 22.1793 1.99Z" fill="#F39019"/>
</g>
</g>
<g clip-path="url(#clip9_1_1404)">
<g clip-path="url(#clip10_1_1404)">
<path fill-rule="evenodd" clip-rule="evenodd" d="M6.1793 1.99L4.51703 5.51442L0.799726 6.07968C0.322556 6.15224 0.132016 6.76596 0.477291 7.11821L3.16709 9.86236L2.53231 13.737C2.45082 14.2344 2.94957 14.6136 3.37634 14.3789L6.70098 12.5502L10.0256 14.3789C10.4524 14.6136 10.9511 14.2344 10.8697 13.737L10.2349 9.86236L12.9247 7.11821C13.2699 6.76596 13.0794 6.15224 12.6022 6.07968L8.88492 5.51442L7.22265 1.99C7.00924 1.53751 6.39271 1.53751 6.1793 1.99Z" fill="#F39019"/>
</g>
</g>
</g>
<defs>
<clipPath id="clip0_1_1404">
<rect width="69.28" height="16" fill="white" transform="translate(-1.3 0.0500488)"/>
</clipPath>
<clipPath id="clip1_1_1404">
<rect width="16" height="16" fill="white" transform="translate(62.7 0.0500488)"/>
</clipPath>
<clipPath id="clip2_1_1404">
<rect width="12.8" height="12.8" fill="white" transform="translate(64.3 1.65015)"/>
</clipPath>
<clipPath id="clip3_1_1404">
<rect width="16" height="16" fill="white" transform="translate(46.7 0.0500488)"/>
</clipPath>
<clipPath id="clip4_1_1404">
<rect width="12.8" height="12.8" fill="white" transform="translate(48.3 1.65015)"/>
</clipPath>
<clipPath id="clip5_1_1404">
<rect width="16" height="16" fill="white" transform="translate(30.7 0.0500488)"/>
</clipPath>
<clipPath id="clip6_1_1404">
<rect width="12.8" height="12.8" fill="white" transform="translate(32.3 1.65015)"/>
</clipPath>
<clipPath id="clip7_1_1404">
<rect width="16" height="16" fill="white" transform="translate(14.7 0.0500488)"/>
</clipPath>
<clipPath id="clip8_1_1404">
<rect width="12.8" height="12.8" fill="white" transform="translate(16.3 1.65015)"/>
</clipPath>
<clipPath id="clip9_1_1404">
<rect width="16" height="16" fill="white" transform="translate(-1.3 0.0500488)"/>
</clipPath>
<clipPath id="clip10_1_1404">
<rect width="12.8" height="12.8" fill="white" transform="translate(0.300003 1.65015)"/>
</clipPath>
</defs>
</svg>
