<svg width="42" height="17" viewBox="0 0 42 17" fill="none" xmlns="http://www.w3.org/2000/svg">
<g clip-path="url(#clip0_1_3421)">
<g clip-path="url(#clip1_1_3421)">
<g clip-path="url(#clip2_1_3421)">
<path fill-rule="evenodd" clip-rule="evenodd" d="M40.3793 2.68995L38.717 6.21437L34.9997 6.77964C34.5226 6.8522 34.332 7.46591 34.6773 7.81816L37.3671 10.5623L36.7323 14.437C36.6508 14.9343 37.1496 15.3136 37.5764 15.0788L40.901 13.2501L44.2256 15.0788C44.6524 15.3136 45.1511 14.9343 45.0697 14.437L44.4349 10.5623L47.1247 7.81816C47.47 7.46591 47.2794 6.8522 46.8022 6.77964L43.0849 6.21437L41.4227 2.68995C41.2093 2.23747 40.5927 2.23747 40.3793 2.68995Z" fill="#F39019"/>
</g>
</g>
<g clip-path="url(#clip3_1_3421)">
<g clip-path="url(#clip4_1_3421)">
<path fill-rule="evenodd" clip-rule="evenodd" d="M24.3793 2.68995L22.717 6.21437L18.9997 6.77964C18.5226 6.8522 18.332 7.46591 18.6773 7.81816L21.3671 10.5623L20.7323 14.437C20.6508 14.9343 21.1496 15.3136 21.5764 15.0788L24.901 13.2501L28.2256 15.0788C28.6524 15.3136 29.1511 14.9343 29.0697 14.437L28.4349 10.5623L31.1247 7.81816C31.47 7.46591 31.2794 6.8522 30.8022 6.77964L27.0849 6.21437L25.4227 2.68995C25.2093 2.23747 24.5927 2.23747 24.3793 2.68995Z" fill="#F39019"/>
</g>
</g>
<g clip-path="url(#clip5_1_3421)">
<g clip-path="url(#clip6_1_3421)">
<path fill-rule="evenodd" clip-rule="evenodd" d="M8.37931 2.68995L6.71704 6.21437L2.99974 6.77964C2.52257 6.8522 2.33203 7.46591 2.6773 7.81816L5.36711 10.5623L4.73232 14.437C4.65083 14.9343 5.14959 15.3136 5.57635 15.0788L8.90099 13.2501L12.2256 15.0788C12.6524 15.3136 13.1511 14.9343 13.0697 14.437L12.4349 10.5623L15.1247 7.81816C15.47 7.46591 15.2794 6.8522 14.8022 6.77964L11.0849 6.21437L9.42266 2.68995C9.20925 2.23747 8.59272 2.23747 8.37931 2.68995Z" fill="#F39019"/>
</g>
</g>
</g>
<defs>
<clipPath id="clip0_1_3421">
<rect width="80" height="16" fill="white" transform="translate(0.900009 0.75)"/>
</clipPath>
<clipPath id="clip1_1_3421">
<rect width="16" height="16" fill="white" transform="translate(32.9 0.75)"/>
</clipPath>
<clipPath id="clip2_1_3421">
<rect width="12.8" height="12.8" fill="white" transform="translate(34.5 2.3501)"/>
</clipPath>
<clipPath id="clip3_1_3421">
<rect width="16" height="16" fill="white" transform="translate(16.9 0.75)"/>
</clipPath>
<clipPath id="clip4_1_3421">
<rect width="12.8" height="12.8" fill="white" transform="translate(18.5 2.3501)"/>
</clipPath>
<clipPath id="clip5_1_3421">
<rect width="16" height="16" fill="white" transform="translate(0.900009 0.75)"/>
</clipPath>
<clipPath id="clip6_1_3421">
<rect width="12.8" height="12.8" fill="white" transform="translate(2.50002 2.3501)"/>
</clipPath>
</defs>
</svg>
