<svg width="79" height="17" viewBox="0 0 79 17" fill="none" xmlns="http://www.w3.org/2000/svg">
<g clip-path="url(#clip0_1_3925)">
<g clip-path="url(#clip1_1_3925)">
<path fill-rule="evenodd" clip-rule="evenodd" d="M70.1793 2.21924L68.517 5.74367L64.7997 6.30893C64.3226 6.38149 64.132 6.9952 64.4773 7.34746L67.1671 10.0916L66.5323 13.9663C66.4508 14.4636 66.9496 14.8429 67.3763 14.6081L70.701 12.7794L74.0256 14.6081C74.4524 14.8429 74.9511 14.4636 74.8697 13.9663L74.2349 10.0916L76.9247 7.34746C77.2699 6.9952 77.0794 6.38149 76.6022 6.30893L72.8849 5.74367L71.2226 2.21924C71.0092 1.76676 70.3927 1.76676 70.1793 2.21924Z" fill="#BFBFBF"/>
</g>
</g>
<g clip-path="url(#clip2_1_3925)">
<g clip-path="url(#clip3_1_3925)">
<path fill-rule="evenodd" clip-rule="evenodd" d="M54.1793 2.21924L52.517 5.74367L48.7997 6.30893C48.3226 6.38149 48.132 6.9952 48.4773 7.34746L51.1671 10.0916L50.5323 13.9663C50.4508 14.4636 50.9496 14.8429 51.3763 14.6081L54.701 12.7794L58.0256 14.6081C58.4524 14.8429 58.9511 14.4636 58.8697 13.9663L58.2349 10.0916L60.9247 7.34746C61.2699 6.9952 61.0794 6.38149 60.6022 6.30893L56.8849 5.74367L55.2226 2.21924C55.0092 1.76676 54.3927 1.76676 54.1793 2.21924Z" fill="#BFBFBF"/>
</g>
</g>
<g clip-path="url(#clip4_1_3925)">
<g clip-path="url(#clip5_1_3925)">
<path fill-rule="evenodd" clip-rule="evenodd" d="M38.1793 2.21924L36.517 5.74367L32.7997 6.30893C32.3226 6.38149 32.132 6.9952 32.4773 7.34746L35.1671 10.0916L34.5323 13.9663C34.4508 14.4636 34.9496 14.8429 35.3763 14.6081L38.701 12.7794L42.0256 14.6081C42.4524 14.8429 42.9511 14.4636 42.8697 13.9663L42.2349 10.0916L44.9247 7.34746C45.2699 6.9952 45.0794 6.38149 44.6022 6.30893L40.8849 5.74367L39.2226 2.21924C39.0092 1.76676 38.3927 1.76676 38.1793 2.21924Z" fill="#BFBFBF"/>
</g>
</g>
<g clip-path="url(#clip6_1_3925)">
<g clip-path="url(#clip7_1_3925)">
<path fill-rule="evenodd" clip-rule="evenodd" d="M22.1793 2.21924L20.517 5.74367L16.7997 6.30893C16.3226 6.38149 16.132 6.9952 16.4773 7.34746L19.1671 10.0916L18.5323 13.9663C18.4508 14.4636 18.9496 14.8429 19.3763 14.6081L22.701 12.7794L26.0256 14.6081C26.4524 14.8429 26.9511 14.4636 26.8697 13.9663L26.2349 10.0916L28.9247 7.34746C29.2699 6.9952 29.0794 6.38149 28.6022 6.30893L24.8849 5.74367L23.2226 2.21924C23.0092 1.76676 22.3927 1.76676 22.1793 2.21924Z" fill="#BFBFBF"/>
</g>
</g>
<g clip-path="url(#clip8_1_3925)">
<g clip-path="url(#clip9_1_3925)">
<path fill-rule="evenodd" clip-rule="evenodd" d="M6.1793 2.21924L4.51703 5.74367L0.799726 6.30893C0.322556 6.38149 0.132016 6.9952 0.477291 7.34746L3.16709 10.0916L2.53231 13.9663C2.45082 14.4636 2.94957 14.8429 3.37634 14.6081L6.70098 12.7794L10.0256 14.6081C10.4524 14.8429 10.9511 14.4636 10.8697 13.9663L10.2349 10.0916L12.9247 7.34746C13.2699 6.9952 13.0794 6.38149 12.6022 6.30893L8.88492 5.74367L7.22265 2.21924C7.00924 1.76676 6.39271 1.76676 6.1793 2.21924Z" fill="#BFBFBF"/>
</g>
</g>
<g clip-path="url(#clip10_1_3925)">
<g clip-path="url(#clip11_1_3925)">
<g clip-path="url(#clip12_1_3925)">
<path fill-rule="evenodd" clip-rule="evenodd" d="M70.1793 2.71924L68.517 6.24367L64.7997 6.80893C64.3226 6.88149 64.132 7.4952 64.4773 7.84746L67.1671 10.5916L66.5323 14.4663C66.4508 14.9636 66.9496 15.3429 67.3763 15.1081L70.701 13.2794L74.0256 15.1081C74.4524 15.3429 74.9511 14.9636 74.8697 14.4663L74.2349 10.5916L76.9247 7.84746C77.2699 7.4952 77.0794 6.88149 76.6022 6.80893L72.8849 6.24367L71.2226 2.71924C71.0092 2.26676 70.3927 2.26676 70.1793 2.71924Z" fill="#F39019"/>
</g>
</g>
<g clip-path="url(#clip13_1_3925)">
<g clip-path="url(#clip14_1_3925)">
<path fill-rule="evenodd" clip-rule="evenodd" d="M54.1793 2.71924L52.517 6.24367L48.7997 6.80893C48.3226 6.88149 48.132 7.4952 48.4773 7.84746L51.1671 10.5916L50.5323 14.4663C50.4508 14.9636 50.9496 15.3429 51.3763 15.1081L54.701 13.2794L58.0256 15.1081C58.4524 15.3429 58.9511 14.9636 58.8697 14.4663L58.2349 10.5916L60.9247 7.84746C61.2699 7.4952 61.0794 6.88149 60.6022 6.80893L56.8849 6.24367L55.2226 2.71924C55.0092 2.26676 54.3927 2.26676 54.1793 2.71924Z" fill="#F39019"/>
</g>
</g>
<g clip-path="url(#clip15_1_3925)">
<g clip-path="url(#clip16_1_3925)">
<path fill-rule="evenodd" clip-rule="evenodd" d="M38.1793 2.71924L36.517 6.24367L32.7997 6.80893C32.3226 6.88149 32.132 7.4952 32.4773 7.84746L35.1671 10.5916L34.5323 14.4663C34.4508 14.9636 34.9496 15.3429 35.3763 15.1081L38.701 13.2794L42.0256 15.1081C42.4524 15.3429 42.9511 14.9636 42.8697 14.4663L42.2349 10.5916L44.9247 7.84746C45.2699 7.4952 45.0794 6.88149 44.6022 6.80893L40.8849 6.24367L39.2226 2.71924C39.0092 2.26676 38.3927 2.26676 38.1793 2.71924Z" fill="#F39019"/>
</g>
</g>
<g clip-path="url(#clip17_1_3925)">
<g clip-path="url(#clip18_1_3925)">
<path fill-rule="evenodd" clip-rule="evenodd" d="M22.1793 2.71924L20.517 6.24367L16.7997 6.80893C16.3226 6.88149 16.132 7.4952 16.4773 7.84746L19.1671 10.5916L18.5323 14.4663C18.4508 14.9636 18.9496 15.3429 19.3763 15.1081L22.701 13.2794L26.0256 15.1081C26.4524 15.3429 26.9511 14.9636 26.8697 14.4663L26.2349 10.5916L28.9247 7.84746C29.2699 7.4952 29.0794 6.88149 28.6022 6.80893L24.8849 6.24367L23.2226 2.71924C23.0092 2.26676 22.3927 2.26676 22.1793 2.71924Z" fill="#F39019"/>
</g>
</g>
<g clip-path="url(#clip19_1_3925)">
<g clip-path="url(#clip20_1_3925)">
<path fill-rule="evenodd" clip-rule="evenodd" d="M6.1793 2.71924L4.51703 6.24367L0.799726 6.80893C0.322556 6.88149 0.132016 7.4952 0.477291 7.84746L3.16709 10.5916L2.53231 14.4663C2.45082 14.9636 2.94957 15.3429 3.37634 15.1081L6.70098 13.2794L10.0256 15.1081C10.4524 15.3429 10.9511 14.9636 10.8697 14.4663L10.2349 10.5916L12.9247 7.84746C13.2699 7.4952 13.0794 6.88149 12.6022 6.80893L8.88492 6.24367L7.22265 2.71924C7.00924 2.26676 6.39271 2.26676 6.1793 2.71924Z" fill="#F39019"/>
</g>
</g>
</g>
<defs>
<clipPath id="clip0_1_3925">
<rect width="16" height="16" fill="white" transform="translate(62.7 0.280273)"/>
</clipPath>
<clipPath id="clip1_1_3925">
<rect width="12.8" height="12.8" fill="white" transform="translate(64.3 1.87988)"/>
</clipPath>
<clipPath id="clip2_1_3925">
<rect width="16" height="16" fill="white" transform="translate(46.7 0.280273)"/>
</clipPath>
<clipPath id="clip3_1_3925">
<rect width="12.8" height="12.8" fill="white" transform="translate(48.3 1.87988)"/>
</clipPath>
<clipPath id="clip4_1_3925">
<rect width="16" height="16" fill="white" transform="translate(30.7 0.280273)"/>
</clipPath>
<clipPath id="clip5_1_3925">
<rect width="12.8" height="12.8" fill="white" transform="translate(32.3 1.87988)"/>
</clipPath>
<clipPath id="clip6_1_3925">
<rect width="16" height="16" fill="white" transform="translate(14.7 0.280273)"/>
</clipPath>
<clipPath id="clip7_1_3925">
<rect width="12.8" height="12.8" fill="white" transform="translate(16.3 1.87988)"/>
</clipPath>
<clipPath id="clip8_1_3925">
<rect width="16" height="16" fill="white" transform="translate(-1.3 0.280273)"/>
</clipPath>
<clipPath id="clip9_1_3925">
<rect width="12.8" height="12.8" fill="white" transform="translate(0.300003 1.87988)"/>
</clipPath>
<clipPath id="clip10_1_3925">
<rect width="80" height="16" fill="white" transform="translate(-1.3 0.780273)"/>
</clipPath>
<clipPath id="clip11_1_3925">
<rect width="16" height="16" fill="white" transform="translate(62.7 0.780273)"/>
</clipPath>
<clipPath id="clip12_1_3925">
<rect width="12.8" height="12.8" fill="white" transform="translate(64.3 2.37988)"/>
</clipPath>
<clipPath id="clip13_1_3925">
<rect width="16" height="16" fill="white" transform="translate(46.7 0.780273)"/>
</clipPath>
<clipPath id="clip14_1_3925">
<rect width="12.8" height="12.8" fill="white" transform="translate(48.3 2.37988)"/>
</clipPath>
<clipPath id="clip15_1_3925">
<rect width="16" height="16" fill="white" transform="translate(30.7 0.780273)"/>
</clipPath>
<clipPath id="clip16_1_3925">
<rect width="12.8" height="12.8" fill="white" transform="translate(32.3 2.37988)"/>
</clipPath>
<clipPath id="clip17_1_3925">
<rect width="16" height="16" fill="white" transform="translate(14.7 0.780273)"/>
</clipPath>
<clipPath id="clip18_1_3925">
<rect width="12.8" height="12.8" fill="white" transform="translate(16.3 2.37988)"/>
</clipPath>
<clipPath id="clip19_1_3925">
<rect width="16" height="16" fill="white" transform="translate(-1.3 0.780273)"/>
</clipPath>
<clipPath id="clip20_1_3925">
<rect width="12.8" height="12.8" fill="white" transform="translate(0.300003 2.37988)"/>
</clipPath>
</defs>
</svg>
