<svg width="79" height="17" viewBox="0 0 79 17" fill="none" xmlns="http://www.w3.org/2000/svg">
<g clip-path="url(#clip0_1_4097)">
<g clip-path="url(#clip1_1_4097)">
<path fill-rule="evenodd" clip-rule="evenodd" d="M70.1793 2.21827L68.517 5.74269L64.7997 6.30796C64.3226 6.38052 64.132 6.99423 64.4773 7.34648L67.1671 10.0906L66.5323 13.9653C66.4508 14.4626 66.9496 14.8419 67.3763 14.6072L70.701 12.7785L74.0256 14.6072C74.4524 14.8419 74.9511 14.4626 74.8697 13.9653L74.2349 10.0906L76.9247 7.34648C77.2699 6.99423 77.0794 6.38052 76.6022 6.30796L72.8849 5.74269L71.2226 2.21827C71.0092 1.76579 70.3927 1.76579 70.1793 2.21827Z" fill="#BFBFBF"/>
</g>
</g>
<g clip-path="url(#clip2_1_4097)">
<g clip-path="url(#clip3_1_4097)">
<path fill-rule="evenodd" clip-rule="evenodd" d="M54.1793 2.21827L52.517 5.74269L48.7997 6.30796C48.3226 6.38052 48.132 6.99423 48.4773 7.34648L51.1671 10.0906L50.5323 13.9653C50.4508 14.4626 50.9496 14.8419 51.3763 14.6072L54.701 12.7785L58.0256 14.6072C58.4524 14.8419 58.9511 14.4626 58.8697 13.9653L58.2349 10.0906L60.9247 7.34648C61.2699 6.99423 61.0794 6.38052 60.6022 6.30796L56.8849 5.74269L55.2226 2.21827C55.0092 1.76579 54.3927 1.76579 54.1793 2.21827Z" fill="#BFBFBF"/>
</g>
</g>
<g clip-path="url(#clip4_1_4097)">
<g clip-path="url(#clip5_1_4097)">
<path fill-rule="evenodd" clip-rule="evenodd" d="M38.1793 2.21827L36.517 5.74269L32.7997 6.30796C32.3226 6.38052 32.132 6.99423 32.4773 7.34648L35.1671 10.0906L34.5323 13.9653C34.4508 14.4626 34.9496 14.8419 35.3763 14.6072L38.701 12.7785L42.0256 14.6072C42.4524 14.8419 42.9511 14.4626 42.8697 13.9653L42.2349 10.0906L44.9247 7.34648C45.2699 6.99423 45.0794 6.38052 44.6022 6.30796L40.8849 5.74269L39.2226 2.21827C39.0092 1.76579 38.3927 1.76579 38.1793 2.21827Z" fill="#BFBFBF"/>
</g>
</g>
<g clip-path="url(#clip6_1_4097)">
<g clip-path="url(#clip7_1_4097)">
<path fill-rule="evenodd" clip-rule="evenodd" d="M22.1793 2.21827L20.517 5.74269L16.7997 6.30796C16.3226 6.38052 16.132 6.99423 16.4773 7.34648L19.1671 10.0906L18.5323 13.9653C18.4508 14.4626 18.9496 14.8419 19.3763 14.6072L22.701 12.7785L26.0256 14.6072C26.4524 14.8419 26.9511 14.4626 26.8697 13.9653L26.2349 10.0906L28.9247 7.34648C29.2699 6.99423 29.0794 6.38052 28.6022 6.30796L24.8849 5.74269L23.2226 2.21827C23.0092 1.76579 22.3927 1.76579 22.1793 2.21827Z" fill="#BFBFBF"/>
</g>
</g>
<g clip-path="url(#clip8_1_4097)">
<g clip-path="url(#clip9_1_4097)">
<path fill-rule="evenodd" clip-rule="evenodd" d="M6.1793 2.21827L4.51703 5.74269L0.799726 6.30796C0.322556 6.38052 0.132016 6.99423 0.477291 7.34648L3.16709 10.0906L2.53231 13.9653C2.45082 14.4626 2.94957 14.8419 3.37634 14.6072L6.70098 12.7785L10.0256 14.6072C10.4524 14.8419 10.9511 14.4626 10.8697 13.9653L10.2349 10.0906L12.9247 7.34648C13.2699 6.99423 13.0794 6.38052 12.6022 6.30796L8.88492 5.74269L7.22265 2.21827C7.00924 1.76579 6.39271 1.76579 6.1793 2.21827Z" fill="#BFBFBF"/>
</g>
</g>
<g clip-path="url(#clip10_1_4097)">
<g clip-path="url(#clip11_1_4097)">
<g clip-path="url(#clip12_1_4097)">
<path fill-rule="evenodd" clip-rule="evenodd" d="M70.1793 2.71827L68.517 6.24269L64.7997 6.80796C64.3226 6.88052 64.132 7.49423 64.4773 7.84648L67.1671 10.5906L66.5323 14.4653C66.4508 14.9626 66.9496 15.3419 67.3763 15.1072L70.701 13.2785L74.0256 15.1072C74.4524 15.3419 74.9511 14.9626 74.8697 14.4653L74.2349 10.5906L76.9247 7.84648C77.2699 7.49423 77.0794 6.88052 76.6022 6.80796L72.8849 6.24269L71.2226 2.71827C71.0092 2.26579 70.3927 2.26579 70.1793 2.71827Z" fill="#F39019"/>
</g>
</g>
<g clip-path="url(#clip13_1_4097)">
<g clip-path="url(#clip14_1_4097)">
<path fill-rule="evenodd" clip-rule="evenodd" d="M54.1793 2.71827L52.517 6.24269L48.7997 6.80796C48.3226 6.88052 48.132 7.49423 48.4773 7.84648L51.1671 10.5906L50.5323 14.4653C50.4508 14.9626 50.9496 15.3419 51.3763 15.1072L54.701 13.2785L58.0256 15.1072C58.4524 15.3419 58.9511 14.9626 58.8697 14.4653L58.2349 10.5906L60.9247 7.84648C61.2699 7.49423 61.0794 6.88052 60.6022 6.80796L56.8849 6.24269L55.2226 2.71827C55.0092 2.26579 54.3927 2.26579 54.1793 2.71827Z" fill="#F39019"/>
</g>
</g>
<g clip-path="url(#clip15_1_4097)">
<g clip-path="url(#clip16_1_4097)">
<path fill-rule="evenodd" clip-rule="evenodd" d="M38.1793 2.71827L36.517 6.24269L32.7997 6.80796C32.3226 6.88052 32.132 7.49423 32.4773 7.84648L35.1671 10.5906L34.5323 14.4653C34.4508 14.9626 34.9496 15.3419 35.3763 15.1072L38.701 13.2785L42.0256 15.1072C42.4524 15.3419 42.9511 14.9626 42.8697 14.4653L42.2349 10.5906L44.9247 7.84648C45.2699 7.49423 45.0794 6.88052 44.6022 6.80796L40.8849 6.24269L39.2226 2.71827C39.0092 2.26579 38.3927 2.26579 38.1793 2.71827Z" fill="#F39019"/>
</g>
</g>
<g clip-path="url(#clip17_1_4097)">
<g clip-path="url(#clip18_1_4097)">
<path fill-rule="evenodd" clip-rule="evenodd" d="M22.1793 2.71827L20.517 6.24269L16.7997 6.80796C16.3226 6.88052 16.132 7.49423 16.4773 7.84648L19.1671 10.5906L18.5323 14.4653C18.4508 14.9626 18.9496 15.3419 19.3763 15.1072L22.701 13.2785L26.0256 15.1072C26.4524 15.3419 26.9511 14.9626 26.8697 14.4653L26.2349 10.5906L28.9247 7.84648C29.2699 7.49423 29.0794 6.88052 28.6022 6.80796L24.8849 6.24269L23.2226 2.71827C23.0092 2.26579 22.3927 2.26579 22.1793 2.71827Z" fill="#F39019"/>
</g>
</g>
<g clip-path="url(#clip19_1_4097)">
<g clip-path="url(#clip20_1_4097)">
<path fill-rule="evenodd" clip-rule="evenodd" d="M6.1793 2.71827L4.51703 6.24269L0.799726 6.80796C0.322556 6.88052 0.132016 7.49423 0.477291 7.84648L3.16709 10.5906L2.53231 14.4653C2.45082 14.9626 2.94957 15.3419 3.37634 15.1072L6.70098 13.2785L10.0256 15.1072C10.4524 15.3419 10.9511 14.9626 10.8697 14.4653L10.2349 10.5906L12.9247 7.84648C13.2699 7.49423 13.0794 6.88052 12.6022 6.80796L8.88492 6.24269L7.22265 2.71827C7.00924 2.26579 6.39271 2.26579 6.1793 2.71827Z" fill="#F39019"/>
</g>
</g>
</g>
<defs>
<clipPath id="clip0_1_4097">
<rect width="16" height="16" fill="white" transform="translate(62.7 0.279297)"/>
</clipPath>
<clipPath id="clip1_1_4097">
<rect width="12.8" height="12.8" fill="white" transform="translate(64.3 1.87891)"/>
</clipPath>
<clipPath id="clip2_1_4097">
<rect width="16" height="16" fill="white" transform="translate(46.7 0.279297)"/>
</clipPath>
<clipPath id="clip3_1_4097">
<rect width="12.8" height="12.8" fill="white" transform="translate(48.3 1.87891)"/>
</clipPath>
<clipPath id="clip4_1_4097">
<rect width="16" height="16" fill="white" transform="translate(30.7 0.279297)"/>
</clipPath>
<clipPath id="clip5_1_4097">
<rect width="12.8" height="12.8" fill="white" transform="translate(32.3 1.87891)"/>
</clipPath>
<clipPath id="clip6_1_4097">
<rect width="16" height="16" fill="white" transform="translate(14.7 0.279297)"/>
</clipPath>
<clipPath id="clip7_1_4097">
<rect width="12.8" height="12.8" fill="white" transform="translate(16.3 1.87891)"/>
</clipPath>
<clipPath id="clip8_1_4097">
<rect width="16" height="16" fill="white" transform="translate(-1.3 0.279297)"/>
</clipPath>
<clipPath id="clip9_1_4097">
<rect width="12.8" height="12.8" fill="white" transform="translate(0.300003 1.87891)"/>
</clipPath>
<clipPath id="clip10_1_4097">
<rect width="80" height="16" fill="white" transform="translate(-1.3 0.779297)"/>
</clipPath>
<clipPath id="clip11_1_4097">
<rect width="16" height="16" fill="white" transform="translate(62.7 0.779297)"/>
</clipPath>
<clipPath id="clip12_1_4097">
<rect width="12.8" height="12.8" fill="white" transform="translate(64.3 2.37891)"/>
</clipPath>
<clipPath id="clip13_1_4097">
<rect width="16" height="16" fill="white" transform="translate(46.7 0.779297)"/>
</clipPath>
<clipPath id="clip14_1_4097">
<rect width="12.8" height="12.8" fill="white" transform="translate(48.3 2.37891)"/>
</clipPath>
<clipPath id="clip15_1_4097">
<rect width="16" height="16" fill="white" transform="translate(30.7 0.779297)"/>
</clipPath>
<clipPath id="clip16_1_4097">
<rect width="12.8" height="12.8" fill="white" transform="translate(32.3 2.37891)"/>
</clipPath>
<clipPath id="clip17_1_4097">
<rect width="16" height="16" fill="white" transform="translate(14.7 0.779297)"/>
</clipPath>
<clipPath id="clip18_1_4097">
<rect width="12.8" height="12.8" fill="white" transform="translate(16.3 2.37891)"/>
</clipPath>
<clipPath id="clip19_1_4097">
<rect width="16" height="16" fill="white" transform="translate(-1.3 0.779297)"/>
</clipPath>
<clipPath id="clip20_1_4097">
<rect width="12.8" height="12.8" fill="white" transform="translate(0.300003 2.37891)"/>
</clipPath>
</defs>
</svg>
