<svg width="81" height="18" viewBox="0 0 81 18" fill="none" xmlns="http://www.w3.org/2000/svg">
<g clip-path="url(#clip0_1_1122)">
<g clip-path="url(#clip1_1_1122)">
<path fill-rule="evenodd" clip-rule="evenodd" d="M71.7793 2.8899L70.117 6.41432L66.3997 6.97959C65.9225 7.05215 65.732 7.66586 66.0773 8.01811L68.7671 10.7623L68.1323 14.6369C68.0508 15.1343 68.5496 15.5135 68.9763 15.2788L72.301 13.4501L75.6256 15.2788C76.0524 15.5135 76.5511 15.1343 76.4696 14.6369L75.8348 10.7623L78.5247 8.01811C78.8699 7.66586 78.6794 7.05215 78.2022 6.97959L74.4849 6.41432L72.8226 2.8899C72.6092 2.43742 71.9927 2.43742 71.7793 2.8899Z" fill="#BFBFBF"/>
</g>
</g>
<g clip-path="url(#clip2_1_1122)">
<g clip-path="url(#clip3_1_1122)">
<path fill-rule="evenodd" clip-rule="evenodd" d="M55.7793 2.8899L54.117 6.41432L50.3997 6.97959C49.9225 7.05215 49.732 7.66586 50.0773 8.01811L52.7671 10.7623L52.1323 14.6369C52.0508 15.1343 52.5496 15.5135 52.9763 15.2788L56.301 13.4501L59.6256 15.2788C60.0524 15.5135 60.5511 15.1343 60.4696 14.6369L59.8348 10.7623L62.5247 8.01811C62.8699 7.66586 62.6794 7.05215 62.2022 6.97959L58.4849 6.41432L56.8226 2.8899C56.6092 2.43742 55.9927 2.43742 55.7793 2.8899Z" fill="#BFBFBF"/>
</g>
</g>
<g clip-path="url(#clip4_1_1122)">
<g clip-path="url(#clip5_1_1122)">
<path fill-rule="evenodd" clip-rule="evenodd" d="M39.7793 2.8899L38.117 6.41432L34.3997 6.97959C33.9225 7.05215 33.732 7.66586 34.0773 8.01811L36.7671 10.7623L36.1323 14.6369C36.0508 15.1343 36.5496 15.5135 36.9763 15.2788L40.301 13.4501L43.6256 15.2788C44.0524 15.5135 44.5511 15.1343 44.4696 14.6369L43.8348 10.7623L46.5247 8.01811C46.8699 7.66586 46.6794 7.05215 46.2022 6.97959L42.4849 6.41432L40.8226 2.8899C40.6092 2.43742 39.9927 2.43742 39.7793 2.8899Z" fill="#BFBFBF"/>
</g>
</g>
<g clip-path="url(#clip6_1_1122)">
<g clip-path="url(#clip7_1_1122)">
<path fill-rule="evenodd" clip-rule="evenodd" d="M23.7793 2.8899L22.117 6.41432L18.3997 6.97959C17.9225 7.05215 17.732 7.66586 18.0773 8.01811L20.7671 10.7623L20.1323 14.6369C20.0508 15.1343 20.5496 15.5135 20.9763 15.2788L24.301 13.4501L27.6256 15.2788C28.0524 15.5135 28.5511 15.1343 28.4696 14.6369L27.8348 10.7623L30.5247 8.01811C30.8699 7.66586 30.6794 7.05215 30.2022 6.97959L26.4849 6.41432L24.8226 2.8899C24.6092 2.43742 23.9927 2.43742 23.7793 2.8899Z" fill="#BFBFBF"/>
</g>
</g>
<g clip-path="url(#clip8_1_1122)">
<g clip-path="url(#clip9_1_1122)">
<path fill-rule="evenodd" clip-rule="evenodd" d="M7.77929 2.8899L6.11702 6.41432L2.39972 6.97959C1.92255 7.05215 1.73201 7.66586 2.07728 8.01811L4.76709 10.7623L4.1323 14.6369C4.05081 15.1343 4.54957 15.5135 4.97633 15.2788L8.30097 13.4501L11.6256 15.2788C12.0524 15.5135 12.5511 15.1343 12.4696 14.6369L11.8348 10.7623L14.5247 8.01811C14.8699 7.66586 14.6794 7.05215 14.2022 6.97959L10.4849 6.41432L8.82264 2.8899C8.60923 2.43742 7.9927 2.43742 7.77929 2.8899Z" fill="#BFBFBF"/>
</g>
</g>
<g clip-path="url(#clip10_1_1122)">
<g clip-path="url(#clip11_1_1122)">
<g clip-path="url(#clip12_1_1122)">
<path fill-rule="evenodd" clip-rule="evenodd" d="M71.7793 3.3899L70.117 6.91432L66.3997 7.47959C65.9225 7.55215 65.732 8.16586 66.0773 8.51811L68.7671 11.2623L68.1323 15.1369C68.0508 15.6343 68.5496 16.0135 68.9763 15.7788L72.301 13.9501L75.6256 15.7788C76.0524 16.0135 76.5511 15.6343 76.4696 15.1369L75.8348 11.2623L78.5247 8.51811C78.8699 8.16586 78.6794 7.55215 78.2022 7.47959L74.4849 6.91432L72.8226 3.3899C72.6092 2.93742 71.9927 2.93742 71.7793 3.3899Z" fill="#F39019"/>
</g>
</g>
<g clip-path="url(#clip13_1_1122)">
<g clip-path="url(#clip14_1_1122)">
<path fill-rule="evenodd" clip-rule="evenodd" d="M55.7793 3.3899L54.117 6.91432L50.3997 7.47959C49.9225 7.55215 49.732 8.16586 50.0773 8.51811L52.7671 11.2623L52.1323 15.1369C52.0508 15.6343 52.5496 16.0135 52.9763 15.7788L56.301 13.9501L59.6256 15.7788C60.0524 16.0135 60.5511 15.6343 60.4696 15.1369L59.8348 11.2623L62.5247 8.51811C62.8699 8.16586 62.6794 7.55215 62.2022 7.47959L58.4849 6.91432L56.8226 3.3899C56.6092 2.93742 55.9927 2.93742 55.7793 3.3899Z" fill="#F39019"/>
</g>
</g>
<g clip-path="url(#clip15_1_1122)">
<g clip-path="url(#clip16_1_1122)">
<path fill-rule="evenodd" clip-rule="evenodd" d="M39.7793 3.3899L38.117 6.91432L34.3997 7.47959C33.9225 7.55215 33.732 8.16586 34.0773 8.51811L36.7671 11.2623L36.1323 15.1369C36.0508 15.6343 36.5496 16.0135 36.9763 15.7788L40.301 13.9501L43.6256 15.7788C44.0524 16.0135 44.5511 15.6343 44.4696 15.1369L43.8348 11.2623L46.5247 8.51811C46.8699 8.16586 46.6794 7.55215 46.2022 7.47959L42.4849 6.91432L40.8226 3.3899C40.6092 2.93742 39.9927 2.93742 39.7793 3.3899Z" fill="#F39019"/>
</g>
</g>
<g clip-path="url(#clip17_1_1122)">
<g clip-path="url(#clip18_1_1122)">
<path fill-rule="evenodd" clip-rule="evenodd" d="M23.7793 3.3899L22.117 6.91432L18.3997 7.47959C17.9225 7.55215 17.732 8.16586 18.0773 8.51811L20.7671 11.2623L20.1323 15.1369C20.0508 15.6343 20.5496 16.0135 20.9763 15.7788L24.301 13.9501L27.6256 15.7788C28.0524 16.0135 28.5511 15.6343 28.4696 15.1369L27.8348 11.2623L30.5247 8.51811C30.8699 8.16586 30.6794 7.55215 30.2022 7.47959L26.4849 6.91432L24.8226 3.3899C24.6092 2.93742 23.9927 2.93742 23.7793 3.3899Z" fill="#F39019"/>
</g>
</g>
<g clip-path="url(#clip19_1_1122)">
<g clip-path="url(#clip20_1_1122)">
<path fill-rule="evenodd" clip-rule="evenodd" d="M7.77929 3.3899L6.11702 6.91432L2.39972 7.47959C1.92255 7.55215 1.73201 8.16586 2.07728 8.51811L4.76709 11.2623L4.1323 15.1369C4.05081 15.6343 4.54957 16.0135 4.97633 15.7788L8.30097 13.9501L11.6256 15.7788C12.0524 16.0135 12.5511 15.6343 12.4696 15.1369L11.8348 11.2623L14.5247 8.51811C14.8699 8.16586 14.6794 7.55215 14.2022 7.47959L10.4849 6.91432L8.82264 3.3899C8.60923 2.93742 7.9927 2.93742 7.77929 3.3899Z" fill="#F39019"/>
</g>
</g>
</g>
<defs>
<clipPath id="clip0_1_1122">
<rect width="16" height="16" fill="white" transform="translate(64.3 0.949951)"/>
</clipPath>
<clipPath id="clip1_1_1122">
<rect width="12.8" height="12.8" fill="white" transform="translate(65.9 2.55005)"/>
</clipPath>
<clipPath id="clip2_1_1122">
<rect width="16" height="16" fill="white" transform="translate(48.3 0.949951)"/>
</clipPath>
<clipPath id="clip3_1_1122">
<rect width="12.8" height="12.8" fill="white" transform="translate(49.9 2.55005)"/>
</clipPath>
<clipPath id="clip4_1_1122">
<rect width="16" height="16" fill="white" transform="translate(32.3 0.949951)"/>
</clipPath>
<clipPath id="clip5_1_1122">
<rect width="12.8" height="12.8" fill="white" transform="translate(33.9 2.55005)"/>
</clipPath>
<clipPath id="clip6_1_1122">
<rect width="16" height="16" fill="white" transform="translate(16.3 0.949951)"/>
</clipPath>
<clipPath id="clip7_1_1122">
<rect width="12.8" height="12.8" fill="white" transform="translate(17.9 2.55005)"/>
</clipPath>
<clipPath id="clip8_1_1122">
<rect width="16" height="16" fill="white" transform="translate(0.299988 0.949951)"/>
</clipPath>
<clipPath id="clip9_1_1122">
<rect width="12.8" height="12.8" fill="white" transform="translate(1.89999 2.55005)"/>
</clipPath>
<clipPath id="clip10_1_1122">
<rect width="73.75" height="16" fill="white" transform="translate(0.299988 1.44995)"/>
</clipPath>
<clipPath id="clip11_1_1122">
<rect width="16" height="16" fill="white" transform="translate(64.3 1.44995)"/>
</clipPath>
<clipPath id="clip12_1_1122">
<rect width="12.8" height="12.8" fill="white" transform="translate(65.9 3.05005)"/>
</clipPath>
<clipPath id="clip13_1_1122">
<rect width="16" height="16" fill="white" transform="translate(48.3 1.44995)"/>
</clipPath>
<clipPath id="clip14_1_1122">
<rect width="12.8" height="12.8" fill="white" transform="translate(49.9 3.05005)"/>
</clipPath>
<clipPath id="clip15_1_1122">
<rect width="16" height="16" fill="white" transform="translate(32.3 1.44995)"/>
</clipPath>
<clipPath id="clip16_1_1122">
<rect width="12.8" height="12.8" fill="white" transform="translate(33.9 3.05005)"/>
</clipPath>
<clipPath id="clip17_1_1122">
<rect width="16" height="16" fill="white" transform="translate(16.3 1.44995)"/>
</clipPath>
<clipPath id="clip18_1_1122">
<rect width="12.8" height="12.8" fill="white" transform="translate(17.9 3.05005)"/>
</clipPath>
<clipPath id="clip19_1_1122">
<rect width="16" height="16" fill="white" transform="translate(0.299988 1.44995)"/>
</clipPath>
<clipPath id="clip20_1_1122">
<rect width="12.8" height="12.8" fill="white" transform="translate(1.89999 3.05005)"/>
</clipPath>
</defs>
</svg>
