<svg width="81" height="17" viewBox="0 0 81 17" fill="none" xmlns="http://www.w3.org/2000/svg">
<g clip-path="url(#clip0_1_2773)">
<g clip-path="url(#clip1_1_2773)">
<path fill-rule="evenodd" clip-rule="evenodd" d="M72.1793 2.37989L70.517 5.90431L66.7997 6.46958C66.3225 6.54214 66.132 7.15585 66.4773 7.5081L69.1671 10.2522L68.5323 14.1269C68.4508 14.6243 68.9496 15.0035 69.3763 14.7688L72.701 12.9401L76.0256 14.7688C76.4524 15.0035 76.9511 14.6243 76.8696 14.1269L76.2348 10.2522L78.9247 7.5081C79.2699 7.15585 79.0794 6.54214 78.6022 6.46958L74.8849 5.90431L73.2226 2.37989C73.0092 1.92741 72.3927 1.92741 72.1793 2.37989Z" fill="#BFBFBF"/>
</g>
</g>
<g clip-path="url(#clip2_1_2773)">
<g clip-path="url(#clip3_1_2773)">
<path fill-rule="evenodd" clip-rule="evenodd" d="M56.1793 2.37989L54.517 5.90431L50.7997 6.46958C50.3225 6.54214 50.132 7.15585 50.4773 7.5081L53.1671 10.2522L52.5323 14.1269C52.4508 14.6243 52.9496 15.0035 53.3763 14.7688L56.701 12.9401L60.0256 14.7688C60.4524 15.0035 60.9511 14.6243 60.8696 14.1269L60.2348 10.2522L62.9247 7.5081C63.2699 7.15585 63.0794 6.54214 62.6022 6.46958L58.8849 5.90431L57.2226 2.37989C57.0092 1.92741 56.3927 1.92741 56.1793 2.37989Z" fill="#BFBFBF"/>
</g>
</g>
<g clip-path="url(#clip4_1_2773)">
<g clip-path="url(#clip5_1_2773)">
<path fill-rule="evenodd" clip-rule="evenodd" d="M40.1793 2.37989L38.517 5.90431L34.7997 6.46958C34.3225 6.54214 34.132 7.15585 34.4773 7.5081L37.1671 10.2522L36.5323 14.1269C36.4508 14.6243 36.9496 15.0035 37.3763 14.7688L40.701 12.9401L44.0256 14.7688C44.4524 15.0035 44.9511 14.6243 44.8696 14.1269L44.2348 10.2522L46.9247 7.5081C47.2699 7.15585 47.0794 6.54214 46.6022 6.46958L42.8849 5.90431L41.2226 2.37989C41.0092 1.92741 40.3927 1.92741 40.1793 2.37989Z" fill="#BFBFBF"/>
</g>
</g>
<g clip-path="url(#clip6_1_2773)">
<g clip-path="url(#clip7_1_2773)">
<path fill-rule="evenodd" clip-rule="evenodd" d="M24.1793 2.37989L22.517 5.90431L18.7997 6.46958C18.3225 6.54214 18.132 7.15585 18.4773 7.5081L21.1671 10.2522L20.5323 14.1269C20.4508 14.6243 20.9496 15.0035 21.3763 14.7688L24.701 12.9401L28.0256 14.7688C28.4524 15.0035 28.9511 14.6243 28.8696 14.1269L28.2348 10.2522L30.9247 7.5081C31.2699 7.15585 31.0794 6.54214 30.6022 6.46958L26.8849 5.90431L25.2226 2.37989C25.0092 1.92741 24.3927 1.92741 24.1793 2.37989Z" fill="#BFBFBF"/>
</g>
</g>
<g clip-path="url(#clip8_1_2773)">
<g clip-path="url(#clip9_1_2773)">
<path fill-rule="evenodd" clip-rule="evenodd" d="M8.17929 2.37989L6.51702 5.90431L2.79972 6.46958C2.32255 6.54214 2.13201 7.15585 2.47728 7.5081L5.16709 10.2522L4.5323 14.1269C4.45081 14.6243 4.94957 15.0035 5.37633 14.7688L8.70097 12.9401L12.0256 14.7688C12.4524 15.0035 12.9511 14.6243 12.8696 14.1269L12.2348 10.2522L14.9247 7.5081C15.2699 7.15585 15.0794 6.54214 14.6022 6.46958L10.8849 5.90431L9.22264 2.37989C9.00923 1.92741 8.3927 1.92741 8.17929 2.37989Z" fill="#BFBFBF"/>
</g>
</g>
<g clip-path="url(#clip10_1_2773)">
<g clip-path="url(#clip11_1_2773)">
<g clip-path="url(#clip12_1_2773)">
<path fill-rule="evenodd" clip-rule="evenodd" d="M72.1793 2.87989L70.517 6.40431L66.7997 6.96958C66.3225 7.04214 66.132 7.65585 66.4773 8.0081L69.1671 10.7522L68.5323 14.6269C68.4508 15.1243 68.9496 15.5035 69.3763 15.2688L72.701 13.4401L76.0256 15.2688C76.4524 15.5035 76.9511 15.1243 76.8696 14.6269L76.2348 10.7522L78.9247 8.0081C79.2699 7.65585 79.0794 7.04214 78.6022 6.96958L74.8849 6.40431L73.2226 2.87989C73.0092 2.42741 72.3927 2.42741 72.1793 2.87989Z" fill="#F39019"/>
</g>
</g>
<g clip-path="url(#clip13_1_2773)">
<g clip-path="url(#clip14_1_2773)">
<path fill-rule="evenodd" clip-rule="evenodd" d="M56.1793 2.87989L54.517 6.40431L50.7997 6.96958C50.3225 7.04214 50.132 7.65585 50.4773 8.0081L53.1671 10.7522L52.5323 14.6269C52.4508 15.1243 52.9496 15.5035 53.3763 15.2688L56.701 13.4401L60.0256 15.2688C60.4524 15.5035 60.9511 15.1243 60.8696 14.6269L60.2348 10.7522L62.9247 8.0081C63.2699 7.65585 63.0794 7.04214 62.6022 6.96958L58.8849 6.40431L57.2226 2.87989C57.0092 2.42741 56.3927 2.42741 56.1793 2.87989Z" fill="#F39019"/>
</g>
</g>
<g clip-path="url(#clip15_1_2773)">
<g clip-path="url(#clip16_1_2773)">
<path fill-rule="evenodd" clip-rule="evenodd" d="M40.1793 2.87989L38.517 6.40431L34.7997 6.96958C34.3225 7.04214 34.132 7.65585 34.4773 8.0081L37.1671 10.7522L36.5323 14.6269C36.4508 15.1243 36.9496 15.5035 37.3763 15.2688L40.701 13.4401L44.0256 15.2688C44.4524 15.5035 44.9511 15.1243 44.8696 14.6269L44.2348 10.7522L46.9247 8.0081C47.2699 7.65585 47.0794 7.04214 46.6022 6.96958L42.8849 6.40431L41.2226 2.87989C41.0092 2.42741 40.3927 2.42741 40.1793 2.87989Z" fill="#F39019"/>
</g>
</g>
<g clip-path="url(#clip17_1_2773)">
<g clip-path="url(#clip18_1_2773)">
<path fill-rule="evenodd" clip-rule="evenodd" d="M24.1793 2.87989L22.517 6.40431L18.7997 6.96958C18.3225 7.04214 18.132 7.65585 18.4773 8.0081L21.1671 10.7522L20.5323 14.6269C20.4508 15.1243 20.9496 15.5035 21.3763 15.2688L24.701 13.4401L28.0256 15.2688C28.4524 15.5035 28.9511 15.1243 28.8696 14.6269L28.2348 10.7522L30.9247 8.0081C31.2699 7.65585 31.0794 7.04214 30.6022 6.96958L26.8849 6.40431L25.2226 2.87989C25.0092 2.42741 24.3927 2.42741 24.1793 2.87989Z" fill="#F39019"/>
</g>
</g>
<g clip-path="url(#clip19_1_2773)">
<g clip-path="url(#clip20_1_2773)">
<path fill-rule="evenodd" clip-rule="evenodd" d="M8.17929 2.87989L6.51702 6.40431L2.79972 6.96958C2.32255 7.04214 2.13201 7.65585 2.47728 8.0081L5.16709 10.7522L4.5323 14.6269C4.45081 15.1243 4.94957 15.5035 5.37633 15.2688L8.70097 13.4401L12.0256 15.2688C12.4524 15.5035 12.9511 15.1243 12.8696 14.6269L12.2348 10.7522L14.9247 8.0081C15.2699 7.65585 15.0794 7.04214 14.6022 6.96958L10.8849 6.40431L9.22264 2.87989C9.00923 2.42741 8.3927 2.42741 8.17929 2.87989Z" fill="#F39019"/>
</g>
</g>
</g>
<defs>
<clipPath id="clip0_1_2773">
<rect width="16" height="16" fill="white" transform="translate(64.7 0.439941)"/>
</clipPath>
<clipPath id="clip1_1_2773">
<rect width="12.8" height="12.8" fill="white" transform="translate(66.3 2.04004)"/>
</clipPath>
<clipPath id="clip2_1_2773">
<rect width="16" height="16" fill="white" transform="translate(48.7 0.439941)"/>
</clipPath>
<clipPath id="clip3_1_2773">
<rect width="12.8" height="12.8" fill="white" transform="translate(50.3 2.04004)"/>
</clipPath>
<clipPath id="clip4_1_2773">
<rect width="16" height="16" fill="white" transform="translate(32.7 0.439941)"/>
</clipPath>
<clipPath id="clip5_1_2773">
<rect width="12.8" height="12.8" fill="white" transform="translate(34.3 2.04004)"/>
</clipPath>
<clipPath id="clip6_1_2773">
<rect width="16" height="16" fill="white" transform="translate(16.7 0.439941)"/>
</clipPath>
<clipPath id="clip7_1_2773">
<rect width="12.8" height="12.8" fill="white" transform="translate(18.3 2.04004)"/>
</clipPath>
<clipPath id="clip8_1_2773">
<rect width="16" height="16" fill="white" transform="translate(0.699997 0.439941)"/>
</clipPath>
<clipPath id="clip9_1_2773">
<rect width="12.8" height="12.8" fill="white" transform="translate(2.3 2.04004)"/>
</clipPath>
<clipPath id="clip10_1_2773">
<rect width="73.75" height="16" fill="white" transform="translate(0.699997 0.939941)"/>
</clipPath>
<clipPath id="clip11_1_2773">
<rect width="16" height="16" fill="white" transform="translate(64.7 0.939941)"/>
</clipPath>
<clipPath id="clip12_1_2773">
<rect width="12.8" height="12.8" fill="white" transform="translate(66.3 2.54004)"/>
</clipPath>
<clipPath id="clip13_1_2773">
<rect width="16" height="16" fill="white" transform="translate(48.7 0.939941)"/>
</clipPath>
<clipPath id="clip14_1_2773">
<rect width="12.8" height="12.8" fill="white" transform="translate(50.3 2.54004)"/>
</clipPath>
<clipPath id="clip15_1_2773">
<rect width="16" height="16" fill="white" transform="translate(32.7 0.939941)"/>
</clipPath>
<clipPath id="clip16_1_2773">
<rect width="12.8" height="12.8" fill="white" transform="translate(34.3 2.54004)"/>
</clipPath>
<clipPath id="clip17_1_2773">
<rect width="16" height="16" fill="white" transform="translate(16.7 0.939941)"/>
</clipPath>
<clipPath id="clip18_1_2773">
<rect width="12.8" height="12.8" fill="white" transform="translate(18.3 2.54004)"/>
</clipPath>
<clipPath id="clip19_1_2773">
<rect width="16" height="16" fill="white" transform="translate(0.699997 0.939941)"/>
</clipPath>
<clipPath id="clip20_1_2773">
<rect width="12.8" height="12.8" fill="white" transform="translate(2.3 2.54004)"/>
</clipPath>
</defs>
</svg>
