<svg width="121" height="41" viewBox="0 0 121 41" fill="none" xmlns="http://www.w3.org/2000/svg">
<g clip-path="url(#clip0_1_2686)">
<g clip-path="url(#clip1_1_2686)">
<g clip-path="url(#clip2_1_2686)">
<path d="M110.743 0.350098H9.85708C9.49605 0.350098 9.13503 0.350098 8.76398 0.350098C8.4531 0.350098 8.15225 0.360098 7.84137 0.360098C7.16946 0.380098 6.49756 0.420098 5.83568 0.540098C5.16378 0.660098 4.54202 0.860098 3.93029 1.1701C3.32858 1.4701 2.77702 1.8701 2.30568 2.3501C1.82432 2.8201 1.42318 3.3701 1.12233 3.9701C0.811452 4.5801 0.610884 5.2001 0.490543 5.8701C0.370202 6.5301 0.330088 7.2001 0.310031 7.8701C0.310031 8.1801 0.300003 8.4901 0.300003 8.7901C0.300003 9.1501 0.300003 9.5201 0.300003 9.8801V30.8101C0.300003 31.1801 0.300003 31.5401 0.300003 31.9001C0.300003 32.2101 0.310031 32.5101 0.32006 32.8201C0.340117 33.4901 0.38023 34.1601 0.500571 34.8201C0.620912 35.4901 0.811452 36.1201 1.13236 36.7201C1.43321 37.3201 1.83435 37.8601 2.31571 38.3301C2.78705 38.8101 3.33861 39.2101 3.94031 39.5101C4.55205 39.8201 5.17381 40.0201 5.84571 40.1401C6.50759 40.2601 7.18952 40.3001 7.8514 40.3201C8.15225 40.3401 8.4531 40.3501 8.76398 40.3501C9.13503 40.3501 9.49605 40.3501 9.85708 40.3501H110.743C111.104 40.3501 111.465 40.3501 111.826 40.3501C112.127 40.3501 112.448 40.3501 112.749 40.3401C113.42 40.3201 114.092 40.2801 114.754 40.1601C115.426 40.0401 116.048 39.8401 116.67 39.5301C117.271 39.2301 117.813 38.8301 118.294 38.3501C118.776 37.8801 119.167 37.3301 119.478 36.7401C119.789 36.1301 119.989 35.5101 120.099 34.8401C120.22 34.1801 120.26 33.5101 120.29 32.8401C120.29 32.5301 120.29 32.2301 120.29 31.9201C120.3 31.5601 120.3 31.2001 120.3 30.8301V9.8901C120.3 9.5201 120.3 9.1601 120.29 8.8001C120.29 8.4901 120.29 8.1901 120.29 7.8801C120.27 7.2101 120.23 6.5401 120.099 5.8801C119.989 5.2101 119.789 4.5901 119.478 3.9801C119.167 3.3801 118.766 2.8301 118.294 2.3601C117.823 1.8901 117.271 1.4901 116.67 1.1801C116.048 0.870098 115.426 0.670098 114.754 0.550098C114.092 0.430098 113.42 0.390098 112.749 0.370098C112.448 0.370098 112.127 0.360098 111.826 0.360098C111.475 0.350098 111.104 0.350098 110.743 0.350098Z" fill="#B7B7B7"/>
<path d="M8.87578 39.3402C8.57555 39.3402 8.27532 39.3402 7.97509 39.3302C7.41466 39.3104 6.75416 39.2806 6.10366 39.1713C5.4932 39.062 4.95279 38.8832 4.4424 38.6249C3.922 38.3666 3.45164 38.0189 3.04133 37.6115C2.63102 37.2042 2.29076 36.7472 2.02055 36.2207C1.76035 35.724 1.58021 35.1775 1.48014 34.5715C1.36005 33.9059 1.33002 33.2204 1.31001 32.7038C1.3 32.4952 1.3 31.7998 1.3 31.7998V8.86069C1.3 8.86069 1.31001 8.1752 1.31001 7.97651C1.33002 7.4599 1.36005 6.77441 1.48014 6.11873C1.59022 5.50278 1.77036 4.96631 2.03056 4.46958C2.30076 3.95298 2.64102 3.48605 3.05134 3.07873C3.46165 2.66147 3.93201 2.32369 4.4424 2.06539C4.95279 1.80709 5.50321 1.62827 6.09366 1.52892C6.77417 1.39977 7.45469 1.36997 7.97509 1.36003L8.87578 1.3501H111.724L112.635 1.36003C113.145 1.36997 113.836 1.39977 114.496 1.51899C115.097 1.62827 115.647 1.79716 116.168 2.06539C116.678 2.32369 117.148 2.67141 117.559 3.07873C117.969 3.48605 118.309 3.95298 118.579 4.46958C118.84 4.97624 119.01 5.51271 119.12 6.10879C119.24 6.73467 119.27 7.38043 119.29 7.98644C119.29 8.26461 119.29 8.57258 119.29 8.87062C119.3 9.24814 119.3 9.59585 119.3 9.9535V30.7467C119.3 31.1043 119.3 31.462 119.29 31.8196C119.29 32.1475 119.29 32.4356 119.29 32.7436C119.27 33.3297 119.23 33.9755 119.12 34.5815C119.02 35.1875 118.84 35.7339 118.579 36.2406C118.309 36.7572 117.969 37.2241 117.559 37.6215C117.148 38.0387 116.678 38.3765 116.158 38.6348C115.637 38.8931 115.107 39.0719 114.486 39.1812C113.846 39.3004 113.185 39.3302 112.615 39.3402C112.325 39.3501 112.014 39.3501 111.714 39.3501H110.633L8.87578 39.3402Z" fill="#000001"/>
<path d="M25.07 20.6495C25.04 17.8995 27.32 16.5595 27.43 16.4995C26.14 14.6195 24.14 14.3595 23.44 14.3395C21.76 14.1595 20.13 15.3395 19.28 15.3395C18.41 15.3395 17.09 14.3495 15.67 14.3795C13.84 14.4095 12.13 15.4695 11.2 17.1095C9.26999 20.4595 10.71 25.3795 12.56 28.0895C13.49 29.4195 14.57 30.8995 15.99 30.8395C17.38 30.7795 17.9 29.9595 19.57 29.9595C21.23 29.9595 21.71 30.8395 23.16 30.8095C24.65 30.7895 25.59 29.4795 26.48 28.1395C27.55 26.6195 27.98 25.1195 28 25.0495C27.95 25.0395 25.1 23.9495 25.07 20.6495Z" fill="white"/>
<path d="M22.34 12.5588C23.09 11.6288 23.6 10.3588 23.45 9.06885C22.37 9.11885 21.02 9.81885 20.24 10.7288C19.55 11.5288 18.94 12.8488 19.1 14.0888C20.31 14.1788 21.56 13.4788 22.34 12.5588Z" fill="white"/>
<path d="M42.6 27.4892H37.87L36.73 30.8492H34.73L39.21 18.4292H41.29L45.77 30.8492H43.73L42.6 27.4892ZM38.36 25.9392H42.11L40.26 20.4892H40.21L38.36 25.9392Z" fill="white"/>
<path d="M55.46 26.3197C55.46 29.1297 53.95 30.9397 51.68 30.9397C50.39 30.9397 49.37 30.3597 48.83 29.3597H48.79V33.8397H46.93V21.7897H48.73V23.2997H48.76C49.28 22.3297 50.38 21.6997 51.64 21.6997C53.95 21.6997 55.46 23.5097 55.46 26.3197ZM53.55 26.3197C53.55 24.4897 52.6 23.2797 51.16 23.2797C49.74 23.2797 48.78 24.5097 48.78 26.3197C48.78 28.1397 49.74 29.3697 51.16 29.3697C52.6 29.3697 53.55 28.1697 53.55 26.3197Z" fill="white"/>
<path d="M65.42 26.3197C65.42 29.1297 63.91 30.9397 61.64 30.9397C60.35 30.9397 59.33 30.3597 58.79 29.3597H58.75V33.8397H56.9V21.7897H58.7V23.2997H58.73C59.25 22.3297 60.35 21.6997 61.61 21.6997C63.91 21.6997 65.42 23.5097 65.42 26.3197ZM63.51 26.3197C63.51 24.4897 62.56 23.2797 61.12 23.2797C59.7 23.2797 58.74 24.5097 58.74 26.3197C58.74 28.1397 59.7 29.3697 61.12 29.3697C62.57 29.3697 63.51 28.1697 63.51 26.3197Z" fill="white"/>
<path d="M72.01 27.3892C72.15 28.6192 73.34 29.4292 74.98 29.4292C76.55 29.4292 77.67 28.6192 77.67 27.5092C77.67 26.5492 76.99 25.9692 75.38 25.5692L73.77 25.1792C71.49 24.6292 70.43 23.5592 70.43 21.8292C70.43 19.6892 72.3 18.2192 74.95 18.2192C77.57 18.2192 79.37 19.6892 79.43 21.8292H77.55C77.44 20.5892 76.41 19.8392 74.92 19.8392C73.43 19.8392 72.4 20.5992 72.4 21.6992C72.4 22.5792 73.05 23.0892 74.65 23.4892L76.02 23.8292C78.57 24.4292 79.63 25.4592 79.63 27.2692C79.63 29.5892 77.78 31.0492 74.84 31.0492C72.09 31.0492 70.23 29.6292 70.11 27.3792H72.01V27.3892Z" fill="white"/>
<path d="M83.65 19.6489V21.7889H85.37V23.2589H83.65V28.2489C83.65 29.0289 83.99 29.3889 84.75 29.3889C84.94 29.3889 85.24 29.3589 85.36 29.3489V30.8089C85.15 30.8589 84.74 30.8989 84.33 30.8989C82.5 30.8989 81.78 30.2089 81.78 28.4589V23.2689H80.46V21.7989H81.78V19.6489H83.65Z" fill="white"/>
<path d="M86.36 26.3192C86.36 23.4692 88.04 21.6792 90.65 21.6792C93.27 21.6792 94.94 23.4692 94.94 26.3192C94.94 29.1792 93.28 30.9592 90.65 30.9592C88.03 30.9592 86.36 29.1792 86.36 26.3192ZM93.06 26.3192C93.06 24.3692 92.16 23.2092 90.66 23.2092C89.16 23.2092 88.26 24.3692 88.26 26.3192C88.26 28.2792 89.15 29.4292 90.66 29.4292C92.17 29.4292 93.06 28.2792 93.06 26.3192Z" fill="white"/>
<path d="M96.49 21.789H98.26V23.329H98.3C98.58 22.309 99.41 21.689 100.48 21.689C100.75 21.689 100.97 21.729 101.12 21.759V23.499C100.97 23.439 100.65 23.389 100.29 23.389C99.09 23.389 98.35 24.199 98.35 25.469V30.839H96.49V21.789Z" fill="white"/>
<path d="M109.68 28.1892C109.43 29.8292 107.83 30.9592 105.78 30.9592C103.15 30.9592 101.51 29.1992 101.51 26.3592C101.51 23.5192 103.15 21.6792 105.7 21.6792C108.2 21.6792 109.78 23.3992 109.78 26.1492V26.7892H103.39V26.8992C103.39 28.4492 104.36 29.4592 105.83 29.4592C106.86 29.4592 107.67 28.9692 107.92 28.1892H109.68ZM103.4 25.4792H107.93C107.89 24.0892 107 23.1792 105.71 23.1792C104.43 23.1892 103.5 24.1192 103.4 25.4792Z" fill="white"/>
<path d="M38.13 9.07861C39.9 9.07861 40.94 10.1686 40.94 12.0386C40.94 13.9486 39.91 15.0386 38.13 15.0386H35.97V9.07861H38.13ZM36.9 14.1986H38.02C39.27 14.1986 39.99 13.4186 39.99 12.0486C39.99 10.6986 39.26 9.91861 38.02 9.91861H36.9V14.1986Z" fill="white"/>
<path d="M41.98 12.7897C41.98 11.3397 42.79 10.4497 44.1 10.4497C45.41 10.4497 46.22 11.3297 46.22 12.7897C46.22 14.2497 45.41 15.1297 44.1 15.1297C42.79 15.1297 41.98 14.2497 41.98 12.7897ZM45.31 12.7897C45.31 11.8097 44.87 11.2397 44.1 11.2397C43.33 11.2397 42.89 11.8097 42.89 12.7897C42.89 13.7697 43.32 14.3397 44.1 14.3397C44.88 14.3397 45.31 13.7697 45.31 12.7897Z" fill="white"/>
<path d="M51.87 15.0493H50.95L50.02 11.7293H49.95L49.02 15.0493H48.11L46.87 10.5493H47.77L48.58 13.9893H48.65L49.58 10.5493H50.43L51.36 13.9893H51.43L52.23 10.5493H53.12L51.87 15.0493Z" fill="white"/>
<path d="M54.15 10.5395H55.01V11.2595H55.08C55.3 10.7595 55.75 10.4595 56.42 10.4595C57.42 10.4595 57.98 11.0595 57.98 12.1295V15.0495H57.09V12.3595C57.09 11.6395 56.78 11.2795 56.12 11.2795C55.46 11.2795 55.04 11.7195 55.04 12.4195V15.0495H54.15V10.5395Z" fill="white"/>
<path d="M59.39 8.78955H60.28V15.0496H59.39V8.78955Z" fill="white"/>
<path d="M61.52 12.7897C61.52 11.3397 62.33 10.4497 63.64 10.4497C64.95 10.4497 65.76 11.3297 65.76 12.7897C65.76 14.2497 64.95 15.1297 63.64 15.1297C62.32 15.1297 61.52 14.2497 61.52 12.7897ZM64.85 12.7897C64.85 11.8097 64.41 11.2397 63.64 11.2397C62.87 11.2397 62.43 11.8097 62.43 12.7897C62.43 13.7697 62.86 14.3397 63.64 14.3397C64.41 14.3397 64.85 13.7697 64.85 12.7897Z" fill="white"/>
<path d="M66.7 13.7695C66.7 12.9595 67.3 12.4895 68.37 12.4295L69.59 12.3595V11.9695C69.59 11.4895 69.28 11.2295 68.67 11.2295C68.17 11.2295 67.83 11.4095 67.73 11.7295H66.87C66.96 10.9595 67.69 10.4595 68.71 10.4595C69.84 10.4595 70.48 11.0195 70.48 11.9695V15.0495H69.62V14.4195H69.55C69.28 14.8695 68.79 15.1295 68.2 15.1295C67.33 15.1195 66.7 14.5995 66.7 13.7695ZM69.6 13.3895V13.0095L68.5 13.0795C67.88 13.1195 67.6 13.3295 67.6 13.7295C67.6 14.1395 67.95 14.3695 68.43 14.3695C69.1 14.3695 69.6 13.9495 69.6 13.3895Z" fill="white"/>
<path d="M71.65 12.7896C71.65 11.3696 72.38 10.4696 73.52 10.4696C74.14 10.4696 74.66 10.7596 74.9 11.2596H74.97V8.78955H75.86V15.0496H75V14.3396H74.93C74.66 14.8296 74.14 15.1296 73.52 15.1296C72.37 15.1196 71.65 14.2196 71.65 12.7896ZM72.57 12.7896C72.57 13.7496 73.02 14.3196 73.77 14.3196C74.52 14.3196 74.98 13.7396 74.98 12.7896C74.98 11.8496 74.51 11.2596 73.77 11.2596C73.02 11.2696 72.57 11.8496 72.57 12.7896Z" fill="white"/>
<path d="M79.53 12.7897C79.53 11.3397 80.34 10.4497 81.65 10.4497C82.96 10.4497 83.77 11.3297 83.77 12.7897C83.77 14.2497 82.96 15.1297 81.65 15.1297C80.34 15.1297 79.53 14.2497 79.53 12.7897ZM82.86 12.7897C82.86 11.8097 82.42 11.2397 81.65 11.2397C80.88 11.2397 80.44 11.8097 80.44 12.7897C80.44 13.7697 80.87 14.3397 81.65 14.3397C82.42 14.3397 82.86 13.7697 82.86 12.7897Z" fill="white"/>
<path d="M84.97 10.5395H85.83V11.2595H85.9C86.12 10.7595 86.57 10.4595 87.24 10.4595C88.24 10.4595 88.8 11.0595 88.8 12.1295V15.0495H87.91V12.3595C87.91 11.6395 87.6 11.2795 86.94 11.2795C86.28 11.2795 85.86 11.7195 85.86 12.4195V15.0495H84.97V10.5395Z" fill="white"/>
<path d="M93.82 9.42041V10.5604H94.8V11.3104H93.82V13.6304C93.82 14.1004 94.01 14.3104 94.46 14.3104C94.6 14.3104 94.67 14.3004 94.8 14.2904V15.0304C94.66 15.0504 94.49 15.0804 94.32 15.0804C93.33 15.0804 92.94 14.7304 92.94 13.8604V11.3204H92.23V10.5704H92.94V9.42041H93.82Z" fill="white"/>
<path d="M96 8.78955H96.88V11.2696H96.95C97.17 10.7696 97.64 10.4596 98.32 10.4596C99.28 10.4596 99.87 11.0696 99.87 12.1396V15.0496H98.98V12.3596C98.98 11.6396 98.65 11.2796 98.02 11.2796C97.29 11.2796 96.89 11.7396 96.89 12.4196V15.0496H96V8.78955Z" fill="white"/>
<path d="M105.06 13.8295C104.86 14.6395 104.14 15.1295 103.11 15.1295C101.82 15.1295 101.03 14.2495 101.03 12.8095C101.03 11.3695 101.84 10.4595 103.11 10.4595C104.36 10.4595 105.12 11.3195 105.12 12.7295V13.0395H101.94V13.0895C101.97 13.8795 102.43 14.3795 103.14 14.3795C103.68 14.3795 104.05 14.1895 104.21 13.8295H105.06ZM101.94 12.3795H104.21C104.19 11.6695 103.76 11.2095 103.1 11.2095C102.44 11.2095 101.99 11.6795 101.94 12.3795Z" fill="white"/>
</g>
</g>
</g>
<defs>
<clipPath id="clip0_1_2686">
<rect width="120" height="40" fill="white" transform="translate(0.300003 0.350098)"/>
</clipPath>
<clipPath id="clip1_1_2686">
<rect width="120" height="40" fill="white" transform="translate(0.300003 0.350098)"/>
</clipPath>
<clipPath id="clip2_1_2686">
<rect width="120" height="40" fill="white" transform="translate(0.300003 0.350098)"/>
</clipPath>
</defs>
</svg>
