<svg width="16" height="17" viewBox="0 0 16 17" fill="none" xmlns="http://www.w3.org/2000/svg">
<g clip-path="url(#clip0_1_528)">
<path fill-rule="evenodd" clip-rule="evenodd" d="M9.13101 8.49993L14.1654 3.46553C14.4782 3.15273 14.4782 2.64713 14.1654 2.33433C13.8526 2.02153 13.347 2.02153 13.0342 2.33433L7.99981 7.36873L2.96541 2.33433C2.65261 2.02153 2.14701 2.02153 1.83421 2.33433C1.52141 2.64713 1.52141 3.15273 1.83421 3.46553L6.86861 8.49993L1.83421 13.5343C1.52141 13.8471 1.52141 14.3527 1.83421 14.6655C1.99021 14.8215 2.19501 14.8999 2.39981 14.8999C2.60461 14.8999 2.80941 14.8215 2.96541 14.6655L7.99981 9.63113L13.0342 14.6655C13.1902 14.8215 13.395 14.8999 13.5998 14.8999C13.8046 14.8999 14.0094 14.8215 14.1654 14.6655C14.4782 14.3527 14.4782 13.8471 14.1654 13.5343L9.13101 8.49993Z" fill="white"/>
<mask id="mask0_1_528" style="mask-type:luminance" maskUnits="userSpaceOnUse" x="1" y="2" width="14" height="13">
<path fill-rule="evenodd" clip-rule="evenodd" d="M9.13101 8.49993L14.1654 3.46553C14.4782 3.15273 14.4782 2.64713 14.1654 2.33433C13.8526 2.02153 13.347 2.02153 13.0342 2.33433L7.99981 7.36873L2.96541 2.33433C2.65261 2.02153 2.14701 2.02153 1.83421 2.33433C1.52141 2.64713 1.52141 3.15273 1.83421 3.46553L6.86861 8.49993L1.83421 13.5343C1.52141 13.8471 1.52141 14.3527 1.83421 14.6655C1.99021 14.8215 2.19501 14.8999 2.39981 14.8999C2.60461 14.8999 2.80941 14.8215 2.96541 14.6655L7.99981 9.63113L13.0342 14.6655C13.1902 14.8215 13.395 14.8999 13.5998 14.8999C13.8046 14.8999 14.0094 14.8215 14.1654 14.6655C14.4782 14.3527 14.4782 13.8471 14.1654 13.5343L9.13101 8.49993Z" fill="white"/>
</mask>
<g mask="url(#mask0_1_528)">
<path d="M17.0667 0.5H0V17.5667H17.0667V0.5Z" fill="#111213"/>
</g>
</g>
<defs>
<clipPath id="clip0_1_528">
<rect width="16" height="16" fill="white" transform="translate(0 0.5)"/>
</clipPath>
</defs>
</svg>
