<svg width="55" height="13" viewBox="0 0 55 13" fill="none" xmlns="http://www.w3.org/2000/svg">
<path d="M10.0088 0.160767H7.36222C7.36222 2.3326 6.36531 4.31455 4.63258 5.62003L3.5882 6.40331L7.64705 11.9338H10.9819L7.24354 6.84243C9.01186 5.08597 10.0088 2.71238 10.0088 0.160767Z" fill="black"/>
<path d="M3.2559 0.160767H0.550003V11.9338H3.2559V0.160767Z" fill="black"/>
<path d="M14.3168 0.160767H11.7652V11.9338H14.3168V0.160767Z" fill="black"/>
<path d="M36.6998 3.56689C35.7266 3.56689 34.8009 3.86359 34.1838 4.70622V3.79239H31.7627V11.9338H34.2194V7.66134C34.2194 6.42707 35.0502 5.82181 36.0471 5.82181C37.1152 5.82181 37.7323 6.46268 37.7323 7.64947V11.9457H40.1653V6.75938C40.1653 4.8605 38.658 3.56689 36.6998 3.56689Z" fill="black"/>
<path d="M22.031 3.79239V4.31458C21.3427 3.83986 20.5119 3.56689 19.61 3.56689C17.2364 3.56689 15.3138 5.4895 15.3138 7.8631C15.3138 10.2367 17.2364 12.1593 19.61 12.1593C20.5119 12.1593 21.3427 11.8863 22.031 11.4116V11.9338H24.464V3.79239H22.031ZM19.8117 9.95186C18.5893 9.95186 17.6043 9.01429 17.6043 7.8631C17.6043 6.7119 18.5893 5.77434 19.8117 5.77434C21.0341 5.77434 22.0191 6.7119 22.0191 7.8631C22.0191 9.01429 21.0341 9.95186 19.8117 9.95186Z" fill="black"/>
<path d="M28.238 4.84861V3.79236H25.7457V11.9338H28.2498V8.13603C28.2498 6.85429 29.6384 6.16595 30.5997 6.16595C30.6116 6.16595 30.6234 6.16595 30.6234 6.16595V3.79236C29.6384 3.79236 28.7245 4.2196 28.238 4.84861Z" fill="black"/>
<path d="M47.737 3.79239V4.31458C47.0487 3.83986 46.2179 3.56689 45.316 3.56689C42.9424 3.56689 41.0198 5.4895 41.0198 7.8631C41.0198 10.2367 42.9424 12.1593 45.316 12.1593C46.2179 12.1593 47.0487 11.8863 47.737 11.4116V11.9338H50.17V3.79239H47.737ZM45.5177 9.95186C44.2953 9.95186 43.3103 9.01429 43.3103 7.8631C43.3103 6.7119 44.2953 5.77434 45.5177 5.77434C46.7401 5.77434 47.7252 6.7119 47.7252 7.8631C47.737 9.01429 46.7401 9.95186 45.5177 9.95186Z" fill="black"/>
<path d="M52.769 9.04987C51.9264 9.04987 51.2381 9.73821 51.2381 10.5808C51.2381 11.4235 51.9264 12.1118 52.769 12.1118C53.6117 12.1118 54.3 11.4235 54.3 10.5808C54.3 9.72634 53.6117 9.04987 52.769 9.04987Z" fill="black"/>
</svg>
