<svg width="55" height="13" viewBox="0 0 55 13" fill="none" xmlns="http://www.w3.org/2000/svg">
<path d="M9.99881 0.400635H7.35226C7.35226 2.57247 6.35535 4.55442 4.62263 5.8599L3.57825 6.64318L7.63709 12.1737H10.972L7.23358 7.0823C9.00191 5.32584 9.99881 2.95225 9.99881 0.400635Z" fill="black"/>
<path d="M3.24593 0.400635H0.540039V12.1737H3.24593V0.400635Z" fill="black"/>
<path d="M14.3069 0.400635H11.7552V12.1737H14.3069V0.400635Z" fill="black"/>
<path d="M36.6899 3.80664C35.7167 3.80664 34.791 4.10334 34.1739 4.94596V4.03213H31.7528V12.1736H34.2095V7.90109C34.2095 6.66682 35.0402 6.06155 36.0371 6.06155C37.1053 6.06155 37.7224 6.70242 37.7224 7.88922V12.1854H40.1553V6.99912C40.1553 5.10025 38.6481 3.80664 36.6899 3.80664Z" fill="black"/>
<path d="M22.0211 4.03213V4.55432C21.3328 4.0796 20.502 3.80664 19.6 3.80664C17.2264 3.80664 15.3038 5.72925 15.3038 8.10284C15.3038 10.4764 17.2264 12.399 19.6 12.399C20.502 12.399 21.3328 12.1261 22.0211 11.6514V12.1736H24.454V4.03213H22.0211ZM19.8018 10.1916C18.5794 10.1916 17.5943 9.25403 17.5943 8.10284C17.5943 6.95165 18.5794 6.01408 19.8018 6.01408C21.0242 6.01408 22.0092 6.95165 22.0092 8.10284C22.0092 9.25403 21.0242 10.1916 19.8018 10.1916Z" fill="black"/>
<path d="M28.228 5.08848V4.03223H25.7357V12.1736H28.2399V8.3759C28.2399 7.09416 29.6284 6.40582 30.5897 6.40582C30.6016 6.40582 30.6134 6.40582 30.6134 6.40582V4.03223C29.6284 4.03223 28.7146 4.45947 28.228 5.08848Z" fill="black"/>
<path d="M47.727 4.03213V4.55432C47.0387 4.0796 46.2079 3.80664 45.306 3.80664C42.9324 3.80664 41.0098 5.72925 41.0098 8.10284C41.0098 10.4764 42.9324 12.399 45.306 12.399C46.2079 12.399 47.0387 12.1261 47.727 11.6514V12.1736H50.16V4.03213H47.727ZM45.5077 10.1916C44.2853 10.1916 43.3003 9.25403 43.3003 8.10284C43.3003 6.95165 44.2853 6.01408 45.5077 6.01408C46.7301 6.01408 47.7152 6.95165 47.7152 8.10284C47.727 9.25403 46.7301 10.1916 45.5077 10.1916Z" fill="black"/>
<path d="M52.7591 9.28979C51.9165 9.28979 51.2281 9.97814 51.2281 10.8208C51.2281 11.6634 51.9165 12.3517 52.7591 12.3517C53.6017 12.3517 54.2901 11.6634 54.2901 10.8208C54.2901 9.96627 53.6017 9.28979 52.7591 9.28979Z" fill="black"/>
</svg>
