<svg width="33" height="64" viewBox="0 0 33 64" fill="none" xmlns="http://www.w3.org/2000/svg">
<mask id="mask0_1_31" style="mask-type:luminance" maskUnits="userSpaceOnUse" x="0" y="16" width="33" height="32">
<path d="M32.3 16H0.300003V48H32.3V16Z" fill="white"/>
</mask>
<g mask="url(#mask0_1_31)">
<path d="M0.300003 18.6667C0.300003 17.1939 1.49391 16 2.96667 16H29.6334C31.1061 16 32.3 17.1939 32.3 18.6667V45.3333C32.3 46.8061 31.1061 48 29.6334 48H2.96667C1.49391 48 0.300003 46.8061 0.300003 45.3333V18.6667Z" fill="#0D396A"/>
<path d="M13.3154 32.0462V30.0165H16.3784C16.9024 30.0165 17.3452 29.9342 17.7066 29.7697C18.0861 29.6051 18.3752 29.3765 18.574 29.084C18.7728 28.7731 18.8722 28.3982 18.8722 27.9594C18.8722 27.3011 18.6553 26.8074 18.2216 26.4782C17.7879 26.1491 17.1735 25.9845 16.3784 25.9845H14.4809V37.9982H16.8121C17.4084 37.9982 17.9415 37.9251 18.4114 37.7788C18.8812 37.6142 19.2516 37.3582 19.5227 37.0108C19.8118 36.6451 19.9564 36.1514 19.9564 35.5297C19.9564 35.1274 19.8751 34.78 19.7125 34.4874C19.5498 34.1948 19.3239 33.9571 19.0348 33.7742C18.7457 33.5914 18.4114 33.4634 18.0319 33.3902C17.6705 33.2988 17.2639 33.2531 16.8121 33.2531H13.3154V30.7297H17.3271C18.2487 30.7297 19.1432 30.8302 20.0106 31.0314C20.878 31.2325 21.6641 31.5617 22.3689 32.0188C23.0736 32.4577 23.6338 33.0245 24.0495 33.7194C24.4832 34.396 24.7 35.2188 24.7 36.188C24.7 37.468 24.3928 38.5011 23.7784 39.2874C23.1821 40.0737 22.3327 40.6588 21.2304 41.0428C20.1281 41.4085 18.827 41.5914 17.3271 41.5914H9.9V22.3914H16.8663C18.1855 22.3914 19.342 22.5742 20.3359 22.94C21.3479 23.2874 22.143 23.8268 22.7213 24.5582C23.3176 25.2714 23.6157 26.1765 23.6157 27.2737C23.6157 28.2794 23.3176 29.1388 22.7213 29.852C22.143 30.5651 21.3479 31.1137 20.3359 31.4977C19.342 31.8634 18.1855 32.0462 16.8663 32.0462H13.3154Z" fill="#F6F3EA"/>
</g>
</svg>
