<svg width="24" height="25" viewBox="0 0 24 25" fill="none" xmlns="http://www.w3.org/2000/svg">
<g clip-path="url(#clip0_1_559)">
<g clip-path="url(#clip1_1_559)">
<g clip-path="url(#clip2_1_559)">
<path d="M12.001 4.06055C10.4187 4.06055 8.87204 4.52974 7.55644 5.40879C6.24085 6.28784 5.21546 7.53726 4.60996 8.99907C4.00446 10.4609 3.84603 12.0694 4.15471 13.6213C4.46339 15.1731 5.22532 16.5986 6.34414 17.7174C7.46296 18.8362 8.88842 19.5981 10.4403 19.9068C11.9921 20.2155 13.6007 20.0571 15.0625 19.4516C16.5243 18.8461 17.7737 17.8207 18.6527 16.5051C19.5318 15.1895 20.001 13.6428 20.001 12.0605C19.9987 9.93952 19.1551 7.90604 17.6553 6.40625C16.1555 4.90647 14.122 4.06287 12.001 4.06055ZM12.8805 14.7452C12.5769 14.7662 12.273 14.7089 11.9979 14.5788C11.7228 14.4487 11.4858 14.2501 11.3095 14.002C11.3095 14.002 11.105 14.8045 10.9544 15.3762C10.8863 15.6893 10.778 15.9923 10.6323 16.2777C10.4302 16.6613 10.2017 17.0305 9.9485 17.3825C9.85395 17.5221 9.73742 17.6387 9.66926 17.6244C9.6011 17.6101 9.6011 17.5386 9.58351 17.388C9.53051 16.9327 9.51104 16.4742 9.52525 16.016C9.55374 15.7392 9.5963 15.464 9.65277 15.1915L10.4223 12.0232C9.9463 11.0469 10.3366 9.52214 11.4205 9.52214C12.1901 9.52214 12.3913 10.218 12.156 11.0546C12.0461 11.4273 11.7229 12.4739 11.7163 12.5234C11.6959 12.6072 11.6863 12.6933 11.6877 12.7795C11.692 12.91 11.7228 13.0382 11.7782 13.1564C11.8335 13.2747 11.9123 13.3804 12.0098 13.4673C12.1072 13.5541 12.2213 13.6203 12.3451 13.6618C12.4689 13.7032 12.5998 13.7191 12.7299 13.7085C14.0326 13.7085 14.6493 11.7835 14.6493 10.4962C14.6527 10.1694 14.5859 9.84569 14.4534 9.54697C14.3209 9.24824 14.1258 8.98146 13.8813 8.76466C13.6368 8.54786 13.3485 8.38609 13.0361 8.29032C12.7236 8.19454 12.3943 8.16699 12.0702 8.20951C11.6816 8.19165 11.2934 8.25204 10.9286 8.38709C10.5638 8.52214 10.2298 8.7291 9.94645 8.9957C9.66314 9.26229 9.43629 9.58309 9.27933 9.93905C9.12237 10.295 9.03852 10.6788 9.03274 11.0678C9.0177 11.2942 9.04893 11.5214 9.12454 11.7353C9.20014 11.9493 9.31852 12.1456 9.47248 12.3123C9.50527 12.3479 9.52781 12.3918 9.53768 12.4392C9.54755 12.4867 9.5444 12.5359 9.52856 12.5816L9.40543 13.0774C9.36036 13.2412 9.21303 13.3259 9.00745 13.205C8.59481 12.9904 8.2589 12.6532 8.04605 12.2397C7.83319 11.8262 7.75388 11.3568 7.81905 10.8963C7.91342 9.82771 8.42545 8.83942 9.24401 8.146C10.0626 7.45258 11.1216 7.11 12.1912 7.19261C14.3019 7.19261 16.1665 8.52063 16.1665 10.671C16.1785 13.3248 14.5152 14.7452 12.8805 14.7452Z" fill="white"/>
</g>
</g>
</g>
<defs>
<clipPath id="clip0_1_559">
<rect width="16" height="16" fill="white" transform="translate(4 4.06006)"/>
</clipPath>
<clipPath id="clip1_1_559">
<rect width="16" height="16" fill="white" transform="translate(4 4.06006)"/>
</clipPath>
<clipPath id="clip2_1_559">
<rect width="16" height="15.9989" fill="white" transform="translate(4 4.06055)"/>
</clipPath>
</defs>
</svg>
