<svg width="112" height="27" viewBox="0 0 112 27" fill="none" xmlns="http://www.w3.org/2000/svg">
<g clip-path="url(#clip0_1_744)">
<g clip-path="url(#clip1_1_744)">
<g clip-path="url(#clip2_1_744)">
<path d="M30.2545 10.4455C29.4788 7.73031 27.3455 7.14849 25.6485 7.14849C23.8545 7.14849 21.6727 7.82728 20.7515 10.4455H30.2545ZM17.3576 12.4818C17.3576 8.02122 20.8485 4.48183 25.6 4.48183C29.4303 4.48183 32.9697 6.76062 33.3576 11.6576C33.4545 12.3849 33.0182 12.7727 32.2909 12.7727H20.4606C20.3636 15.6333 22.6909 17.6697 26.0364 17.6697C27.5394 17.6697 28.9455 17.2333 30.2061 16.4091C30.7879 16.0212 31.2727 16.0697 31.7576 16.5546L31.9515 16.797C32.4364 17.3303 32.4364 17.9606 31.7576 18.5424C30.0121 19.997 27.9273 20.4333 26.0364 20.4333C20.6545 20.4333 17.3576 16.8455 17.3576 12.4818Z" fill="#00B189"/>
<path d="M39.8061 19.1727L35.0545 6.03334C34.7636 5.25758 35.1515 4.77274 35.9273 4.77274H36.897C37.5273 4.77274 37.9636 5.01516 38.1576 5.64546L41.697 15.8273L44.8 6.13031C44.9455 5.54849 45.4303 5.16061 46.0121 5.16061H46.6909C47.2727 5.11213 47.8061 5.54849 47.903 6.13031L51.0545 15.8273L54.5455 5.64546C54.7394 5.01516 55.1758 4.77274 55.8061 4.77274H56.7758C57.6 4.77274 57.9394 5.2091 57.6485 6.03334L52.9455 19.1727C52.8 19.7546 52.2667 20.0939 51.6848 20.0455H50.6667C50.0848 20.0939 49.5515 19.7061 49.4061 19.1243L46.3515 9.62122L43.297 19.1243C43.1515 19.7061 42.6182 20.0939 42.0364 20.0455H41.0182C40.4848 20.1424 39.9515 19.7546 39.8061 19.1727Z" fill="#00B189"/>
<path d="M61.9636 15.2455V7.24546H60.1212C59.8303 7.24546 59.5394 7.05152 59.4909 6.71212C59.4909 6.66364 59.4909 6.61515 59.4909 6.61515V5.40303C59.4424 5.11212 59.6848 4.82121 59.9758 4.77273C60.0242 4.77273 60.0727 4.77273 60.1212 4.77273H62.0606L62.1091 1.28182C62.2061 0.700002 62.5455 0.409093 63.0788 0.409093H64.1939C64.6788 0.360608 65.0667 0.748487 65.1152 1.18485C65.1152 1.23334 65.1152 1.28182 65.1152 1.33031V4.77273H69.2848C69.5758 4.72424 69.8667 4.96667 69.9152 5.25758C69.9152 5.30606 69.9152 5.35455 69.9152 5.40303V6.61515C69.9636 6.90606 69.7212 7.19697 69.4303 7.24546C69.3818 7.24546 69.3333 7.24546 69.3333 7.24546H65.1636V15.4394C65.1636 17.0879 65.9394 17.7182 66.9576 17.7182C67.9273 17.7182 68.7515 17.1848 68.7515 16.0697C68.7515 15.8758 68.7515 15.6818 68.703 15.4879C68.6545 15.0515 68.8485 14.8091 69.2364 14.8091H70.6424C70.9818 14.7606 71.3212 15.003 71.3212 15.3424C71.4182 15.7303 71.4182 16.0697 71.4182 16.4576C71.4182 18.7364 69.7697 20.4333 66.8606 20.4333C64.3879 20.4333 61.9636 19.1727 61.9636 15.2455Z" fill="#00B189"/>
<path d="M86.0121 12.4818C86.0121 9.57273 83.8303 7.24546 81.0182 7.24546C78.303 7.24546 76.0727 9.57273 76.0727 12.4818C76.0727 15.3909 78.303 17.7182 81.0182 17.7182C83.7818 17.6697 86.0121 15.3424 86.0121 12.4818ZM72.9697 12.4333C73.0182 8.02122 76.6061 4.43334 81.0182 4.48182C85.4788 4.48182 89.1152 8.0697 89.1152 12.4333C89.1152 16.8939 85.4788 20.5303 81.0182 20.5303C76.5576 20.5303 72.9697 16.8939 72.9697 12.4333Z" fill="#00B189"/>
<path d="M92.6061 18.9788V5.88788C92.6061 5.20909 93.0424 4.77273 93.7212 4.77273H94.6424C95.3212 4.77273 95.7576 5.16061 95.7576 5.88788V7.77879C96.4364 5.64546 98.3758 4.43333 100.848 4.43333C104.242 4.43333 106.715 6.61515 106.715 11.4152V18.9303C106.715 19.6091 106.279 20.0455 105.6 20.0455H104.679C104 20.0455 103.564 19.6576 103.564 18.9303V11.4636C103.564 8.31212 102.109 7.19697 100.509 7.19697C98.9091 7.19697 95.7576 8.26364 95.7576 12.9182V18.9788C95.7576 19.6576 95.3697 20.0939 94.6424 20.0939H93.7212C92.9939 20.0939 92.6061 19.7061 92.6061 18.9788Z" fill="#00B189"/>
<path d="M19.3455 23.9243C18.9576 23.1485 18.0364 22.8576 17.3091 23.2455C16.5333 23.6333 15.903 23.6818 15.4182 23.4394C14.8364 23.1485 14.4 22.4697 14.2545 21.597C14.1091 20.7727 14.0606 19.9 14.0606 19.0273V18.9788V11.4636C14.1091 6.66365 11.6364 4.48183 8.24242 4.48183C5.7697 4.48183 3.8303 5.69395 3.15152 7.82728V5.93637C3.15152 5.25758 2.76364 4.82122 2.03636 4.82122H1.16364C0.436364 4.82122 0 5.2091 0 5.88789V18.9788C0 19.6576 0.436364 20.0939 1.11515 20.0939H2.03636C2.71515 20.0939 3.15152 19.7061 3.15152 18.9788V12.9182C3.15152 8.26364 6.30303 7.19698 7.90303 7.19698C9.50303 7.19698 10.9576 8.31213 10.9576 11.4636V17.9121C10.9091 19.3182 11.0061 20.7243 11.2 22.1303C11.4424 23.8273 12.5091 25.3303 14.0121 26.1061C14.6424 26.4455 15.3697 26.5909 16.0485 26.5909C16.9212 26.5909 17.8424 26.3485 18.6182 25.9606C19.4424 25.5727 19.7333 24.7 19.3455 23.9243Z" fill="#00B189"/>
<path d="M110.158 9.08788C109.139 9.08788 108.315 8.26364 108.315 7.24545C108.315 6.22727 109.139 5.40303 110.158 5.40303C111.176 5.40303 112 6.22727 112 7.24545C112 8.26364 111.176 9.08788 110.158 9.08788ZM110.158 5.69394C109.333 5.69394 108.655 6.37273 108.655 7.19697C108.655 8.02121 109.333 8.7 110.158 8.7C110.982 8.7 111.661 8.02121 111.661 7.19697C111.661 6.37273 110.982 5.69394 110.158 5.69394Z" fill="#00B189"/>
<path d="M110.109 7.05152C110.206 7.05152 110.255 7.05152 110.303 7.00304C110.352 6.95455 110.352 6.90607 110.352 6.85758C110.352 6.8091 110.352 6.76061 110.303 6.71213C110.255 6.66364 110.206 6.66364 110.109 6.66364H109.818V7.05152H110.109ZM109.867 7.34243V8.11819H109.527V6.32425H110.158C110.352 6.32425 110.448 6.37273 110.545 6.4697C110.642 6.56667 110.691 6.71213 110.691 6.8091C110.691 6.90607 110.642 7.10001 110.545 7.14849C110.497 7.19698 110.448 7.24546 110.352 7.24546L111.03 8.0697H110.594L109.964 7.29395H109.867V7.34243Z" fill="#00B189"/>
</g>
</g>
</g>
<defs>
<clipPath id="clip0_1_744">
<rect width="112" height="26.66" fill="white" transform="translate(0 0.169998)"/>
</clipPath>
<clipPath id="clip1_1_744">
<rect width="112" height="26.66" fill="white" transform="translate(0 0.169998)"/>
</clipPath>
<clipPath id="clip2_1_744">
<rect width="112" height="26.6667" fill="white" transform="translate(0 0.166672)"/>
</clipPath>
</defs>
</svg>
