<svg width="24" height="25" viewBox="0 0 24 25" fill="none" xmlns="http://www.w3.org/2000/svg">
<g clip-path="url(#clip0_1_599)">
<g clip-path="url(#clip1_1_599)">
<g clip-path="url(#clip2_1_599)">
<path d="M12.001 4.48047C10.4187 4.48047 8.87204 4.94966 7.55644 5.82871C6.24085 6.70776 5.21546 7.95718 4.60996 9.41899C4.00446 10.8808 3.84603 12.4893 4.15471 14.0412C4.46339 15.593 5.22532 17.0185 6.34414 18.1373C7.46296 19.2561 8.88842 20.0181 10.4403 20.3267C11.9921 20.6354 13.6007 20.477 15.0625 19.8715C16.5243 19.266 17.7737 18.2406 18.6527 16.925C19.5318 15.6094 20.001 14.0627 20.001 12.4805C19.9987 10.3594 19.1551 8.32596 17.6553 6.82617C16.1555 5.32639 14.122 4.4828 12.001 4.48047ZM12.8805 15.1651C12.5769 15.1861 12.273 15.1288 11.9979 14.9987C11.7228 14.8686 11.4858 14.67 11.3095 14.4219C11.3095 14.4219 11.105 15.2245 10.9544 15.7961C10.8863 16.1092 10.778 16.4122 10.6323 16.6976C10.4302 17.0812 10.2017 17.4504 9.9485 17.8024C9.85395 17.9421 9.73742 18.0586 9.66926 18.0443C9.6011 18.03 9.6011 17.9586 9.58351 17.8079C9.53051 17.3527 9.51104 16.8941 9.52525 16.4359C9.55374 16.1591 9.5963 15.8839 9.65277 15.6114L10.4223 12.4431C9.9463 11.4669 10.3366 9.94206 11.4205 9.94206C12.1901 9.94206 12.3913 10.638 12.156 11.4746C12.0461 11.8472 11.7229 12.8938 11.7163 12.9433C11.6959 13.0271 11.6863 13.1132 11.6877 13.1994C11.692 13.3299 11.7228 13.4581 11.7782 13.5764C11.8335 13.6946 11.9123 13.8003 12.0098 13.8872C12.1072 13.9741 12.2213 14.0402 12.3451 14.0817C12.4689 14.1231 12.5998 14.139 12.7299 14.1284C14.0326 14.1284 14.6493 12.2034 14.6493 10.9161C14.6527 10.5893 14.5859 10.2656 14.4534 9.96689C14.3209 9.66817 14.1258 9.40138 13.8813 9.18458C13.6368 8.96778 13.3485 8.80601 13.0361 8.71024C12.7236 8.61446 12.3943 8.58691 12.0702 8.62943C11.6816 8.61157 11.2934 8.67196 10.9286 8.80701C10.5638 8.94207 10.2298 9.14902 9.94645 9.41562C9.66314 9.68221 9.43629 10.003 9.27933 10.359C9.12237 10.7149 9.03852 11.0988 9.03274 11.4877C9.0177 11.7142 9.04893 11.9413 9.12454 12.1552C9.20014 12.3692 9.31852 12.5655 9.47248 12.7322C9.50527 12.7679 9.52781 12.8117 9.53768 12.8592C9.54755 12.9066 9.5444 12.9558 9.52856 13.0016L9.40543 13.4974C9.36036 13.6612 9.21303 13.7458 9.00745 13.6249C8.59481 13.4104 8.2589 13.0731 8.04605 12.6596C7.83319 12.2461 7.75388 11.7767 7.81905 11.3163C7.91342 10.2476 8.42545 9.25934 9.24401 8.56592C10.0626 7.87251 11.1216 7.52992 12.1912 7.61253C14.3019 7.61253 16.1665 8.94055 16.1665 11.0909C16.1785 13.7447 14.5152 15.1651 12.8805 15.1651Z" fill="white"/>
</g>
</g>
</g>
<defs>
<clipPath id="clip0_1_599">
<rect width="16" height="16" fill="white" transform="translate(4 4.47998)"/>
</clipPath>
<clipPath id="clip1_1_599">
<rect width="16" height="16" fill="white" transform="translate(4 4.47998)"/>
</clipPath>
<clipPath id="clip2_1_599">
<rect width="16" height="15.9989" fill="white" transform="translate(4 4.48047)"/>
</clipPath>
</defs>
</svg>
