<svg width="12" height="13" viewBox="0 0 12 13" fill="none" xmlns="http://www.w3.org/2000/svg">
<g clip-path="url(#clip0_1_507)">
<g clip-path="url(#clip1_1_507)">
<g clip-path="url(#clip2_1_507)">
<path d="M8.10761 7.53535C8.04547 7.53535 7.98588 7.56003 7.94194 7.60397C7.89801 7.6479 7.87332 7.70749 7.87332 7.76963V9.38377C7.87296 9.69421 7.74947 9.99183 7.52996 10.2113C7.31044 10.4309 7.01282 10.5543 6.70238 10.5547H4.17417C4.11211 10.5547 4.05259 10.5793 4.00867 10.6232C3.96475 10.667 3.94001 10.7265 3.93989 10.7885V11.2543L3.38047 10.6972C3.36224 10.6554 3.33219 10.6198 3.29401 10.5948C3.25583 10.5698 3.21119 10.5565 3.16556 10.5566H1.64365C1.33321 10.5562 1.03559 10.4327 0.816076 10.2132C0.59656 9.99368 0.473076 9.69605 0.47271 9.38561V5.77915C0.473076 5.46871 0.59656 5.17109 0.816076 4.95158C1.03559 4.73206 1.33321 4.60858 1.64365 4.60821H4.00953C4.07166 4.60821 4.13125 4.58352 4.17519 4.53959C4.21913 4.49565 4.24381 4.43606 4.24381 4.37393C4.24381 4.31179 4.21913 4.2522 4.17519 4.20827C4.13125 4.16433 4.07166 4.13965 4.00953 4.13965H1.64412C1.20944 4.14014 0.79271 4.31303 0.485348 4.62039C0.177987 4.92775 0.00509642 5.34448 0.00460815 5.77915L0.00460815 9.38561C0.00509642 9.82029 0.177987 10.237 0.485348 10.5444C0.79271 10.8517 1.20944 11.0246 1.64412 11.0251H3.04611L4.00814 11.9872C4.04091 12.0199 4.08264 12.0422 4.12806 12.0512C4.17348 12.0602 4.22055 12.0556 4.26334 12.0378C4.30612 12.0201 4.3427 11.9901 4.36844 11.9516C4.39419 11.9132 4.40795 11.8679 4.40799 11.8216V11.0251H6.70238C7.13705 11.0246 7.55378 10.8517 7.86115 10.5444C8.16851 10.237 8.3414 9.82029 8.34189 9.38561V7.77147C8.34213 7.74055 8.33625 7.70988 8.32459 7.68125C8.31292 7.65261 8.2957 7.62656 8.27392 7.60461C8.25214 7.58266 8.22623 7.56524 8.19769 7.55335C8.16914 7.54147 8.13853 7.53535 8.10761 7.53535Z" fill="white" stroke="#003366" stroke-width="0.00922367"/>
<path d="M8.59139 0.0644531H7.99877C7.09597 0.0644531 6.23016 0.423087 5.59178 1.06146C4.95341 1.69983 4.59477 2.56565 4.59477 3.46845C4.59477 4.37125 4.95341 5.23707 5.59178 5.87544C6.23016 6.51381 7.09597 6.87245 7.99877 6.87245H8.59139C8.88287 6.87259 9.17316 6.83539 9.45519 6.76176L10.3314 7.63801C10.3642 7.67074 10.4059 7.69302 10.4513 7.70204C10.4968 7.71107 10.5438 7.70643 10.5866 7.68871C10.6294 7.671 10.666 7.641 10.6917 7.6025C10.7175 7.56401 10.7312 7.51876 10.7313 7.47245V6.11611C11.1031 5.81471 11.4078 5.43897 11.626 5.01295C11.8704 4.5349 11.9969 4.00534 11.9949 3.46845C11.994 2.56603 11.6351 1.70085 10.997 1.0627C10.3589 0.424554 9.49381 0.0655518 8.59139 0.0644531ZM10.3554 5.81495C10.3266 5.83691 10.3033 5.86525 10.2873 5.89773C10.2713 5.93022 10.263 5.96598 10.2632 6.00219V6.90611L9.68993 6.33332C9.65983 6.30329 9.62212 6.28201 9.58085 6.27177C9.53958 6.26154 9.49629 6.26273 9.45565 6.27521C9.17591 6.36104 8.88492 6.40456 8.59231 6.40435H7.99969C7.22116 6.40435 6.47453 6.09508 5.92403 5.54458C5.37352 4.99408 5.06426 4.24744 5.06426 3.46891C5.06426 2.69039 5.37352 1.94375 5.92403 1.39325C6.47453 0.842745 7.22116 0.533477 7.99969 0.533477H8.59231C9.20817 0.533412 9.80846 0.727049 10.3082 1.08698C10.8079 1.44691 11.1818 1.9549 11.3769 2.53904C11.572 3.12319 11.5784 3.75389 11.3952 4.34189C11.2121 4.92988 10.8486 5.44538 10.3563 5.81541L10.3554 5.81495Z" fill="white" stroke="#003366" stroke-width="0.00922367"/>
<path d="M9.34957 2.62738C9.33225 2.38934 9.22987 2.16548 9.0611 1.99671C8.89234 1.82795 8.66848 1.72555 8.43044 1.70824C8.29454 1.6982 8.15803 1.71651 8.02957 1.762C7.90112 1.80749 7.78353 1.87917 7.68424 1.9725C7.585 2.06542 7.50586 2.17769 7.45169 2.30238C7.39751 2.42706 7.36946 2.56153 7.36926 2.69748C7.36926 2.75961 7.39393 2.8192 7.43787 2.86314C7.4818 2.90708 7.5414 2.93176 7.60353 2.93176C7.66567 2.93176 7.72525 2.90708 7.76919 2.86314C7.81312 2.8192 7.83781 2.75961 7.83781 2.69748C7.83788 2.62563 7.85274 2.55457 7.88146 2.48872C7.91018 2.42287 7.95216 2.36363 8.00476 2.3147C8.05737 2.26577 8.11949 2.2282 8.18725 2.20432C8.25501 2.18043 8.32695 2.17075 8.39861 2.17588C8.52347 2.18535 8.6408 2.23926 8.7293 2.32784C8.81781 2.41641 8.87162 2.53378 8.88099 2.65864C8.89037 2.7835 8.85467 2.90759 8.78038 3.00839C8.70609 3.10918 8.59814 3.18 8.47609 3.20801C8.37697 3.22954 8.28824 3.28442 8.2247 3.36348C8.16116 3.44255 8.12666 3.54101 8.12697 3.64244V4.20509C8.12697 4.26722 8.15166 4.32681 8.19559 4.37075C8.23953 4.41469 8.29913 4.43937 8.36126 4.43937C8.4234 4.43937 8.48298 4.41469 8.52692 4.37075C8.57085 4.32681 8.59554 4.26722 8.59554 4.20509V3.65951C8.82328 3.60497 9.02419 3.47119 9.16234 3.28209C9.30048 3.093 9.36685 2.86092 9.34957 2.62738Z" fill="white" stroke="#003366" stroke-width="0.00922367"/>
<path d="M8.52589 4.9655C8.48754 4.92719 8.43709 4.90337 8.38315 4.89809C8.3292 4.89281 8.2751 4.90639 8.23005 4.93654C8.185 4.96668 8.15179 5.01151 8.13609 5.0634C8.12039 5.11528 8.12316 5.171 8.14394 5.22106C8.16472 5.27113 8.20221 5.31243 8.25003 5.33795C8.29786 5.36347 8.35306 5.37161 8.40621 5.361C8.45937 5.35038 8.5072 5.32167 8.54155 5.27974C8.57591 5.23781 8.59466 5.18526 8.59461 5.13106C8.59436 5.06898 8.56967 5.00951 8.52589 4.9655Z" fill="white" stroke="#003366" stroke-width="0.00922367"/>
<path d="M6.44504 7.32422H1.50345C1.44132 7.32422 1.38173 7.34891 1.33779 7.39284C1.29386 7.43678 1.26917 7.49636 1.26917 7.5585C1.26917 7.62063 1.29386 7.68023 1.33779 7.72417C1.38173 7.7681 1.44132 7.79278 1.50345 7.79278H6.44504C6.50717 7.79278 6.56676 7.7681 6.6107 7.72417C6.65463 7.68023 6.67932 7.62063 6.67932 7.5585C6.67932 7.49636 6.65463 7.43678 6.6107 7.39284C6.56676 7.34891 6.50717 7.32422 6.44504 7.32422Z" fill="white" stroke="#003366" stroke-width="0.00922367"/>
<path d="M5.52359 8.63623H1.50345C1.44132 8.63623 1.38173 8.66092 1.33779 8.70486C1.29386 8.74879 1.26917 8.80837 1.26917 8.87051C1.26917 8.93265 1.29386 8.99224 1.33779 9.03618C1.38173 9.08011 1.44132 9.10479 1.50345 9.10479H5.52359C5.58573 9.10479 5.64532 9.08011 5.68925 9.03618C5.73319 8.99224 5.75787 8.93265 5.75787 8.87051C5.75787 8.80837 5.73319 8.74879 5.68925 8.70486C5.64532 8.66092 5.58573 8.63623 5.52359 8.63623Z" fill="white" stroke="#003366" stroke-width="0.00922367"/>
<path d="M4.92267 6.0127H1.50345C1.44132 6.0127 1.38173 6.03738 1.33779 6.08131C1.29386 6.12525 1.26917 6.18484 1.26917 6.24697C1.26917 6.30911 1.29386 6.3687 1.33779 6.41264C1.38173 6.45657 1.44132 6.48126 1.50345 6.48126H4.92267C4.98481 6.48126 5.0444 6.45657 5.08833 6.41264C5.13227 6.3687 5.15695 6.30911 5.15695 6.24697C5.15695 6.18484 5.13227 6.12525 5.08833 6.08131C5.0444 6.03738 4.98481 6.0127 4.92267 6.0127Z" fill="white" stroke="#003366" stroke-width="0.00922367"/>
</g>
</g>
</g>
<defs>
<clipPath id="clip0_1_507">
<rect width="12" height="12" fill="white" transform="translate(0 0.0600586)"/>
</clipPath>
<clipPath id="clip1_1_507">
<rect width="12" height="12" fill="white" transform="translate(0 0.0600586)"/>
</clipPath>
<clipPath id="clip2_1_507">
<rect width="12" height="12" fill="white" transform="translate(0 0.0600586)"/>
</clipPath>
</defs>
</svg>
