<svg width="13" height="13" viewBox="0 0 13 13" fill="none" xmlns="http://www.w3.org/2000/svg">
<g clip-path="url(#clip0_1_561)">
<g clip-path="url(#clip1_1_561)">
<g clip-path="url(#clip2_1_561)">
<path d="M6.1603 0.568359C4.98472 0.569453 3.85761 1.03693 3.02635 1.86819C2.19509 2.69945 1.72761 3.82656 1.72652 5.00214C1.72652 8.07559 5.72848 12.1129 5.89838 12.2834C5.9679 12.3526 6.06196 12.3914 6.16001 12.3914C6.25805 12.3914 6.35211 12.3526 6.42163 12.2834C6.59153 12.1129 10.5935 8.075 10.5935 5.00214C10.5924 3.82667 10.125 2.69964 9.29387 1.8684C8.46274 1.03716 7.33577 0.569609 6.1603 0.568359ZM6.1603 11.4876C5.27543 10.5438 2.46568 7.3494 2.46568 5.00214C2.46568 4.02227 2.85493 3.08253 3.54781 2.38965C4.24068 1.69677 5.18042 1.30752 6.1603 1.30752C7.14017 1.30752 8.07992 1.69677 8.77279 2.38965C9.46567 3.08253 9.85492 4.02227 9.85492 5.00214C9.85492 7.34704 7.04222 10.5432 6.1603 11.4876Z" fill="white" stroke="#003366" stroke-width="0.176974"/>
<path d="M6.16031 3.14697C5.79337 3.14697 5.43467 3.25578 5.12957 3.45964C4.82447 3.6635 4.58667 3.95326 4.44625 4.29226C4.30583 4.63127 4.26909 5.00431 4.34067 5.36419C4.41226 5.72408 4.58896 6.05466 4.84842 6.31412C5.10789 6.57359 5.43847 6.75029 5.79836 6.82187C6.15825 6.89346 6.53128 6.85672 6.87029 6.7163C7.20929 6.57587 7.49905 6.33808 7.70291 6.03298C7.90677 5.72788 8.01557 5.36918 8.01557 5.00225C8.01495 4.51039 7.81928 4.03886 7.47149 3.69106C7.12369 3.34326 6.65216 3.1476 6.16031 3.14697ZM6.16031 6.23929C5.91529 6.23929 5.67578 6.16664 5.47205 6.03051C5.26833 5.89439 5.10955 5.70091 5.01578 5.47455C4.92202 5.24819 4.89749 4.9991 4.94529 4.75879C4.99309 4.51849 5.11108 4.29775 5.28433 4.1245C5.45758 3.95125 5.67831 3.83327 5.91862 3.78547C6.15893 3.73767 6.40802 3.7622 6.63438 3.85596C6.86074 3.94972 7.05422 4.10851 7.19034 4.31223C7.32646 4.51595 7.39912 4.75546 7.39912 5.00048C7.39912 5.32903 7.2686 5.64413 7.03628 5.87645C6.80396 6.10878 6.48886 6.23929 6.16031 6.23929Z" fill="white" stroke="#003366" stroke-width="0.117982"/>
</g>
</g>
</g>
<defs>
<clipPath id="clip0_1_561">
<rect width="12" height="12" fill="white" transform="translate(0.160004 0.47998)"/>
</clipPath>
<clipPath id="clip1_1_561">
<rect width="12" height="12" fill="white" transform="translate(0.160004 0.47998)"/>
</clipPath>
<clipPath id="clip2_1_561">
<rect width="9.04395" height="12" fill="white" transform="translate(1.63803 0.47998)"/>
</clipPath>
</defs>
</svg>
