<svg width="12" height="13" viewBox="0 0 12 13" fill="none" xmlns="http://www.w3.org/2000/svg">
<g clip-path="url(#clip0_1_547)">
<g clip-path="url(#clip1_1_547)">
<g clip-path="url(#clip2_1_547)">
<path d="M8.1076 7.95527C8.04547 7.95527 7.98588 7.97995 7.94194 8.02389C7.89801 8.06782 7.87332 8.12741 7.87332 8.18955V9.80369C7.87296 10.1141 7.74947 10.4118 7.52996 10.6313C7.31044 10.8508 7.01282 10.9743 6.70238 10.9746H4.17417C4.11211 10.9746 4.05259 10.9993 4.00867 11.0431C3.96475 11.0869 3.94001 11.1464 3.93989 11.2085V11.6743L3.38047 11.1171C3.36224 11.0753 3.33219 11.0397 3.29401 11.0147C3.25583 10.9897 3.21119 10.9765 3.16556 10.9765H1.64365C1.33321 10.9761 1.03559 10.8526 0.816076 10.6331C0.59656 10.4136 0.473076 10.116 0.47271 9.80553V6.19907C0.473076 5.88863 0.59656 5.59101 0.816076 5.3715C1.03559 5.15198 1.33321 5.0285 1.64365 5.02814H4.00953C4.07166 5.02814 4.13125 5.00345 4.17519 4.95951C4.21913 4.91557 4.24381 4.85598 4.24381 4.79385C4.24381 4.73171 4.21913 4.67213 4.17519 4.62819C4.13125 4.58425 4.07166 4.55957 4.00953 4.55957H1.64412C1.20944 4.56006 0.79271 4.73295 0.485348 5.04031C0.177987 5.34767 0.00509642 5.7644 0.00460815 6.19907L0.00460815 9.80553C0.00509642 10.2402 0.177987 10.6569 0.485348 10.9643C0.79271 11.2717 1.20944 11.4446 1.64412 11.445H3.04611L4.00814 12.4071C4.04091 12.4398 4.08263 12.4621 4.12806 12.4711C4.17348 12.4801 4.22055 12.4755 4.26334 12.4578C4.30612 12.4401 4.3427 12.4101 4.36844 12.3716C4.39419 12.3331 4.40795 12.2878 4.40799 12.2415V11.445H6.70238C7.13705 11.4446 7.55378 11.2717 7.86115 10.9643C8.16851 10.6569 8.3414 10.2402 8.34189 9.80553V8.19139C8.34213 8.16047 8.33625 8.12981 8.32458 8.10117C8.31292 8.07253 8.2957 8.04649 8.27392 8.02454C8.25214 8.00258 8.22623 7.98517 8.19769 7.97328C8.16914 7.96139 8.13853 7.95527 8.1076 7.95527Z" fill="white" stroke="#003366" stroke-width="0.00922367"/>
<path d="M8.59139 0.484375H7.99877C7.09597 0.484375 6.23016 0.843009 5.59178 1.48138C4.95341 2.11976 4.59477 2.98558 4.59477 3.88837C4.59477 4.79117 4.95341 5.65699 5.59178 6.29536C6.23016 6.93373 7.09597 7.29237 7.99877 7.29237H8.59139C8.88287 7.29251 9.17316 7.25532 9.45519 7.18168L10.3314 8.05793C10.3642 8.09066 10.4059 8.11294 10.4513 8.12197C10.4968 8.13099 10.5438 8.12635 10.5866 8.10863C10.6294 8.09092 10.666 8.06092 10.6917 8.02243C10.7175 7.98393 10.7312 7.93868 10.7313 7.89237V6.53603C11.1031 6.23463 11.4078 5.85889 11.626 5.43288C11.8704 4.95482 11.9969 4.42526 11.9949 3.88837C11.994 2.98596 11.6351 2.12077 10.997 1.48262C10.3589 0.844475 9.49381 0.485474 8.59139 0.484375ZM10.3554 6.23487C10.3266 6.25683 10.3033 6.28517 10.2873 6.31766C10.2713 6.35014 10.263 6.3859 10.2632 6.42212V7.32604L9.68993 6.75325C9.65983 6.72321 9.62212 6.70193 9.58085 6.6917C9.53958 6.68146 9.49629 6.68265 9.45565 6.69514C9.17591 6.78096 8.88492 6.82449 8.59231 6.82427H7.99969C7.22116 6.82427 6.47453 6.515 5.92403 5.9645C5.37352 5.414 5.06426 4.66736 5.06426 3.88883C5.06426 3.11031 5.37352 2.36367 5.92403 1.81317C6.47453 1.26267 7.22116 0.953399 7.99969 0.953399H8.59231C9.20817 0.953334 9.80846 1.14697 10.3082 1.5069C10.8079 1.86683 11.1818 2.37482 11.3769 2.95896C11.572 3.54311 11.5784 4.17381 11.3952 4.76181C11.2121 5.34981 10.8486 5.8653 10.3563 6.23534L10.3554 6.23487Z" fill="white" stroke="#003366" stroke-width="0.00922367"/>
<path d="M9.34957 3.0473C9.33225 2.80926 9.22987 2.5854 9.0611 2.41664C8.89234 2.24787 8.66848 2.14547 8.43044 2.12816C8.29454 2.11812 8.15803 2.13643 8.02957 2.18192C7.90112 2.22741 7.78353 2.29909 7.68424 2.39242C7.585 2.48534 7.50586 2.59761 7.45169 2.7223C7.39751 2.84699 7.36946 2.98145 7.36926 3.1174C7.36926 3.17953 7.39393 3.23913 7.43787 3.28306C7.4818 3.327 7.5414 3.35168 7.60353 3.35168C7.66567 3.35168 7.72525 3.327 7.76919 3.28306C7.81312 3.23913 7.83781 3.17953 7.83781 3.1174C7.83788 3.04555 7.85274 2.9745 7.88146 2.90864C7.91018 2.84279 7.95216 2.78356 8.00476 2.73463C8.05737 2.6857 8.11949 2.64812 8.18725 2.62424C8.25501 2.60035 8.32695 2.59067 8.39861 2.5958C8.52347 2.60527 8.6408 2.65918 8.7293 2.74776C8.81781 2.83633 8.87162 2.9537 8.88099 3.07856C8.89037 3.20342 8.85467 3.32751 8.78038 3.42831C8.70609 3.5291 8.59814 3.59993 8.47609 3.62793C8.37697 3.64946 8.28824 3.70434 8.2247 3.7834C8.16116 3.86247 8.12666 3.96094 8.12697 4.06237V4.62501C8.12697 4.68715 8.15166 4.74673 8.19559 4.79067C8.23953 4.83461 8.29913 4.85929 8.36126 4.85929C8.4234 4.85929 8.48298 4.83461 8.52692 4.79067C8.57085 4.74673 8.59554 4.68715 8.59554 4.62501V4.07943C8.82328 4.02489 9.02419 3.89111 9.16234 3.70201C9.30048 3.51292 9.36685 3.28084 9.34957 3.0473Z" fill="white" stroke="#003366" stroke-width="0.00922367"/>
<path d="M8.52589 5.38542C8.48754 5.34711 8.43709 5.32329 8.38315 5.31801C8.3292 5.31273 8.2751 5.32632 8.23005 5.35646C8.185 5.3866 8.15179 5.43144 8.13609 5.48332C8.12039 5.5352 8.12316 5.59092 8.14394 5.64098C8.16472 5.69105 8.20221 5.73235 8.25003 5.75787C8.29786 5.78339 8.35306 5.79153 8.40621 5.78092C8.45937 5.7703 8.5072 5.74159 8.54155 5.69966C8.57591 5.65773 8.59466 5.60518 8.59461 5.55098C8.59436 5.4889 8.56967 5.42943 8.52589 5.38542Z" fill="white" stroke="#003366" stroke-width="0.00922367"/>
<path d="M6.44504 7.74414H1.50345C1.44132 7.74414 1.38173 7.76883 1.33779 7.81277C1.29386 7.8567 1.26917 7.91628 1.26917 7.97842C1.26917 8.04056 1.29386 8.10015 1.33779 8.14409C1.38173 8.18802 1.44132 8.2127 1.50345 8.2127H6.44504C6.50717 8.2127 6.56676 8.18802 6.6107 8.14409C6.65463 8.10015 6.67932 8.04056 6.67932 7.97842C6.67932 7.91628 6.65463 7.8567 6.6107 7.81277C6.56676 7.76883 6.50717 7.74414 6.44504 7.74414Z" fill="white" stroke="#003366" stroke-width="0.00922367"/>
<path d="M5.52359 9.05615H1.50345C1.44132 9.05615 1.38173 9.08084 1.33779 9.12478C1.29386 9.16871 1.26917 9.2283 1.26917 9.29043C1.26917 9.35257 1.29386 9.41216 1.33779 9.4561C1.38173 9.50004 1.44132 9.52471 1.50345 9.52471H5.52359C5.58573 9.52471 5.64532 9.50004 5.68925 9.4561C5.73319 9.41216 5.75787 9.35257 5.75787 9.29043C5.75787 9.2283 5.73319 9.16871 5.68925 9.12478C5.64532 9.08084 5.58573 9.05615 5.52359 9.05615Z" fill="white" stroke="#003366" stroke-width="0.00922367"/>
<path d="M4.92267 6.43262H1.50345C1.44132 6.43262 1.38173 6.4573 1.33779 6.50124C1.29386 6.54517 1.26917 6.60476 1.26917 6.6669C1.26917 6.72903 1.29386 6.78862 1.33779 6.83256C1.38173 6.87649 1.44132 6.90118 1.50345 6.90118H4.92267C4.98481 6.90118 5.0444 6.87649 5.08833 6.83256C5.13227 6.78862 5.15695 6.72903 5.15695 6.6669C5.15695 6.60476 5.13227 6.54517 5.08833 6.50124C5.0444 6.4573 4.98481 6.43262 4.92267 6.43262Z" fill="white" stroke="#003366" stroke-width="0.00922367"/>
</g>
</g>
</g>
<defs>
<clipPath id="clip0_1_547">
<rect width="12" height="12" fill="white" transform="translate(0 0.47998)"/>
</clipPath>
<clipPath id="clip1_1_547">
<rect width="12" height="12" fill="white" transform="translate(0 0.47998)"/>
</clipPath>
<clipPath id="clip2_1_547">
<rect width="12" height="12" fill="white" transform="translate(0 0.47998)"/>
</clipPath>
</defs>
</svg>
