<svg width="13" height="13" viewBox="0 0 13 13" fill="none" xmlns="http://www.w3.org/2000/svg">
<g clip-path="url(#clip0_1_521)">
<g clip-path="url(#clip1_1_521)">
<g clip-path="url(#clip2_1_521)">
<path d="M6.1603 0.148438C4.98472 0.149531 3.85761 0.617011 3.02635 1.44827C2.19509 2.27953 1.72761 3.40664 1.72652 4.58222C1.72652 7.65566 5.72848 11.693 5.89838 11.8635C5.9679 11.9326 6.06196 11.9714 6.16001 11.9714C6.25805 11.9714 6.35211 11.9326 6.42163 11.8635C6.59153 11.693 10.5935 7.65507 10.5935 4.58222C10.5924 3.40674 10.125 2.27972 9.29387 1.44848C8.46274 0.617236 7.33577 0.149687 6.1603 0.148438ZM6.1603 11.0677C5.27543 10.1239 2.46568 6.92948 2.46568 4.58222C2.46568 3.60234 2.85493 2.6626 3.54781 1.96973C4.24068 1.27685 5.18042 0.887598 6.1603 0.887598C7.14017 0.887598 8.07992 1.27685 8.77279 1.96973C9.46567 2.6626 9.85492 3.60234 9.85492 4.58222C9.85492 6.92712 7.04222 10.1233 6.1603 11.0677Z" fill="white" stroke="#003366" stroke-width="0.176974"/>
<path d="M6.16031 2.72705C5.79337 2.72705 5.43467 2.83586 5.12957 3.03972C4.82447 3.24358 4.58667 3.53333 4.44625 3.87234C4.30583 4.21135 4.26909 4.58438 4.34067 4.94427C4.41226 5.30416 4.58896 5.63474 4.84842 5.8942C5.10789 6.15367 5.43847 6.33036 5.79836 6.40195C6.15825 6.47354 6.53128 6.4368 6.87029 6.29637C7.20929 6.15595 7.49905 5.91816 7.70291 5.61306C7.90677 5.30796 8.01557 4.94926 8.01557 4.58232C8.01495 4.09047 7.81928 3.61893 7.47149 3.27114C7.12369 2.92334 6.65216 2.72768 6.16031 2.72705ZM6.16031 5.81937C5.91529 5.81937 5.67578 5.74672 5.47205 5.61059C5.26833 5.47447 5.10955 5.28099 5.01578 5.05463C4.92202 4.82826 4.89749 4.57918 4.94529 4.33887C4.99309 4.09857 5.11108 3.87783 5.28433 3.70458C5.45758 3.53133 5.67831 3.41334 5.91862 3.36554C6.15893 3.31774 6.40802 3.34227 6.63438 3.43604C6.86074 3.5298 7.05422 3.68858 7.19034 3.89231C7.32646 4.09603 7.39912 4.33554 7.39912 4.58055C7.39912 4.90911 7.2686 5.22421 7.03628 5.45653C6.80396 5.68885 6.48886 5.81937 6.16031 5.81937Z" fill="white" stroke="#003366" stroke-width="0.117982"/>
</g>
</g>
</g>
<defs>
<clipPath id="clip0_1_521">
<rect width="12" height="12" fill="white" transform="translate(0.160004 0.0600586)"/>
</clipPath>
<clipPath id="clip1_1_521">
<rect width="12" height="12" fill="white" transform="translate(0.160004 0.0600586)"/>
</clipPath>
<clipPath id="clip2_1_521">
<rect width="9.04395" height="12" fill="white" transform="translate(1.63803 0.0600586)"/>
</clipPath>
</defs>
</svg>
