<svg width="24" height="24" viewBox="0 0 24 24" fill="none" xmlns="http://www.w3.org/2000/svg">
  <path d="M3 3H21V5H3V3Z" fill="#D5322A"/>
  <path d="M3 19H21V21H3V19Z" fill="#D5322A"/>
  <path d="M3 3V21H5V3H3Z" fill="#D5322A"/>
  <path d="M19 3V21H21V3H19Z" fill="#D5322A"/>
  <path d="M7 7H17V9H7V7Z" fill="#D5322A" fill-opacity="0.7"/>
  <path d="M7 11H17V13H7V11Z" fill="#D5322A" fill-opacity="0.5"/>
  <path d="M7 15H17V17H7V15Z" fill="#D5322A" fill-opacity="0.3"/>
  <circle cx="12" cy="12" r="2" fill="none" stroke="#D5322A" stroke-width="1"/>
  <path d="M10 6L12 4L14 6" stroke="#D5322A" stroke-width="1.5" stroke-linecap="round" stroke-linejoin="round"/>
  <path d="M14 18L12 20L10 18" stroke="#D5322A" stroke-width="1.5" stroke-linecap="round" stroke-linejoin="round"/>
  <path d="M6 10L4 12L6 14" stroke="#D5322A" stroke-width="1.5" stroke-linecap="round" stroke-linejoin="round"/>
  <path d="M18 14L20 12L18 10" stroke="#D5322A" stroke-width="1.5" stroke-linecap="round" stroke-linejoin="round"/>
</svg>
