<svg width="24" height="24" viewBox="0 0 24 24" fill="none" xmlns="http://www.w3.org/2000/svg">
  <path d="M22.7 19L13.6 9.9C13.2 9.5 12.6 9.5 12.2 9.9L9.9 12.2C9.5 12.6 9.5 13.2 9.9 13.6L19 22.7C19.4 23.1 20 23.1 20.4 22.7L22.7 20.4C23.1 20 23.1 19.4 22.7 19Z" fill="#D5322A"/>
  <path d="M9 13L8 12L12 8L13 9C13.6 9.6 14.4 9.6 15 9L16 8L20 12L19 13C18.4 13.6 18.4 14.4 19 15L20 16L16 20L15 19C14.4 18.4 13.6 18.4 13 19L12 20L8 16L9 15C9.6 14.4 9.6 13.6 9 13Z" fill="#D5322A" fill-opacity="0.7"/>
  <path d="M2 2L6 6M6 2L2 6" stroke="#D5322A" stroke-width="2" stroke-linecap="round"/>
  <path d="M11 5C11 5.55 10.55 6 10 6C9.45 6 9 5.55 9 5C9 4.45 9.45 4 10 4C10.55 4 11 4.45 11 5Z" fill="#D5322A"/>
  <path d="M7 9C7 9.55 6.55 10 6 10C5.45 10 5 9.55 5 9C5 8.45 5.45 8 6 8C6.55 8 7 8.45 7 9Z" fill="#D5322A"/>
</svg>
