<svg width="79" height="79" viewBox="0 0 79 79" fill="none" xmlns="http://www.w3.org/2000/svg">
<g filter="url(#filter0_d_1_2554)">
<path d="M39.5 73.3501C59.3823 73.3501 75.5 57.2323 75.5 37.3501C75.5 17.4678 59.3823 1.3501 39.5 1.3501C19.6177 1.3501 3.5 17.4678 3.5 37.3501C3.5 57.2323 19.6177 73.3501 39.5 73.3501Z" fill="white"/>
</g>
<path d="M47.6399 32.9888H59.1599L62.9999 44.5088V53.1488H58.1039" stroke="#2F3337" stroke-width="2.7" stroke-miterlimit="10" stroke-linecap="round"/>
<path d="M48.696 53.1489H36.0979" stroke="#2F3337" stroke-width="2.7" stroke-miterlimit="10" stroke-linecap="round"/>
<path d="M42.8401 26.2681H47.6401V45.4681" stroke="#2F3337" stroke-width="2.7" stroke-miterlimit="10" stroke-linecap="round"/>
<path d="M25.56 53.1484H20.76V42.5884" stroke="#2F3337" stroke-width="2.7" stroke-miterlimit="10" stroke-linecap="round"/>
<path d="M30.8401 58.9081C33.7561 58.9081 36.1201 56.5442 36.1201 53.6281C36.1201 50.7121 33.7561 48.3481 30.8401 48.3481C27.924 48.3481 25.5601 50.7121 25.5601 53.6281C25.5601 56.5442 27.924 58.9081 30.8401 58.9081Z" stroke="#2F3337" stroke-width="2.7" stroke-miterlimit="10" stroke-linecap="round"/>
<path d="M53.4001 58.9081C56.0511 58.9081 58.2001 56.7591 58.2001 54.1081C58.2001 51.4571 56.0511 49.3081 53.4001 49.3081C50.7491 49.3081 48.6001 51.4571 48.6001 54.1081C48.6001 56.7591 50.7491 58.9081 53.4001 58.9081Z" stroke="#2F3337" stroke-width="2.7" stroke-miterlimit="10" stroke-linecap="round"/>
<path d="M26.52 38.7485C32.8823 38.7485 38.04 33.5908 38.04 27.2285C38.04 20.8662 32.8823 15.7085 26.52 15.7085C20.1577 15.7085 15 20.8662 15 27.2285C15 33.5908 20.1577 38.7485 26.52 38.7485Z" stroke="#3B2F2F" stroke-width="2.7" stroke-miterlimit="10" stroke-linecap="round"/>
<path d="M26.52 22.4282V27.2282H30.36" stroke="#3B2F2F" stroke-width="2.7" stroke-miterlimit="10" stroke-linecap="round"/>
<defs>
<filter id="filter0_d_1_2554" x="0.5" y="0.350098" width="78" height="78" filterUnits="userSpaceOnUse" color-interpolation-filters="sRGB">
<feFlood flood-opacity="0" result="BackgroundImageFix"/>
<feColorMatrix in="SourceAlpha" type="matrix" values="0 0 0 0 0 0 0 0 0 0 0 0 0 0 0 0 0 0 127 0" result="hardAlpha"/>
<feOffset dy="2"/>
<feGaussianBlur stdDeviation="1.5"/>
<feComposite in2="hardAlpha" operator="out"/>
<feColorMatrix type="matrix" values="0 0 0 0 0 0 0 0 0 0 0 0 0 0 0 0 0 0 0.25 0"/>
<feBlend mode="normal" in2="BackgroundImageFix" result="effect1_dropShadow_1_2554"/>
<feBlend mode="normal" in="SourceGraphic" in2="effect1_dropShadow_1_2554" result="shape"/>
</filter>
</defs>
</svg>
