<svg width="18" height="20" viewBox="0 0 18 20" fill="none" xmlns="http://www.w3.org/2000/svg">
<path d="M9.6132 0.186035H12.9012C12.9012 0.186035 12.7128 4.39804 17.4552 4.70764V7.96084C17.4552 7.96084 14.9184 8.11564 12.9 6.57124L12.9336 13.2984C12.9338 14.5029 12.5768 15.6804 11.9076 16.6818C11.2384 17.6833 10.2871 18.4638 9.17423 18.9244C8.06133 19.3851 6.83678 19.5052 5.65556 19.2697C4.47434 19.0342 3.38954 18.4535 2.53844 17.6012C1.68734 16.749 1.10819 15.6634 0.874286 14.4818C0.640382 13.3003 0.762238 12.0759 1.22443 10.9636C1.68662 9.85136 2.46838 8.90121 3.47077 8.23339C4.47316 7.56558 5.65112 7.21014 6.8556 7.21204H7.70519V10.554C7.15096 10.3823 6.55669 10.3899 6.00697 10.5755C5.45724 10.7611 4.98008 11.1154 4.64339 11.588C4.3067 12.0605 4.12764 12.6272 4.13169 13.2074C4.13574 13.7876 4.3227 14.3518 4.66596 14.8195C5.00922 15.2873 5.49128 15.6349 6.04355 15.8129C6.59581 15.9908 7.19012 15.99 7.74191 15.8106C8.29369 15.6312 8.77483 15.2823 9.11684 14.8136C9.45884 14.3449 9.64429 13.7803 9.6468 13.2L9.6132 0.186035Z" fill="#4E504F"/>
</svg>
