<svg width="13" height="14" viewBox="0 0 13 14" fill="none" xmlns="http://www.w3.org/2000/svg">
<path fill-rule="evenodd" clip-rule="evenodd" d="M10.0577 3.21239C8.09281 1.24756 4.90719 1.24756 2.94236 3.21239C0.977542 5.17721 0.977542 8.36282 2.94237 10.3277C4.90719 12.2925 8.09281 12.2925 10.0577 10.3277C12.0225 8.36282 12.0225 5.17721 10.0577 3.21239ZM2.01429 2.28431C4.49167 -0.193079 8.5083 -0.193079 10.9857 2.28431C13.4631 4.7617 13.4631 8.77832 10.9857 11.2557C8.5083 13.7331 4.49168 13.7331 2.0143 11.2557C-0.463096 8.77832 -0.463098 4.7617 2.01429 2.28431ZM6.5 6.11377C6.86243 6.11377 7.15625 6.40759 7.15625 6.77002V9.39502C7.15625 9.75744 6.86243 10.0513 6.5 10.0513C6.13757 10.0513 5.84375 9.75744 5.84375 9.39502V6.77002C5.84375 6.40759 6.13757 6.11377 6.5 6.11377ZM6.5 3.27002C6.01676 3.27002 5.625 3.66177 5.625 4.14502C5.625 4.62826 6.01676 5.02002 6.5 5.02002C6.98324 5.02002 7.375 4.62826 7.375 4.14502C7.375 3.66177 6.98324 3.27002 6.5 3.27002Z" fill="#666666"/>
</svg>
