<svg width="21" height="19" viewBox="0 0 21 19" fill="none" xmlns="http://www.w3.org/2000/svg">
<path d="M18.2908 2.93087C17.767 2.40738 17.1334 2.00679 16.4359 1.75804C15.7383 1.50929 14.9943 1.4186 14.2574 1.49252C13.5205 1.56644 12.8093 1.80312 12.175 2.18546C11.5408 2.5678 10.9994 3.08626 10.59 3.70337C10.2042 3.12035 9.70046 2.62471 9.11125 2.24845C8.52203 1.87219 7.86047 1.62368 7.16926 1.51895C6.47804 1.41422 5.77255 1.4556 5.09833 1.64043C4.4241 1.82526 3.79613 2.14942 3.25495 2.59199C2.71377 3.03456 2.27142 3.5857 1.95645 4.20983C1.64147 4.83395 1.46088 5.51719 1.42634 6.21544C1.39179 6.91369 1.50405 7.61142 1.75588 8.26359C2.0077 8.91576 2.39349 9.50787 2.88834 10.0017L10.5892 17.7042L18.2917 10.0017C19.2293 9.06403 19.756 7.79231 19.756 6.46628C19.756 5.14026 19.2293 3.86854 18.2917 2.93087H18.2908Z" stroke="#2F3337" stroke-width="1.66667" stroke-miterlimit="10" stroke-linecap="round" stroke-linejoin="round"/>
</svg>
