<svg width="14" height="15" viewBox="0 0 14 15" fill="none" xmlns="http://www.w3.org/2000/svg">
<path d="M6.11 2.37458C5.33451 2.37458 4.56662 2.52732 3.85016 2.82409C3.1337 3.12085 2.48271 3.55583 1.93436 4.10418C1.386 4.65254 0.951027 5.30353 0.65426 6.01998C0.357494 6.73644 0.20475 7.50434 0.20475 8.27983C0.20475 9.05531 0.357494 9.82321 0.65426 10.5397C0.951027 11.2561 1.386 11.9071 1.93436 12.4555C2.48271 13.0038 3.1337 13.4388 3.85016 13.7356C4.56662 14.0323 5.33451 14.1851 6.11 14.1851C7.67617 14.1851 9.17819 13.5629 10.2856 12.4555C11.3931 11.348 12.0153 9.84599 12.0153 8.27983C12.0153 6.71366 11.3931 5.21163 10.2856 4.10418C9.17819 2.99673 7.67617 2.37458 6.11 2.37458ZM6.11 12.1132C5.09334 12.1132 4.11831 11.7093 3.39942 10.9904C2.68053 10.2715 2.27667 9.29649 2.27667 8.27983C2.27667 7.26316 2.68053 6.28814 3.39942 5.56925C4.11831 4.85036 5.09334 4.44649 6.11 4.44649C7.12666 4.44649 8.10169 4.85036 8.82058 5.56925C9.53946 6.28814 9.94333 7.26316 9.94333 8.27983C9.94333 9.29649 9.53946 10.2715 8.82058 10.9904C8.10169 11.7093 7.12666 12.1132 6.11 12.1132ZM12.2491 3.52074C12.6151 3.52074 12.9661 3.37535 13.2249 3.11655C13.4837 2.85775 13.6291 2.50674 13.6291 2.14074C13.6291 1.77474 13.4837 1.42374 13.2249 1.16493C12.9661 0.906135 12.6151 0.760742 12.2491 0.760742C11.8831 0.760742 11.5321 0.906135 11.2733 1.16493C11.0145 1.42374 10.8691 1.77474 10.8691 2.14074C10.8691 2.50674 11.0145 2.85775 11.2733 3.11655C11.5321 3.37535 11.8831 3.52074 12.2491 3.52074Z" fill="white"/>
</svg>
