<svg width="16" height="17" viewBox="0 0 16 17" fill="none" xmlns="http://www.w3.org/2000/svg">
<path d="M12.2086 4.30595C12.0138 4.10471 11.7758 3.95024 11.5127 3.85415C11.1538 3.73015 10.7786 3.65977 10.3992 3.64529C9.77257 3.61011 9.5989 3.61011 7.99945 3.61011H5.6338C5.25435 3.62459 4.87912 3.69498 4.52023 3.81898C4.25934 3.91942 4.0224 4.07344 3.82472 4.27111C3.62705 4.46879 3.47301 4.70573 3.37257 4.96662C3.24867 5.32517 3.17829 5.70003 3.16371 6.0791C3.12853 6.70569 3.12855 6.87937 3.12855 8.47882V10.8434C3.14314 11.2224 3.21352 11.5973 3.33741 11.9558C3.43786 12.2167 3.59189 12.4537 3.78957 12.6513C3.98724 12.849 4.22418 13.003 4.48507 13.1035C4.84396 13.2275 5.21919 13.2979 5.59864 13.3123C6.22523 13.3475 6.39889 13.3475 7.99834 13.3475H10.364C10.7434 13.333 11.1187 13.2627 11.4776 13.1387C11.7385 13.0382 11.9754 12.8842 12.1731 12.6865C12.3708 12.4888 12.5248 12.2519 12.6252 11.991C12.7491 11.6325 12.8195 11.2576 12.8341 10.8785C12.8693 10.252 12.8692 10.0783 12.8692 8.47882V6.11427C12.8547 5.7352 12.7843 5.36033 12.6604 5.00179C12.5643 4.73868 12.4098 4.50078 12.2086 4.30595ZM7.99945 11.6096C7.38025 11.6096 6.77494 11.426 6.26009 11.0819C5.74524 10.7379 5.34396 10.249 5.107 9.6769C4.87004 9.10483 4.80807 8.47535 4.92887 7.86804C5.04967 7.26074 5.34782 6.70289 5.78566 6.26505C6.22351 5.82721 6.78135 5.52902 7.38866 5.40822C7.99596 5.28742 8.62546 5.34943 9.19753 5.58639C9.7696 5.82335 10.2585 6.22461 10.6026 6.73946C10.9466 7.25431 11.1302 7.85962 11.1302 8.47882C11.1321 8.89054 11.0524 9.29854 10.8958 9.67929C10.7391 10.06 10.5086 10.406 10.2175 10.6972C9.92642 10.9884 9.58054 11.219 9.19984 11.3758C8.81914 11.5326 8.41117 11.6124 7.99945 11.6107V11.6096ZM11.1302 6.04501C10.9926 6.04501 10.858 6.00421 10.7436 5.92775C10.6292 5.85129 10.54 5.74261 10.4873 5.61546C10.4347 5.48831 10.4209 5.34839 10.4477 5.21341C10.4746 5.07843 10.5408 4.95445 10.6381 4.85714C10.7355 4.75982 10.8595 4.69354 10.9945 4.66669C11.1294 4.63984 11.2693 4.65362 11.3965 4.70629C11.5236 4.75896 11.6323 4.84814 11.7088 4.96258C11.7852 5.07701 11.826 5.21155 11.826 5.34917C11.826 5.44055 11.808 5.53103 11.7731 5.61546C11.7381 5.69988 11.6868 5.77658 11.6222 5.8412C11.5576 5.90581 11.4809 5.95707 11.3965 5.99204C11.3121 6.02701 11.2216 6.04501 11.1302 6.04501ZM12.5219 0.480469H3.4814C2.55975 0.483079 1.67661 0.85036 1.0249 1.50207C0.373189 2.15378 0.00589115 3.03694 0.00328064 3.95859V13.0013C0.00647078 13.9225 0.374023 14.8051 1.02567 15.4563C1.67731 16.1076 2.56013 16.4746 3.4814 16.4772H12.5252C13.4468 16.4746 14.33 16.1073 14.9817 15.4556C15.6334 14.8039 16.0007 13.9207 16.0033 12.9991V3.95639C16.0001 3.03455 15.6321 2.15145 14.9797 1.50012C14.3274 0.848795 13.4437 0.482206 12.5219 0.480469ZM13.8784 10.9148C13.8606 11.4027 13.7668 11.8849 13.6003 12.3439C13.4345 12.7315 13.1986 13.0852 12.9044 13.3871C12.6213 13.7037 12.2623 13.9431 11.8612 14.0829C11.4022 14.2495 10.9201 14.3433 10.4321 14.3611C9.80555 14.3962 9.59779 14.3962 7.99724 14.3962C6.39669 14.3962 6.18893 14.3962 5.56234 14.3611C5.07441 14.3433 4.59226 14.2495 4.13329 14.0829C3.74568 13.9172 3.39201 13.6813 3.09007 13.3871C2.77347 13.1039 2.53404 12.745 2.39423 12.3439C2.22773 11.8849 2.13391 11.4027 2.11612 10.9148C2.08095 10.2893 2.08093 10.0805 2.08093 8.47991C2.08093 6.87936 2.08095 6.6716 2.11612 6.04501C2.13391 5.55709 2.22773 5.07493 2.39423 4.61595C2.56846 4.23299 2.80343 3.88071 3.09007 3.57273C3.37323 3.25613 3.73221 3.01669 4.13329 2.87689C4.59226 2.71034 5.07441 2.61651 5.56234 2.59878C6.18893 2.5636 6.39669 2.56359 7.99724 2.56359C9.59779 2.56359 9.80555 2.5636 10.4321 2.59878C10.9201 2.61651 11.4023 2.71034 11.8612 2.87689C12.2442 3.0511 12.5965 3.28607 12.9044 3.57273C13.221 3.85589 13.4605 4.21486 13.6003 4.61595C13.7668 5.07492 13.8606 5.55709 13.8784 6.04501C13.9136 6.6716 13.9136 6.87936 13.9136 8.47991C13.9136 10.0805 13.9125 10.2882 13.8784 10.9148ZM10.087 8.47991C10.087 8.893 9.96449 9.29682 9.73499 9.6403C9.50549 9.98377 9.17929 10.2515 8.79764 10.4096C8.416 10.5676 7.99603 10.609 7.59088 10.5284C7.18572 10.4478 6.81356 10.2489 6.52146 9.9568C6.22936 9.6647 6.03044 9.29255 5.94984 8.88739C5.86925 8.48224 5.91062 8.06228 6.0687 7.68063C6.22679 7.29898 6.4945 6.97279 6.83798 6.74328C7.18145 6.51378 7.58525 6.39129 7.99834 6.39129C8.27263 6.39129 8.54424 6.44531 8.79764 6.55027C9.05105 6.65523 9.28128 6.80908 9.47523 7.00302C9.66918 7.19697 9.82302 7.42723 9.92799 7.68063C10.033 7.93403 10.087 8.20563 10.087 8.47991Z" fill="white"/>
</svg>
