<svg width="17" height="17" viewBox="0 0 17 17" fill="none" xmlns="http://www.w3.org/2000/svg">
<path d="M9.91333 2.74658H15.9133M1.24667 2.74658H3.24667M3.24667 2.74658C3.24667 2.21615 3.45738 1.70744 3.83245 1.33237C4.20753 0.957296 4.71623 0.746582 5.24667 0.746582C5.50931 0.746582 5.76938 0.798314 6.01203 0.898823C6.25468 0.999332 6.47516 1.14665 6.66088 1.33237C6.8466 1.51809 6.99392 1.73856 7.09443 1.98122C7.19493 2.22387 7.24667 2.48394 7.24667 2.74658C7.24667 3.00923 7.19493 3.2693 7.09443 3.51195C6.99392 3.7546 6.8466 3.97508 6.66088 4.1608C6.47516 4.34651 6.25468 4.49383 6.01203 4.59434C5.76938 4.69485 5.50931 4.74658 5.24667 4.74658C4.71623 4.74658 4.20753 4.53587 3.83245 4.1608C3.45738 3.78572 3.24667 3.27702 3.24667 2.74658ZM15.2467 8.07992H15.9133M1.24667 8.07992H8.58M8.58 8.07992C8.58 7.54948 8.79071 7.04077 9.16579 6.6657C9.54086 6.29063 10.0496 6.07992 10.58 6.07992C11.1104 6.07992 11.6191 6.29063 11.9942 6.6657C12.3693 7.04077 12.58 7.54948 12.58 8.07992C12.58 8.61035 12.3693 9.11906 11.9942 9.49413C11.6191 9.8692 11.1104 10.0799 10.58 10.0799C10.0496 10.0799 9.54086 9.8692 9.16579 9.49413C8.79071 9.11906 8.58 8.61035 8.58 8.07992ZM9.91333 13.4132H15.9133M1.24667 13.4132H3.24667M3.24667 13.4132C3.24667 12.8828 3.45738 12.3741 3.83245 11.999C4.20753 11.624 4.71623 11.4132 5.24667 11.4132C5.7771 11.4132 6.28581 11.624 6.66088 11.999C7.03595 12.3741 7.24667 12.8828 7.24667 13.4132C7.24667 13.9437 7.03595 14.4524 6.66088 14.8275C6.28581 15.2025 5.7771 15.4132 5.24667 15.4132C4.71623 15.4132 4.20753 15.2025 3.83245 14.8275C3.45738 14.4524 3.24667 13.9437 3.24667 13.4132Z" stroke="#2F3337" stroke-width="1.33333" stroke-miterlimit="10" stroke-linecap="round" stroke-linejoin="round"/>
</svg>
