<svg width="8" height="8" viewBox="0 0 8 8" fill="none" xmlns="http://www.w3.org/2000/svg">
<path d="M7.0245 0.879883H0.77475C0.663386 0.880371 0.554166 0.910547 0.458347 0.967301C0.362528 1.02405 0.283576 1.10533 0.229629 1.20276C0.175681 1.30019 0.14869 1.41024 0.151436 1.52157C0.154181 1.6329 0.186565 1.74148 0.24525 1.83613L3.36975 6.83563C3.42599 6.92552 3.50416 6.99963 3.59692 7.05101C3.68967 7.10239 3.79397 7.12934 3.9 7.12934C4.00603 7.12934 4.11033 7.10239 4.20308 7.05101C4.29583 6.99963 4.374 6.92552 4.43025 6.83563L7.55475 1.83613C7.61372 1.74148 7.64631 1.63277 7.64915 1.52129C7.65198 1.4098 7.62496 1.29958 7.57088 1.20205C7.5168 1.10452 7.43762 1.02322 7.34155 0.966574C7.24549 0.909929 7.13602 0.879999 7.0245 0.879883Z" fill="#2F3337"/>
</svg>
