<svg width="29" height="12" viewBox="0 0 29 12" fill="none" xmlns="http://www.w3.org/2000/svg">
<path d="M3.0744 7.73216C3.0744 8.06816 3.135 8.35286 3.2564 8.58616C3.3777 8.81946 3.5364 9.01086 3.7324 9.16016C3.9377 9.30016 4.1757 9.40746 4.4464 9.48216C4.717 9.54746 4.997 9.58016 5.2864 9.58016C5.4824 9.58016 5.6924 9.56616 5.9164 9.53816C6.1404 9.50086 6.3504 9.43546 6.5464 9.34216C6.7424 9.24886 6.9057 9.12286 7.0364 8.96416C7.167 8.79616 7.2324 8.58616 7.2324 8.33416C7.2324 8.06346 7.1437 7.84416 6.9664 7.67616C6.7984 7.50816 6.5744 7.36816 6.2944 7.25616C6.0144 7.14416 5.697 7.04616 5.3424 6.96216C4.9877 6.87816 4.6284 6.78486 4.2644 6.68216C3.891 6.58886 3.527 6.47686 3.1724 6.34616C2.8177 6.20616 2.5004 6.02886 2.22035 5.81416C1.94035 5.59946 1.71168 5.33346 1.53435 5.01616C1.36635 4.68946 1.28235 4.29746 1.28235 3.84016C1.28235 3.32686 1.38968 2.88346 1.60435 2.51016C1.82835 2.12746 2.11768 1.81016 2.47235 1.55816C2.827 1.30616 3.2284 1.11946 3.6764 0.998162C4.1244 0.876862 4.5724 0.816162 5.0204 0.816162C5.543 0.816162 6.0424 0.876862 6.5184 0.998162C7.0037 1.11016 7.433 1.29686 7.8064 1.55816C8.1797 1.81946 8.4737 2.15546 8.6884 2.56616C8.9124 2.96746 9.0244 3.45746 9.0244 4.03616H6.8964C6.8777 3.73746 6.8124 3.49016 6.7004 3.29416C6.5977 3.09816 6.4577 2.94416 6.2804 2.83216C6.103 2.72016 5.8977 2.64086 5.6644 2.59416C5.4404 2.54746 5.193 2.52416 4.9224 2.52416C4.745 2.52416 4.5677 2.54286 4.3904 2.58016C4.213 2.61746 4.0497 2.68286 3.9004 2.77616C3.7604 2.86946 3.6437 2.98616 3.5504 3.12616C3.457 3.26616 3.4104 3.44346 3.4104 3.65816C3.4104 3.85416 3.4477 4.01286 3.5224 4.13416C3.597 4.25546 3.7417 4.36746 3.9564 4.47016C4.1804 4.57286 4.4837 4.67546 4.8664 4.77816C5.2584 4.88086 5.767 5.01146 6.3924 5.17016C6.579 5.20746 6.8357 5.27746 7.1624 5.38016C7.4984 5.47346 7.8297 5.62746 8.1564 5.84216C8.483 6.05686 8.763 6.34616 8.9964 6.71016C9.23901 7.06486 9.3604 7.52216 9.3604 8.08216C9.3604 8.53946 9.2717 8.96416 9.0944 9.35616C8.917 9.74816 8.651 10.0889 8.2964 10.3782C7.951 10.6582 7.517 10.8775 6.9944 11.0362C6.481 11.1949 5.8837 11.2742 5.2024 11.2742C4.6517 11.2742 4.115 11.2042 3.5924 11.0642C3.079 10.9335 2.6217 10.7235 2.22035 10.4342C1.82835 10.1449 1.51568 9.77616 1.28235 9.32816C1.04902 8.88016 0.937024 8.34816 0.946354 7.73216H3.0744ZM10.3741 6.03816C10.4021 5.57146 10.5188 5.18416 10.7241 4.87616C10.9295 4.56816 11.1908 4.32086 11.5081 4.13416C11.8255 3.94746 12.1801 3.81686 12.5721 3.74216C12.9735 3.65816 13.3748 3.61616 13.7761 3.61616C14.1401 3.61616 14.5088 3.64416 14.8821 3.70016C15.2555 3.74686 15.5961 3.84486 15.9041 3.99416C16.2121 4.14346 16.4641 4.35346 16.6601 4.62416C16.8561 4.88546 16.9541 5.23546 16.9541 5.67416V9.44016C16.9541 9.76686 16.9728 10.0795 17.0101 10.3782C17.0475 10.6769 17.1128 10.9009 17.2061 11.0502H15.1901C15.1528 10.9382 15.1201 10.8262 15.0921 10.7142C15.0735 10.5929 15.0595 10.4715 15.0501 10.3502C14.7328 10.6769 14.3595 10.9055 13.9301 11.0362C13.5008 11.1669 13.0621 11.2322 12.6141 11.2322C12.2688 11.2322 11.9468 11.1902 11.6481 11.1062C11.3495 11.0222 11.0881 10.8915 10.8641 10.7142C10.6401 10.5369 10.4628 10.3129 10.3321 10.0422C10.2108 9.77146 10.1501 9.44946 10.1501 9.07616C10.1501 8.66546 10.2201 8.32946 10.3601 8.06816C10.5095 7.79746 10.6961 7.58286 10.9201 7.42416C11.1535 7.26546 11.4148 7.14886 11.7041 7.07416C12.0028 6.99016 12.3015 6.92486 12.6001 6.87816C12.8988 6.83146 13.1928 6.79416 13.4821 6.76616C13.7715 6.73816 14.0281 6.69616 14.2521 6.64016C14.4761 6.58416 14.6535 6.50486 14.7841 6.40216C14.9148 6.29016 14.9755 6.13146 14.9661 5.92616C14.9661 5.71146 14.9288 5.54346 14.8541 5.42216C14.7888 5.29146 14.6955 5.19346 14.5741 5.12816C14.4621 5.05346 14.3268 5.00686 14.1681 4.98816C14.0188 4.96016 13.8555 4.94616 13.6781 4.94616C13.2861 4.94616 12.9781 5.03016 12.7541 5.19816C12.5301 5.36616 12.3995 5.64616 12.3621 6.03816H10.3741ZM14.9661 7.50816C14.8821 7.58286 14.7748 7.64346 14.6441 7.69016C14.5228 7.72746 14.3875 7.76016 14.2381 7.78816C14.0981 7.81616 13.9488 7.83946 13.7901 7.85816C13.6315 7.87686 13.4728 7.90016 13.3141 7.92816C13.1648 7.95616 13.0155 7.99346 12.8661 8.04016C12.7261 8.08686 12.6001 8.15216 12.4881 8.23616C12.3855 8.31086 12.3015 8.40886 12.2361 8.53016C12.1708 8.65146 12.1381 8.80546 12.1381 8.99216C12.1381 9.16946 12.1708 9.31886 12.2361 9.44016C12.3015 9.56146 12.3901 9.65946 12.5021 9.73416C12.6141 9.79946 12.7448 9.84616 12.8941 9.87416C13.0435 9.90216 13.1975 9.91616 13.3561 9.91616C13.7481 9.91616 14.0515 9.85086 14.2661 9.72016C14.4808 9.58946 14.6395 9.43546 14.7421 9.25816C14.8448 9.07146 14.9055 8.88486 14.9241 8.69816C14.9521 8.51146 14.9661 8.36216 14.9661 8.25016V7.50816ZM18.5532 1.05416H20.5412V11.0502H18.5532V1.05416ZM26.9786 6.65416C26.8853 6.15016 26.7173 5.76746 26.4746 5.50616C26.2413 5.24486 25.8819 5.11416 25.3966 5.11416C25.0793 5.11416 24.8133 5.17016 24.5986 5.28216C24.3933 5.38486 24.2253 5.51546 24.0946 5.67416C23.9733 5.83286 23.8846 6.00086 23.8286 6.17816C23.7819 6.35546 23.7539 6.51416 23.7446 6.65416H26.9786ZM23.7446 7.91416C23.7726 8.55816 23.9359 9.02486 24.2346 9.31416C24.5333 9.60346 24.9626 9.74816 25.5226 9.74816C25.9239 9.74816 26.2693 9.65016 26.5586 9.45416C26.8479 9.24886 27.0253 9.03416 27.0906 8.81016H28.8406C28.5606 9.67816 28.1313 10.2989 27.5526 10.6722C26.9739 11.0455 26.2739 11.2322 25.4526 11.2322C24.8833 11.2322 24.3699 11.1435 23.9126 10.9662C23.4553 10.7795 23.0679 10.5182 22.7506 10.1822C22.4333 9.84616 22.1859 9.44486 22.0086 8.97816C21.8406 8.51146 21.7566 7.99816 21.7566 7.43816C21.7566 6.89686 21.8453 6.39286 22.0226 5.92616C22.1999 5.45946 22.4519 5.05816 22.7786 4.72216C23.1053 4.37686 23.4926 4.10616 23.9406 3.91016C24.3979 3.71416 24.9019 3.61616 25.4526 3.61616C26.0686 3.61616 26.6053 3.73746 27.0626 3.98016C27.5199 4.21346 27.8933 4.53086 28.1826 4.93216C28.4813 5.33346 28.6959 5.79086 28.8266 6.30416C28.9573 6.81746 29.0039 7.35416 28.9666 7.91416H23.7446Z" fill="white"/>
</svg>
