<svg width="20" height="20" viewBox="0 0 20 20" fill="none" xmlns="http://www.w3.org/2000/svg">
<path d="M4.15 18.6798V15.0798H1.6C1.33478 15.0798 1.08043 14.9745 0.892892 14.7869C0.705356 14.5994 0.599998 14.3451 0.599998 14.0798V2.07983C0.599998 1.81462 0.705356 1.56026 0.892892 1.37273C1.08043 1.18519 1.33478 1.07983 1.6 1.07983H18.4C18.6652 1.07983 18.9196 1.18519 19.1071 1.37273C19.2946 1.56026 19.4 1.81462 19.4 2.07983V14.0798C19.4 14.3451 19.2946 14.5994 19.1071 14.7869C18.9196 14.9745 18.6652 15.0798 18.4 15.0798H7.6L4.15 18.6798Z" stroke="white" stroke-width="1.1" stroke-linecap="round" stroke-linejoin="round"/>
</svg>
