<svg width="15" height="14" viewBox="0 0 15 14" fill="none" xmlns="http://www.w3.org/2000/svg">
<path fill-rule="evenodd" clip-rule="evenodd" d="M1.78668 7C1.78668 3.77825 4.39826 1.16667 7.62001 1.16667C10.8418 1.16667 13.4533 3.77825 13.4533 7C13.4533 10.2217 10.8418 12.8333 7.62001 12.8333C4.39826 12.8333 1.78668 10.2217 1.78668 7ZM7.62001 0C3.75426 0 0.62001 3.13425 0.62001 7C0.62001 10.8657 3.75426 14 7.62001 14C11.4858 14 14.62 10.8657 14.62 7C14.62 3.13425 11.4858 0 7.62001 0ZM7.62001 4.66667C7.77472 4.66667 7.92309 4.60521 8.03249 4.49581C8.14189 4.38642 8.20334 4.23804 8.20334 4.08333C8.20334 3.92862 8.14189 3.78025 8.03249 3.67085C7.92309 3.56146 7.77472 3.5 7.62001 3.5C7.4653 3.5 7.31693 3.56146 7.20753 3.67085C7.09813 3.78025 7.03668 3.92862 7.03668 4.08333C7.03668 4.23804 7.09813 4.38642 7.20753 4.49581C7.31693 4.60521 7.4653 4.66667 7.62001 4.66667ZM7.03668 10.5H5.87001V9.33333H7.03668V7H5.87001V5.83333H8.20334V9.33333H9.37001V10.5H7.03668Z" fill="#2F3337"/>
</svg>
