<svg width="11" height="19" viewBox="0 0 11 19" fill="none" xmlns="http://www.w3.org/2000/svg">
<path fill-rule="evenodd" clip-rule="evenodd" d="M0.691981 0.69186C0.598854 0.784752 0.524969 0.895104 0.474556 1.01659C0.424143 1.13808 0.398193 1.26833 0.398193 1.39986C0.398193 1.53139 0.424143 1.66164 0.474556 1.78313C0.524969 1.90462 0.598854 2.01497 0.691981 2.10786L7.98598 9.39986L0.691981 16.6919C0.504208 16.8796 0.398718 17.1343 0.398718 17.3999C0.398718 17.6654 0.504208 17.9201 0.691981 18.1079C0.879754 18.2956 1.13443 18.4011 1.39998 18.4011C1.66553 18.4011 1.92021 18.2956 2.10798 18.1079L10.108 10.1079C10.2011 10.015 10.275 9.90462 10.3254 9.78313C10.3758 9.66164 10.4018 9.53139 10.4018 9.39986C10.4018 9.26832 10.3758 9.13808 10.3254 9.01659C10.275 8.8951 10.2011 8.78475 10.108 8.69186L2.10798 0.69186C2.01509 0.598734 1.90474 0.524849 1.78325 0.474436C1.66176 0.424023 1.53152 0.398073 1.39998 0.398073C1.26845 0.398073 1.1382 0.424023 1.01671 0.474436C0.895223 0.524849 0.784872 0.598734 0.691981 0.69186Z" fill="white" fill-opacity="0.75"/>
</svg>
