<svg width="23" height="9" viewBox="0 0 23 9" fill="none" xmlns="http://www.w3.org/2000/svg">
<path d="M1.82325 6.16485C1.82325 6.42932 1.87095 6.65341 1.9665 6.83704C2.06198 7.02068 2.18689 7.17133 2.34117 7.28885C2.50276 7.39904 2.69009 7.4835 2.90316 7.5423C3.11616 7.59369 3.33655 7.61943 3.56434 7.61943C3.71861 7.61943 3.8839 7.60842 4.06022 7.58638C4.23653 7.55702 4.40182 7.50554 4.5561 7.4321C4.71037 7.35866 4.83891 7.25949 4.94178 7.13457C5.04458 7.00234 5.09606 6.83705 5.09606 6.63869C5.09606 6.42562 5.02624 6.25301 4.88668 6.12077C4.75445 5.98854 4.57814 5.87834 4.35774 5.79019C4.13735 5.70203 3.88752 5.62489 3.60841 5.55878C3.32923 5.49266 3.04642 5.41922 2.75991 5.33839C2.466 5.26495 2.17949 5.17679 1.90038 5.07392C1.6212 4.96372 1.37145 4.82417 1.15102 4.65517C0.930624 4.48618 0.750635 4.27681 0.611057 4.02706C0.478822 3.76991 0.412704 3.46136 0.412704 3.10142C0.412704 2.69739 0.497185 2.34839 0.666155 2.05456C0.842467 1.75333 1.0702 1.50358 1.34937 1.30523C1.62852 1.10688 1.94446 0.959922 2.29709 0.864446C2.64971 0.768969 3.00234 0.721191 3.35497 0.721191C3.76631 0.721191 4.15939 0.768969 4.53406 0.864446C4.91604 0.952602 5.25395 1.09956 5.54786 1.30523C5.84169 1.5109 6.0731 1.77537 6.24209 2.09864C6.4184 2.4145 6.50656 2.80019 6.50656 3.25569H4.83159C4.81687 3.02058 4.76547 2.82593 4.67731 2.67165C4.59648 2.51738 4.48628 2.39616 4.34673 2.30801C4.20709 2.21985 4.0455 2.15743 3.86186 2.12067C3.68555 2.08392 3.49082 2.06558 3.27783 2.06558C3.1382 2.06558 2.99864 2.0803 2.85909 2.10966C2.71945 2.13901 2.59092 2.19049 2.4734 2.26393C2.36321 2.33737 2.27135 2.42922 2.19791 2.53942C2.1244 2.64961 2.08772 2.78917 2.08772 2.95816C2.08772 3.11244 2.11708 3.23735 2.17587 3.33283C2.23459 3.4283 2.34849 3.51646 2.51748 3.5973C2.69379 3.67813 2.93252 3.75889 3.23375 3.83973C3.5423 3.92056 3.94262 4.02336 4.43488 4.14827C4.58176 4.17763 4.78381 4.23273 5.04096 4.31357C5.30543 4.387 5.5662 4.50822 5.82335 4.67721C6.08042 4.8462 6.30081 5.07392 6.48452 5.36042C6.67547 5.63961 6.77103 5.99956 6.77103 6.44034C6.77103 6.80029 6.70121 7.13457 6.56166 7.44312C6.42202 7.75167 6.21265 8.01984 5.93354 8.24755C5.66167 8.46794 5.32007 8.64055 4.90872 8.76547C4.50462 8.89038 4.03448 8.9528 3.49822 8.9528C3.06476 8.9528 2.64231 8.8977 2.23097 8.78751C1.82687 8.68463 1.46692 8.51934 1.15102 8.29163C0.842468 8.06392 0.596361 7.77371 0.412704 7.42108C0.229048 7.06846 0.140892 6.64971 0.148235 6.16485H1.82325ZM7.56892 4.83149C7.59096 4.46414 7.68282 4.15929 7.84441 3.91686C8.00608 3.67443 8.21176 3.47978 8.46151 3.33283C8.71134 3.18587 8.99044 3.08308 9.29899 3.02428C9.61494 2.95816 9.93081 2.9251 10.2467 2.9251C10.5332 2.9251 10.8234 2.94714 11.1172 2.99122C11.4111 3.02798 11.6792 3.10512 11.9216 3.22263C12.1641 3.34015 12.3624 3.50544 12.5167 3.71851C12.671 3.92418 12.7481 4.19967 12.7481 4.54498V7.50924C12.7481 7.76639 12.7628 8.01244 12.7922 8.24755C12.8216 8.48266 12.873 8.65897 12.9465 8.77649H11.3596C11.3303 8.68833 11.3046 8.60017 11.2825 8.51202C11.2679 8.41654 11.2569 8.32099 11.2495 8.22551C10.9997 8.48266 10.7059 8.66259 10.3679 8.76547C10.03 8.86834 9.68468 8.91974 9.33205 8.91974C9.06026 8.91974 8.80681 8.88668 8.5717 8.82057C8.33667 8.75445 8.13092 8.65157 7.95461 8.51202C7.77829 8.37246 7.63874 8.19615 7.53586 7.98308C7.44039 7.77001 7.39261 7.51656 7.39261 7.22273C7.39261 6.89946 7.44771 6.63499 7.5579 6.42932C7.6755 6.21625 7.82237 6.04734 7.99868 5.92242C8.1824 5.79751 8.38807 5.70573 8.61578 5.64693C8.85089 5.58082 9.086 5.52942 9.32103 5.49266C9.55614 5.4559 9.78755 5.42654 10.0153 5.4045C10.2431 5.38246 10.445 5.34941 10.6213 5.30533C10.7977 5.26125 10.9373 5.19883 11.0401 5.11799C11.143 5.02984 11.1907 4.90492 11.1833 4.74333C11.1833 4.57434 11.154 4.4421 11.0952 4.34663C11.0438 4.24375 10.9703 4.16661 10.8748 4.11522C10.7866 4.05642 10.6801 4.01974 10.5552 4.00502C10.4377 3.98298 10.3092 3.97196 10.1695 3.97196C9.86099 3.97196 9.61856 4.03808 9.44225 4.17031C9.26593 4.30255 9.16314 4.52294 9.1337 4.83149H7.56892ZM11.1833 5.98854C11.1172 6.04734 11.0328 6.09504 10.9299 6.13179C10.8344 6.16115 10.7279 6.18689 10.6103 6.20893C10.5001 6.23097 10.3826 6.24931 10.2577 6.26403C10.1329 6.27875 10.0079 6.29709 9.88303 6.31913C9.76551 6.34117 9.648 6.37052 9.5304 6.40728C9.42021 6.44404 9.32103 6.49544 9.23287 6.56156C9.15212 6.62035 9.086 6.69749 9.03452 6.79297C8.98312 6.88844 8.95739 7.00966 8.95739 7.15661C8.95739 7.29617 8.98312 7.41376 9.03452 7.50924C9.086 7.60471 9.15574 7.68185 9.24389 7.74065C9.33205 7.79205 9.43493 7.8288 9.55244 7.85084C9.67004 7.87288 9.79125 7.8839 9.91609 7.8839C10.2246 7.8839 10.4634 7.8325 10.6324 7.72963C10.8014 7.62675 10.9263 7.50554 11.007 7.36598C11.0879 7.21903 11.1356 7.07216 11.1503 6.9252C11.1723 6.77825 11.1833 6.66073 11.1833 6.57258V5.98854ZM14.0068 0.908524H15.5716V8.77649H14.0068V0.908524ZM20.6385 5.31635C20.5651 4.91964 20.4328 4.61842 20.2418 4.41274C20.0582 4.20707 19.7753 4.1042 19.3933 4.1042C19.1435 4.1042 18.9342 4.14827 18.7652 4.23643C18.6036 4.31727 18.4714 4.42006 18.3685 4.54498C18.273 4.66989 18.2032 4.80213 18.1591 4.94168C18.1224 5.08124 18.1003 5.20615 18.093 5.31635H20.6385ZM18.093 6.30811C18.115 6.81501 18.2436 7.18235 18.4787 7.41006C18.7138 7.63777 19.0517 7.75167 19.4925 7.75167C19.8083 7.75167 20.0802 7.67453 20.3079 7.52026C20.5356 7.35866 20.6753 7.18967 20.7267 7.01336H22.1041C21.8837 7.69657 21.5458 8.18513 21.0903 8.47896C20.6348 8.77279 20.0838 8.91974 19.4374 8.91974C18.9893 8.91974 18.5852 8.84993 18.2252 8.71037C17.8653 8.56342 17.5604 8.35774 17.3106 8.09327C17.0609 7.82881 16.8661 7.51294 16.7266 7.14559C16.5943 6.77825 16.5282 6.37422 16.5282 5.93344C16.5282 5.50738 16.598 5.11067 16.7376 4.74333C16.8771 4.37598 17.0755 4.06012 17.3326 3.79565C17.5898 3.52386 17.8946 3.31079 18.2473 3.15651C18.6072 3.00224 19.0039 2.9251 19.4374 2.9251C19.9222 2.9251 20.3447 3.02058 20.7046 3.21161C21.0646 3.39524 21.3585 3.64507 21.5862 3.96094C21.8213 4.27681 21.9902 4.63683 22.0931 5.04086C22.196 5.44488 22.2326 5.86732 22.2033 6.30811H18.093Z" fill="white"/>
</svg>
