<svg width="10" height="10" viewBox="0 0 10 10" fill="none" xmlns="http://www.w3.org/2000/svg">
<path fill-rule="evenodd" clip-rule="evenodd" d="M1.35095 4.66385C1.22352 4.66385 1.10131 4.71447 1.01121 4.80458C0.921104 4.89469 0.870483 5.01689 0.870483 5.14432C0.870483 5.27175 0.921104 5.39396 1.01121 5.48407C1.10131 5.57417 1.22352 5.62479 1.35095 5.62479H4.71424L4.72385 8.98808C4.72448 9.05117 4.73753 9.11352 4.76226 9.17158C4.78699 9.22963 4.82291 9.28224 4.86797 9.32641C4.91303 9.37058 4.96635 9.40544 5.02489 9.429C5.08342 9.45257 5.14602 9.46437 5.20912 9.46374C5.27221 9.46311 5.33457 9.45006 5.39262 9.42533C5.45067 9.4006 5.50328 9.36468 5.54745 9.31962C5.59162 9.27455 5.62649 9.22123 5.65005 9.1627C5.67361 9.10416 5.68541 9.04156 5.68478 8.97847V5.61518L9.04807 5.60557C9.11116 5.60494 9.17352 5.59189 9.23157 5.56716C9.28962 5.54243 9.34223 5.50651 9.3864 5.46145C9.43057 5.41639 9.46543 5.36307 9.489 5.30453C9.51256 5.246 9.52436 5.1834 9.52373 5.1203C9.5231 5.0572 9.51005 4.99485 9.48532 4.9368C9.46059 4.87875 9.42467 4.82613 9.37961 4.78196C9.33454 4.73779 9.28122 4.70293 9.22269 4.67937C9.16415 4.65581 9.10155 4.644 9.03846 4.64463H5.67517L5.66556 1.28135C5.66429 1.15392 5.61245 1.03222 5.52144 0.943017C5.43043 0.853812 5.30772 0.804414 5.18029 0.805688C5.05286 0.806962 4.93116 0.858805 4.84195 0.949812C4.75275 1.04082 4.70335 1.16353 4.70463 1.29096V4.65424L1.34134 4.66385H1.35095Z" fill="#4E504F"/>
</svg>
