<svg width="29" height="12" viewBox="0 0 29 12" fill="none" xmlns="http://www.w3.org/2000/svg">
<path d="M2.47441 7.63231C2.47441 7.96831 2.53501 8.25301 2.65641 8.48631C2.77771 8.71961 2.93641 8.91101 3.13241 9.06031C3.33771 9.20031 3.57571 9.30761 3.84641 9.38231C4.11701 9.44761 4.39701 9.48031 4.68641 9.48031C4.88241 9.48031 5.09241 9.46631 5.31641 9.43831C5.54041 9.40101 5.75041 9.33561 5.94641 9.24231C6.14241 9.14901 6.30571 9.02301 6.43641 8.86431C6.56701 8.69631 6.63241 8.48631 6.63241 8.23431C6.63241 7.96361 6.54371 7.74431 6.36641 7.57631C6.19841 7.40831 5.97441 7.26831 5.69441 7.15631C5.41441 7.04431 5.09701 6.94631 4.74241 6.86231C4.38771 6.77831 4.02841 6.68501 3.66441 6.58231C3.29101 6.48901 2.92701 6.37701 2.57241 6.24631C2.21771 6.10631 1.90041 5.92901 1.62036 5.71431C1.34036 5.49961 1.11169 5.23361 0.93436 4.91631C0.76636 4.58961 0.682359 4.19761 0.682359 3.74031C0.682359 3.22701 0.789689 2.78361 1.00436 2.41031C1.22836 2.02761 1.51769 1.71031 1.87236 1.45831C2.22701 1.20631 2.62841 1.01961 3.07641 0.898309C3.52441 0.777009 3.97241 0.716309 4.42041 0.716309C4.94301 0.716309 5.44241 0.777009 5.91841 0.898309C6.40371 1.01031 6.83301 1.19701 7.20641 1.45831C7.57971 1.71961 7.87371 2.05561 8.08841 2.46631C8.31241 2.86761 8.42441 3.35761 8.42441 3.93631H6.29641C6.27771 3.63761 6.21241 3.39031 6.10041 3.19431C5.99771 2.99831 5.85771 2.84431 5.68041 2.73231C5.50301 2.62031 5.29771 2.54101 5.06441 2.49431C4.84041 2.44761 4.59301 2.42431 4.32241 2.42431C4.14501 2.42431 3.96771 2.44301 3.79041 2.48031C3.61301 2.51761 3.44971 2.58301 3.30041 2.67631C3.16041 2.76961 3.04371 2.88631 2.95041 3.02631C2.85701 3.16631 2.81041 3.34361 2.81041 3.55831C2.81041 3.75431 2.84771 3.91301 2.92241 4.03431C2.99701 4.15561 3.14171 4.26761 3.35641 4.37031C3.58041 4.47301 3.88371 4.57561 4.26641 4.67831C4.65841 4.78101 5.16701 4.91161 5.79241 5.07031C5.97901 5.10761 6.23571 5.17761 6.56241 5.28031C6.89841 5.37361 7.22971 5.52761 7.55641 5.74231C7.88301 5.95701 8.16301 6.24631 8.39641 6.61031C8.63901 6.96501 8.76041 7.42231 8.76041 7.98231C8.76041 8.43961 8.67171 8.86431 8.49441 9.25631C8.31701 9.64831 8.05101 9.98901 7.69641 10.2783C7.35101 10.5583 6.91701 10.7776 6.39441 10.9363C5.88101 11.095 5.28371 11.1743 4.60241 11.1743C4.05171 11.1743 3.51501 11.1043 2.99241 10.9643C2.47901 10.8336 2.02171 10.6236 1.62036 10.3343C1.22836 10.045 0.915689 9.67631 0.682359 9.22831C0.449029 8.78031 0.337029 8.24831 0.346359 7.63231H2.47441ZM9.77411 5.93831C9.80211 5.47161 9.91881 5.08431 10.1241 4.77631C10.3295 4.46831 10.5908 4.22101 10.9081 4.03431C11.2255 3.84761 11.5801 3.71701 11.9721 3.64231C12.3735 3.55831 12.7748 3.51631 13.1761 3.51631C13.5401 3.51631 13.9088 3.54431 14.2821 3.60031C14.6555 3.64701 14.9961 3.74501 15.3041 3.89431C15.6121 4.04361 15.8641 4.25361 16.0601 4.52431C16.2561 4.78561 16.3541 5.13561 16.3541 5.57431V9.34031C16.3541 9.66701 16.3728 9.97961 16.4101 10.2783C16.4475 10.577 16.5128 10.801 16.6061 10.9503H14.5901C14.5528 10.8383 14.5201 10.7263 14.4921 10.6143C14.4735 10.493 14.4595 10.3716 14.4501 10.2503C14.1328 10.577 13.7595 10.8056 13.3301 10.9363C12.9008 11.067 12.4621 11.1323 12.0141 11.1323C11.6688 11.1323 11.3468 11.0903 11.0481 11.0063C10.7495 10.9223 10.4881 10.7916 10.2641 10.6143C10.0401 10.437 9.86281 10.213 9.73211 9.94231C9.61081 9.67161 9.55011 9.34961 9.55011 8.97631C9.55011 8.56561 9.62011 8.22961 9.76011 7.96831C9.90951 7.69761 10.0961 7.48301 10.3201 7.32431C10.5535 7.16561 10.8148 7.04901 11.1041 6.97431C11.4028 6.89031 11.7015 6.82501 12.0001 6.77831C12.2988 6.73161 12.5928 6.69431 12.8821 6.66631C13.1715 6.63831 13.4281 6.59631 13.6521 6.54031C13.8761 6.48431 14.0535 6.40501 14.1841 6.30231C14.3148 6.19031 14.3755 6.03161 14.3661 5.82631C14.3661 5.61161 14.3288 5.44361 14.2541 5.32231C14.1888 5.19161 14.0955 5.09361 13.9741 5.02831C13.8621 4.95361 13.7268 4.90701 13.5681 4.88831C13.4188 4.86031 13.2555 4.84631 13.0781 4.84631C12.6861 4.84631 12.3781 4.93031 12.1541 5.09831C11.9301 5.26631 11.7995 5.54631 11.7621 5.93831H9.77411ZM14.3661 7.40831C14.2821 7.48301 14.1748 7.54361 14.0441 7.59031C13.9228 7.62761 13.7875 7.66031 13.6381 7.68831C13.4981 7.71631 13.3488 7.73961 13.1901 7.75831C13.0315 7.77701 12.8728 7.80031 12.7141 7.82831C12.5648 7.85631 12.4155 7.89361 12.2661 7.94031C12.1261 7.98701 12.0001 8.05231 11.8881 8.13631C11.7855 8.21101 11.7015 8.30901 11.6361 8.43031C11.5708 8.55161 11.5381 8.70561 11.5381 8.89231C11.5381 9.06961 11.5708 9.21901 11.6361 9.34031C11.7015 9.46161 11.7901 9.55961 11.9021 9.63431C12.0141 9.69961 12.1448 9.74631 12.2941 9.77431C12.4435 9.80231 12.5975 9.81631 12.7561 9.81631C13.1481 9.81631 13.4515 9.75101 13.6661 9.62031C13.8808 9.48961 14.0395 9.33561 14.1421 9.15831C14.2448 8.97161 14.3055 8.78501 14.3241 8.59831C14.3521 8.41161 14.3661 8.26231 14.3661 8.15031V7.40831ZM17.9532 0.954309H19.9412V10.9503H17.9532V0.954309ZM26.3786 6.55431C26.2853 6.05031 26.1173 5.66761 25.8746 5.40631C25.6413 5.14501 25.2819 5.01431 24.7966 5.01431C24.4793 5.01431 24.2133 5.07031 23.9986 5.18231C23.7933 5.28501 23.6253 5.41561 23.4946 5.57431C23.3733 5.73301 23.2846 5.90101 23.2286 6.07831C23.1819 6.25561 23.1539 6.41431 23.1446 6.55431H26.3786ZM23.1446 7.81431C23.1726 8.45831 23.3359 8.92501 23.6346 9.21431C23.9333 9.50361 24.3626 9.64831 24.9226 9.64831C25.3239 9.64831 25.6693 9.55031 25.9586 9.35431C26.2479 9.14901 26.4253 8.93431 26.4906 8.71031H28.2406C27.9606 9.57831 27.5313 10.199 26.9526 10.5723C26.3739 10.9456 25.6739 11.1323 24.8526 11.1323C24.2833 11.1323 23.7699 11.0436 23.3126 10.8663C22.8553 10.6796 22.4679 10.4183 22.1506 10.0823C21.8333 9.74631 21.5859 9.34501 21.4086 8.87831C21.2406 8.41161 21.1566 7.89831 21.1566 7.33831C21.1566 6.79701 21.2453 6.29301 21.4226 5.82631C21.5999 5.35961 21.8519 4.95831 22.1786 4.62231C22.5053 4.27701 22.8926 4.00631 23.3406 3.81031C23.7979 3.61431 24.3019 3.51631 24.8526 3.51631C25.4686 3.51631 26.0053 3.63761 26.4626 3.88031C26.9199 4.11361 27.2933 4.43101 27.5826 4.83231C27.8813 5.23361 28.0959 5.69101 28.2266 6.20431C28.3573 6.71761 28.4039 7.25431 28.3666 7.81431H23.1446Z" fill="white"/>
</svg>
