<svg width="15" height="15" viewBox="0 0 15 15" fill="none" xmlns="http://www.w3.org/2000/svg">
<path fill-rule="evenodd" clip-rule="evenodd" d="M7.01051 1.91074H13.43C13.8166 1.91074 14.13 2.22414 14.13 2.61074C14.13 2.99734 13.8166 3.31074 13.43 3.31074H7.01051C6.72222 4.12637 5.94435 4.71074 5.03 4.71074C4.11566 4.71074 3.33778 4.12637 3.04949 3.31074H0.830005C0.443406 3.31074 0.130005 2.99734 0.130005 2.61074C0.130005 2.22414 0.443406 1.91074 0.830005 1.91074H3.04949C3.33778 1.09511 4.11566 0.510742 5.03 0.510742C5.94435 0.510742 6.72222 1.09511 7.01051 1.91074ZM0.830005 6.81074C0.443406 6.81074 0.130005 7.12414 0.130005 7.51074C0.130005 7.89734 0.443406 8.21074 0.830005 8.21074H7.2495C7.53779 9.02637 8.31566 9.61074 9.23001 9.61074C10.1444 9.61074 10.9222 9.02637 11.2105 8.21074H13.43C13.8166 8.21074 14.13 7.89734 14.13 7.51074C14.13 7.12414 13.8166 6.81074 13.43 6.81074H11.2105C10.9222 5.99511 10.1444 5.41074 9.23001 5.41074C8.31566 5.41074 7.53779 5.99511 7.2495 6.81074H0.830005ZM0.130005 12.4107C0.130005 12.0241 0.443406 11.7107 0.830005 11.7107H3.04949C3.33778 10.8951 4.11566 10.3107 5.03 10.3107C5.94435 10.3107 6.72222 10.8951 7.01051 11.7107H13.43C13.8166 11.7107 14.13 12.0241 14.13 12.4107C14.13 12.7973 13.8166 13.1107 13.43 13.1107H7.01051C6.72222 13.9263 5.94435 14.5107 5.03 14.5107C4.11566 14.5107 3.33778 13.9263 3.04949 13.1107H0.830005C0.443406 13.1107 0.130005 12.7973 0.130005 12.4107Z" fill="#2C2C2C"/>
</svg>
