<svg width="23" height="26" viewBox="0 0 23 26" fill="none" xmlns="http://www.w3.org/2000/svg">
<path d="M21.0237 17.4242C19.63 16.8971 18.6977 15.6315 18.5925 14.1221C18.4894 12.6513 19.2102 11.3451 20.5206 10.6273L21.6102 10.0305L20.8321 9.06172C19.5248 7.43359 17.654 6.46068 15.8279 6.46068C14.5623 6.46068 13.6842 6.79193 12.979 7.05859C12.481 7.24609 12.0883 7.39505 11.6571 7.39505C11.1654 7.39505 10.68 7.22214 10.1175 7.02214C9.38 6.75963 8.54458 6.46172 7.47167 6.46172C5.39875 6.46172 3.30812 7.69922 2.01646 9.6888C0.0883327 12.6565 0.617499 17.7451 3.27479 21.7888C4.32792 23.3909 5.80396 25.2315 7.89458 25.2503H7.93521C9.64667 25.2503 10.0217 24.3378 11.6831 24.3273C13.4977 24.4128 13.7269 25.2576 15.4217 25.2461C17.4644 25.2273 18.9373 23.4013 20.1081 21.6169C20.7998 20.568 21.0675 20.019 21.606 18.8273L22.0623 17.8169L21.0237 17.4242ZM14.5092 3.84401C15.1862 2.97526 15.6998 1.75026 15.5133 0.496094C14.4071 0.572135 13.1154 1.27526 12.3602 2.19193C11.6748 3.02526 11.1092 4.25755 11.329 5.45755C12.5352 5.49505 13.7842 4.77422 14.5092 3.84401Z" fill="white"/>
</svg>
