<svg width="21" height="21" viewBox="0 0 21 21" fill="none" xmlns="http://www.w3.org/2000/svg">
<path fill-rule="evenodd" clip-rule="evenodd" d="M4.94991 0.875117L6.58825 13.1635H17.2882L18.8882 5.16678C18.9404 4.94752 19.0755 4.75704 19.2653 4.63545C19.4551 4.51387 19.6846 4.47067 19.9056 4.51495C20.1266 4.55923 20.3218 4.68754 20.45 4.87286C20.5783 5.05817 20.6296 5.28603 20.5932 5.50845L18.8541 14.2035C18.8148 14.4007 18.7084 14.5782 18.5529 14.7058C18.3975 14.8334 18.2027 14.9033 18.0016 14.9035H5.82658C5.39158 14.9035 5.02325 14.5801 4.96575 14.1484L3.32658 1.85928H1.47908C1.24845 1.85928 1.02727 1.76767 0.864192 1.60459C0.701114 1.44151 0.609497 1.22033 0.609497 0.9897C0.609497 0.759073 0.701114 0.537891 0.864192 0.374812C1.02727 0.211734 1.24845 0.120117 1.47908 0.120117L4.08741 0.120117C4.52408 0.120117 4.89241 0.442617 4.94991 0.875117ZM11.0449 3.59845V5.33678H9.30575C9.07512 5.33678 8.85394 5.4284 8.69086 5.59148C8.52778 5.75456 8.43616 5.97574 8.43616 6.20637C8.43616 6.437 8.52778 6.65818 8.69086 6.82126C8.85394 6.98433 9.07512 7.07595 9.30575 7.07595H11.0449V8.81512C11.0519 9.04109 11.1466 9.25546 11.3089 9.41282C11.4712 9.57019 11.6884 9.65819 11.9145 9.65819C12.1406 9.65819 12.3578 9.57019 12.5201 9.41282C12.6824 9.25546 12.7771 9.04109 12.7841 8.81512V7.07678H14.5232C14.7539 7.07678 14.9751 6.98517 15.1381 6.82209C15.3012 6.65901 15.3928 6.43783 15.3928 6.2072C15.3928 5.97657 15.3012 5.75539 15.1381 5.59231C14.9751 5.42923 14.7539 5.33762 14.5232 5.33762H12.7841V3.59845C12.7771 3.37248 12.6824 3.15811 12.5201 3.00074C12.3578 2.84338 12.1406 2.75537 11.9145 2.75537C11.6884 2.75537 11.4712 2.84338 11.3089 3.00074C11.1466 3.15811 11.0519 3.37248 11.0449 3.59845ZM6.69658 20.1201C6.92497 20.1201 7.15113 20.0751 7.36213 19.9877C7.57314 19.9003 7.76486 19.7722 7.92636 19.6107C8.08785 19.4492 8.21596 19.2575 8.30336 19.0465C8.39076 18.8355 8.43575 18.6093 8.43575 18.381C8.43575 18.1526 8.39076 17.9264 8.30336 17.7154C8.21596 17.5044 8.08785 17.3127 7.92636 17.1512C7.76486 16.9897 7.57314 16.8616 7.36213 16.7742C7.15113 16.6868 6.92497 16.6418 6.69658 16.6418C6.23533 16.6418 5.79296 16.825 5.4668 17.1512C5.14065 17.4773 4.95741 17.9197 4.95741 18.381C4.95741 18.8422 5.14065 19.2846 5.4668 19.6107C5.79296 19.9369 6.23533 20.1201 6.69658 20.1201ZM18.8707 18.381C18.8707 18.6093 18.8258 18.8355 18.7384 19.0465C18.651 19.2575 18.5229 19.4492 18.3614 19.6107C18.1999 19.7722 18.0081 19.9003 17.7971 19.9877C17.5861 20.0751 17.36 20.1201 17.1316 20.1201C16.9032 20.1201 16.677 20.0751 16.466 19.9877C16.255 19.9003 16.0633 19.7722 15.9018 19.6107C15.7403 19.4492 15.6122 19.2575 15.5248 19.0465C15.4374 18.8355 15.3924 18.6093 15.3924 18.381C15.3924 17.9197 15.5756 17.4773 15.9018 17.1512C16.228 16.825 16.6703 16.6418 17.1316 16.6418C17.5928 16.6418 18.0352 16.825 18.3614 17.1512C18.6875 17.4773 18.8707 17.9197 18.8707 18.381Z" fill="white"/>
</svg>
