<svg width="23" height="21" viewBox="0 0 23 21" fill="none" xmlns="http://www.w3.org/2000/svg">
<path d="M20.1709 2.94391C19.5947 2.36807 18.8978 1.92742 18.1305 1.6538C17.3632 1.38018 16.5447 1.28042 15.7341 1.36173C14.9236 1.44304 14.1412 1.70339 13.4435 2.12396C12.7459 2.54454 12.1504 3.11484 11.7 3.79366C11.2756 3.15234 10.7215 2.60714 10.0734 2.19325C9.42523 1.77937 8.69751 1.506 7.93718 1.3908C7.17684 1.2756 6.4008 1.32112 5.65915 1.52443C4.91751 1.72774 4.22674 2.08432 3.63144 2.57115C3.03614 3.05798 2.54955 3.66423 2.20308 4.35077C1.85661 5.03731 1.65797 5.78887 1.61996 6.55694C1.58196 7.32501 1.70545 8.09252 1.98246 8.80991C2.25946 9.52729 2.68383 10.1786 3.22817 10.7218L11.6991 19.1946L20.1718 10.7218C21.2032 9.69039 21.7826 8.2915 21.7826 6.83287C21.7826 5.37424 21.2032 3.97535 20.1718 2.94391H20.1709Z" stroke="#2F3337" stroke-width="1.83333" stroke-miterlimit="10" stroke-linecap="round" stroke-linejoin="round"/>
</svg>
