<svg width="12" height="10" viewBox="0 0 12 10" fill="none" xmlns="http://www.w3.org/2000/svg">
<path d="M4.23624 8.87583L0.66073 5.3013C0.609579 5.25023 0.569 5.18957 0.541313 5.1228C0.513626 5.05604 0.499374 4.98446 0.499374 4.91218C0.499374 4.8399 0.513626 4.76833 0.541313 4.70156C0.569 4.6348 0.609579 4.57414 0.66073 4.52307L1.43895 3.74485C1.49002 3.6937 1.55068 3.65312 1.61744 3.62543C1.68421 3.59774 1.75578 3.58349 1.82806 3.58349C1.90035 3.58349 1.97192 3.59774 2.03868 3.62543C2.10545 3.65312 2.16611 3.6937 2.21718 3.74485L4.62536 6.14911L9.78378 0.995584C9.83485 0.944433 9.8955 0.903854 9.96227 0.876167C10.029 0.84848 10.1006 0.834229 10.1729 0.834229C10.2452 0.834229 10.3167 0.84848 10.3835 0.876167C10.4503 0.903854 10.5109 0.944433 10.562 0.995584L11.3402 1.77381C11.3914 1.82488 11.432 1.88553 11.4596 1.9523C11.4873 2.01907 11.5016 2.09064 11.5016 2.16292C11.5016 2.2352 11.4873 2.30677 11.4596 2.37354C11.432 2.44031 11.3914 2.50096 11.3402 2.55203L5.01447 8.87583C4.9634 8.92698 4.90274 8.96756 4.83598 8.99525C4.76921 9.02293 4.69764 9.03719 4.62536 9.03719C4.55308 9.03719 4.4815 9.02293 4.41474 8.99525C4.34797 8.96756 4.28731 8.92698 4.23624 8.87583Z" fill="white"/>
</svg>
