<svg width="22" height="9" viewBox="0 0 22 9" fill="none" xmlns="http://www.w3.org/2000/svg">
<path d="M1.9812 6.11837C1.9812 6.37515 2.02751 6.59272 2.12029 6.77101C2.21299 6.94931 2.33427 7.09558 2.48406 7.20968C2.64096 7.31667 2.82284 7.39867 3.02972 7.45576C3.23651 7.50566 3.4505 7.53065 3.67166 7.53065C3.82145 7.53065 3.98194 7.51995 4.15312 7.49855C4.32431 7.47005 4.48479 7.42007 4.63458 7.34877C4.78437 7.27746 4.90917 7.18117 5.00905 7.05989C5.10886 6.9315 5.15884 6.77101 5.15884 6.57843C5.15884 6.37156 5.09105 6.20396 4.95556 6.07557C4.82717 5.94718 4.65598 5.84019 4.442 5.7546C4.22802 5.66901 3.98545 5.59411 3.71446 5.52992C3.44339 5.46572 3.1688 5.39442 2.89063 5.31594C2.60527 5.24463 2.32709 5.15904 2.0561 5.05916C1.78503 4.95217 1.54254 4.81667 1.32852 4.65259C1.11454 4.48851 0.939782 4.28523 0.804262 4.04274C0.675873 3.79307 0.611678 3.49349 0.611678 3.14402C0.611678 2.75174 0.693702 2.41288 0.857758 2.1276C1.02894 1.83513 1.25006 1.59265 1.5211 1.40006C1.79213 1.20748 2.09889 1.0648 2.44126 0.972096C2.78364 0.879396 3.12601 0.833008 3.46838 0.833008C3.86776 0.833008 4.24941 0.879396 4.61318 0.972096C4.98406 1.05769 5.31214 1.20037 5.5975 1.40006C5.88279 1.59975 6.10747 1.85653 6.27155 2.1704C6.44273 2.47708 6.52833 2.85155 6.52833 3.2938H4.90206C4.88777 3.06553 4.83787 2.87654 4.75227 2.72675C4.67379 2.57696 4.5668 2.45927 4.4313 2.37368C4.29573 2.28809 4.13883 2.22748 3.96054 2.19179C3.78935 2.15611 3.60028 2.1383 3.39349 2.1383C3.25791 2.1383 3.12242 2.15259 2.98692 2.1811C2.85135 2.2096 2.72655 2.25958 2.61245 2.33088C2.50546 2.40219 2.41627 2.49137 2.34497 2.59836C2.27359 2.70535 2.23798 2.84085 2.23798 3.00493C2.23798 3.15471 2.26649 3.276 2.32357 3.3687C2.38058 3.4614 2.49117 3.54699 2.65525 3.62548C2.82643 3.70396 3.05822 3.78237 3.35069 3.86086C3.65026 3.93934 4.03895 4.03915 4.51689 4.16043C4.6595 4.18894 4.85567 4.24243 5.10534 4.32092C5.36212 4.39222 5.61531 4.50991 5.86498 4.67399C6.11457 4.83807 6.32856 5.05916 6.50693 5.33733C6.69233 5.6084 6.7851 5.95788 6.7851 6.38585C6.7851 6.73532 6.71732 7.05989 6.58182 7.35947C6.44625 7.65904 6.24296 7.91941 5.97197 8.1405C5.70801 8.35448 5.37634 8.52208 4.97695 8.64336C4.5846 8.76464 4.12813 8.82524 3.60747 8.82524C3.18661 8.82524 2.77645 8.77175 2.37707 8.66476C1.98472 8.56487 1.63524 8.40439 1.32852 8.1833C1.02894 7.96221 0.789994 7.68044 0.611678 7.33807C0.433362 6.9957 0.347769 6.58913 0.3549 6.11837H1.9812ZM7.55979 4.82378C7.58119 4.46711 7.67038 4.17113 7.82727 3.93575C7.98424 3.70037 8.18394 3.51138 8.42642 3.3687C8.66899 3.22602 8.93998 3.12621 9.23956 3.06912C9.54631 3.00493 9.853 2.97283 10.1597 2.97283C10.4379 2.97283 10.7196 2.99423 11.0049 3.03702C11.2903 3.07271 11.5506 3.14761 11.7859 3.26171C12.0213 3.3758 12.2139 3.53629 12.3637 3.74317C12.5135 3.94286 12.5884 4.21034 12.5884 4.5456V7.42366C12.5884 7.67333 12.6027 7.91223 12.6312 8.1405C12.6598 8.36877 12.7097 8.53996 12.781 8.65406H11.2403C11.2118 8.56847 11.1868 8.48287 11.1654 8.39728C11.1512 8.30458 11.1405 8.2118 11.1333 8.1191C10.8908 8.36877 10.6055 8.54348 10.2774 8.64336C9.94929 8.74324 9.61402 8.79315 9.27165 8.79315C9.00777 8.79315 8.76169 8.76105 8.53341 8.69685C8.30522 8.63266 8.10545 8.53278 7.93426 8.39728C7.76308 8.26178 7.62758 8.0906 7.5277 7.88372C7.435 7.67685 7.38861 7.43077 7.38861 7.14548C7.38861 6.83162 7.4421 6.57484 7.5491 6.37515C7.66327 6.16827 7.80587 6.00427 7.97706 5.88299C8.15543 5.76171 8.35512 5.6726 8.57621 5.61551C8.80448 5.55132 9.03276 5.50141 9.26095 5.46572C9.48923 5.43003 9.71391 5.40153 9.935 5.38013C10.1562 5.35873 10.3523 5.32663 10.5234 5.28384C10.6946 5.24104 10.8302 5.18044 10.93 5.10195C11.0299 5.01636 11.0763 4.89508 11.0691 4.73818C11.0691 4.5741 11.0406 4.44572 10.9835 4.35302C10.9336 4.25313 10.8623 4.17824 10.7695 4.12833C10.6839 4.07125 10.5805 4.03563 10.4593 4.02134C10.3452 3.99994 10.2204 3.98925 10.0848 3.98925C9.78521 3.98925 9.54983 4.05344 9.37864 4.18183C9.20746 4.31022 9.10765 4.5242 9.07907 4.82378H7.55979ZM11.0691 5.94718C11.0049 6.00427 10.9229 6.05058 10.823 6.08627C10.7303 6.11478 10.6269 6.13977 10.5127 6.16117C10.4058 6.18256 10.2917 6.20037 10.1704 6.21466C10.0492 6.22895 9.92789 6.24676 9.80661 6.26816C9.69251 6.28955 9.57841 6.31806 9.46424 6.35375C9.35725 6.38944 9.26095 6.43934 9.17536 6.50354C9.09695 6.56062 9.03276 6.63552 8.98278 6.72822C8.93287 6.82092 8.90788 6.93861 8.90788 7.08129C8.90788 7.21678 8.93287 7.33096 8.98278 7.42366C9.03276 7.51636 9.10047 7.59125 9.18606 7.64834C9.27165 7.69825 9.37154 7.73393 9.48564 7.75533C9.59981 7.77673 9.7175 7.78743 9.83871 7.78743C10.1383 7.78743 10.3701 7.73753 10.5341 7.63764C10.6982 7.53776 10.8195 7.42007 10.8979 7.28457C10.9764 7.14189 11.0228 6.99929 11.037 6.85661C11.0584 6.71393 11.0691 6.59983 11.0691 6.51424V5.94718ZM13.8104 1.01489H15.3297V8.65406H13.8104V1.01489ZM20.2493 5.29454C20.178 4.90937 20.0496 4.6169 19.8642 4.41721C19.6859 4.21752 19.4112 4.11764 19.0403 4.11764C18.7978 4.11764 18.5946 4.16043 18.4305 4.24602C18.2736 4.32451 18.1452 4.42432 18.0453 4.5456C17.9526 4.66688 17.8848 4.79527 17.842 4.93077C17.8063 5.06626 17.7849 5.18755 17.7778 5.29454H20.2493ZM17.7778 6.25746C17.7992 6.74962 17.924 7.10628 18.1523 7.32737C18.3806 7.54846 18.7086 7.65904 19.1366 7.65904C19.4433 7.65904 19.7073 7.58415 19.9284 7.43436C20.1494 7.27746 20.285 7.11339 20.3349 6.9422H21.6723C21.4583 7.60555 21.1302 8.0799 20.688 8.36518C20.2457 8.65047 19.7108 8.79315 19.0831 8.79315C18.648 8.79315 18.2557 8.72536 17.9062 8.58986C17.5567 8.44718 17.2607 8.24749 17.0182 7.99071C16.7757 7.73393 16.5866 7.42725 16.4511 7.07059C16.3227 6.71393 16.2586 6.32165 16.2586 5.89369C16.2586 5.48001 16.3263 5.09485 16.4618 4.73818C16.5973 4.38152 16.7899 4.07484 17.0396 3.81806C17.2893 3.55417 17.5852 3.3473 17.9276 3.19751C18.2771 3.04772 18.6623 2.97283 19.0831 2.97283C19.5539 2.97283 19.964 3.06553 20.3135 3.25101C20.663 3.4293 20.9484 3.67186 21.1694 3.97855C21.3977 4.28523 21.5617 4.63478 21.6616 5.02706C21.7615 5.41933 21.7971 5.82949 21.7686 6.25746H17.7778Z" fill="white"/>
</svg>
