<svg width="25" height="24" viewBox="0 0 25 24" fill="none" xmlns="http://www.w3.org/2000/svg">
<path fill-rule="evenodd" clip-rule="evenodd" d="M1.69569 7.16767C1.11773 8.55064 0.828751 10.0781 0.828751 11.75C0.828751 13.422 1.10767 14.9598 1.66453 16.3634C2.24249 17.767 3.0476 18.9848 4.07987 20.0169C5.13227 21.049 6.37108 21.854 7.79537 22.432C9.21965 22.9893 10.7882 23.2679 12.5014 23.2679C14.1941 23.2679 15.7526 22.9893 17.1768 22.432C18.6011 21.854 19.8289 21.049 20.8612 20.0169C21.9141 18.9848 22.7187 17.767 23.276 16.3634C23.854 14.9598 24.143 13.422 24.143 11.75C24.143 10.0781 23.854 8.55064 23.276 7.16767C22.6981 5.7847 21.8829 4.58752 20.83 3.57609C19.7776 2.56467 18.5388 1.79062 17.115 1.25394C15.7113 0.696628 14.1735 0.417969 12.5014 0.417969C10.85 0.417969 9.31214 0.696628 7.88834 1.25394C6.46406 1.79062 5.22524 2.56467 4.17284 3.57609C3.11997 4.58752 2.29425 5.7847 1.69569 7.16767ZM7.1139 15.1559C6.61885 14.1651 6.37108 13.0298 6.37108 11.75C6.37108 10.4703 6.61885 9.34535 7.1139 8.37519C7.63003 7.38442 8.34217 6.61037 9.25032 6.05307C10.1791 5.49572 11.2631 5.21709 12.5014 5.21709C13.7604 5.21709 14.8444 5.49572 15.7526 6.05307C16.6607 6.61037 17.3623 7.38442 17.8578 8.37519C18.3533 9.34535 18.6011 10.4703 18.6011 11.75C18.6011 13.0298 18.3428 14.1651 17.8267 15.1559C17.3316 16.126 16.6195 16.8897 15.6907 17.4471C14.7821 18.0044 13.7192 18.283 12.5014 18.283C11.2631 18.283 10.1791 18.0044 9.25032 17.4471C8.34217 16.8897 7.63003 16.126 7.1139 15.1559Z" fill="#1F1F1F"/>
</svg>
