<svg width="20" height="23" viewBox="0 0 20 23" fill="none" xmlns="http://www.w3.org/2000/svg">
<path fill-rule="evenodd" clip-rule="evenodd" d="M0.220444 0.913086H7.96102C10.3347 0.913086 12.3887 1.35688 14.1225 2.24445C15.8564 3.13203 17.1982 4.38083 18.1476 5.99086C19.097 7.6009 19.5719 9.52051 19.5719 11.7498C19.5719 13.9584 19.097 15.8781 18.1476 17.5087C17.1982 19.1187 15.8564 20.3675 14.1225 21.2551C12.3887 22.1427 10.3347 22.5865 7.96102 22.5865H0.220444V0.913086ZM5.60799 17.9422V5.5574H7.77508C8.6008 5.5574 9.39537 5.66058 10.1593 5.86698C10.9438 6.07344 11.6248 6.41398 12.2027 6.88875C12.8013 7.36348 13.2762 8.0034 13.627 8.80837C13.9778 9.59278 14.1537 10.5732 14.1537 11.7498C14.1537 12.9263 13.9778 13.9171 13.627 14.7221C13.2762 15.5065 12.8013 16.136 12.2027 16.6108C11.6248 17.0855 10.9438 17.4261 10.1593 17.6325C9.39537 17.839 8.6008 17.9422 7.77508 17.9422H5.60799Z" fill="#1F1F1F"/>
</svg>
