<svg width="17" height="7" viewBox="0 0 17 7" fill="none" xmlns="http://www.w3.org/2000/svg">
<path d="M1.61306 4.43341C1.61306 4.63083 1.64867 4.7981 1.72 4.93518C1.79127 5.07226 1.88451 5.18471 1.99967 5.27244C2.1203 5.35469 2.26013 5.41774 2.41919 5.46163C2.57818 5.5 2.74269 5.51921 2.91273 5.51921C3.02789 5.51921 3.15128 5.51098 3.28289 5.49453C3.41451 5.47262 3.53789 5.43419 3.65305 5.37937C3.76821 5.32455 3.86416 5.25052 3.94095 5.15728C4.01769 5.05857 4.05612 4.93518 4.05612 4.78712C4.05612 4.62806 4.004 4.49921 3.89983 4.4005C3.80112 4.30179 3.6695 4.21954 3.50499 4.15373C3.34047 4.08792 3.15398 4.03034 2.94564 3.98099C2.73723 3.93164 2.52612 3.87682 2.31225 3.81647C2.09286 3.76165 1.87899 3.69585 1.67064 3.61906C1.46223 3.5368 1.2758 3.43262 1.11126 3.30648C0.946743 3.18033 0.812386 3.02404 0.708195 2.83761C0.609486 2.64565 0.560131 2.41533 0.560131 2.14664C0.560131 1.84505 0.623193 1.58453 0.749324 1.36519C0.880936 1.14033 1.05093 0.953904 1.25932 0.80584C1.4677 0.657776 1.70354 0.548079 1.96677 0.476808C2.22999 0.405538 2.49322 0.369873 2.75644 0.369873C3.0635 0.369873 3.35692 0.405538 3.6366 0.476808C3.92174 0.542614 4.17398 0.652311 4.39337 0.80584C4.61271 0.959368 4.78545 1.15679 4.9116 1.3981C5.04321 1.63388 5.10902 1.92178 5.10902 2.2618H3.8587C3.84771 2.0863 3.80934 1.941 3.74354 1.82584C3.68319 1.71068 3.60094 1.62019 3.49676 1.55438C3.39253 1.48858 3.27191 1.44199 3.13483 1.41455C3.00322 1.38711 2.85786 1.37342 2.69886 1.37342C2.59463 1.37342 2.49046 1.38441 2.38628 1.40632C2.28205 1.42824 2.1861 1.46666 2.09838 1.52148C2.01612 1.5763 1.94756 1.64487 1.89274 1.72713C1.83786 1.80938 1.81048 1.91356 1.81048 2.03971C1.81048 2.15487 1.83239 2.24811 1.87628 2.31938C1.92012 2.39065 2.00514 2.45646 2.13128 2.5168C2.2629 2.57714 2.4411 2.63743 2.66596 2.69777C2.89628 2.75811 3.19511 2.83484 3.56257 2.92809C3.67221 2.95001 3.82303 2.99113 4.01499 3.05148C4.21241 3.1063 4.40706 3.19678 4.59902 3.32293C4.79091 3.44908 4.95543 3.61906 5.09256 3.83293C5.23511 4.04133 5.30643 4.31002 5.30643 4.63905C5.30643 4.90774 5.25432 5.15728 5.15014 5.3876C5.04591 5.61792 4.88962 5.8181 4.68127 5.98808C4.47833 6.15259 4.22333 6.28145 3.91628 6.37469C3.61463 6.46794 3.26368 6.51453 2.86338 6.51453C2.53981 6.51453 2.22447 6.4734 1.91741 6.39114C1.61576 6.31435 1.34707 6.19096 1.11126 6.02098C0.880937 5.851 0.697225 5.63437 0.560131 5.37115C0.423036 5.10792 0.357231 4.79534 0.362712 4.43341H1.61306ZM5.90204 3.43809C5.91849 3.16388 5.98706 2.93632 6.10768 2.75535C6.22837 2.57438 6.3819 2.42908 6.56833 2.31938C6.75482 2.20969 6.96316 2.13295 7.19349 2.08906C7.42933 2.03971 7.66512 2.01503 7.9009 2.01503C8.11477 2.01503 8.3314 2.03148 8.55074 2.06438C8.77013 2.09182 8.97025 2.1494 9.15122 2.23712C9.33219 2.32485 9.48025 2.44823 9.59541 2.60728C9.71057 2.76081 9.76815 2.96646 9.76815 3.22422V5.43695C9.76815 5.62891 9.77914 5.81258 9.80106 5.98808C9.82303 6.16358 9.8614 6.29519 9.91622 6.38292H8.73171C8.70979 6.31711 8.69058 6.2513 8.67413 6.1855C8.6632 6.11423 8.65497 6.0429 8.64945 5.97163C8.46302 6.16358 8.24368 6.2979 7.99139 6.37469C7.73915 6.45148 7.48139 6.48985 7.21816 6.48985C7.01528 6.48985 6.82609 6.46517 6.65058 6.41582C6.47514 6.36646 6.32155 6.28967 6.18994 6.1855C6.05833 6.08132 5.95415 5.94971 5.87736 5.79066C5.80609 5.63161 5.77043 5.44242 5.77043 5.22308C5.77043 4.98177 5.81156 4.78435 5.89381 4.63083C5.98159 4.47177 6.09123 4.34569 6.22284 4.25244C6.35998 4.1592 6.51351 4.09069 6.68349 4.0468C6.85899 3.99744 7.03449 3.95907 7.20994 3.93163C7.38544 3.9042 7.55818 3.88228 7.72816 3.86583C7.8982 3.84938 8.04897 3.8247 8.18058 3.7918C8.31219 3.75889 8.41642 3.7123 8.49316 3.65196C8.56995 3.58615 8.60562 3.49291 8.60009 3.37228C8.60009 3.24613 8.57818 3.14742 8.53429 3.07615C8.49592 2.99936 8.4411 2.94178 8.36977 2.90341C8.30397 2.85952 8.22447 2.83214 8.13122 2.82115C8.0435 2.8047 7.94756 2.79648 7.84332 2.79648C7.613 2.79648 7.43203 2.84583 7.30042 2.94454C7.16881 3.04325 7.09207 3.20777 7.0701 3.43809H5.90204ZM8.60009 4.30179C8.55074 4.34569 8.48769 4.38129 8.4109 4.40873C8.33963 4.43065 8.26013 4.44986 8.17235 4.46631C8.0901 4.48276 8.00237 4.49645 7.90913 4.50744C7.81594 4.51843 7.7227 4.53212 7.62945 4.54857C7.54173 4.56502 7.45401 4.58694 7.36623 4.61437C7.28397 4.64181 7.20994 4.68018 7.14413 4.72954C7.08385 4.77343 7.03449 4.83101 6.99607 4.90228C6.9577 4.97355 6.93849 5.06403 6.93849 5.17373C6.93849 5.2779 6.9577 5.36568 6.99607 5.43695C7.03449 5.50822 7.08655 5.5658 7.15236 5.60969C7.21816 5.64806 7.29496 5.6755 7.38268 5.69195C7.47046 5.7084 7.56094 5.71663 7.65413 5.71663C7.88445 5.71663 8.06272 5.67826 8.18881 5.60147C8.31495 5.52467 8.4082 5.43419 8.46848 5.33002C8.52882 5.22032 8.56449 5.11068 8.57542 5.00099C8.59187 4.89129 8.60009 4.80357 8.60009 4.73776V4.30179ZM10.7077 0.509711H11.8758V6.38292H10.7077V0.509711ZM15.6581 3.80002C15.6033 3.50389 15.5046 3.27904 15.362 3.12551C15.2249 2.97198 15.0137 2.89519 14.7286 2.89519C14.5422 2.89519 14.3859 2.92809 14.2597 2.9939C14.1391 3.05424 14.0404 3.13097 13.9636 3.22422C13.8923 3.31746 13.8402 3.41617 13.8073 3.52035C13.7799 3.62452 13.7634 3.71776 13.7579 3.80002H15.6581ZM13.7579 4.54034C13.7744 4.91873 13.8703 5.19294 14.0459 5.36292C14.2214 5.5329 14.4736 5.61792 14.8026 5.61792C15.0384 5.61792 15.2414 5.56034 15.4113 5.44518C15.5813 5.32455 15.6855 5.1984 15.7239 5.06679H16.7521C16.5876 5.57679 16.3354 5.94149 15.9954 6.16082C15.6553 6.38015 15.2441 6.48985 14.7615 6.48985C14.427 6.48985 14.1253 6.43774 13.8567 6.33356C13.588 6.22387 13.3604 6.07034 13.1739 5.87292C12.9875 5.6755 12.8421 5.43971 12.738 5.1655C12.6392 4.89129 12.5899 4.5897 12.5899 4.26067C12.5899 3.94262 12.642 3.64649 12.7462 3.37228C12.8504 3.09807 12.9984 2.86228 13.1904 2.66487C13.3823 2.46198 13.6099 2.30293 13.8731 2.18777C14.1418 2.07261 14.4379 2.01503 14.7615 2.01503C15.1234 2.01503 15.4388 2.0863 15.7075 2.2289C15.9761 2.36598 16.1955 2.55247 16.3655 2.78825C16.541 3.02404 16.6671 3.29279 16.7439 3.59438C16.8207 3.89597 16.8481 4.21131 16.8262 4.54034H13.7579Z" fill="white"/>
</svg>
