<svg width="17" height="21" viewBox="0 0 17 21" fill="none" xmlns="http://www.w3.org/2000/svg">
<path d="M8.71 5.80091C8.71 5.80091 7.5525 1.63425 4.26583 1.63425C3.69498 1.61627 3.14031 1.82556 2.72362 2.21616C2.30693 2.60676 2.06226 3.14675 2.04333 3.71758C2.06226 4.28841 2.30693 4.8284 2.72362 5.219C3.14031 5.6096 3.69498 5.81889 4.26583 5.80091H8.71ZM8.71 5.80091H13.1542C13.725 5.81889 14.2797 5.6096 14.6964 5.219C15.1131 4.8284 15.3577 4.28841 15.3767 3.71758C15.3577 3.14675 15.1131 2.60676 14.6964 2.21616C14.2797 1.82556 13.725 1.61627 13.1542 1.63425C9.8675 1.63425 8.71 5.80091 8.71 5.80091ZM16.1133 11.6334V18.3001C16.1133 18.7421 15.9377 19.166 15.6252 19.4786C15.3126 19.7912 14.8887 19.9667 14.4467 19.9667H2.78C2.33797 19.9667 1.91405 19.7912 1.60149 19.4786C1.28893 19.166 1.11333 18.7421 1.11333 18.3001V11.6334" stroke="#2F3337" stroke-width="1.66667" stroke-miterlimit="10" stroke-linecap="round" stroke-linejoin="round"/>
</svg>
