<svg width="12" height="12" viewBox="0 0 12 12" fill="none" xmlns="http://www.w3.org/2000/svg">
<path fill-rule="evenodd" clip-rule="evenodd" d="M1.00193 5.54161C0.839883 5.54161 0.684473 5.60599 0.569888 5.72057C0.455303 5.83516 0.39093 5.99057 0.39093 6.15261C0.39093 6.31466 0.455303 6.47007 0.569888 6.58466C0.684473 6.69924 0.839883 6.76361 1.00193 6.76361H5.27893L5.29115 11.0406C5.29195 11.1209 5.30855 11.2001 5.34 11.274C5.37144 11.3478 5.41712 11.4147 5.47443 11.4709C5.53173 11.527 5.59954 11.5714 5.67397 11.6013C5.74841 11.6313 5.82802 11.6463 5.90826 11.6455C5.9885 11.6447 6.06779 11.6281 6.14161 11.5967C6.21544 11.5652 6.28234 11.5195 6.33851 11.4622C6.39468 11.4049 6.43901 11.3371 6.46898 11.2627C6.49894 11.1882 6.51395 11.1086 6.51315 11.0284V6.75139L10.7901 6.73917C10.8704 6.73837 10.9497 6.72177 11.0235 6.69033C11.0973 6.65888 11.1642 6.6132 11.2204 6.5559C11.2766 6.49859 11.3209 6.43079 11.3509 6.35635C11.3808 6.28191 11.3958 6.2023 11.395 6.12206C11.3942 6.04183 11.3776 5.96253 11.3462 5.88871C11.3147 5.81489 11.2691 5.74798 11.2118 5.69181C11.1545 5.63564 11.0866 5.59131 11.0122 5.56135C10.9378 5.53138 10.8582 5.51637 10.7779 5.51717H6.50093L6.48871 1.24017C6.48709 1.07813 6.42116 0.923361 6.30543 0.809922C6.1897 0.696483 6.03365 0.633664 5.8716 0.635284C5.70955 0.636905 5.55479 0.702832 5.44135 0.818563C5.32791 0.934293 5.26509 1.09035 5.26671 1.25239V5.52939L0.98971 5.54161H1.00193Z" fill="#4E504F"/>
</svg>
