<svg width="17" height="17" viewBox="0 0 17 17" fill="none" xmlns="http://www.w3.org/2000/svg">
<path d="M1.45734 1.34637H6.02867C6.23934 1.34637 6.41001 1.51704 6.41001 1.72704V6.2997C6.40992 6.34969 6.39998 6.39918 6.38077 6.44533C6.36156 6.49148 6.33345 6.53339 6.29804 6.56868C6.26263 6.60397 6.22062 6.63193 6.1744 6.65098C6.12818 6.67003 6.07866 6.67979 6.02867 6.6797H1.45734C1.35638 6.6797 1.25956 6.6396 1.18817 6.56821C1.11678 6.49682 1.07667 6.4 1.07667 6.29904V1.72637C1.07667 1.51704 1.248 1.34637 1.45734 1.34637ZM1.45734 10.6797H6.02867C6.23934 10.6797 6.41001 10.8504 6.41001 11.0604V15.6324C6.41001 15.6824 6.40014 15.732 6.38097 15.7782C6.36179 15.8244 6.33369 15.8664 6.29827 15.9018C6.26286 15.9371 6.22081 15.9652 6.17455 15.9843C6.12829 16.0033 6.07872 16.0131 6.02867 16.013H1.45734C1.35638 16.013 1.25956 15.9729 1.18817 15.9015C1.11678 15.8302 1.07667 15.7333 1.07667 15.6324V11.0597C1.07667 10.8497 1.24734 10.679 1.45734 10.679V10.6797ZM10.7907 1.34637H15.362C15.5727 1.34637 15.7433 1.51704 15.7433 1.72704V6.2997C15.7433 6.34975 15.7335 6.3993 15.7143 6.44553C15.6951 6.49176 15.667 6.53375 15.6316 6.56911C15.5962 6.60447 15.5541 6.63249 15.5079 6.65159C15.4616 6.67068 15.4121 6.68046 15.362 6.68037H10.7907C10.7406 6.68037 10.6911 6.6705 10.6448 6.65133C10.5986 6.63216 10.5566 6.60406 10.5213 6.56864C10.4859 6.53322 10.4579 6.49118 10.4388 6.44492C10.4197 6.39865 10.4099 6.34908 10.41 6.29904V1.72637C10.41 1.51637 10.5807 1.34637 10.7907 1.34637ZM10.7907 10.6797H15.362C15.5727 10.6797 15.7433 10.8504 15.7433 11.0604V15.6324C15.7433 15.6824 15.7335 15.732 15.7143 15.7782C15.6951 15.8244 15.667 15.8664 15.6316 15.9018C15.5962 15.9371 15.5541 15.9652 15.5079 15.9843C15.4616 16.0033 15.4121 16.0131 15.362 16.013H10.7907C10.6897 16.013 10.5929 15.9729 10.5215 15.9015C10.4501 15.8302 10.41 15.7333 10.41 15.6324V11.0597C10.41 10.8497 10.5807 10.679 10.7907 10.679V10.6797Z" stroke="#2F3337" stroke-width="1.33333"/>
</svg>
