<svg width="19" height="26" viewBox="0 0 19 26" fill="none" xmlns="http://www.w3.org/2000/svg">
<path d="M12.8977 3.35392L14.08 1.57997C14.1203 1.52312 14.1488 1.45877 14.1638 1.39072C14.1788 1.32267 14.18 1.2523 14.1673 1.18378C14.1546 1.11527 14.1282 1.05 14.0899 0.991838C14.0515 0.933679 14.0018 0.883812 13.9438 0.845191C13.8858 0.80657 13.8206 0.779981 13.7522 0.766998C13.6837 0.754015 13.6134 0.754901 13.5452 0.769606C13.4771 0.78431 13.4127 0.812532 13.3556 0.852602C13.2986 0.892672 13.2502 0.943774 13.2133 1.00288L11.9779 2.85705C11.1904 2.51196 10.3399 2.3338 9.48001 2.3338C8.62017 2.3338 7.76965 2.51196 6.98209 2.85705L5.74668 1.00184C5.70977 0.942733 5.66139 0.89163 5.60438 0.851561C5.54737 0.811491 5.4829 0.783268 5.41478 0.768564C5.34667 0.75386 5.2763 0.752973 5.20784 0.765956C5.13937 0.77894 5.07421 0.805529 5.01621 0.84415C4.95821 0.88277 4.90855 0.932637 4.87017 0.990797C4.83179 1.04896 4.80547 1.11423 4.79277 1.18274C4.78007 1.25126 4.78125 1.32162 4.79623 1.38968C4.81122 1.45773 4.83971 1.52208 4.88001 1.57892L6.0623 3.35392C5.19248 3.92114 4.47792 4.69642 3.98335 5.60951C3.48879 6.5226 3.22986 7.54466 3.23001 8.58309H15.73C15.7302 7.54466 15.4712 6.5226 14.9767 5.60951C14.4821 4.69642 13.7675 3.92114 12.8977 3.35392ZM3.23001 20.0414C3.23001 20.3177 3.33976 20.5826 3.53511 20.778C3.73046 20.9733 3.99541 21.0831 4.27168 21.0831H5.31334V24.2081C5.31334 24.4844 5.42309 24.7493 5.61844 24.9447C5.81379 25.14 6.07874 25.2498 6.35501 25.2498C6.63128 25.2498 6.89623 25.14 7.09158 24.9447C7.28693 24.7493 7.39668 24.4844 7.39668 24.2081V21.0831H11.5633V24.2081C11.5633 24.4844 11.6731 24.7493 11.8684 24.9447C12.0638 25.14 12.3287 25.2498 12.605 25.2498C12.8813 25.2498 13.1462 25.14 13.3416 24.9447C13.5369 24.7493 13.6467 24.4844 13.6467 24.2081V21.0831H14.6883C14.9646 21.0831 15.2296 20.9733 15.4249 20.778C15.6203 20.5826 15.73 20.3177 15.73 20.0414V9.62476H3.23001V20.0414ZM1.14668 9.62476C0.87041 9.62476 0.605458 9.7345 0.410108 9.92985C0.214758 10.1252 0.105011 10.3902 0.105011 10.6664V15.8748C0.105011 16.151 0.214758 16.416 0.410108 16.6113C0.605458 16.8067 0.87041 16.9164 1.14668 16.9164C1.42294 16.9164 1.6879 16.8067 1.88325 16.6113C2.0786 16.416 2.18834 16.151 2.18834 15.8748V10.6664C2.18834 10.3902 2.0786 10.1252 1.88325 9.92985C1.6879 9.7345 1.42294 9.62476 1.14668 9.62476ZM17.8133 9.62476C17.5371 9.62476 17.2721 9.7345 17.0768 9.92985C16.8814 10.1252 16.7717 10.3902 16.7717 10.6664V15.8748C16.7717 16.151 16.8814 16.416 17.0768 16.6113C17.2721 16.8067 17.5371 16.9164 17.8133 16.9164C18.0896 16.9164 18.3546 16.8067 18.5499 16.6113C18.7453 16.416 18.855 16.151 18.855 15.8748V10.6664C18.855 10.3902 18.7453 10.1252 18.5499 9.92985C18.3546 9.7345 18.0896 9.62476 17.8133 9.62476Z" fill="white"/>
</svg>
