<svg width="16" height="17" viewBox="0 0 16 17" fill="none" xmlns="http://www.w3.org/2000/svg">
<path d="M12.2086 3.88603C12.0138 3.68478 11.7758 3.53032 11.5127 3.43423C11.1538 3.31023 10.7786 3.23985 10.3992 3.22537C9.77257 3.19019 9.5989 3.19019 7.99945 3.19019H5.6338C5.25435 3.20467 4.87912 3.27505 4.52023 3.39906C4.25934 3.4995 4.0224 3.65352 3.82472 3.85119C3.62705 4.04887 3.47301 4.2858 3.37257 4.5467C3.24867 4.90524 3.17829 5.2801 3.16371 5.65918C3.12853 6.28576 3.12855 6.45945 3.12855 8.0589V10.4234C3.14314 10.8025 3.21352 11.1774 3.33741 11.5359C3.43786 11.7968 3.59189 12.0337 3.78957 12.2314C3.98724 12.4291 4.22418 12.5831 4.48507 12.6836C4.84396 12.8076 5.21919 12.8779 5.59864 12.8924C6.22523 12.9276 6.39889 12.9276 7.99834 12.9276H10.364C10.7434 12.9131 11.1187 12.8427 11.4776 12.7187C11.7385 12.6183 11.9754 12.4643 12.1731 12.2666C12.3708 12.0689 12.5248 11.832 12.6252 11.5711C12.7491 11.2125 12.8195 10.8377 12.8341 10.4586C12.8693 9.83203 12.8692 9.65835 12.8692 8.0589V5.69435C12.8547 5.31527 12.7843 4.94041 12.6604 4.58187C12.5643 4.31876 12.4098 4.08086 12.2086 3.88603ZM7.99945 11.1896C7.38025 11.1896 6.77494 11.006 6.26009 10.662C5.74524 10.318 5.34396 9.82904 5.107 9.25697C4.87004 8.68491 4.80807 8.05542 4.92887 7.44812C5.04967 6.84081 5.34782 6.28297 5.78566 5.84513C6.22351 5.40729 6.78135 5.1091 7.38866 4.9883C7.99596 4.8675 8.62546 4.92951 9.19753 5.16647C9.7696 5.40342 10.2585 5.80469 10.6026 6.31954C10.9466 6.83439 11.1302 7.4397 11.1302 8.0589C11.1321 8.47062 11.0524 8.87862 10.8958 9.25937C10.7391 9.64013 10.5086 9.98608 10.2175 10.2773C9.92642 10.5684 9.58054 10.7991 9.19984 10.9559C8.81914 11.1127 8.41117 11.1925 7.99945 11.1907V11.1896ZM11.1302 5.62509C10.9926 5.62509 10.858 5.58429 10.7436 5.50783C10.6292 5.43137 10.54 5.32268 10.4873 5.19553C10.4347 5.06839 10.4209 4.92847 10.4477 4.79349C10.4746 4.65851 10.5408 4.53453 10.6382 4.43721C10.7355 4.3399 10.8595 4.27362 10.9945 4.24677C11.1294 4.21992 11.2693 4.2337 11.3965 4.28637C11.5236 4.33904 11.6323 4.42822 11.7088 4.54265C11.7852 4.65708 11.826 4.79163 11.826 4.92925C11.826 5.02063 11.808 5.11111 11.7731 5.19553C11.7381 5.27996 11.6868 5.35666 11.6222 5.42127C11.5576 5.48589 11.4809 5.53715 11.3965 5.57212C11.3121 5.60709 11.2216 5.62509 11.1302 5.62509ZM12.5219 0.0605469H3.4814C2.55975 0.0631574 1.67661 0.430438 1.0249 1.08215C0.373189 1.73386 0.00589115 2.61701 0.00328064 3.53867V12.5813C0.00647078 13.5026 0.374023 14.3852 1.02567 15.0364C1.67731 15.6877 2.56013 16.0546 3.4814 16.0573H12.5252C13.4468 16.0546 14.33 15.6874 14.9817 15.0357C15.6334 14.3839 16.0007 13.5008 16.0033 12.5791V3.53647C16.0001 2.61463 15.6321 1.73153 14.9797 1.0802C14.3274 0.428873 13.4437 0.0622845 12.5219 0.0605469ZM13.8784 10.4949C13.8606 10.9828 13.7668 11.465 13.6003 11.924C13.4345 12.3116 13.1986 12.6652 12.9044 12.9672C12.6213 13.2838 12.2623 13.5232 11.8612 13.663C11.4022 13.8295 10.9201 13.9234 10.4321 13.9411C9.80555 13.9763 9.59779 13.9763 7.99724 13.9763C6.39669 13.9763 6.18893 13.9763 5.56234 13.9411C5.07441 13.9234 4.59226 13.8295 4.13329 13.663C3.74568 13.4973 3.39201 13.2614 3.09007 12.9672C2.77347 12.684 2.53404 12.325 2.39423 11.924C2.22773 11.465 2.13391 10.9828 2.11612 10.4949C2.08095 9.8694 2.08093 9.66054 2.08093 8.05999C2.08093 6.45944 2.08095 6.25168 2.11612 5.62509C2.13391 5.13717 2.22773 4.65501 2.39423 4.19603C2.56846 3.81307 2.80343 3.46078 3.09007 3.1528C3.37323 2.83621 3.73221 2.59677 4.13329 2.45697C4.59226 2.29041 5.07441 2.19659 5.56234 2.17886C6.18893 2.14368 6.39669 2.14367 7.99724 2.14367C9.59779 2.14367 9.80555 2.14368 10.4321 2.17886C10.9201 2.19659 11.4023 2.29041 11.8612 2.45697C12.2442 2.63118 12.5965 2.86615 12.9044 3.1528C13.221 3.43596 13.4605 3.79494 13.6003 4.19603C13.7668 4.655 13.8606 5.13716 13.8784 5.62509C13.9136 6.25168 13.9136 6.45944 13.9136 8.05999C13.9136 9.66054 13.9125 9.8683 13.8784 10.4949ZM10.087 8.05999C10.087 8.47308 9.96449 8.8769 9.73499 9.22037C9.50549 9.56385 9.17929 9.83155 8.79764 9.98963C8.416 10.1477 7.99603 10.1891 7.59088 10.1085C7.18572 10.0279 6.81356 9.82898 6.52146 9.53688C6.22936 9.24478 6.03044 8.87263 5.94984 8.46747C5.86925 8.06232 5.91062 7.64235 6.0687 7.26071C6.22679 6.87906 6.4945 6.55286 6.83798 6.32336C7.18145 6.09386 7.58525 5.97137 7.99834 5.97137C8.27263 5.97137 8.54424 6.02538 8.79764 6.13035C9.05105 6.23531 9.28129 6.38915 9.47523 6.5831C9.66918 6.77705 9.82302 7.0073 9.92799 7.26071C10.033 7.51411 10.087 7.78571 10.087 8.05999Z" fill="white"/>
</svg>
