<svg width="25" height="25" viewBox="0 0 25 25" fill="none" xmlns="http://www.w3.org/2000/svg">
<path d="M12.8 0.439453C6.17605 0.439453 0.800049 5.81545 0.800049 12.4395C0.800049 19.0635 6.17605 24.4395 12.8 24.4395H20.192V21.8955C23 19.6875 24.8 16.2795 24.8 12.4395C24.8 5.81545 19.424 0.439453 12.8 0.439453ZM8.48005 13.5195C7.88005 13.5195 7.40005 13.0395 7.40005 12.4395C7.40005 11.8395 7.88005 11.3595 8.48005 11.3595C9.08005 11.3595 9.56005 11.8395 9.56005 12.4395C9.56005 13.0395 9.08005 13.5195 8.48005 13.5195ZM12.8 13.5195C12.2 13.5195 11.72 13.0395 11.72 12.4395C11.72 11.8395 12.2 11.3595 12.8 11.3595C13.4 11.3595 13.88 11.8395 13.88 12.4395C13.88 13.0395 13.4 13.5195 12.8 13.5195ZM17.12 13.5195C16.52 13.5195 16.04 13.0395 16.04 12.4395C16.04 11.8395 16.52 11.3595 17.12 11.3595C17.72 11.3595 18.2 11.8395 18.2 12.4395C18.2 13.0395 17.72 13.5195 17.12 13.5195Z" fill="white"/>
</svg>
