<svg width="17" height="17" viewBox="0 0 17 17" fill="none" xmlns="http://www.w3.org/2000/svg">
<path d="M4.60001 16.2135H1.26668V8.88021H4.60001M4.60001 16.2135H12.884C13.3614 16.213 13.8229 16.0418 14.185 15.7308C14.5472 15.4197 14.7861 14.9894 14.8587 14.5175L15.5767 9.85088C15.6205 9.56589 15.6022 9.27479 15.523 8.99754C15.4438 8.72029 15.3056 8.46344 15.1178 8.24461C14.9301 8.02577 14.6972 7.85011 14.4353 7.72968C14.1733 7.60925 13.8884 7.54689 13.6 7.54688H8.60001V3.54688C8.60001 3.01644 8.3893 2.50773 8.01423 2.13266C7.63915 1.75759 7.13044 1.54688 6.60001 1.54688L4.60001 8.88021M4.60001 16.2135V8.88021" stroke="#2F3337" stroke-width="1.33333" stroke-miterlimit="10" stroke-linecap="round" stroke-linejoin="round"/>
</svg>
