<svg width="16" height="14" viewBox="0 0 16 14" fill="none" xmlns="http://www.w3.org/2000/svg">
<path d="M16 2.51401C15.4105 2.7914 14.78 2.97164 14.133 3.04774C14.8103 2.62898 15.3267 1.99432 15.5991 1.2461C14.9657 1.63796 14.2657 1.91009 13.5339 2.04893C13.2138 1.71688 12.8311 1.45158 12.4078 1.26835C11.9845 1.08513 11.5291 0.987612 11.0679 0.981445C10.2017 0.982031 9.37108 1.32617 8.75827 1.93836C8.14546 2.55054 7.80048 3.3808 7.79901 4.24701C7.78454 4.49373 7.80732 4.74122 7.86656 4.98117C6.56653 4.92748 5.29303 4.59625 4.1316 4.00971C2.97016 3.42317 1.94769 2.59489 1.13282 1.58052C0.810698 2.07325 0.647935 2.65315 0.66662 3.24153C0.671782 3.78182 0.807873 4.31281 1.06322 4.78898C1.31857 5.26516 1.68556 5.67232 2.13275 5.97557C1.62567 5.92164 1.1306 5.78628 0.66662 5.57472V5.64225C0.660154 6.39465 0.916106 7.12577 1.39044 7.70985C1.86478 8.29393 2.52784 8.69444 3.26555 8.84247C2.98417 8.92369 2.6935 8.96836 2.40071 8.97536C2.19792 8.98644 1.9947 8.96361 1.79943 8.90781C1.99433 9.56808 2.39928 10.1468 2.95285 10.556C3.50641 10.9653 4.17838 11.1829 4.86677 11.1757C3.70286 12.0786 2.27257 12.5704 0.799496 12.5742C0.531331 12.585 0.26285 12.5631 -5.72205e-06 12.5089C1.40883 13.4094 3.03406 13.9142 4.70517 13.9702C6.37628 14.0262 8.03168 13.6315 9.49767 12.8274C10.9637 12.0232 12.1862 10.8394 13.0371 9.40001C13.8879 7.96064 14.3357 6.3188 14.3334 4.64675V4.24589C14.9848 3.77092 15.5471 3.18462 15.9945 2.51401" fill="white"/>
</svg>
