<svg width="20" height="8" viewBox="0 0 20 8" fill="none" xmlns="http://www.w3.org/2000/svg">
<path d="M1.72219 4.90955C1.72219 5.14221 1.76415 5.33935 1.84821 5.5009C1.93221 5.66245 2.0421 5.79498 2.17782 5.89836C2.31998 5.9953 2.48478 6.0696 2.67222 6.12133C2.8596 6.16654 3.05348 6.18919 3.25388 6.18919C3.3896 6.18919 3.53501 6.17949 3.69012 6.16011C3.84522 6.13428 3.99064 6.08899 4.12636 6.02439C4.26208 5.95978 4.37515 5.87253 4.46565 5.76264C4.55609 5.64631 4.60137 5.5009 4.60137 5.3264C4.60137 5.13896 4.53995 4.9871 4.41718 4.87077C4.30085 4.75444 4.14574 4.6575 3.95186 4.57995C3.75798 4.50239 3.53819 4.43453 3.29265 4.37637C3.04704 4.3182 2.79825 4.2536 2.5462 4.18248C2.28764 4.11788 2.03559 4.04033 1.79005 3.94982C1.54444 3.85288 1.32473 3.73011 1.13081 3.58144C0.936923 3.43277 0.778582 3.24858 0.655791 3.02887C0.53946 2.80265 0.481294 2.53121 0.481294 2.21456C0.481294 1.85913 0.555614 1.5521 0.704262 1.29361C0.859369 1.02861 1.05971 0.808896 1.3053 0.6344C1.55088 0.459904 1.82883 0.330624 2.13904 0.24663C2.44926 0.162637 2.75947 0.120605 3.06969 0.120605C3.43156 0.120605 3.77736 0.162637 4.10697 0.24663C4.44301 0.324184 4.74028 0.453464 4.99884 0.6344C5.25733 0.815335 5.4609 1.048 5.60957 1.33238C5.76468 1.61026 5.84223 1.94956 5.84223 2.35028H4.36871C4.35576 2.14344 4.31055 1.9722 4.23299 1.83648C4.16188 1.70076 4.06494 1.59413 3.94217 1.51657C3.81933 1.43902 3.67717 1.38411 3.51562 1.35177C3.36051 1.31943 3.1892 1.3033 3.00183 1.3033C2.87899 1.3033 2.75622 1.31625 2.63345 1.34208C2.51061 1.36791 2.39753 1.41319 2.29415 1.4778C2.19721 1.5424 2.1164 1.62321 2.05179 1.72015C1.98712 1.81709 1.95485 1.93986 1.95485 2.08853C1.95485 2.22425 1.98068 2.33414 2.0324 2.41814C2.08406 2.50213 2.18426 2.57968 2.33293 2.6508C2.48803 2.72191 2.69805 2.79296 2.96305 2.86407C3.23449 2.93518 3.58666 3.02562 4.01972 3.13551C4.14893 3.16134 4.32668 3.20981 4.5529 3.28092C4.78556 3.34553 5.01497 3.45216 5.24119 3.60083C5.46734 3.7495 5.66123 3.94982 5.82285 4.20187C5.99083 4.44748 6.07489 4.76414 6.07489 5.15191C6.07489 5.46856 6.01347 5.76264 5.8907 6.03408C5.76787 6.30552 5.58367 6.54143 5.33813 6.74176C5.09896 6.93564 4.79844 7.0875 4.43657 7.19739C4.08107 7.30728 3.66747 7.36219 3.19571 7.36219C2.81438 7.36219 2.44275 7.31372 2.08088 7.21678C1.72537 7.12627 1.40872 6.98086 1.13081 6.78054C0.859369 6.58021 0.642862 6.32491 0.481294 6.01469C0.319726 5.70448 0.242173 5.3361 0.248633 4.90955H1.72219ZM6.77683 3.73655C6.79621 3.41339 6.87702 3.1452 7.01918 2.93193C7.16141 2.71866 7.34235 2.54742 7.56206 2.41814C7.78184 2.28886 8.02738 2.19842 8.29882 2.1467C8.57677 2.08853 8.85464 2.05945 9.13252 2.05945C9.38457 2.05945 9.63987 2.07884 9.89836 2.11761C10.1569 2.14995 10.3928 2.21781 10.606 2.32119C10.8193 2.42458 10.9938 2.56999 11.1295 2.75743C11.2653 2.93837 11.3331 3.18073 11.3331 3.4845V6.09225C11.3331 6.31847 11.3461 6.53492 11.3719 6.74176C11.3978 6.94859 11.443 7.1037 11.5076 7.20708H10.1116C10.0858 7.12953 10.0632 7.05197 10.0438 6.97442C10.0309 6.89043 10.0212 6.80636 10.0147 6.72237C9.79498 6.94859 9.53649 7.10688 9.23916 7.19739C8.94189 7.28789 8.63812 7.33311 8.3279 7.33311C8.0888 7.33311 7.86583 7.30402 7.659 7.24586C7.45224 7.18769 7.27123 7.09719 7.11612 6.97442C6.96102 6.85165 6.83825 6.69654 6.74774 6.5091C6.66375 6.32165 6.62172 6.09869 6.62172 5.8402C6.62172 5.55581 6.67019 5.32315 6.76713 5.14221C6.87058 4.95477 6.99979 4.80617 7.1549 4.69628C7.31652 4.58639 7.49745 4.50565 7.69778 4.45392C7.90461 4.39576 8.11144 4.35054 8.31821 4.3182C8.52504 4.28587 8.72862 4.26004 8.92894 4.24065C9.12934 4.22126 9.30702 4.19218 9.46212 4.1534C9.61723 4.11462 9.74007 4.05971 9.8305 3.9886C9.92101 3.91105 9.96304 3.80115 9.95653 3.659C9.95653 3.51033 9.9307 3.394 9.87898 3.31C9.83376 3.2195 9.76915 3.15164 9.68509 3.10643C9.60754 3.0547 9.51385 3.02243 9.40396 3.00948C9.30058 2.99009 9.1875 2.9804 9.06466 2.9804C8.79322 2.9804 8.57995 3.03857 8.42484 3.1549C8.26974 3.27123 8.1793 3.46511 8.15341 3.73655H6.77683ZM9.95653 4.75444C9.89837 4.80617 9.82407 4.84813 9.73356 4.88047C9.64957 4.9063 9.55588 4.92894 9.45243 4.94833C9.35549 4.96772 9.25211 4.98385 9.14222 4.9968C9.03239 5.00975 8.9225 5.02588 8.81261 5.04527C8.70923 5.06466 8.60585 5.09049 8.5024 5.12282C8.40545 5.15516 8.31821 5.20038 8.24065 5.25854C8.16961 5.31027 8.11144 5.37813 8.06616 5.46212C8.02094 5.54611 7.9983 5.65275 7.9983 5.78203C7.9983 5.9048 8.02094 6.00825 8.06616 6.09225C8.11144 6.17624 8.17279 6.2441 8.25035 6.29582C8.3279 6.34104 8.4184 6.37338 8.52179 6.39277C8.62524 6.41215 8.73187 6.42185 8.84169 6.42185C9.11313 6.42185 9.32322 6.37663 9.47182 6.28613C9.62049 6.19563 9.73038 6.08899 9.80142 5.96622C9.87254 5.83694 9.91457 5.70773 9.92745 5.57845C9.94684 5.44917 9.95653 5.34579 9.95653 5.26824V4.75444ZM12.4404 0.285407H13.817V7.20708H12.4404V0.285407ZM18.2745 4.1631C18.2099 3.8141 18.0936 3.54911 17.9255 3.36817C17.764 3.18723 17.5151 3.09673 17.1791 3.09673C16.9594 3.09673 16.7752 3.13551 16.6265 3.21306C16.4843 3.28418 16.368 3.37461 16.2775 3.4845C16.1935 3.59439 16.1321 3.71072 16.0933 3.83349C16.061 3.95626 16.0416 4.06615 16.0352 4.1631H18.2745ZM16.0352 5.03558C16.0545 5.48151 16.1676 5.80467 16.3745 6.005C16.5813 6.20532 16.8785 6.30552 17.2663 6.30552C17.5442 6.30552 17.7834 6.23766 17.9837 6.10194C18.184 5.95978 18.3069 5.81111 18.3521 5.65601H19.5638C19.37 6.25705 19.0727 6.68685 18.672 6.94534C18.2713 7.20383 17.7866 7.33311 17.2178 7.33311C16.8236 7.33311 16.4681 7.27169 16.1515 7.14892C15.8348 7.01964 15.5666 6.8387 15.3469 6.60604C15.1272 6.37338 14.9558 6.0955 14.8331 5.77234C14.7167 5.44917 14.6586 5.09374 14.6586 4.70597C14.6586 4.33115 14.72 3.98216 14.8428 3.659C14.9655 3.33583 15.14 3.05795 15.3663 2.82529C15.5925 2.58619 15.8607 2.39875 16.1709 2.26303C16.4875 2.12731 16.8365 2.05945 17.2178 2.05945C17.6444 2.05945 18.016 2.14344 18.3327 2.3115C18.6493 2.47305 18.9079 2.69283 19.1082 2.97071C19.3151 3.24858 19.4637 3.56531 19.5542 3.92074C19.6447 4.27617 19.6769 4.64781 19.6511 5.03558H16.0352Z" fill="white"/>
</svg>
