<svg width="29" height="11" viewBox="0 0 29 11" fill="none" xmlns="http://www.w3.org/2000/svg">
<path d="M2.42441 7.38182C2.42441 7.71782 2.48501 8.00252 2.60641 8.23582C2.72771 8.46912 2.88641 8.66052 3.08241 8.80982C3.28771 8.94982 3.52571 9.05712 3.79641 9.13182C4.06701 9.19712 4.34701 9.22982 4.63641 9.22982C4.83241 9.22982 5.04241 9.21582 5.26641 9.18782C5.49041 9.15052 5.70041 9.08512 5.89641 8.99182C6.09241 8.89852 6.25571 8.77252 6.38641 8.61382C6.51701 8.44582 6.58241 8.23582 6.58241 7.98382C6.58241 7.71312 6.49371 7.49382 6.31641 7.32582C6.14841 7.15782 5.92441 7.01782 5.64441 6.90582C5.36441 6.79382 5.04701 6.69582 4.69241 6.61182C4.33771 6.52782 3.97841 6.43452 3.61441 6.33182C3.24101 6.23852 2.87701 6.12652 2.52241 5.99582C2.16771 5.85582 1.85041 5.67852 1.57036 5.46382C1.29036 5.24912 1.06169 4.98312 0.884357 4.66582C0.716357 4.33912 0.632356 3.94712 0.632356 3.48982C0.632356 2.97652 0.739686 2.53312 0.954356 2.15982C1.17836 1.77712 1.46769 1.45982 1.82236 1.20782C2.17701 0.955821 2.57841 0.76912 3.02641 0.64782C3.47441 0.52652 3.92241 0.46582 4.37041 0.46582C4.89301 0.46582 5.39241 0.52652 5.86841 0.64782C6.35371 0.75982 6.78301 0.946521 7.15641 1.20782C7.52971 1.46912 7.82371 1.80512 8.03841 2.21582C8.26241 2.61712 8.37441 3.10712 8.37441 3.68582H6.24641C6.22771 3.38712 6.16241 3.13982 6.05041 2.94382C5.94771 2.74782 5.80771 2.59382 5.63041 2.48182C5.45301 2.36982 5.24771 2.29052 5.01441 2.24382C4.79041 2.19712 4.54301 2.17382 4.27241 2.17382C4.09501 2.17382 3.91771 2.19252 3.74041 2.22982C3.56301 2.26712 3.39971 2.33252 3.25041 2.42582C3.11041 2.51912 2.99371 2.63582 2.90041 2.77582C2.80701 2.91582 2.76041 3.09312 2.76041 3.30782C2.76041 3.50382 2.79771 3.66252 2.87241 3.78382C2.94701 3.90512 3.09171 4.01712 3.30641 4.11982C3.53041 4.22252 3.83371 4.32512 4.21641 4.42782C4.60841 4.53052 5.11701 4.66112 5.74241 4.81982C5.92901 4.85712 6.18571 4.92712 6.51241 5.02982C6.84841 5.12312 7.17971 5.27712 7.50641 5.49182C7.83301 5.70652 8.11301 5.99582 8.34641 6.35982C8.58901 6.71452 8.71041 7.17182 8.71041 7.73182C8.71041 8.18912 8.62171 8.61382 8.44441 9.00582C8.26701 9.39782 8.00101 9.73852 7.64641 10.0278C7.30101 10.3078 6.86701 10.5271 6.34441 10.6858C5.83101 10.8445 5.23371 10.9238 4.55241 10.9238C4.00171 10.9238 3.46501 10.8538 2.94241 10.7138C2.42901 10.5831 1.97171 10.3731 1.57036 10.0838C1.17836 9.79452 0.865686 9.42582 0.632356 8.97782C0.399026 8.52982 0.287026 7.99782 0.296356 7.38182H2.42441ZM9.72411 5.68782C9.75211 5.22112 9.86881 4.83382 10.0741 4.52582C10.2795 4.21782 10.5408 3.97052 10.8581 3.78382C11.1755 3.59712 11.5301 3.46652 11.9221 3.39182C12.3235 3.30782 12.7248 3.26582 13.1261 3.26582C13.4901 3.26582 13.8588 3.29382 14.2321 3.34982C14.6055 3.39652 14.9461 3.49452 15.2541 3.64382C15.5621 3.79312 15.8141 4.00312 16.0101 4.27382C16.2061 4.53512 16.3041 4.88512 16.3041 5.32382V9.08982C16.3041 9.41652 16.3228 9.72912 16.3601 10.0278C16.3975 10.3265 16.4628 10.5505 16.5561 10.6998H14.5401C14.5028 10.5878 14.4701 10.4758 14.4421 10.3638C14.4235 10.2425 14.4095 10.1211 14.4001 9.99982C14.0828 10.3265 13.7095 10.5551 13.2801 10.6858C12.8508 10.8165 12.4121 10.8818 11.9641 10.8818C11.6188 10.8818 11.2968 10.8398 10.9981 10.7558C10.6995 10.6718 10.4381 10.5411 10.2141 10.3638C9.99011 10.1865 9.81281 9.96252 9.68211 9.69182C9.56081 9.42112 9.50011 9.09912 9.50011 8.72582C9.50011 8.31512 9.57011 7.97912 9.71011 7.71782C9.85951 7.44712 10.0461 7.23252 10.2701 7.07382C10.5035 6.91512 10.7648 6.79852 11.0541 6.72382C11.3528 6.63982 11.6515 6.57452 11.9501 6.52782C12.2488 6.48112 12.5428 6.44382 12.8321 6.41582C13.1215 6.38782 13.3781 6.34582 13.6021 6.28982C13.8261 6.23382 14.0035 6.15452 14.1341 6.05182C14.2648 5.93982 14.3255 5.78112 14.3161 5.57582C14.3161 5.36112 14.2788 5.19312 14.2041 5.07182C14.1388 4.94112 14.0455 4.84312 13.9241 4.77782C13.8121 4.70312 13.6768 4.65652 13.5181 4.63782C13.3688 4.60982 13.2055 4.59582 13.0281 4.59582C12.6361 4.59582 12.3281 4.67982 12.1041 4.84782C11.8801 5.01582 11.7495 5.29582 11.7121 5.68782H9.72411ZM14.3161 7.15782C14.2321 7.23252 14.1248 7.29312 13.9941 7.33982C13.8728 7.37712 13.7375 7.40982 13.5881 7.43782C13.4481 7.46582 13.2988 7.48912 13.1401 7.50782C12.9815 7.52652 12.8228 7.54982 12.6641 7.57782C12.5148 7.60582 12.3655 7.64312 12.2161 7.68982C12.0761 7.73652 11.9501 7.80182 11.8381 7.88582C11.7355 7.96052 11.6515 8.05852 11.5861 8.17982C11.5208 8.30112 11.4881 8.45512 11.4881 8.64182C11.4881 8.81912 11.5208 8.96852 11.5861 9.08982C11.6515 9.21112 11.7401 9.30912 11.8521 9.38382C11.9641 9.44912 12.0948 9.49582 12.2441 9.52382C12.3935 9.55182 12.5475 9.56582 12.7061 9.56582C13.0981 9.56582 13.4015 9.50052 13.6161 9.36982C13.8308 9.23912 13.9895 9.08512 14.0921 8.90782C14.1948 8.72112 14.2555 8.53452 14.2741 8.34782C14.3021 8.16112 14.3161 8.01182 14.3161 7.89982V7.15782ZM17.9032 0.70382H19.8912V10.6998H17.9032V0.70382ZM26.3286 6.30382C26.2353 5.79982 26.0673 5.41712 25.8246 5.15582C25.5913 4.89452 25.2319 4.76382 24.7466 4.76382C24.4293 4.76382 24.1633 4.81982 23.9486 4.93182C23.7433 5.03452 23.5753 5.16512 23.4446 5.32382C23.3233 5.48252 23.2346 5.65052 23.1786 5.82782C23.1319 6.00512 23.1039 6.16382 23.0946 6.30382H26.3286ZM23.0946 7.56382C23.1226 8.20782 23.2859 8.67452 23.5846 8.96382C23.8833 9.25312 24.3126 9.39782 24.8726 9.39782C25.2739 9.39782 25.6193 9.29982 25.9086 9.10382C26.1979 8.89852 26.3753 8.68382 26.4406 8.45982H28.1906C27.9106 9.32782 27.4813 9.94852 26.9026 10.3218C26.3239 10.6951 25.6239 10.8818 24.8026 10.8818C24.2333 10.8818 23.7199 10.7931 23.2626 10.6158C22.8053 10.4291 22.4179 10.1678 22.1006 9.83182C21.7833 9.49582 21.5359 9.09452 21.3586 8.62782C21.1906 8.16112 21.1066 7.64782 21.1066 7.08782C21.1066 6.54652 21.1953 6.04252 21.3726 5.57582C21.5499 5.10912 21.8019 4.70782 22.1286 4.37182C22.4553 4.02652 22.8426 3.75582 23.2906 3.55982C23.7479 3.36382 24.2519 3.26582 24.8026 3.26582C25.4186 3.26582 25.9553 3.38712 26.4126 3.62982C26.8699 3.86312 27.2433 4.18052 27.5326 4.58182C27.8313 4.98312 28.0459 5.44052 28.1766 5.95382C28.3073 6.46712 28.3539 7.00382 28.3166 7.56382H23.0946Z" fill="white"/>
</svg>
