<svg width="29" height="12" viewBox="0 0 29 12" fill="none" xmlns="http://www.w3.org/2000/svg">
<path d="M3.07442 7.63231C3.07442 7.96831 3.13502 8.25301 3.25642 8.48631C3.37772 8.71961 3.53642 8.91101 3.73242 9.06031C3.93772 9.20031 4.17572 9.30761 4.44642 9.38231C4.71702 9.44761 4.99702 9.48031 5.28642 9.48031C5.48242 9.48031 5.69242 9.46631 5.91642 9.43831C6.14042 9.40101 6.35042 9.33561 6.54642 9.24231C6.74242 9.14901 6.90572 9.02301 7.03642 8.86431C7.16702 8.69631 7.23242 8.48631 7.23242 8.23431C7.23242 7.96361 7.14372 7.74431 6.96642 7.57631C6.79842 7.40831 6.57442 7.26831 6.29442 7.15631C6.01442 7.04431 5.69702 6.94631 5.34242 6.86231C4.98772 6.77831 4.62842 6.68501 4.26442 6.58231C3.89102 6.48901 3.52702 6.37701 3.17242 6.24631C2.81772 6.10631 2.50042 5.92901 2.22037 5.71431C1.94037 5.49961 1.7117 5.23361 1.53437 4.91631C1.36637 4.58961 1.28237 4.19761 1.28237 3.74031C1.28237 3.22701 1.3897 2.78361 1.60437 2.41031C1.82837 2.02761 2.1177 1.71031 2.47237 1.45831C2.82702 1.20631 3.22842 1.01961 3.67642 0.898309C4.12442 0.777009 4.57242 0.716309 5.02042 0.716309C5.54302 0.716309 6.04242 0.777009 6.51842 0.898309C7.00372 1.01031 7.43302 1.19701 7.80642 1.45831C8.17972 1.71961 8.47372 2.05561 8.68842 2.46631C8.91242 2.86761 9.02442 3.35761 9.02442 3.93631H6.89642C6.87772 3.63761 6.81242 3.39031 6.70042 3.19431C6.59772 2.99831 6.45772 2.84431 6.28042 2.73231C6.10302 2.62031 5.89772 2.54101 5.66442 2.49431C5.44042 2.44761 5.19302 2.42431 4.92242 2.42431C4.74502 2.42431 4.56772 2.44301 4.39042 2.48031C4.21302 2.51761 4.04972 2.58301 3.90042 2.67631C3.76042 2.76961 3.64372 2.88631 3.55042 3.02631C3.45702 3.16631 3.41042 3.34361 3.41042 3.55831C3.41042 3.75431 3.44772 3.91301 3.52242 4.03431C3.59702 4.15561 3.74172 4.26761 3.95642 4.37031C4.18042 4.47301 4.48372 4.57561 4.86642 4.67831C5.25842 4.78101 5.76702 4.91161 6.39242 5.07031C6.57902 5.10761 6.83572 5.17761 7.16242 5.28031C7.49842 5.37361 7.82972 5.52761 8.15642 5.74231C8.48302 5.95701 8.76302 6.24631 8.99642 6.61031C9.23902 6.96501 9.36042 7.42231 9.36042 7.98231C9.36042 8.43961 9.27172 8.86431 9.09442 9.25631C8.91702 9.64831 8.65102 9.98901 8.29642 10.2783C7.95102 10.5583 7.51702 10.7776 6.99442 10.9363C6.48102 11.095 5.88372 11.1743 5.20242 11.1743C4.65172 11.1743 4.11502 11.1043 3.59242 10.9643C3.07902 10.8336 2.62172 10.6236 2.22037 10.3343C1.82837 10.045 1.5157 9.67631 1.28237 9.22831C1.04904 8.78031 0.937039 8.24831 0.946369 7.63231H3.07442ZM10.3741 5.93831C10.4021 5.47161 10.5188 5.08431 10.7241 4.77631C10.9295 4.46831 11.1908 4.22101 11.5081 4.03431C11.8255 3.84761 12.1801 3.71701 12.5721 3.64231C12.9735 3.55831 13.3748 3.51631 13.7761 3.51631C14.1401 3.51631 14.5088 3.54431 14.8821 3.60031C15.2555 3.64701 15.5961 3.74501 15.9041 3.89431C16.2121 4.04361 16.4641 4.25361 16.6601 4.52431C16.8561 4.78561 16.9541 5.13561 16.9541 5.57431V9.34031C16.9541 9.66701 16.9728 9.97961 17.0101 10.2783C17.0475 10.577 17.1128 10.801 17.2061 10.9503H15.1901C15.1528 10.8383 15.1201 10.7263 15.0921 10.6143C15.0735 10.493 15.0595 10.3716 15.0501 10.2503C14.7328 10.577 14.3595 10.8056 13.9301 10.9363C13.5008 11.067 13.0621 11.1323 12.6141 11.1323C12.2688 11.1323 11.9468 11.0903 11.6481 11.0063C11.3495 10.9223 11.0881 10.7916 10.8641 10.6143C10.6401 10.437 10.4628 10.213 10.3321 9.94231C10.2108 9.67161 10.1501 9.34961 10.1501 8.97631C10.1501 8.56561 10.2201 8.22961 10.3601 7.96831C10.5095 7.69761 10.6961 7.48301 10.9201 7.32431C11.1535 7.16561 11.4148 7.04901 11.7041 6.97431C12.0028 6.89031 12.3015 6.82501 12.6001 6.77831C12.8988 6.73161 13.1928 6.69431 13.4821 6.66631C13.7715 6.63831 14.0281 6.59631 14.2521 6.54031C14.4761 6.48431 14.6535 6.40501 14.7841 6.30231C14.9148 6.19031 14.9755 6.03161 14.9661 5.82631C14.9661 5.61161 14.9288 5.44361 14.8541 5.32231C14.7888 5.19161 14.6955 5.09361 14.5741 5.02831C14.4621 4.95361 14.3268 4.90701 14.1681 4.88831C14.0188 4.86031 13.8555 4.84631 13.6781 4.84631C13.2861 4.84631 12.9781 4.93031 12.7541 5.09831C12.5301 5.26631 12.3995 5.54631 12.3621 5.93831H10.3741ZM14.9661 7.40831C14.8821 7.48301 14.7748 7.54361 14.6441 7.59031C14.5228 7.62761 14.3875 7.66031 14.2381 7.68831C14.0981 7.71631 13.9488 7.73961 13.7901 7.75831C13.6315 7.77701 13.4728 7.80031 13.3141 7.82831C13.1648 7.85631 13.0155 7.89361 12.8661 7.94031C12.7261 7.98701 12.6001 8.05231 12.4881 8.13631C12.3855 8.21101 12.3015 8.30901 12.2361 8.43031C12.1708 8.55161 12.1381 8.70561 12.1381 8.89231C12.1381 9.06961 12.1708 9.21901 12.2361 9.34031C12.3015 9.46161 12.3901 9.55961 12.5021 9.63431C12.6141 9.69961 12.7448 9.74631 12.8941 9.77431C13.0435 9.80231 13.1975 9.81631 13.3561 9.81631C13.7481 9.81631 14.0515 9.75101 14.2661 9.62031C14.4808 9.48961 14.6395 9.33561 14.7421 9.15831C14.8448 8.97161 14.9055 8.78501 14.9241 8.59831C14.9521 8.41161 14.9661 8.26231 14.9661 8.15031V7.40831ZM18.5532 0.954309H20.5412V10.9503H18.5532V0.954309ZM26.9786 6.55431C26.8853 6.05031 26.7173 5.66761 26.4746 5.40631C26.2413 5.14501 25.8819 5.01431 25.3966 5.01431C25.0793 5.01431 24.8133 5.07031 24.5986 5.18231C24.3933 5.28501 24.2253 5.41561 24.0946 5.57431C23.9733 5.73301 23.8846 5.90101 23.8286 6.07831C23.7819 6.25561 23.7539 6.41431 23.7446 6.55431H26.9786ZM23.7446 7.81431C23.7726 8.45831 23.9359 8.92501 24.2346 9.21431C24.5333 9.50361 24.9626 9.64831 25.5226 9.64831C25.9239 9.64831 26.2693 9.55031 26.5586 9.35431C26.8479 9.14901 27.0253 8.93431 27.0906 8.71031H28.8406C28.5606 9.57831 28.1313 10.199 27.5526 10.5723C26.9739 10.9456 26.2739 11.1323 25.4526 11.1323C24.8833 11.1323 24.3699 11.0436 23.9126 10.8663C23.4553 10.6796 23.0679 10.4183 22.7506 10.0823C22.4333 9.74631 22.1859 9.34501 22.0086 8.87831C21.8406 8.41161 21.7566 7.89831 21.7566 7.33831C21.7566 6.79701 21.8453 6.29301 22.0226 5.82631C22.1999 5.35961 22.4519 4.95831 22.7786 4.62231C23.1053 4.27701 23.4926 4.00631 23.9406 3.81031C24.3979 3.61431 24.9019 3.51631 25.4526 3.51631C26.0686 3.51631 26.6053 3.63761 27.0626 3.88031C27.5199 4.11361 27.8933 4.43101 28.1826 4.83231C28.4813 5.23361 28.6959 5.69101 28.8266 6.20431C28.9573 6.71761 29.0039 7.25431 28.9666 7.81431H23.7446Z" fill="white"/>
</svg>
