<svg width="16" height="16" viewBox="0 0 16 16" fill="none" xmlns="http://www.w3.org/2000/svg">
<path fill-rule="evenodd" clip-rule="evenodd" d="M16 3.39238L9.65139 0.98877L3.2638 3.39161V5.25265C3.2638 5.52519 3.48536 5.74612 3.75866 5.74612C4.03197 5.74612 4.25353 5.52519 4.25353 5.25265V4.49397L9.08734 6.61725V14.3465L4.25353 12.3106V11.9975C4.25353 11.7249 4.03197 11.504 3.75866 11.504C3.48536 11.504 3.2638 11.7249 3.2638 11.9975V12.9651L9.65144 15.6554L16 12.9643V3.39238ZM9.55274 5.74325L14.1344 3.74172L9.65026 2.04401L5.06117 3.7703L9.55274 5.74325ZM10.0771 6.59167L15.0103 4.43656V12.3114L10.0771 14.4026V6.59167ZM0.494862 6.13704C0.221557 6.13704 0 6.35797 0 6.63051C0 6.90304 0.221557 7.12397 0.494862 7.12397H6.11425C6.38755 7.12397 6.60911 6.90304 6.60911 6.63051C6.60911 6.35797 6.38755 6.13704 6.11425 6.13704H0.494862ZM1.11923 8.07533C0.845927 8.07533 0.624369 8.29626 0.624369 8.56879C0.624369 8.84133 0.845927 9.06226 1.11923 9.06226H6.11424C6.38755 9.06226 6.60911 8.84133 6.60911 8.56879C6.60911 8.29626 6.38755 8.07533 6.11424 8.07533H1.11923ZM1.24878 10.507C1.24878 10.2345 1.47034 10.0136 1.74364 10.0136H6.11428C6.38758 10.0136 6.60914 10.2345 6.60914 10.507C6.60914 10.7796 6.38758 11.0005 6.11428 11.0005H1.74364C1.47034 11.0005 1.24878 10.7796 1.24878 10.507Z" fill="#1928A0"/>
</svg>
