<svg width="17" height="17" viewBox="0 0 17 17" fill="none" xmlns="http://www.w3.org/2000/svg">
<path d="M4.50001 16.2126H1.16667V8.87923H4.50001M4.50001 16.2126H12.784C13.2614 16.2121 13.7229 16.0408 14.085 15.7298C14.4472 15.4187 14.6861 14.9884 14.7587 14.5166L15.4767 9.8499C15.5205 9.56491 15.5022 9.27381 15.423 8.99656C15.3438 8.71931 15.2056 8.46247 15.0178 8.24363C14.8301 8.02479 14.5972 7.84913 14.3353 7.7287C14.0733 7.60827 13.7883 7.54591 13.5 7.5459H8.50001V3.5459C8.50001 3.01547 8.28929 2.50676 7.91422 2.13168C7.53915 1.75661 7.03044 1.5459 6.50001 1.5459L4.50001 8.87923M4.50001 16.2126V8.87923" stroke="#2F3337" stroke-width="1.33333" stroke-miterlimit="10" stroke-linecap="round" stroke-linejoin="round"/>
</svg>
