<svg width="18" height="23" viewBox="0 0 18 23" fill="none" xmlns="http://www.w3.org/2000/svg">
<path fill-rule="evenodd" clip-rule="evenodd" d="M15.3846 9.33476C14.8417 9.99644 14.1315 10.5326 13.2538 10.9433C13.8709 11.1586 14.4471 11.4377 14.9821 11.7807C15.7872 12.2762 16.427 12.916 16.9018 13.7004C17.3971 14.4641 17.6449 15.393 17.6449 16.487C17.6449 17.9319 17.294 19.0981 16.5922 19.9857C15.911 20.8733 14.9408 21.5338 13.6817 21.9673C12.4226 22.3801 10.9364 22.5865 9.22319 22.5865H0.739614V0.913086H8.69685C10.2037 0.913086 11.5247 1.1195 12.66 1.53233C13.8159 1.92451 14.7241 2.53343 15.3846 3.35908C16.0658 4.16409 16.4064 5.18585 16.4064 6.42433C16.4064 7.55959 16.0658 8.52975 15.3846 9.33476ZM5.97217 18.5304V13.174H8.63493C9.15097 13.174 9.6154 13.2257 10.0282 13.3288C10.4617 13.4114 10.8435 13.5559 11.1738 13.7623C11.5041 13.9687 11.7621 14.2371 11.9479 14.5673C12.1336 14.8976 12.2265 15.2898 12.2265 15.7439C12.2265 16.4457 12.0614 17.003 11.7311 17.4158C11.4215 17.808 10.9984 18.097 10.4617 18.2828C9.92498 18.4479 9.31607 18.5304 8.63493 18.5304H5.97217ZM8.13955 9.52051H5.97217V4.96909H8.13955C9.04775 4.96909 9.74953 5.15489 10.245 5.52644C10.7403 5.89799 10.988 6.45529 10.988 7.19839C10.988 7.69377 10.8745 8.11689 10.6474 8.46783C10.4204 8.79807 10.0901 9.05609 9.65666 9.24184C9.24385 9.42764 8.73811 9.52051 8.13955 9.52051Z" fill="#1F1F1F"/>
</svg>
