<svg width="23" height="18" viewBox="0 0 23 18" fill="none" xmlns="http://www.w3.org/2000/svg">
<path d="M3.03842 8.99153C1.32883 7.18439 1.26146 4.9364 2.54063 2.99274C3.72596 1.1917 5.91474 0.314276 8.01222 0.97552L8.08087 0.997964C8.48912 1.13999 9.12071 1.54918 9.77153 2.04263C10.3193 2.45797 10.8126 2.87947 11.0794 3.11328L11.7751 3.74273L12.5982 3.04798C12.8963 2.79179 13.3867 2.38223 13.9177 1.98722C14.5665 1.50465 15.1814 1.11666 15.5686 0.991136C17.6542 0.31528 19.8352 1.16223 21.0361 2.93489L21.1241 3.06891C22.3514 4.99099 22.2682 7.19941 20.5921 8.98186L11.8012 16.9244C9.12485 14.5583 4.33988 10.2911 3.03842 8.99153Z" fill="white" stroke="black" stroke-width="1.51724"/>
</svg>
