<svg width="12" height="9" viewBox="0 0 12 9" fill="none" xmlns="http://www.w3.org/2000/svg">
<path d="M4.23624 8.66562L0.66073 5.09109C0.609579 5.04002 0.569 4.97937 0.541313 4.9126C0.513626 4.84583 0.499374 4.77426 0.499374 4.70198C0.499374 4.6297 0.513626 4.55813 0.541313 4.49136C0.569 4.42459 0.609579 4.36394 0.66073 4.31287L1.43895 3.53464C1.49002 3.48349 1.55068 3.44291 1.61744 3.41523C1.68421 3.38754 1.75578 3.37329 1.82806 3.37329C1.90035 3.37329 1.97192 3.38754 2.03868 3.41523C2.10545 3.44291 2.16611 3.48349 2.21718 3.53464L4.62536 5.9389L9.78378 0.785379C9.83485 0.734228 9.8955 0.693649 9.96227 0.665962C10.029 0.638275 10.1006 0.624023 10.1729 0.624023C10.2452 0.624023 10.3167 0.638275 10.3835 0.665962C10.4503 0.693649 10.5109 0.734228 10.562 0.785379L11.3402 1.5636C11.3914 1.61467 11.432 1.67533 11.4596 1.74209C11.4873 1.80886 11.5016 1.88043 11.5016 1.95271C11.5016 2.02499 11.4873 2.09657 11.4596 2.16333C11.432 2.2301 11.3914 2.29076 11.3402 2.34183L5.01447 8.66562C4.9634 8.71678 4.90274 8.75736 4.83598 8.78504C4.76921 8.81273 4.69764 8.82698 4.62536 8.82698C4.55308 8.82698 4.4815 8.81273 4.41474 8.78504C4.34797 8.75736 4.28731 8.71678 4.23624 8.66562Z" fill="white"/>
</svg>
