<svg width="16" height="13" viewBox="0 0 16 13" fill="none" xmlns="http://www.w3.org/2000/svg">
<path d="M15.552 2.58579C15.4595 2.1858 15.252 1.82157 14.9553 1.53788C14.6585 1.2542 14.2853 1.06343 13.8815 0.989041C11.9193 0.661961 9.93154 0.512829 7.94248 0.543469C5.94134 0.513291 3.94152 0.662413 1.96698 0.989041C1.56077 1.05758 1.18445 1.24637 0.886659 1.53102C0.588867 1.81567 0.383287 2.18309 0.296494 2.58579C0.0930962 3.8749 -0.00633315 5.17828 -0.000826463 6.48332C-0.0159489 7.79023 0.0958471 9.09553 0.33296 10.3808C0.426155 10.7805 0.633777 11.1444 0.930443 11.4279C1.22711 11.7115 1.59995 11.9025 2.00343 11.9776C5.96608 12.5709 9.99501 12.5709 13.9577 11.9776C14.3637 11.9087 14.7399 11.7198 15.0376 11.4352C15.3354 11.1506 15.5411 10.7834 15.6282 10.3808C15.8411 9.09172 15.9651 7.78946 15.9992 6.48332C15.9485 5.17473 15.7991 3.87184 15.552 2.58579ZM5.93823 9.08139V3.882L10.4668 6.48008L5.93823 9.08139Z" fill="white"/>
</svg>
