<svg width="26" height="18" viewBox="0 0 26 18" fill="none" xmlns="http://www.w3.org/2000/svg">
<path d="M24.2583 10.0417H1.34167C0.71667 10.0417 0.300003 9.625 0.300003 9C0.300003 8.375 0.71667 7.95834 1.34167 7.95834H24.2583C24.8833 7.95834 25.3 8.375 25.3 9C25.3 9.625 24.8833 10.0417 24.2583 10.0417ZM24.2583 2.75001H1.34167C0.71667 2.75001 0.300003 2.33334 0.300003 1.70834C0.300003 1.08334 0.71667 0.666672 1.34167 0.666672H24.2583C24.8833 0.666672 25.3 1.08334 25.3 1.70834C25.3 2.33334 24.8833 2.75001 24.2583 2.75001ZM24.2583 17.3333H1.34167C0.71667 17.3333 0.300003 16.9167 0.300003 16.2917C0.300003 15.6667 0.71667 15.25 1.34167 15.25H24.2583C24.8833 15.25 25.3 15.6667 25.3 16.2917C25.3 16.9167 24.8833 17.3333 24.2583 17.3333Z" fill="#2F3337"/>
</svg>
