<svg width="26" height="26" viewBox="0 0 26 26" fill="none" xmlns="http://www.w3.org/2000/svg">
<path d="M12.86 0.780273C5.985 0.780273 0.360001 6.40527 0.360001 13.2803C0.360001 18.5928 3.69333 23.0719 8.27667 24.9469C8.1725 24.0094 8.06833 22.4469 8.27667 21.4053C8.485 20.4678 9.735 15.1553 9.735 15.1553C9.735 15.1553 9.4225 14.3219 9.4225 13.2803C9.4225 11.5094 10.4642 10.2594 11.7142 10.2594C12.7558 10.2594 13.2767 11.0928 13.2767 12.0303C13.2767 13.0719 12.5475 14.7386 12.235 16.1969C11.9225 17.4469 12.86 18.4886 14.11 18.4886C16.2975 18.4886 18.0683 16.1969 18.0683 12.7594C18.0683 9.73861 15.8808 7.65527 12.86 7.65527C9.31833 7.65527 7.235 10.3636 7.235 13.0719C7.235 14.1136 7.65167 15.2594 8.1725 15.8844C8.27667 15.9886 8.27667 16.0928 8.27667 16.1969C8.1725 16.6136 7.96417 17.4469 7.96417 17.6553C7.86 17.8636 7.75583 17.9678 7.5475 17.8636C5.985 17.1344 5.0475 14.8428 5.0475 13.0719C5.0475 9.11361 7.96417 5.46777 13.2767 5.46777C17.6517 5.46777 20.985 8.59277 20.985 12.6553C20.985 16.9261 18.2767 20.4678 14.5267 20.4678C13.2767 20.4678 12.0267 19.8428 11.61 19.0094C11.61 19.0094 10.985 21.4053 10.8808 22.0303C10.5683 23.0719 9.83917 24.4261 9.31833 25.2594C10.36 25.5719 11.61 25.7803 12.86 25.7803C19.735 25.7803 25.36 20.1553 25.36 13.2803C25.36 6.40527 19.735 0.780273 12.86 0.780273Z" fill="white"/>
</svg>
