<svg width="98" height="18" viewBox="0 0 98 18" fill="none" xmlns="http://www.w3.org/2000/svg">
<path d="M96.132 5.07145C95.8243 5.08062 95.5259 5.17964 95.2737 5.3563C95.0216 5.53297 94.8266 5.77955 94.7129 6.06566C94.6003 6.35159 94.5749 6.66445 94.6398 6.9648C94.7048 7.26514 94.8573 7.53953 95.078 7.75336C95.299 7.96844 95.5783 8.11393 95.8812 8.17177C96.1841 8.22962 96.4974 8.19729 96.7821 8.07878C97.0668 7.96215 97.3107 7.76389 97.4829 7.50897C97.6552 7.25404 97.7481 6.95385 97.7501 6.64618C97.7554 6.32803 97.6624 6.016 97.4838 5.75266C97.3052 5.48932 97.0497 5.28748 96.7522 5.17469C96.5546 5.09868 96.3436 5.06356 96.132 5.07145ZM96.132 7.94861C95.8729 7.94521 95.6205 7.86559 95.4064 7.71969C95.1929 7.57405 95.0275 7.36838 94.931 7.12871C94.8345 6.88903 94.8112 6.62612 94.8642 6.37322C94.9171 6.12032 95.0439 5.88881 95.2284 5.70796C95.4129 5.52711 95.6469 5.40505 95.9009 5.35722C96.155 5.30845 96.4179 5.33541 96.6569 5.43475C96.8959 5.5341 97.1005 5.70146 97.2452 5.91604C97.3888 6.13075 97.4651 6.38285 97.4651 6.64095C97.4738 6.81688 97.4451 6.99265 97.3808 7.15667C97.3166 7.32069 97.2184 7.46924 97.0926 7.59252C96.9667 7.71661 96.8161 7.81284 96.6506 7.87496C96.4852 7.93708 96.3085 7.9637 96.132 7.9531V7.94861ZM4.76908 1.9534L0.0643349 16.9773H3.41429L4.43543 13.6461H9.70798L10.7074 16.9773H14.5362L9.42595 0.859693L4.76908 1.9534ZM5.36082 10.6724L7.0964 4.97943L8.83047 10.6724H5.36082ZM47.0647 6.34171C46.7496 5.83785 46.3018 5.43047 45.7705 5.16421C45.2377 4.897 44.6418 4.78107 44.0476 4.82907C40.5316 4.82907 39.6279 8.35033 39.6279 11.2103C39.6279 14.0007 40.5802 17.3057 43.9766 17.3057C44.6598 17.3101 45.3292 17.1125 45.9007 16.7379C46.4708 16.3648 46.9173 15.8308 47.1836 15.2036H47.2308V17.0693H50.5575V0.530533L47.0647 1.31528V6.34171ZM47.0647 12.0609C47.1062 12.6674 47.0002 13.275 46.7557 13.8316C46.6111 14.1133 46.3943 14.3516 46.1275 14.5222C45.8608 14.6928 45.5535 14.7895 45.2371 14.8026C43.5008 14.8026 43.3078 12.6047 43.3078 11.306C43.3078 9.86372 43.3788 7.26411 45.374 7.26411C46.9652 7.26411 47.0602 9.24879 47.0602 10.4076L47.0647 12.0609ZM78.4748 4.82907C77.747 4.78564 77.0228 4.9607 76.3951 5.33179C75.7688 5.70174 75.2681 6.25143 74.958 6.90951C74.6561 6.28591 74.1841 5.76027 73.5965 5.39313C73.0075 5.0248 72.3267 4.82949 71.632 4.82949C70.9373 4.82949 70.2566 5.0248 69.6675 5.39313C69.0799 5.76021 68.6079 6.28586 68.306 6.90951H68.2589V4.78792L64.9344 5.55771V17.0671H68.4264V10.7121C68.4264 9.41188 68.3554 7.61496 70.1792 7.61496C71.9874 7.61496 71.748 9.45901 71.748 10.7121V17.0671H75.2401V10.7121C75.1854 9.98679 75.2664 9.25769 75.4787 8.56204C75.622 8.28281 75.8399 8.0488 76.1083 7.88608C76.3767 7.72337 76.685 7.63831 76.9988 7.6404C77.7342 7.6404 78.3057 7.85285 78.495 8.60693C78.5788 9.30565 78.6027 10.0096 78.5668 10.7121V17.0671H82.0582V9.57571C82.0582 8.36978 82.2242 7.00003 81.4156 6.05519C81.0416 5.65233 80.5856 5.33439 80.0783 5.12287C79.571 4.91135 79.0242 4.81116 78.4748 4.82907Z" fill="white"/>
</svg>
