<svg width="20" height="20" viewBox="0 0 20 20" fill="none" xmlns="http://www.w3.org/2000/svg">
<path d="M4.15 19.1V15.5H1.6C1.33478 15.5 1.08043 15.3946 0.892892 15.2071C0.705356 15.0196 0.599998 14.7652 0.599998 14.5V2.5C0.599998 2.23478 0.705356 1.98043 0.892892 1.79289C1.08043 1.60536 1.33478 1.5 1.6 1.5H18.4C18.6652 1.5 18.9196 1.60536 19.1071 1.79289C19.2946 1.98043 19.4 2.23478 19.4 2.5V14.5C19.4 14.7652 19.2946 15.0196 19.1071 15.2071C18.9196 15.3946 18.6652 15.5 18.4 15.5H7.6L4.15 19.1Z" stroke="white" stroke-width="1.1" stroke-linecap="round" stroke-linejoin="round"/>
</svg>
