<svg width="20" height="8" viewBox="0 0 20 8" fill="none" xmlns="http://www.w3.org/2000/svg">
<path d="M1.58224 4.90393C1.58224 5.13532 1.62398 5.33139 1.70758 5.49205C1.79112 5.65272 1.90041 5.78453 2.03539 5.88735C2.17677 5.98376 2.34067 6.05766 2.52709 6.1091C2.71345 6.15407 2.90627 6.17659 3.10557 6.17659C3.24055 6.17659 3.38517 6.16695 3.53943 6.14767C3.6937 6.12198 3.83832 6.07694 3.97329 6.01269C4.10827 5.94843 4.22073 5.86166 4.31074 5.75237C4.40068 5.63667 4.44572 5.49205 4.44572 5.31851C4.44572 5.13209 4.38463 4.98106 4.26253 4.86537C4.14684 4.74967 3.99258 4.65326 3.79975 4.57613C3.60692 4.499 3.38834 4.43151 3.14414 4.37366C2.89987 4.31581 2.65243 4.25156 2.40176 4.18083C2.14461 4.11658 1.89393 4.03945 1.64973 3.94944C1.40546 3.85303 1.18695 3.73093 0.994088 3.58307C0.801261 3.43521 0.643784 3.25203 0.521663 3.03351C0.405967 2.80853 0.348118 2.53857 0.348118 2.22364C0.348118 1.87015 0.422033 1.56479 0.569869 1.30771C0.72413 1.04416 0.923382 0.825648 1.16763 0.652104C1.41187 0.47856 1.6883 0.349986 1.99682 0.266451C2.30534 0.182915 2.61387 0.141113 2.92239 0.141113C3.28229 0.141113 3.62621 0.182915 3.95401 0.266451C4.28822 0.343581 4.58387 0.472156 4.84101 0.652104C5.09809 0.832053 5.30056 1.06344 5.44842 1.34628C5.60268 1.62264 5.67981 1.96009 5.67981 2.35862H4.21433C4.20145 2.15292 4.15648 1.98261 4.07935 1.84763C4.00862 1.71265 3.91221 1.6066 3.79011 1.52947C3.66794 1.45233 3.52656 1.39772 3.36589 1.36556C3.21163 1.3334 3.04125 1.31736 2.8549 1.31736C2.73273 1.31736 2.61063 1.33023 2.48853 1.35592C2.36636 1.38161 2.2539 1.42665 2.15108 1.4909C2.05467 1.55515 1.9743 1.63552 1.91005 1.73193C1.84573 1.82835 1.81364 1.95045 1.81364 2.0983C1.81364 2.23328 1.83932 2.34257 1.89077 2.42611C1.94214 2.50964 2.04179 2.58678 2.18965 2.6575C2.34391 2.72823 2.55278 2.79888 2.81633 2.86961C3.08629 2.94034 3.43655 3.03028 3.86724 3.13957C3.99574 3.16526 4.17253 3.21346 4.39751 3.28419C4.6289 3.34844 4.85706 3.4545 5.08205 3.60235C5.30697 3.75021 5.49979 3.94944 5.66053 4.20011C5.8276 4.44439 5.9112 4.75931 5.9112 5.14497C5.9112 5.45989 5.85012 5.75237 5.72802 6.02233C5.60585 6.29228 5.42266 6.52691 5.17846 6.72614C4.9406 6.91897 4.64171 7.07 4.28182 7.17929C3.92826 7.28858 3.51691 7.34319 3.04773 7.34319C2.66848 7.34319 2.29887 7.29498 1.93897 7.19857C1.58541 7.10856 1.27048 6.96394 0.994088 6.76471C0.724131 6.56548 0.508805 6.31157 0.348118 6.00304C0.187432 5.69452 0.110301 5.32815 0.116726 4.90393H1.58224ZM6.6093 3.73733C6.62859 3.41593 6.70895 3.14921 6.85034 2.9371C6.99179 2.72499 7.17174 2.55468 7.39025 2.42611C7.60883 2.29754 7.85303 2.2076 8.12299 2.15615C8.39942 2.0983 8.67579 2.06938 8.95215 2.06938C9.20282 2.06938 9.45673 2.08866 9.71381 2.12723C9.97096 2.15939 10.2055 2.22688 10.4176 2.3297C10.6297 2.43251 10.8033 2.57713 10.9383 2.76356C11.0732 2.94351 11.1407 3.18454 11.1407 3.48666V6.08017C11.1407 6.30516 11.1536 6.52044 11.1793 6.72614C11.2051 6.93185 11.25 7.08611 11.3143 7.18893H9.92592C9.90023 7.1118 9.87772 7.03467 9.85843 6.95754C9.84562 6.874 9.83598 6.7904 9.82951 6.70686C9.61099 6.93185 9.35392 7.08928 9.0582 7.17929C8.76256 7.2693 8.46044 7.31427 8.15192 7.31427C7.91412 7.31427 7.69237 7.28534 7.48666 7.22749C7.28103 7.16965 7.10101 7.07964 6.94675 6.95754C6.79249 6.83544 6.67039 6.68117 6.58038 6.49475C6.49684 6.30833 6.45504 6.08658 6.45504 5.8295C6.45504 5.54666 6.50325 5.31527 6.59966 5.13532C6.70255 4.9489 6.83105 4.80111 6.98531 4.69182C7.14605 4.58253 7.326 4.50223 7.52523 4.45079C7.73093 4.39294 7.93664 4.34797 8.14227 4.31581C8.34798 4.28365 8.55045 4.25796 8.74968 4.23868C8.94898 4.2194 9.12569 4.19047 9.27995 4.15191C9.43421 4.11334 9.55638 4.05873 9.64632 3.98801C9.73633 3.91087 9.77813 3.80158 9.77166 3.6602C9.77166 3.51234 9.74597 3.39665 9.69453 3.31311C9.64956 3.2231 9.58531 3.15561 9.5017 3.11064C9.42457 3.0592 9.3314 3.02711 9.22211 3.01423C9.11929 2.99495 9.00683 2.98531 8.88466 2.98531C8.6147 2.98531 8.40259 3.04315 8.24833 3.15885C8.09407 3.27455 8.00413 3.46737 7.97837 3.73733H6.6093ZM9.77166 4.74967C9.71381 4.80111 9.63992 4.84285 9.54991 4.87501C9.46637 4.9007 9.3732 4.92322 9.27031 4.9425C9.1739 4.96178 9.07108 4.97783 8.96179 4.9907C8.85257 5.00358 8.74327 5.01963 8.63398 5.03891C8.53117 5.05819 8.42835 5.08388 8.32546 5.11604C8.22905 5.1482 8.14227 5.19317 8.06514 5.25102C7.99449 5.30246 7.93664 5.36995 7.8916 5.45349C7.84663 5.53702 7.82411 5.64308 7.82411 5.77165C7.82411 5.89375 7.84663 5.99664 7.8916 6.08017C7.93664 6.16371 7.99765 6.2312 8.07479 6.28264C8.15192 6.32761 8.24193 6.35977 8.34474 6.37906C8.44763 6.39834 8.55368 6.40798 8.66291 6.40798C8.93286 6.40798 9.14181 6.36301 9.28959 6.273C9.43745 6.18299 9.54674 6.07694 9.6174 5.95484C9.68812 5.82626 9.72993 5.69776 9.74274 5.56918C9.76202 5.44061 9.77166 5.33779 9.77166 5.26066V4.74967ZM12.242 0.305016H13.611V7.18893H12.242V0.305016ZM18.0443 4.16155C17.98 3.81446 17.8643 3.55091 17.6972 3.37096C17.5365 3.19101 17.289 3.101 16.9548 3.101C16.7363 3.101 16.5531 3.13957 16.4052 3.2167C16.2639 3.28743 16.1482 3.37737 16.0582 3.48666C15.9746 3.59595 15.9135 3.71164 15.875 3.83374C15.8428 3.95585 15.8235 4.06514 15.8171 4.16155H18.0443ZM15.8171 5.02927C15.8364 5.47277 15.9489 5.79417 16.1546 5.9934C16.3603 6.19263 16.6559 6.29228 17.0416 6.29228C17.3179 6.29228 17.5558 6.22479 17.755 6.08982C17.9543 5.94843 18.0764 5.80058 18.1214 5.64632H19.3266C19.1337 6.24408 18.8381 6.67153 18.4396 6.92861C18.041 7.18569 17.559 7.31427 16.9934 7.31427C16.6013 7.31427 16.2477 7.25318 15.9328 7.13108C15.6179 7.00251 15.3511 6.82256 15.1326 6.59117C14.9141 6.35977 14.7437 6.08341 14.6216 5.76201C14.5059 5.44061 14.4481 5.08712 14.4481 4.70146C14.4481 4.32869 14.5091 3.9816 14.6312 3.6602C14.7533 3.3388 14.9269 3.06244 15.1519 2.83105C15.3769 2.59325 15.6436 2.40683 15.9521 2.27185C16.267 2.13687 16.6141 2.06938 16.9934 2.06938C17.4176 2.06938 17.7872 2.15292 18.1021 2.32006C18.417 2.48072 18.6742 2.6993 18.8734 2.97567C19.0791 3.25203 19.2269 3.56702 19.3169 3.92052C19.4069 4.27401 19.439 4.64362 19.4133 5.02927H15.8171Z" fill="white"/>
</svg>
