<svg width="24" height="24" viewBox="0 0 24 24" fill="none" xmlns="http://www.w3.org/2000/svg">
<path d="M12.11 2.85219C15.1805 2.85219 15.5447 2.86369 16.757 2.91927C18.066 2.97869 19.2803 3.24127 20.2146 4.17565C21.149 5.11002 21.4116 6.32423 21.471 7.63332C21.5266 8.84561 21.5381 9.20977 21.5381 12.2803C21.5381 15.3508 21.5266 15.7149 21.471 16.9272C21.4116 18.2363 21.149 19.4505 20.2146 20.3849C19.2803 21.3193 18.066 21.5819 16.757 21.6413C15.5447 21.6969 15.1805 21.7084 12.11 21.7084C9.0395 21.7084 8.67533 21.6969 7.46304 21.6413C6.15396 21.5819 4.93975 21.3193 4.00538 20.3849C3.071 19.4505 2.80842 18.2363 2.749 16.9272C2.69342 15.7149 2.68192 15.3508 2.68192 12.2803C2.68192 9.20977 2.69342 8.84561 2.749 7.63332C2.80842 6.32423 3.071 5.11002 4.00538 4.17565C4.93975 3.24127 6.15396 2.97869 7.46304 2.91927C8.67533 2.86369 9.0395 2.85219 12.11 2.85219ZM12.11 0.780273C8.98679 0.780273 8.59483 0.79369 7.36817 0.849273C5.49942 0.934565 3.85779 1.39265 2.54008 2.71036C1.22238 4.02806 0.764292 5.66969 0.679001 7.53844C0.623417 8.76511 0.610001 9.15706 0.610001 12.2803C0.610001 15.4035 0.623417 15.7954 0.679001 17.0221C0.764292 18.8909 1.22238 20.5325 2.54008 21.8502C3.85779 23.1679 5.49942 23.626 7.36817 23.7113C8.59483 23.7669 8.98679 23.7803 12.11 23.7803C15.2332 23.7803 15.6252 23.7669 16.8518 23.7113C18.7206 23.626 20.3622 23.1679 21.6799 21.8502C22.9976 20.5325 23.4557 18.8909 23.541 17.0221C23.5966 15.7954 23.61 15.4035 23.61 12.2803C23.61 9.15706 23.5966 8.76511 23.541 7.53844C23.4557 5.66969 22.9976 4.02806 21.6799 2.71036C20.3622 1.39265 18.7206 0.934565 16.8518 0.849273C15.6252 0.79369 15.2332 0.780273 12.11 0.780273Z" fill="white"/>
</svg>
