<svg width="29" height="20" viewBox="0 0 29 20" fill="none" xmlns="http://www.w3.org/2000/svg">
<path d="M27.7855 4.41708C27.7855 4.41708 27.5582 2.48526 26.6491 1.68981C25.6264 0.553444 24.49 0.553444 23.9218 0.553444C20.0582 0.326172 14.3764 0.326172 14.3764 0.326172C14.3764 0.326172 8.69455 0.326172 4.83091 0.553444C4.26273 0.667081 3.12637 0.667081 2.10364 1.68981C1.30819 2.48526 0.967278 4.41708 0.967278 4.41708C0.967278 4.41708 0.740005 6.57617 0.740005 8.8489V10.8944C0.740005 13.0534 0.967278 15.3262 0.967278 15.3262C0.967278 15.3262 1.19455 17.258 2.10364 18.0534C3.12637 19.1898 4.49001 19.0762 5.05819 19.1898C7.21728 19.4171 14.3764 19.4171 14.3764 19.4171C14.3764 19.4171 20.0582 19.4171 23.9218 19.0762C24.49 18.9625 25.6264 18.9625 26.6491 17.9398C27.4445 17.1444 27.7855 15.2125 27.7855 15.2125C27.7855 15.2125 28.0127 13.0534 28.0127 10.7807V8.73526C28.0127 6.57617 27.7855 4.41708 27.7855 4.41708ZM11.5355 13.3944V5.78072L18.9218 9.64435L11.5355 13.3944Z" fill="white"/>
</svg>
