<svg width="22" height="16" viewBox="0 0 22 16" fill="none" xmlns="http://www.w3.org/2000/svg">
<path d="M20.792 3.18394C21.2 4.75474 21.2 8.07994 21.2 8.07994C21.2 8.07994 21.2 11.4051 20.792 12.9759C20.6785 13.4184 20.4482 13.8221 20.1252 14.1451C19.8022 14.4681 19.3984 14.6984 18.956 14.8119C17.3852 15.2199 11 15.2199 11 15.2199C11 15.2199 4.6148 15.2199 3.044 14.8119C2.60159 14.6984 2.1978 14.4681 1.87482 14.1451C1.55185 13.8221 1.32155 13.4184 1.208 12.9759C0.800003 11.4051 0.800003 8.07994 0.800003 8.07994C0.800003 8.07994 0.800003 4.75474 1.208 3.18394C1.32699 2.7442 1.55911 2.3433 1.88123 2.02117C2.20336 1.69904 2.60426 1.46693 3.044 1.34794C4.6148 0.939942 11 0.939941 11 0.939941C11 0.939941 17.3852 0.939942 18.956 1.34794C19.3957 1.46693 19.7966 1.69904 20.1188 2.02117C20.4409 2.3433 20.673 2.7442 20.792 3.18394ZM8.96 11.1399L14.264 8.07994L8.96 5.01994V11.1399Z" fill="#4E504F"/>
</svg>
