<svg width="17" height="17" viewBox="0 0 17 17" fill="none" xmlns="http://www.w3.org/2000/svg">
<path d="M4.93 15.6139H1.59666V8.2806H4.93M4.93 15.6139H13.214C13.6914 15.6134 14.1529 15.4422 14.515 15.1311C14.8772 14.8201 15.1161 14.3898 15.1887 13.9179L15.9067 9.25127C15.9505 8.96628 15.9322 8.67518 15.853 8.39793C15.7738 8.12068 15.6356 7.86383 15.4478 7.645C15.2601 7.42616 15.0272 7.2505 14.7652 7.13007C14.5033 7.00964 14.2183 6.94728 13.93 6.94727H8.93V2.94727C8.93 2.41683 8.71928 1.90812 8.34421 1.53305C7.96914 1.15798 7.46043 0.947266 6.93 0.947266L4.93 8.2806M4.93 15.6139V8.2806" stroke="#2F3337" stroke-width="1.33333" stroke-miterlimit="10" stroke-linecap="round" stroke-linejoin="round"/>
</svg>
