<svg width="19" height="18" viewBox="0 0 19 18" fill="none" xmlns="http://www.w3.org/2000/svg">
<path d="M0.611098 0.716797C0.463755 0.716797 0.322447 0.775328 0.21826 0.879515C0.114074 0.983702 0.055542 1.12501 0.055542 1.27235C0.055542 1.41969 0.114074 1.561 0.21826 1.66519C0.322447 1.76938 0.463755 1.82791 0.611098 1.82791H18.0667C18.214 1.82791 18.3553 1.76938 18.4595 1.66519C18.5637 1.561 18.6222 1.41969 18.6222 1.27235C18.6222 1.12501 18.5637 0.983702 18.4595 0.879515C18.3553 0.775328 18.214 0.716797 18.0667 0.716797H0.611098ZM0.055542 9.05013C0.055542 8.90279 0.114074 8.76148 0.21826 8.65729C0.322447 8.55311 0.463755 8.49458 0.611098 8.49458H18.0667C18.214 8.49458 18.3553 8.55311 18.4595 8.65729C18.5637 8.76148 18.6222 8.90279 18.6222 9.05013C18.6222 9.19747 18.5637 9.33878 18.4595 9.44297C18.3553 9.54716 18.214 9.60569 18.0667 9.60569H0.611098C0.463755 9.60569 0.322447 9.54716 0.21826 9.44297C0.114074 9.33878 0.055542 9.19747 0.055542 9.05013ZM0.055542 16.8279C0.055542 16.6806 0.114074 16.5393 0.21826 16.4351C0.322447 16.3309 0.463755 16.2724 0.611098 16.2724H18.0667C18.214 16.2724 18.3553 16.3309 18.4595 16.4351C18.5637 16.5393 18.6222 16.6806 18.6222 16.8279C18.6222 16.9753 18.5637 17.1166 18.4595 17.2207C18.3553 17.3249 18.214 17.3835 18.0667 17.3835H0.611098C0.463755 17.3835 0.322447 17.3249 0.21826 17.2207C0.114074 17.1166 0.055542 16.9753 0.055542 16.8279Z" fill="#121212"/>
</svg>
