<svg width="18" height="18" viewBox="0 0 18 18" fill="none" xmlns="http://www.w3.org/2000/svg">
<path d="M12.2675 12.3135C12.2392 12.3352 12.2117 12.3593 12.185 12.386C12.1583 12.4127 12.135 12.4393 12.1125 12.4685C11.0641 13.4793 9.63832 14.1002 8.06665 14.1002C6.45582 14.1002 4.99832 13.4485 3.94165 12.3918C2.88498 11.3352 2.23332 9.87768 2.23332 8.26685C2.23332 6.65601 2.88498 5.19851 3.94165 4.14185C4.99832 3.08518 6.45582 2.43351 8.06665 2.43351C9.67748 2.43351 11.135 3.08518 12.1916 4.14185C13.2483 5.19851 13.9 6.65601 13.9 8.26685C13.9 9.83851 13.2792 11.2643 12.2675 12.3135ZM16.9892 16.011L13.9266 12.9485C14.9525 11.6652 15.5667 10.0377 15.5667 8.26685C15.5667 6.19601 14.7267 4.32018 13.37 2.96351C12.0133 1.60685 10.1375 0.766846 8.06665 0.766846C5.99582 0.766846 4.11998 1.60685 2.76332 2.96351C1.40665 4.32018 0.56665 6.19601 0.56665 8.26685C0.56665 10.3377 1.40665 12.2135 2.76332 13.5702C4.11998 14.9268 5.99582 15.7668 8.06665 15.7668C9.83748 15.7668 11.465 15.1527 12.7483 14.1268L15.8108 17.1893C16.1366 17.5152 16.6642 17.5152 16.9892 17.1893C17.3142 16.8635 17.315 16.336 16.9892 16.011Z" fill="#121212"/>
</svg>
