<svg width="12" height="9" viewBox="0 0 12 9" fill="none" xmlns="http://www.w3.org/2000/svg">
<path d="M4.2005 8.51053L0.552505 4.86353C0.500317 4.81143 0.458915 4.74955 0.430667 4.68143C0.402418 4.6133 0.387878 4.54028 0.387878 4.46653C0.387878 4.39279 0.402418 4.31977 0.430667 4.25165C0.458915 4.18352 0.500317 4.12164 0.552505 4.06953L1.3465 3.27553C1.39861 3.22335 1.46049 3.18194 1.52861 3.1537C1.59674 3.12545 1.66976 3.11091 1.7435 3.11091C1.81725 3.11091 1.89027 3.12545 1.95839 3.1537C2.02652 3.18194 2.0884 3.22335 2.1405 3.27553L4.59751 5.72853L9.86051 0.470535C9.91261 0.418347 9.97449 0.376945 10.0426 0.348697C10.1107 0.320448 10.1838 0.305908 10.2575 0.305908C10.3313 0.305908 10.4043 0.320448 10.4724 0.348697C10.5405 0.376945 10.6024 0.418347 10.6545 0.470535L11.4485 1.26453C11.5007 1.31664 11.5421 1.37852 11.5703 1.44664C11.5986 1.51477 11.6131 1.58779 11.6131 1.66153C11.6131 1.73528 11.5986 1.8083 11.5703 1.87642C11.5421 1.94455 11.5007 2.00643 11.4485 2.05853L4.9945 8.51053C4.9424 8.56272 4.88052 8.60412 4.8124 8.63237C4.74427 8.66062 4.67125 8.67516 4.59751 8.67516C4.52376 8.67516 4.45074 8.66062 4.38261 8.63237C4.31449 8.60412 4.25261 8.56272 4.2005 8.51053Z" fill="white"/>
</svg>
