<svg width="16" height="12" viewBox="0 0 16 12" fill="none" xmlns="http://www.w3.org/2000/svg">
<path d="M15.552 2.16587C15.4595 1.76588 15.252 1.40164 14.9553 1.11796C14.6585 0.834274 14.2853 0.64351 13.8815 0.569119C11.9193 0.242039 9.93154 0.0929069 7.94248 0.123547C5.94134 0.0933696 3.94152 0.242491 1.96698 0.569119C1.56077 0.63766 1.18445 0.826449 0.886659 1.1111C0.588867 1.39575 0.383287 1.76317 0.296494 2.16587C0.0930962 3.45498 -0.00633315 4.75835 -0.000826463 6.0634C-0.0159489 7.37031 0.0958471 8.67561 0.33296 9.96092C0.426155 10.3606 0.633777 10.7245 0.930443 11.008C1.22711 11.2916 1.59995 11.4826 2.00343 11.5577C5.96608 12.151 9.99501 12.151 13.9577 11.5577C14.3637 11.4888 14.7399 11.2999 15.0376 11.0153C15.3354 10.7307 15.5411 10.3635 15.6282 9.96092C15.8411 8.6718 15.9651 7.36954 15.9992 6.0634C15.9485 4.75481 15.7991 3.45192 15.552 2.16587ZM5.93823 8.66147V3.46208L10.4668 6.06016L5.93823 8.66147Z" fill="white"/>
</svg>
