<svg width="29" height="11" viewBox="0 0 29 11" fill="none" xmlns="http://www.w3.org/2000/svg">
<path d="M2.87441 7.38206C2.87441 7.71806 2.93501 8.00276 3.05641 8.23606C3.17771 8.46936 3.33641 8.66077 3.53241 8.81007C3.73771 8.95007 3.97571 9.05736 4.24641 9.13206C4.51701 9.19736 4.79701 9.23007 5.08641 9.23007C5.28241 9.23007 5.49241 9.21607 5.71641 9.18807C5.94041 9.15077 6.15041 9.08536 6.34641 8.99206C6.54241 8.89876 6.70571 8.77276 6.83641 8.61406C6.96701 8.44606 7.03241 8.23606 7.03241 7.98407C7.03241 7.71337 6.94371 7.49406 6.76641 7.32606C6.59841 7.15806 6.37441 7.01806 6.09441 6.90606C5.81441 6.79406 5.49701 6.69607 5.14241 6.61207C4.78771 6.52807 4.42841 6.43476 4.06441 6.33206C3.69101 6.23876 3.32701 6.12676 2.97241 5.99606C2.61771 5.85606 2.30041 5.67876 2.02036 5.46406C1.74036 5.24936 1.51169 4.98336 1.33436 4.66606C1.16636 4.33936 1.08236 3.94736 1.08236 3.49006C1.08236 2.97676 1.18969 2.53336 1.40436 2.16006C1.62836 1.77736 1.91769 1.46007 2.27236 1.20807C2.62701 0.956065 3.02841 0.769365 3.47641 0.648065C3.92441 0.526765 4.37241 0.466064 4.82041 0.466064C5.34301 0.466064 5.84241 0.526765 6.31841 0.648065C6.80371 0.760065 7.23301 0.946765 7.60641 1.20807C7.97971 1.46937 8.27371 1.80536 8.48841 2.21606C8.71241 2.61736 8.82441 3.10736 8.82441 3.68606H6.69641C6.67771 3.38736 6.61241 3.14007 6.50041 2.94407C6.39771 2.74806 6.25771 2.59406 6.08041 2.48206C5.90301 2.37006 5.69771 2.29076 5.46441 2.24406C5.24041 2.19736 4.99301 2.17406 4.72241 2.17406C4.54501 2.17406 4.36771 2.19276 4.19041 2.23006C4.01301 2.26736 3.84971 2.33276 3.70041 2.42606C3.56041 2.51936 3.44371 2.63606 3.35041 2.77606C3.25701 2.91606 3.21041 3.09336 3.21041 3.30806C3.21041 3.50406 3.24771 3.66276 3.32241 3.78406C3.39701 3.90536 3.54171 4.01736 3.75641 4.12006C3.98041 4.22276 4.28371 4.32536 4.66641 4.42806C5.05841 4.53076 5.56701 4.66136 6.19241 4.82006C6.37901 4.85736 6.63571 4.92736 6.96241 5.03006C7.29841 5.12336 7.62971 5.27736 7.95641 5.49206C8.28301 5.70676 8.56301 5.99606 8.79641 6.36006C9.03901 6.71476 9.16041 7.17206 9.16041 7.73206C9.16041 8.18936 9.07171 8.61406 8.89441 9.00606C8.71701 9.39806 8.45101 9.73876 8.09641 10.0281C7.75101 10.3081 7.31701 10.5274 6.79441 10.6861C6.28101 10.8448 5.68371 10.9241 5.00241 10.9241C4.45171 10.9241 3.91501 10.8541 3.39241 10.7141C2.87901 10.5834 2.42171 10.3734 2.02036 10.0841C1.62836 9.79477 1.31569 9.42606 1.08236 8.97806C0.849027 8.53006 0.737027 7.99806 0.746357 7.38206H2.87441ZM10.1741 5.68807C10.2021 5.22137 10.3188 4.83406 10.5241 4.52606C10.7295 4.21806 10.9908 3.97076 11.3081 3.78406C11.6255 3.59736 11.9801 3.46676 12.3721 3.39207C12.7735 3.30806 13.1748 3.26606 13.5761 3.26606C13.9401 3.26606 14.3088 3.29406 14.6821 3.35006C15.0555 3.39676 15.3961 3.49476 15.7041 3.64406C16.0121 3.79337 16.2641 4.00337 16.4601 4.27407C16.6561 4.53537 16.7541 4.88537 16.7541 5.32407V9.09006C16.7541 9.41676 16.7728 9.72936 16.8101 10.0281C16.8475 10.3268 16.9128 10.5508 17.0061 10.7001H14.9901C14.9528 10.5881 14.9201 10.4761 14.8921 10.3641C14.8735 10.2428 14.8595 10.1214 14.8501 10.0001C14.5328 10.3268 14.1595 10.5554 13.7301 10.6861C13.3008 10.8168 12.8621 10.8821 12.4141 10.8821C12.0688 10.8821 11.7468 10.8401 11.4481 10.7561C11.1495 10.6721 10.8881 10.5414 10.6641 10.3641C10.4401 10.1868 10.2628 9.96277 10.1321 9.69207C10.0108 9.42136 9.95011 9.09936 9.95011 8.72606C9.95011 8.31536 10.0201 7.97936 10.1601 7.71806C10.3095 7.44736 10.4961 7.23277 10.7201 7.07407C10.9535 6.91537 11.2148 6.79876 11.5041 6.72406C11.8028 6.64006 12.1015 6.57476 12.4001 6.52806C12.6988 6.48136 12.9928 6.44406 13.2821 6.41606C13.5715 6.38806 13.8281 6.34607 14.0521 6.29006C14.2761 6.23406 14.4535 6.15476 14.5841 6.05206C14.7148 5.94006 14.7755 5.78136 14.7661 5.57606C14.7661 5.36136 14.7288 5.19336 14.6541 5.07206C14.5888 4.94136 14.4955 4.84336 14.3741 4.77806C14.2621 4.70336 14.1268 4.65676 13.9681 4.63806C13.8188 4.61006 13.6555 4.59606 13.4781 4.59606C13.0861 4.59606 12.7781 4.68006 12.5541 4.84806C12.3301 5.01606 12.1995 5.29607 12.1621 5.68807H10.1741ZM14.7661 7.15806C14.6821 7.23276 14.5748 7.29336 14.4441 7.34006C14.3228 7.37736 14.1875 7.41007 14.0381 7.43807C13.8981 7.46607 13.7488 7.48937 13.5901 7.50807C13.4315 7.52677 13.2728 7.55007 13.1141 7.57806C12.9648 7.60606 12.8155 7.64336 12.6661 7.69006C12.5261 7.73676 12.4001 7.80207 12.2881 7.88607C12.1855 7.96077 12.1015 8.05876 12.0361 8.18006C11.9708 8.30136 11.9381 8.45536 11.9381 8.64206C11.9381 8.81936 11.9708 8.96876 12.0361 9.09006C12.1015 9.21136 12.1901 9.30936 12.3021 9.38406C12.4141 9.44936 12.5448 9.49606 12.6941 9.52406C12.8435 9.55206 12.9975 9.56606 13.1561 9.56606C13.5481 9.56606 13.8515 9.50076 14.0661 9.37006C14.2808 9.23936 14.4395 9.08537 14.5421 8.90806C14.6448 8.72136 14.7055 8.53477 14.7241 8.34807C14.7521 8.16137 14.7661 8.01207 14.7661 7.90007V7.15806ZM18.3532 0.704064H20.3412V10.7001H18.3532V0.704064ZM26.7786 6.30406C26.6853 5.80006 26.5173 5.41737 26.2746 5.15606C26.0413 4.89476 25.6819 4.76406 25.1966 4.76406C24.8793 4.76406 24.6133 4.82007 24.3986 4.93207C24.1933 5.03477 24.0253 5.16537 23.8946 5.32407C23.7733 5.48277 23.6846 5.65076 23.6286 5.82806C23.5819 6.00536 23.5539 6.16406 23.5446 6.30406H26.7786ZM23.5446 7.56406C23.5726 8.20807 23.7359 8.67476 24.0346 8.96406C24.3333 9.25336 24.7626 9.39806 25.3226 9.39806C25.7239 9.39806 26.0693 9.30006 26.3586 9.10406C26.6479 8.89876 26.8253 8.68406 26.8906 8.46006H28.6406C28.3606 9.32806 27.9313 9.94876 27.3526 10.3221C26.7739 10.6954 26.0739 10.8821 25.2526 10.8821C24.6833 10.8821 24.1699 10.7934 23.7126 10.6161C23.2553 10.4294 22.8679 10.1681 22.5506 9.83206C22.2333 9.49606 21.9859 9.09476 21.8086 8.62806C21.6406 8.16136 21.5566 7.64807 21.5566 7.08807C21.5566 6.54677 21.6453 6.04276 21.8226 5.57606C21.9999 5.10936 22.2519 4.70806 22.5786 4.37206C22.9053 4.02676 23.2926 3.75606 23.7406 3.56006C24.1979 3.36406 24.7019 3.26606 25.2526 3.26606C25.8686 3.26606 26.4053 3.38736 26.8626 3.63006C27.3199 3.86336 27.6933 4.18076 27.9826 4.58206C28.2813 4.98336 28.4959 5.44076 28.6266 5.95406C28.7573 6.46736 28.8039 7.00407 28.7666 7.56406H23.5446Z" fill="white"/>
</svg>
