<svg width="29" height="12" viewBox="0 0 29 12" fill="none" xmlns="http://www.w3.org/2000/svg">
<path d="M2.87441 7.73216C2.87441 8.06816 2.93501 8.35286 3.05641 8.58616C3.17771 8.81946 3.33641 9.01086 3.53241 9.16016C3.73771 9.30016 3.97571 9.40746 4.24641 9.48216C4.51701 9.54746 4.79701 9.58016 5.08641 9.58016C5.28241 9.58016 5.49241 9.56616 5.71641 9.53816C5.94041 9.50086 6.15041 9.43546 6.34641 9.34216C6.54241 9.24886 6.70571 9.12286 6.83641 8.96416C6.96701 8.79616 7.03241 8.58616 7.03241 8.33416C7.03241 8.06346 6.94371 7.84416 6.76641 7.67616C6.59841 7.50816 6.37441 7.36816 6.09441 7.25616C5.81441 7.14416 5.49701 7.04616 5.14241 6.96216C4.78771 6.87816 4.42841 6.78486 4.06441 6.68216C3.69101 6.58886 3.32701 6.47686 2.97241 6.34616C2.61771 6.20616 2.30041 6.02886 2.02036 5.81416C1.74036 5.59946 1.51169 5.33346 1.33436 5.01616C1.16636 4.68946 1.08236 4.29746 1.08236 3.84016C1.08236 3.32686 1.18969 2.88346 1.40436 2.51016C1.62836 2.12746 1.91769 1.81016 2.27236 1.55816C2.62701 1.30616 3.02841 1.11946 3.47641 0.998162C3.92441 0.876862 4.37241 0.816162 4.82041 0.816162C5.34301 0.816162 5.84241 0.876862 6.31841 0.998162C6.80371 1.11016 7.23301 1.29686 7.60641 1.55816C7.97971 1.81946 8.27371 2.15546 8.48841 2.56616C8.71241 2.96746 8.82441 3.45746 8.82441 4.03616H6.69641C6.67771 3.73746 6.61241 3.49016 6.50041 3.29416C6.39771 3.09816 6.25771 2.94416 6.08041 2.83216C5.90301 2.72016 5.69771 2.64086 5.46441 2.59416C5.24041 2.54746 4.99301 2.52416 4.72241 2.52416C4.54501 2.52416 4.36771 2.54286 4.19041 2.58016C4.01301 2.61746 3.84971 2.68286 3.70041 2.77616C3.56041 2.86946 3.44371 2.98616 3.35041 3.12616C3.25701 3.26616 3.21041 3.44346 3.21041 3.65816C3.21041 3.85416 3.24771 4.01286 3.32241 4.13416C3.39701 4.25546 3.54171 4.36746 3.75641 4.47016C3.98041 4.57286 4.28371 4.67546 4.66641 4.77816C5.05841 4.88086 5.56701 5.01146 6.19241 5.17016C6.37901 5.20746 6.63571 5.27746 6.96241 5.38016C7.29841 5.47346 7.62971 5.62746 7.95641 5.84216C8.28301 6.05686 8.56301 6.34616 8.79641 6.71016C9.03901 7.06486 9.16041 7.52216 9.16041 8.08216C9.16041 8.53946 9.07171 8.96416 8.89441 9.35616C8.71701 9.74816 8.45101 10.0889 8.09641 10.3782C7.75101 10.6582 7.31701 10.8775 6.79441 11.0362C6.28101 11.1949 5.68371 11.2742 5.00241 11.2742C4.45171 11.2742 3.91501 11.2042 3.39241 11.0642C2.87901 10.9335 2.42171 10.7235 2.02036 10.4342C1.62836 10.1449 1.31569 9.77616 1.08236 9.32816C0.849027 8.88016 0.737027 8.34816 0.746357 7.73216H2.87441ZM10.1741 6.03816C10.2021 5.57146 10.3188 5.18416 10.5241 4.87616C10.7295 4.56816 10.9908 4.32086 11.3081 4.13416C11.6255 3.94746 11.9801 3.81686 12.3721 3.74216C12.7735 3.65816 13.1748 3.61616 13.5761 3.61616C13.9401 3.61616 14.3088 3.64416 14.6821 3.70016C15.0555 3.74686 15.3961 3.84486 15.7041 3.99416C16.0121 4.14346 16.2641 4.35346 16.4601 4.62416C16.6561 4.88546 16.7541 5.23546 16.7541 5.67416V9.44016C16.7541 9.76686 16.7728 10.0795 16.8101 10.3782C16.8475 10.6769 16.9128 10.9009 17.0061 11.0502H14.9901C14.9528 10.9382 14.9201 10.8262 14.8921 10.7142C14.8735 10.5929 14.8595 10.4715 14.8501 10.3502C14.5328 10.6769 14.1595 10.9055 13.7301 11.0362C13.3008 11.1669 12.8621 11.2322 12.4141 11.2322C12.0688 11.2322 11.7468 11.1902 11.4481 11.1062C11.1495 11.0222 10.8881 10.8915 10.6641 10.7142C10.4401 10.5369 10.2628 10.3129 10.1321 10.0422C10.0108 9.77146 9.95011 9.44946 9.95011 9.07616C9.95011 8.66546 10.0201 8.32946 10.1601 8.06816C10.3095 7.79746 10.4961 7.58286 10.7201 7.42416C10.9535 7.26546 11.2148 7.14886 11.5041 7.07416C11.8028 6.99016 12.1015 6.92486 12.4001 6.87816C12.6988 6.83146 12.9928 6.79416 13.2821 6.76616C13.5715 6.73816 13.8281 6.69616 14.0521 6.64016C14.2761 6.58416 14.4535 6.50486 14.5841 6.40216C14.7148 6.29016 14.7755 6.13146 14.7661 5.92616C14.7661 5.71146 14.7288 5.54346 14.6541 5.42216C14.5888 5.29146 14.4955 5.19346 14.3741 5.12816C14.2621 5.05346 14.1268 5.00686 13.9681 4.98816C13.8188 4.96016 13.6555 4.94616 13.4781 4.94616C13.0861 4.94616 12.7781 5.03016 12.5541 5.19816C12.3301 5.36616 12.1995 5.64616 12.1621 6.03816H10.1741ZM14.7661 7.50816C14.6821 7.58286 14.5748 7.64346 14.4441 7.69016C14.3228 7.72746 14.1875 7.76016 14.0381 7.78816C13.8981 7.81616 13.7488 7.83946 13.5901 7.85816C13.4315 7.87686 13.2728 7.90016 13.1141 7.92816C12.9648 7.95616 12.8155 7.99346 12.6661 8.04016C12.5261 8.08686 12.4001 8.15216 12.2881 8.23616C12.1855 8.31086 12.1015 8.40886 12.0361 8.53016C11.9708 8.65146 11.9381 8.80546 11.9381 8.99216C11.9381 9.16946 11.9708 9.31886 12.0361 9.44016C12.1015 9.56146 12.1901 9.65946 12.3021 9.73416C12.4141 9.79946 12.5448 9.84616 12.6941 9.87416C12.8435 9.90216 12.9975 9.91616 13.1561 9.91616C13.5481 9.91616 13.8515 9.85086 14.0661 9.72016C14.2808 9.58946 14.4395 9.43546 14.5421 9.25816C14.6448 9.07146 14.7055 8.88486 14.7241 8.69816C14.7521 8.51146 14.7661 8.36216 14.7661 8.25016V7.50816ZM18.3532 1.05416H20.3412V11.0502H18.3532V1.05416ZM26.7786 6.65416C26.6853 6.15016 26.5173 5.76746 26.2746 5.50616C26.0413 5.24486 25.6819 5.11416 25.1966 5.11416C24.8793 5.11416 24.6133 5.17016 24.3986 5.28216C24.1933 5.38486 24.0253 5.51546 23.8946 5.67416C23.7733 5.83286 23.6846 6.00086 23.6286 6.17816C23.5819 6.35546 23.5539 6.51416 23.5446 6.65416H26.7786ZM23.5446 7.91416C23.5726 8.55816 23.7359 9.02486 24.0346 9.31416C24.3333 9.60346 24.7626 9.74816 25.3226 9.74816C25.7239 9.74816 26.0693 9.65016 26.3586 9.45416C26.6479 9.24886 26.8253 9.03416 26.8906 8.81016H28.6406C28.3606 9.67816 27.9313 10.2989 27.3526 10.6722C26.7739 11.0455 26.0739 11.2322 25.2526 11.2322C24.6833 11.2322 24.1699 11.1435 23.7126 10.9662C23.2553 10.7795 22.8679 10.5182 22.5506 10.1822C22.2333 9.84616 21.9859 9.44486 21.8086 8.97816C21.6406 8.51146 21.5566 7.99816 21.5566 7.43816C21.5566 6.89686 21.6453 6.39286 21.8226 5.92616C21.9999 5.45946 22.2519 5.05816 22.5786 4.72216C22.9053 4.37686 23.2926 4.10616 23.7406 3.91016C24.1979 3.71416 24.7019 3.61616 25.2526 3.61616C25.8686 3.61616 26.4053 3.73746 26.8626 3.98016C27.3199 4.21346 27.6933 4.53086 27.9826 4.93216C28.2813 5.33346 28.4959 5.79086 28.6266 6.30416C28.7573 6.81746 28.8039 7.35416 28.7666 7.91416H23.5446Z" fill="white"/>
</svg>
