<svg width="18" height="7" viewBox="0 0 18 7" fill="none" xmlns="http://www.w3.org/2000/svg">
<path d="M2.09595 4.44174C2.09595 4.6402 2.13175 4.80837 2.20345 4.94617C2.2751 5.08397 2.36884 5.19703 2.48461 5.28521C2.60587 5.36791 2.74645 5.43128 2.90635 5.47541C3.06618 5.51398 3.23157 5.53329 3.40251 5.53329C3.51828 5.53329 3.64232 5.52502 3.77463 5.50848C3.90693 5.48645 4.03098 5.44782 4.14675 5.39271C4.26252 5.3376 4.35897 5.26318 4.43617 5.16944C4.51331 5.07021 4.55194 4.94617 4.55194 4.79732C4.55194 4.63743 4.49955 4.50789 4.39483 4.40866C4.29559 4.30943 4.16328 4.22674 3.9979 4.16058C3.83251 4.09443 3.64503 4.03654 3.43558 3.98693C3.22607 3.93731 3.01385 3.8822 2.79884 3.82154C2.57829 3.76643 2.36329 3.70028 2.15384 3.62308C1.94433 3.54038 1.75691 3.43566 1.59149 3.30884C1.42611 3.18203 1.29104 3.02491 1.1863 2.83749C1.08706 2.64452 1.03745 2.41298 1.03745 2.14287C1.03745 1.83968 1.10084 1.57777 1.22764 1.35728C1.35995 1.13123 1.53085 0.943812 1.74034 0.794964C1.94982 0.646116 2.18691 0.535839 2.45153 0.464191C2.71615 0.392543 2.98077 0.356689 3.24539 0.356689C3.55407 0.356689 3.84905 0.392543 4.13021 0.464191C4.41686 0.530346 4.67043 0.640623 4.89099 0.794964C5.11148 0.949306 5.28514 1.14777 5.41195 1.39036C5.54426 1.62739 5.61042 1.91682 5.61042 2.25864H4.35348C4.34243 2.0822 4.30386 1.93613 4.23771 1.82036C4.17705 1.70459 4.09435 1.61363 3.98963 1.54747C3.88484 1.48132 3.76358 1.43448 3.62578 1.40689C3.49347 1.37931 3.34734 1.36555 3.1875 1.36555C3.08272 1.36555 2.97799 1.37659 2.87327 1.39863C2.76848 1.42066 2.67203 1.45929 2.58384 1.5144C2.50115 1.56951 2.43222 1.63844 2.37711 1.72113C2.32194 1.80382 2.29442 1.90855 2.29442 2.03536C2.29442 2.15113 2.31645 2.24487 2.36057 2.31652C2.40463 2.38817 2.4901 2.45432 2.61692 2.51499C2.74923 2.57565 2.92838 2.63625 3.15443 2.69691C3.38597 2.75757 3.68638 2.83471 4.05578 2.92845C4.166 2.95048 4.31763 2.99183 4.5106 3.05249C4.70906 3.1076 4.90475 3.19856 5.09772 3.32538C5.29063 3.4522 5.45602 3.62308 5.59388 3.83808C5.73718 4.04759 5.80888 4.3177 5.80888 4.64847C5.80888 4.91859 5.75649 5.16944 5.65176 5.40098C5.54698 5.63252 5.38986 5.83376 5.18041 6.00464C4.9764 6.17003 4.72005 6.29956 4.41136 6.3933C4.10812 6.48704 3.75531 6.53388 3.35289 6.53388C3.02761 6.53388 2.7106 6.49253 2.40192 6.40984C2.09867 6.33264 1.82856 6.2086 1.59149 6.03772C1.35995 5.86684 1.17527 5.64906 1.03745 5.38444C0.899626 5.11983 0.833472 4.80559 0.838983 4.44174H2.09595ZM6.40764 3.44115C6.42418 3.16549 6.49311 2.93672 6.61437 2.7548C6.7357 2.57287 6.89004 2.4268 7.07746 2.31652C7.26493 2.20624 7.47438 2.1291 7.70593 2.08498C7.94302 2.03536 8.18005 2.01056 8.41709 2.01056C8.63209 2.01056 8.84987 2.02709 9.07037 2.06017C9.29092 2.08776 9.4921 2.14564 9.67403 2.23383C9.85595 2.32201 10.0048 2.44605 10.1206 2.60595C10.2363 2.76029 10.2942 2.96702 10.2942 3.22615V5.4506C10.2942 5.64357 10.3053 5.82821 10.3273 6.00464C10.3494 6.18108 10.388 6.31339 10.4431 6.40157H9.25229C9.23026 6.33542 9.21095 6.26926 9.19441 6.20311C9.18342 6.13146 9.17515 6.05975 9.1696 5.9881C8.98218 6.18108 8.76168 6.3161 8.50805 6.3933C8.25448 6.4705 7.99535 6.50907 7.73073 6.50907C7.52678 6.50907 7.33658 6.48427 7.16015 6.43465C6.98378 6.38503 6.82938 6.30783 6.69707 6.20311C6.56476 6.09838 6.46003 5.96607 6.38283 5.80618C6.31118 5.64629 6.27533 5.45609 6.27533 5.2356C6.27533 4.99301 6.31668 4.79455 6.39937 4.6402C6.48762 4.48031 6.59784 4.35355 6.73014 4.25982C6.86801 4.16608 7.02235 4.0972 7.19323 4.05308C7.36966 4.00347 7.54609 3.96489 7.72246 3.93731C7.8989 3.90973 8.07255 3.88769 8.24343 3.87116C8.41437 3.85462 8.56594 3.82981 8.69825 3.79673C8.83056 3.76365 8.93534 3.71681 9.01248 3.65615C9.08968 3.59 9.12554 3.49626 9.11998 3.375C9.11998 3.24818 9.09795 3.14895 9.05383 3.0773C9.01526 3.0001 8.96015 2.94221 8.88844 2.90364C8.82229 2.85952 8.74237 2.832 8.64863 2.82095C8.56044 2.80441 8.46399 2.79614 8.3592 2.79614C8.12766 2.79614 7.94574 2.84576 7.81343 2.94499C7.68112 3.04422 7.60398 3.20961 7.58189 3.44115H6.40764ZM9.11998 4.30943C9.07037 4.35355 9.00699 4.38935 8.92979 4.41693C8.85814 4.43896 8.77822 4.45828 8.68998 4.47482C8.60728 4.49136 8.5191 4.50512 8.42536 4.51616C8.33168 4.52721 8.23794 4.54097 8.1442 4.55751C8.05601 4.57405 7.96783 4.59608 7.87958 4.62367C7.79689 4.65125 7.72247 4.68982 7.65631 4.73944C7.59571 4.78356 7.54609 4.84144 7.50746 4.91309C7.46889 4.98474 7.44958 5.0757 7.44958 5.18598C7.44958 5.29071 7.46889 5.37895 7.50746 5.4506C7.54609 5.52225 7.59842 5.58013 7.66458 5.62425C7.73073 5.66283 7.80793 5.69041 7.89612 5.70695C7.98437 5.72349 8.07533 5.73176 8.16901 5.73176C8.40055 5.73176 8.57976 5.69319 8.70652 5.61599C8.83333 5.53879 8.92707 5.44782 8.98767 5.3431C9.04833 5.23282 9.08419 5.1226 9.09517 5.01232C9.11171 4.90205 9.11998 4.81386 9.11998 4.74771V4.30943ZM11.2388 0.497268H12.413V6.40157H11.2388V0.497268ZM16.2154 3.805C16.1603 3.50731 16.061 3.28126 15.9177 3.12692C15.7799 2.97258 15.5676 2.89538 15.2809 2.89538C15.0935 2.89538 14.9364 2.92845 14.8096 2.99461C14.6883 3.05527 14.5891 3.13241 14.5119 3.22615C14.4402 3.31989 14.3878 3.41912 14.3548 3.52384C14.3272 3.62857 14.3106 3.72231 14.3052 3.805H16.2154ZM14.3052 4.54924C14.3217 4.92963 14.4181 5.2053 14.5946 5.37617C14.771 5.54705 15.0246 5.63252 15.3554 5.63252C15.5924 5.63252 15.7964 5.57464 15.9673 5.45887C16.1382 5.3376 16.2429 5.21079 16.2815 5.07848H17.3152C17.1498 5.59118 16.8962 5.9578 16.5544 6.1783C16.2126 6.3988 15.7991 6.50907 15.314 6.50907C14.9777 6.50907 14.6745 6.45668 14.4044 6.35196C14.1343 6.24168 13.9054 6.08734 13.718 5.88887C13.5306 5.69041 13.3845 5.45337 13.2798 5.17771C13.1805 4.90205 13.1309 4.59886 13.1309 4.26808C13.1309 3.94836 13.1833 3.65066 13.288 3.375C13.3927 3.09933 13.5416 2.8623 13.7346 2.66383C13.9275 2.45988 14.1563 2.29998 14.4209 2.18421C14.691 2.06844 14.9887 2.01056 15.314 2.01056C15.6779 2.01056 15.9949 2.0822 16.265 2.22556C16.5351 2.36336 16.7556 2.55084 16.9265 2.78787C17.103 3.02491 17.2297 3.29508 17.3069 3.59827C17.3841 3.90146 17.4116 4.21847 17.3896 4.54924H14.3052Z" fill="white"/>
</svg>
