<svg width="17" height="17" viewBox="0 0 17 17" fill="none" xmlns="http://www.w3.org/2000/svg">
<path d="M4.50001 16.2135H1.16667V8.88021H4.50001M4.50001 16.2135H12.784C13.2614 16.213 13.7229 16.0418 14.085 15.7308C14.4472 15.4197 14.6861 14.9894 14.7587 14.5175L15.4767 9.85088C15.5205 9.56589 15.5022 9.27479 15.423 8.99754C15.3438 8.72029 15.2056 8.46344 15.0178 8.24461C14.8301 8.02577 14.5972 7.85011 14.3353 7.72968C14.0733 7.60925 13.7883 7.54689 13.5 7.54688H8.50001V3.54688C8.50001 3.01644 8.28929 2.50773 7.91422 2.13266C7.53915 1.75759 7.03044 1.54688 6.50001 1.54688L4.50001 8.88021M4.50001 16.2135V8.88021" stroke="#2F3337" stroke-width="1.33333" stroke-miterlimit="10" stroke-linecap="round" stroke-linejoin="round"/>
</svg>
