<svg width="29" height="11" viewBox="0 0 29 11" fill="none" xmlns="http://www.w3.org/2000/svg">
<path d="M2.87441 7.43211C2.87441 7.76811 2.93501 8.05281 3.05641 8.28611C3.17771 8.51941 3.33641 8.71081 3.53241 8.86011C3.73771 9.00011 3.97571 9.10741 4.24641 9.18211C4.51701 9.24741 4.79701 9.28011 5.08641 9.28011C5.28241 9.28011 5.49241 9.26611 5.71641 9.23811C5.94041 9.20081 6.15041 9.13541 6.34641 9.04211C6.54241 8.94881 6.70571 8.82281 6.83641 8.66411C6.96701 8.49611 7.03241 8.28611 7.03241 8.03411C7.03241 7.76341 6.94371 7.54411 6.76641 7.37611C6.59841 7.20811 6.37441 7.06811 6.09441 6.95611C5.81441 6.84411 5.49701 6.74611 5.14241 6.66211C4.78771 6.57811 4.42841 6.48481 4.06441 6.38211C3.69101 6.28881 3.32701 6.17681 2.97241 6.04611C2.61771 5.90611 2.30041 5.72881 2.02036 5.51411C1.74036 5.29941 1.51169 5.03341 1.33436 4.71611C1.16636 4.38941 1.08236 3.99741 1.08236 3.54011C1.08236 3.02681 1.18969 2.58341 1.40436 2.21011C1.62836 1.82741 1.91769 1.51011 2.27236 1.25811C2.62701 1.00611 3.02841 0.819413 3.47641 0.698113C3.92441 0.576813 4.37241 0.516113 4.82041 0.516113C5.34301 0.516113 5.84241 0.576813 6.31841 0.698113C6.80371 0.810113 7.23301 0.996814 7.60641 1.25811C7.97971 1.51941 8.27371 1.85541 8.48841 2.26611C8.71241 2.66741 8.82441 3.15741 8.82441 3.73611H6.69641C6.67771 3.43741 6.61241 3.19011 6.50041 2.99411C6.39771 2.79811 6.25771 2.64411 6.08041 2.53211C5.90301 2.42011 5.69771 2.34081 5.46441 2.29411C5.24041 2.24741 4.99301 2.22411 4.72241 2.22411C4.54501 2.22411 4.36771 2.24281 4.19041 2.28011C4.01301 2.31741 3.84971 2.38281 3.70041 2.47611C3.56041 2.56941 3.44371 2.68611 3.35041 2.82611C3.25701 2.96611 3.21041 3.14341 3.21041 3.35811C3.21041 3.55411 3.24771 3.71281 3.32241 3.83411C3.39701 3.95541 3.54171 4.06741 3.75641 4.17011C3.98041 4.27281 4.28371 4.37541 4.66641 4.47811C5.05841 4.58081 5.56701 4.71141 6.19241 4.87011C6.37901 4.90741 6.63571 4.97741 6.96241 5.08011C7.29841 5.17341 7.62971 5.32741 7.95641 5.54211C8.28301 5.75681 8.56301 6.04611 8.79641 6.41011C9.03901 6.76481 9.16041 7.22211 9.16041 7.78211C9.16041 8.23941 9.07171 8.66411 8.89441 9.05611C8.71701 9.44811 8.45101 9.78881 8.09641 10.0781C7.75101 10.3581 7.31701 10.5774 6.79441 10.7361C6.28101 10.8948 5.68371 10.9741 5.00241 10.9741C4.45171 10.9741 3.91501 10.9041 3.39241 10.7641C2.87901 10.6334 2.42171 10.4234 2.02036 10.1341C1.62836 9.84481 1.31569 9.47611 1.08236 9.02811C0.849027 8.58011 0.737027 8.04811 0.746357 7.43211H2.87441ZM10.1741 5.73811C10.2021 5.27141 10.3188 4.88411 10.5241 4.57611C10.7295 4.26811 10.9908 4.02081 11.3081 3.83411C11.6255 3.64741 11.9801 3.51681 12.3721 3.44211C12.7735 3.35811 13.1748 3.31611 13.5761 3.31611C13.9401 3.31611 14.3088 3.34411 14.6821 3.40011C15.0555 3.44681 15.3961 3.54481 15.7041 3.69411C16.0121 3.84341 16.2641 4.05341 16.4601 4.32411C16.6561 4.58541 16.7541 4.93541 16.7541 5.37411V9.14011C16.7541 9.46681 16.7728 9.77941 16.8101 10.0781C16.8475 10.3768 16.9128 10.6008 17.0061 10.7501H14.9901C14.9528 10.6381 14.9201 10.5261 14.8921 10.4141C14.8735 10.2928 14.8595 10.1714 14.8501 10.0501C14.5328 10.3768 14.1595 10.6054 13.7301 10.7361C13.3008 10.8668 12.8621 10.9321 12.4141 10.9321C12.0688 10.9321 11.7468 10.8901 11.4481 10.8061C11.1495 10.7221 10.8881 10.5914 10.6641 10.4141C10.4401 10.2368 10.2628 10.0128 10.1321 9.74211C10.0108 9.47141 9.95011 9.14941 9.95011 8.77611C9.95011 8.36541 10.0201 8.02941 10.1601 7.76811C10.3095 7.49741 10.4961 7.28281 10.7201 7.12411C10.9535 6.96541 11.2148 6.84881 11.5041 6.77411C11.8028 6.69011 12.1015 6.62481 12.4001 6.57811C12.6988 6.53141 12.9928 6.49411 13.2821 6.46611C13.5715 6.43811 13.8281 6.39611 14.0521 6.34011C14.2761 6.28411 14.4535 6.20481 14.5841 6.10211C14.7148 5.99011 14.7755 5.83141 14.7661 5.62611C14.7661 5.41141 14.7288 5.24341 14.6541 5.12211C14.5888 4.99141 14.4955 4.89341 14.3741 4.82811C14.2621 4.75341 14.1268 4.70681 13.9681 4.68811C13.8188 4.66011 13.6555 4.64611 13.4781 4.64611C13.0861 4.64611 12.7781 4.73011 12.5541 4.89811C12.3301 5.06611 12.1995 5.34611 12.1621 5.73811H10.1741ZM14.7661 7.20811C14.6821 7.28281 14.5748 7.34341 14.4441 7.39011C14.3228 7.42741 14.1875 7.46011 14.0381 7.48811C13.8981 7.51611 13.7488 7.53941 13.5901 7.55811C13.4315 7.57681 13.2728 7.60011 13.1141 7.62811C12.9648 7.65611 12.8155 7.69341 12.6661 7.74011C12.5261 7.78681 12.4001 7.85211 12.2881 7.93611C12.1855 8.01081 12.1015 8.10881 12.0361 8.23011C11.9708 8.35141 11.9381 8.50541 11.9381 8.69211C11.9381 8.86941 11.9708 9.01881 12.0361 9.14011C12.1015 9.26141 12.1901 9.35941 12.3021 9.43411C12.4141 9.49941 12.5448 9.54611 12.6941 9.57411C12.8435 9.60211 12.9975 9.61611 13.1561 9.61611C13.5481 9.61611 13.8515 9.55081 14.0661 9.42011C14.2808 9.28941 14.4395 9.13541 14.5421 8.95811C14.6448 8.77141 14.7055 8.58481 14.7241 8.39811C14.7521 8.21141 14.7661 8.06211 14.7661 7.95011V7.20811ZM18.3532 0.754113H20.3412V10.7501H18.3532V0.754113ZM26.7786 6.35411C26.6853 5.85011 26.5173 5.46741 26.2746 5.20611C26.0413 4.94481 25.6819 4.81411 25.1966 4.81411C24.8793 4.81411 24.6133 4.87011 24.3986 4.98211C24.1933 5.08481 24.0253 5.21541 23.8946 5.37411C23.7733 5.53281 23.6846 5.70081 23.6286 5.87811C23.5819 6.05541 23.5539 6.21411 23.5446 6.35411H26.7786ZM23.5446 7.61411C23.5726 8.25811 23.7359 8.72481 24.0346 9.01411C24.3333 9.30341 24.7626 9.44811 25.3226 9.44811C25.7239 9.44811 26.0693 9.35011 26.3586 9.15411C26.6479 8.94881 26.8253 8.73411 26.8906 8.51011H28.6406C28.3606 9.37811 27.9313 9.99881 27.3526 10.3721C26.7739 10.7454 26.0739 10.9321 25.2526 10.9321C24.6833 10.9321 24.1699 10.8434 23.7126 10.6661C23.2553 10.4794 22.8679 10.2181 22.5506 9.88211C22.2333 9.54611 21.9859 9.14481 21.8086 8.67811C21.6406 8.21141 21.5566 7.69811 21.5566 7.13811C21.5566 6.59681 21.6453 6.09281 21.8226 5.62611C21.9999 5.15941 22.2519 4.75811 22.5786 4.42211C22.9053 4.07681 23.2926 3.80611 23.7406 3.61011C24.1979 3.41411 24.7019 3.31611 25.2526 3.31611C25.8686 3.31611 26.4053 3.43741 26.8626 3.68011C27.3199 3.91341 27.6933 4.23081 27.9826 4.63211C28.2813 5.03341 28.4959 5.49081 28.6266 6.00411C28.7573 6.51741 28.8039 7.05411 28.7666 7.61411H23.5446Z" fill="white"/>
</svg>
