<svg width="16" height="17" viewBox="0 0 16 17" fill="none" xmlns="http://www.w3.org/2000/svg">
<path d="M14.0946 0.480469H1.90718C1.40209 0.480469 0.917658 0.681044 0.560399 1.0381C0.20314 1.39515 0.00229036 1.87945 0.0019989 2.38454V14.5742C0.00229036 15.0793 0.20314 15.5636 0.560399 15.9206C0.917658 16.2777 1.40209 16.4783 1.90718 16.4783H8.76385V10.8902H7.23795V8.98617H8.76165V7.84283C8.76165 6.31913 9.5235 5.17581 11.0472 5.17581C11.5837 5.12415 12.1216 5.25843 12.5709 5.55617V7.07988H11.8091C10.9933 7.07988 10.6657 7.27008 10.6657 7.84174V8.98506H12.5709L12.1894 10.8892H10.6657V16.4783H14.0946C14.5997 16.4783 15.0841 16.2777 15.4414 15.9206C15.7987 15.5636 15.9995 15.0793 15.9998 14.5742V2.38454C15.9995 1.87945 15.7987 1.39515 15.4414 1.0381C15.0841 0.681044 14.5997 0.480469 14.0946 0.480469Z" fill="white"/>
</svg>
