<svg width="23" height="8" viewBox="0 0 23 8" fill="none" xmlns="http://www.w3.org/2000/svg">
<path d="M2.33655 5.30841C2.33655 5.56377 2.3826 5.78014 2.47487 5.95745C2.56705 6.13475 2.68767 6.28022 2.83663 6.39369C2.99265 6.50009 3.17353 6.58163 3.37927 6.63841C3.58492 6.68803 3.79772 6.71289 4.01767 6.71289C4.16663 6.71289 4.32623 6.70225 4.49647 6.68097C4.66671 6.65262 4.82631 6.60291 4.97527 6.53201C5.12423 6.4611 5.24833 6.36534 5.34767 6.24473C5.44692 6.11705 5.49663 5.95745 5.49663 5.76593C5.49663 5.56019 5.42921 5.39353 5.29447 5.26585C5.16679 5.13817 4.99655 5.03177 4.78375 4.94665C4.57095 4.86153 4.32972 4.78705 4.06023 4.72321C3.79065 4.65937 3.51759 4.58846 3.24095 4.51041C2.95716 4.4395 2.68052 4.35438 2.41103 4.25505C2.14145 4.14865 1.90031 4.0139 1.68747 3.85073C1.47467 3.68755 1.30088 3.48539 1.16611 3.24425C1.03843 2.99595 0.974587 2.69803 0.974587 2.35049C0.974587 1.96038 1.05616 1.62339 1.21931 1.33969C1.38955 1.04883 1.60944 0.807687 1.87899 0.616167C2.14852 0.424647 2.45359 0.282754 2.79407 0.190566C3.13455 0.0983782 3.47503 0.0522461 3.81551 0.0522461C4.21268 0.0522461 4.59223 0.0983782 4.95399 0.190566C5.32281 0.275686 5.64908 0.417579 5.93287 0.616167C6.21657 0.814755 6.44001 1.07011 6.60319 1.38225C6.77343 1.68723 6.85855 2.05963 6.85855 2.49945H5.24127C5.22705 2.27243 5.17743 2.08449 5.09231 1.93553C5.01425 1.78657 4.90785 1.66953 4.77311 1.58441C4.63828 1.49929 4.48225 1.43902 4.30495 1.40353C4.13471 1.36803 3.94668 1.35033 3.74103 1.35033C3.6062 1.35033 3.47145 1.36454 3.33671 1.39289C3.20188 1.42123 3.07777 1.47094 2.96431 1.54185C2.85791 1.61275 2.76921 1.70145 2.69831 1.80785C2.62732 1.91425 2.59191 2.04899 2.59191 2.21217C2.59191 2.36113 2.62025 2.48174 2.67703 2.57393C2.73372 2.66611 2.84369 2.75123 3.00687 2.82929C3.17711 2.90734 3.40761 2.98531 3.69847 3.06337C3.99639 3.14142 4.38292 3.24067 4.85823 3.36129C5.00004 3.38963 5.19513 3.44283 5.44343 3.52089C5.69879 3.59179 5.95057 3.70883 6.19886 3.87201C6.44708 4.03518 6.65988 4.25505 6.83727 4.53169C7.02164 4.80126 7.1139 5.14881 7.1139 5.57441C7.1139 5.92195 7.04649 6.24473 6.91175 6.54265C6.77692 6.84057 6.57476 7.0995 6.30527 7.31937C6.04276 7.53217 5.71292 7.69883 5.31575 7.81945C4.92556 7.94006 4.47161 8.00033 3.95383 8.00033C3.53529 8.00033 3.1274 7.94713 2.73023 7.84073C2.34004 7.74139 1.99249 7.58179 1.68747 7.36193C1.38955 7.14206 1.15192 6.86185 0.974587 6.52137C0.797256 6.18089 0.712137 5.77657 0.719228 5.30841H2.33655ZM7.88432 4.02097C7.9056 3.66627 7.99429 3.37193 8.15032 3.13785C8.30642 2.90377 8.50501 2.71582 8.74616 2.57393C8.98738 2.43203 9.25688 2.33278 9.5548 2.27601C9.85986 2.21217 10.1648 2.18025 10.4698 2.18025C10.7465 2.18025 11.0267 2.20153 11.3104 2.24409C11.5942 2.27958 11.853 2.35406 12.0871 2.46753C12.3212 2.58099 12.5127 2.74059 12.6617 2.94633C12.8106 3.14491 12.8851 3.41091 12.8851 3.74433V6.60649C12.8851 6.85478 12.8993 7.09235 12.9277 7.31937C12.9561 7.54638 13.0057 7.71662 13.0766 7.83009H11.5445C11.5161 7.74497 11.4913 7.65985 11.47 7.57473C11.4559 7.48254 11.4452 7.39027 11.4381 7.29809C11.1969 7.54638 10.9132 7.72011 10.5869 7.81945C10.2606 7.91878 9.9272 7.96841 9.58672 7.96841C9.32429 7.96841 9.07957 7.93649 8.85256 7.87265C8.62562 7.80881 8.42696 7.70947 8.25672 7.57473C8.08648 7.43998 7.95173 7.26974 7.8524 7.06401C7.76021 6.85827 7.71408 6.61355 7.71408 6.32985C7.71408 6.01771 7.76728 5.76235 7.87368 5.56377C7.98722 5.35803 8.12904 5.19494 8.29928 5.07433C8.47666 4.95371 8.67525 4.8651 8.89512 4.80833C9.12213 4.74449 9.34914 4.69486 9.57608 4.65937C9.80309 4.62387 10.0265 4.59553 10.2464 4.57425C10.4663 4.55297 10.6614 4.52105 10.8316 4.47849C11.0018 4.43593 11.1367 4.37566 11.2359 4.29761C11.3352 4.21249 11.3814 4.09187 11.3742 3.93585C11.3742 3.77267 11.3459 3.64499 11.2891 3.55281C11.2395 3.45347 11.1686 3.37899 11.0763 3.32937C10.9912 3.27259 10.8884 3.23718 10.7678 3.22297C10.6543 3.20169 10.5302 3.19105 10.3954 3.19105C10.0974 3.19105 9.86336 3.25489 9.69312 3.38257C9.52288 3.51025 9.42362 3.72305 9.3952 4.02097H7.88432ZM11.3742 5.13817C11.3104 5.19494 11.2288 5.24099 11.1295 5.27649C11.0373 5.30483 10.9345 5.32969 10.821 5.35097C10.7146 5.37225 10.6011 5.38995 10.4805 5.40417C10.3599 5.41838 10.2393 5.43609 10.1187 5.45737C10.0052 5.47865 9.89178 5.50699 9.77824 5.54249C9.67184 5.57798 9.57608 5.62761 9.49096 5.69145C9.41298 5.74822 9.34914 5.8227 9.29944 5.91489C9.24981 6.00707 9.22496 6.12411 9.22496 6.26601C9.22496 6.40075 9.24981 6.5143 9.29944 6.60649C9.34914 6.69867 9.41648 6.77315 9.5016 6.82993C9.58672 6.87955 9.68605 6.91505 9.79952 6.93633C9.91306 6.95761 10.0301 6.96825 10.1506 6.96825C10.4486 6.96825 10.6791 6.91862 10.8422 6.81929C11.0054 6.71995 11.126 6.60291 11.204 6.46817C11.282 6.32627 11.3282 6.18446 11.3423 6.04257C11.3636 5.90067 11.3742 5.78721 11.3742 5.70209V5.13817ZM14.1004 0.233126H15.6113V7.83009H14.1004V0.233126ZM20.5037 4.48913C20.4328 4.10609 20.3052 3.81523 20.1207 3.61665C19.9434 3.41806 19.6702 3.31873 19.3014 3.31873C19.0603 3.31873 18.8581 3.36129 18.6949 3.44641C18.5389 3.52446 18.4112 3.62371 18.3119 3.74433C18.2197 3.86494 18.1523 3.99262 18.1097 4.12737C18.0742 4.26211 18.053 4.38273 18.0459 4.48913H20.5037ZM18.0459 5.44673C18.0672 5.93617 18.1913 6.29086 18.4183 6.51073C18.6453 6.73059 18.9716 6.84057 19.3972 6.84057C19.7022 6.84057 19.9647 6.76609 20.1845 6.61713C20.4044 6.4611 20.5392 6.29793 20.5889 6.12769H21.9189C21.7061 6.78737 21.3798 7.2591 20.94 7.54281C20.5002 7.82651 19.9682 7.96841 19.344 7.96841C18.9113 7.96841 18.5211 7.90099 18.1736 7.76625C17.826 7.62435 17.5316 7.42577 17.2905 7.17041C17.0493 6.91505 16.8613 6.61006 16.7265 6.25537C16.5989 5.90067 16.535 5.51057 16.535 5.08497C16.535 4.67358 16.6024 4.29054 16.7372 3.93585C16.8719 3.58115 17.0634 3.27617 17.3117 3.02081C17.56 2.75838 17.8544 2.55265 18.1949 2.40369C18.5424 2.25473 18.9254 2.18025 19.344 2.18025C19.8121 2.18025 20.22 2.27243 20.5676 2.45689C20.9151 2.63419 21.1989 2.87542 21.4188 3.18041C21.6458 3.48539 21.8089 3.83302 21.9082 4.22313C22.0075 4.61323 22.043 5.02113 22.0146 5.44673H18.0459Z" fill="white"/>
</svg>
