<svg width="26" height="22" viewBox="0 0 26 22" fill="none" xmlns="http://www.w3.org/2000/svg">
<path d="M25.49 3.25911C24.5525 3.67578 23.615 3.98828 22.5733 4.09245C23.615 3.46745 24.4483 2.42578 24.865 1.27995C23.8233 1.90495 22.7817 2.32161 21.6358 2.52995C20.6983 1.48828 19.3442 0.863281 17.8858 0.863281C15.0733 0.863281 12.7817 3.15495 12.7817 5.96745C12.7817 6.38411 12.7817 6.80078 12.8858 7.11328C8.51084 6.90495 4.76084 4.82161 2.26084 1.69661C1.74001 2.52995 1.53167 3.36328 1.53167 4.30078C1.53167 6.07161 2.46917 7.63411 3.82334 8.57161C2.99001 8.57161 2.15667 8.36328 1.53167 7.94661V8.05078C1.53167 10.5508 3.30251 12.6341 5.59417 13.0508C5.17751 13.1549 4.76084 13.2591 4.24001 13.2591C3.92751 13.2591 3.61501 13.2591 3.30251 13.1549C3.92751 15.2383 5.80251 16.6966 8.09417 16.6966C6.32334 18.0508 4.13584 18.8841 1.74001 18.8841C1.32334 18.8841 0.906672 18.8841 0.490005 18.7799C2.78167 20.2383 5.49001 21.0716 8.30251 21.0716C17.7817 21.0716 22.8858 13.2591 22.8858 6.48828V5.86328C23.9275 5.13411 24.7608 4.19661 25.49 3.25911Z" fill="white"/>
</svg>
