<svg width="15" height="15" viewBox="0 0 15 15" fill="none" xmlns="http://www.w3.org/2000/svg">
<path fill-rule="evenodd" clip-rule="evenodd" d="M1.60667 7.25C1.60667 4.02825 4.21825 1.41667 7.44 1.41667C10.6618 1.41667 13.2733 4.02825 13.2733 7.25C13.2733 10.4717 10.6618 13.0833 7.44 13.0833C4.21825 13.0833 1.60667 10.4717 1.60667 7.25ZM7.44 0.25C3.57425 0.25 0.440002 3.38425 0.440002 7.25C0.440002 11.1157 3.57425 14.25 7.44 14.25C11.3058 14.25 14.44 11.1157 14.44 7.25C14.44 3.38425 11.3058 0.25 7.44 0.25ZM7.44 4.91667C7.59471 4.91667 7.74308 4.85521 7.85248 4.74581C7.96188 4.63642 8.02334 4.48804 8.02334 4.33333C8.02334 4.17862 7.96188 4.03025 7.85248 3.92085C7.74308 3.81146 7.59471 3.75 7.44 3.75C7.28529 3.75 7.13692 3.81146 7.02752 3.92085C6.91813 4.03025 6.85667 4.17862 6.85667 4.33333C6.85667 4.48804 6.91813 4.63642 7.02752 4.74581C7.13692 4.85521 7.28529 4.91667 7.44 4.91667ZM6.85667 10.75H5.69V9.58333H6.85667V7.25H5.69V6.08333H8.02334V9.58333H9.19V10.75H6.85667Z" fill="#2F3337"/>
</svg>
