<svg width="24" height="24" viewBox="0 0 24 24" fill="none" xmlns="http://www.w3.org/2000/svg">
  <path d="M12 2C13.1 2 14 2.9 14 4C14 5.1 13.1 6 12 6C10.9 6 10 5.1 10 4C10 2.9 10.9 2 12 2ZM21 11H23C23.6 11 24 11.4 24 12C24 12.6 23.6 13 23 13H21C20.4 13 20 12.6 20 12C20 11.4 20.4 11 21 11ZM1 11H3C3.6 11 4 11.4 4 12C4 12.6 3.6 13 3 13H1C0.4 13 0 12.6 0 12C0 11.4 0.4 11 1 11ZM13 1V3C13 3.6 12.6 4 12 4C11.4 4 11 3.6 11 3V1C11 0.4 11.4 0 12 0C12.6 0 13 0.4 13 1ZM13 21V23C13 23.6 12.6 24 12 24C11.4 24 11 23.6 11 23V21C11 20.4 11.4 20 12 20C12.6 20 13 20.4 13 21ZM4.9 4.9C5.3 4.5 5.9 4.5 6.3 4.9L7.7 6.3C8.1 6.7 8.1 7.3 7.7 7.7C7.3 8.1 6.7 8.1 6.3 7.7L4.9 6.3C4.5 5.9 4.5 5.3 4.9 4.9ZM16.3 16.3C16.7 15.9 17.3 15.9 17.7 16.3L19.1 17.7C19.5 18.1 19.5 18.7 19.1 19.1C18.7 19.5 18.1 19.5 17.7 19.1L16.3 17.7C15.9 17.3 15.9 16.7 16.3 16.3ZM19.1 4.9C19.5 5.3 19.5 5.9 19.1 6.3L17.7 7.7C17.3 8.1 16.7 8.1 16.3 7.7C15.9 7.3 15.9 6.7 16.3 6.3L17.7 4.9C18.1 4.5 18.7 4.5 19.1 4.9ZM7.7 16.3C8.1 16.7 8.1 17.3 7.7 17.7L6.3 19.1C5.9 19.5 5.3 19.5 4.9 19.1C4.5 18.7 4.5 18.1 4.9 17.7L6.3 16.3C6.7 15.9 7.3 15.9 7.7 16.3Z" fill="#D5322A"/>
  <path d="M6 12C6 8.7 8.7 6 12 6C15.3 6 18 8.7 18 12H20C20 7.6 16.4 4 12 4C7.6 4 4 7.6 4 12C1.8 12 0 13.8 0 16C0 18.2 1.8 20 4 20H18C20.2 20 22 18.2 22 16C22 13.8 20.2 12 18 12H6Z" fill="#D5322A" fill-opacity="0.7"/>
</svg>
